<svg xmlns="http://www.w3.org/2000/svg" viewBox="0 0 117.56 128.83"><defs><style>.cls-1{fill:#ed6666;}.cls-2,.cls-3,.cls-5{fill:#fff;}.cls-3,.cls-4,.cls-5,.cls-7{stroke:#112349;}.cls-3,.cls-4,.cls-7{stroke-linecap:round;stroke-linejoin:round;}.cls-3{stroke-width:1.23px;}.cls-4,.cls-7{fill:none;}.cls-4{stroke-width:1.44px;}.cls-5{stroke-miterlimit:10;stroke-width:1.39px;}.cls-6{font-size:20.3px;fill:#112349;font-family:Helvetica-CondensedBold, Helvetica-Condensed;font-weight:700;letter-spacing:0em;}.cls-7{stroke-width:1.56px;}</style></defs><title>Recurso 12</title><g id="Capa_2" data-name="Capa 2"><g id="Prod._Multimedial" data-name="Prod. Multimedial"><ellipse class="cls-1" cx="58.14" cy="57.02" rx="55.92" ry="56.47"/><path class="cls-2" d="M86,42.09a6.64,6.64,0,0,1-1-4c-2.45-1-4.56-2.72-7.28-3.29A64.34,64.34,0,0,0,65.51,33.5,39.7,39.7,0,0,0,53,35a68.74,68.74,0,0,1-8.63,2.12V52.66a3.79,3.79,0,0,1,1.2,2.76c.22,6.52,2.77,11.4,7.22,16,2.15,2.19,3.68,4.65,6.41,6.19s5.59,2.27,8.29,3.5a4.38,4.38,0,0,1,.43.24c1.64-.94,3.48-1.81,5.2-2.78.3-.33.6-.66.91-1a12.72,12.72,0,0,1,2.4-1.92c.92-1.5,2.15-2.91,3.07-4.34a4.39,4.39,0,0,1,1-1.07c1-2.69,2.42-5.33,3.36-7.92.49-1.36,1-2.82,1.37-4.3,0-2.11-.22-4.21-.24-6.32A3.88,3.88,0,0,1,86,49Z"/><path class="cls-2" d="M69.06,64.41c-.06-1.45-.17-3-.37-4.5-.86-1.92-1.82-3.8-2.64-5.74a3.93,3.93,0,0,1,0-2.88l-2.65-6.4a6.7,6.7,0,0,1-2.48-3.31c-2.65,0-5.24-.77-8-.25a64.49,64.49,0,0,0-11.78,3.48,40.22,40.22,0,0,0-11,6.2A65.66,65.66,0,0,1,23,56.27L28.93,70.6a3.81,3.81,0,0,1,2.16,2.1,22.43,22.43,0,0,0,3.44,5.44l.25.16A42.32,42.32,0,0,0,49,84.85c1.75.43,4.8,1.59,6.67,1.08,1.69-.47,3-2.63,3.61-4.14a4.24,4.24,0,0,1,1.07-1.56,3.89,3.89,0,0,1,6.81-.33c.07-.11.14-.23.22-.34.27-1.74.87-3.51,1.17-5.19A4.15,4.15,0,0,1,69,73C68.84,70.16,69.19,67.16,69.06,64.41Z"/><polygon class="cls-3" points="89.29 70.65 90.72 73.56 93.93 74.03 91.61 76.29 92.16 79.48 89.29 77.97 86.42 79.48 86.97 76.29 84.64 74.03 87.85 73.56 89.29 70.65"/><circle class="cls-4" cx="57.9" cy="57.15" r="56.43"/><path class="cls-4" d="M29.68,95.74A47.83,47.83,0,0,1,12.13,71"/><path class="cls-4" d="M103.8,70.57A47.85,47.85,0,0,1,91.63,91"/><path class="cls-4" d="M11.53,45.48a47.82,47.82,0,0,1,91.93-2.84"/><polygon class="cls-3" points="26.07 33.8 27.51 36.71 30.72 37.18 28.4 39.44 28.94 42.63 26.07 41.13 23.21 42.63 23.75 39.44 21.43 37.18 24.64 36.71 26.07 33.8"/><polygon class="cls-5" points="116.71 92.39 5.88 101.94 0.88 125.15 10.09 124.36 9.31 128.06 111.74 119.29 116.71 92.39"/><text class="cls-6" transform="matrix(0.99, -0.09, -0.21, 0.98, 9.06, 122.28)">ACTUACIÓN</text><path class="cls-7" d="M45.13,37.44s16.84-9,40.16,0V49.71S86.58,73.6,65.86,81.35c0,0-20.73-7.1-20.73-31.64Z"/><path class="cls-7" d="M58.61,83.05a27.07,27.07,0,0,1-3,3.18S36.14,87,28.22,66.71L24.27,56.56s5.11-6,15.37-9.82"/><path class="cls-7" d="M74.28,65.11A9.52,9.52,0,0,1,56,64.84Z"/><path class="cls-7" d="M51.32,53a6.28,6.28,0,0,1,10.3,0"/><path class="cls-7" d="M43.87,65.89a5.33,5.33,0,0,1-3.52,4,5.3,5.3,0,0,1-5.28-.61"/><path class="cls-7" d="M68.21,52.86a6.31,6.31,0,0,1,10.19,0"/></g></g></svg>