<svg xmlns="http://www.w3.org/2000/svg" viewBox="0 0 399.74 512.7"><defs><style>.cls-1,.cls-3,.cls-6,.cls-7{fill:#fff;}.cls-2{fill:#38b5e5;}.cls-3,.cls-4,.cls-5,.cls-6,.cls-7{stroke:#112349;}.cls-3,.cls-4,.cls-5,.cls-6{stroke-linecap:round;stroke-linejoin:round;}.cls-3{stroke-width:1.2px;}.cls-4,.cls-5{fill:none;}.cls-4{stroke-width:1.68px;}.cls-5{stroke-width:1.41px;}.cls-6{stroke-width:1.17px;}.cls-7{stroke-miterlimit:10;stroke-width:1.36px;}.cls-8{fill:#112349;}</style></defs><title>estetica-y-diseno_1</title><g id="Capa_2" data-name="Capa 2"><g id="Layer_1" data-name="Layer 1"><rect class="cls-1" y="0.7" width="399.74" height="512"/><ellipse class="cls-2" cx="199.97" cy="130.7" rx="130.2" ry="129.5"/><polygon class="cls-3" points="199.47 179.4 202.77 186.1 210.17 187.1 204.77 192.3 206.07 199.7 199.47 196.2 192.87 199.7 194.17 192.3 188.87 187.1 196.17 186.1 199.47 179.4"/><rect class="cls-1" x="187.09" y="48.04" width="26.8" height="163.1" transform="translate(-32.91 179.72) rotate(-45)"/><rect class="cls-4" x="185.44" y="49.33" width="28.7" height="161.7" transform="translate(-33.53 179.4) rotate(-45)"/><line class="cls-4" x1="168.27" y1="78.8" x2="162.17" y2="84.9"/><line class="cls-4" x1="184.87" y1="95.4" x2="178.77" y2="101.5"/><line class="cls-4" x1="234.57" y1="145.1" x2="228.47" y2="151.2"/><line class="cls-4" x1="251.17" y1="161.7" x2="245.07" y2="167.8"/><rect class="cls-1" x="222.63" y="76.44" width="31.4" height="34.2" transform="translate(2.53 193.27) rotate(-44.36)"/><path class="cls-1" d="M240.87,72.7l4.9-4.8a3,3,0,0,1,4.3.2l13.7,14a3,3,0,0,1,.1,4.3l-4.7,4.6"/><rect class="cls-1" x="137.26" y="128.27" width="104" height="25.8" transform="translate(-44.76 172.55) rotate(-44.36)"/><polyline class="cls-1" points="143.27 168.2 136.67 192.6 161.27 186.7"/><rect class="cls-4" x="222.24" y="75.39" width="32.4" height="33" transform="translate(4.86 195.52) rotate(-45)"/><path class="cls-4" d="M241.27,71.1l5-5a3,3,0,0,1,4.3,0l13.3,13.3a3,3,0,0,1,0,4.3l-4.8,4.8"/><line class="cls-4" x1="230.77" y1="76.3" x2="243.97" y2="89.5"/><line class="cls-4" x1="231.67" y1="94.8" x2="244.87" y2="108"/><rect class="cls-4" x="134.92" y="128.98" width="107.1" height="24.9" transform="translate(-44.81 174.69) rotate(-45)"/><line class="cls-4" x1="223.27" y1="101" x2="148.67" y2="175.6"/><line class="cls-4" x1="228.57" y1="106.3" x2="153.97" y2="180.8"/><polyline class="cls-4" points="141.87 170.5 134.77 195.1 159.47 188.1"/><line class="cls-4" x1="137.37" y1="187.1" x2="142.67" y2="192.5"/><circle class="cls-5" cx="199.17" cy="130.3" r="129.6"/><path class="cls-5" d="M134.37,218.9a110.23,110.23,0,0,1-40.3-56.8"/><path class="cls-5" d="M304.57,161.1a110.68,110.68,0,0,1-27.9,47"/><path class="cls-5" d="M92.67,103.5a109.82,109.82,0,0,1,211.1-6.6"/><polygon class="cls-6" points="198.87 48.8 202.07 55.3 209.27 56.4 204.07 61.5 205.27 68.7 198.87 65.3 192.37 68.7 193.67 61.5 188.37 56.4 195.67 55.3 198.87 48.8"/><polygon class="cls-7" points="292.77 210.1 93.37 226.3 80.97 280.1 101.47 278.4 99.67 286.6 279.27 270.4 292.77 210.1"/><path class="cls-8" d="M124.67,236.8l-1.1,5.4-11.8,1-1.6,7.7,11.1-1-1.1,5.4-11.1,1-1.9,8.8,12.3-1.1-1.1,5.4-19,1.6,6.9-32.8Z"/><path class="cls-8" d="M128.87,258.6l-.2,1c-.6,3.1-.2,5,3.3,4.7a5.35,5.35,0,0,0,4.8-4.4c.6-3-.7-4-4.8-5.1-5.5-1.5-7.7-3.7-6.6-9.2,1.3-6.4,6-10,12.3-10.5,5.9-.5,9.7,1.6,8.4,7.9l-.2.9-6.4.6c.6-3.1,0-4.8-2.6-4.6a4.84,4.84,0,0,0-4.6,4.1c-.4,2-.1,3.2,2.5,4.2l4.7,1.8c4.6,1.7,5.3,4.1,4.5,8.1-1.5,6.9-6.4,10.4-13.6,11-7.6.7-9.8-2.6-8.5-8.6l.3-1.3Z"/><path class="cls-8" d="M171.57,232.8l-1.1,5.4-7.2.6-5.8,27.4-6.7.6,5.8-27.4-7.2.6,1.1-5.4Z"/><path class="cls-8" d="M192.77,230.9l-1.1,5.4-11.8,1-1.6,7.7,11.1-1-1.1,5.4-11.1,1-1.9,8.8,12.3-1.1-1.1,5.4-19,1.6,6.9-32.8Zm-7.8-7.7,6.4-.6-5.9,7-4.4.4Z"/><path class="cls-8" d="M215.77,229l-1.1,5.4-7.2.6-5.8,27.4-6.7.6,5.8-27.4-7.2.6,1.1-5.4Z"/><path class="cls-8" d="M211.77,261.5l6.9-32.8,6.7-.6-6.9,32.8Z"/><path class="cls-8" d="M242,237.6c1-4.8.5-6.8-2.5-6.5-3.4.3-4.9,3.7-6.8,13-2.1,9.9-1.1,11.6,1.8,11.3,2.4-.2,4.4-1.6,5.9-8.7l6.7-.6c-1.5,7.1-4.5,13.3-13.3,14.1-10,.9-9.8-6.1-7.7-16.1s4.9-17.1,14.9-18c9.6-.8,8.8,6,7.8,10.8Z"/><path class="cls-8" d="M260.47,225.1l8.3-.7,1.9,32-7,.6-.1-6.8-8.8.8-3,7.1-7,.6Zm-3.4,20.4,6.5-.6-.1-14.5h-.1Z"/><polygon class="cls-7" points="318.77 260 125.97 277 116.47 333.8 300.07 318.5 301.37 311.5 309.27 310.7 318.77 260"/><path class="cls-8" d="M142.27,287.1l1.7,12.3h.1l7.3-13.1,7.2-.6-12.8,20.6-2.7,12.9-6.7.6,2.7-12.9-4.4-19.1Z"/><path class="cls-8" d="M172.07,284.5l11-.9c9.3-.8,9.6,5.3,7.6,15-2.5,11.6-6.1,17.1-14.9,17.8l-10.5.9Zm.8,27.4,3-.3c4.6-.4,6.2-3.4,8.1-12.3,1.6-7.4,1.8-11.2-3.3-10.8l-2.8.2Z"/><path class="cls-8" d="M191.57,315l6.9-32.8,6.7-.6-6.9,32.8Z"/><path class="cls-8" d="M210.57,303.3l-.2,1c-.6,3.1-.2,5,3.3,4.7a5.35,5.35,0,0,0,4.8-4.4c.6-3-.7-4-4.8-5.1-5.5-1.5-7.7-3.7-6.6-9.2,1.3-6.4,6-10,12.3-10.5,5.9-.5,9.7,1.6,8.4,7.9l-.2.9-6.4.6c.6-3.1,0-4.8-2.6-4.6a4.84,4.84,0,0,0-4.6,4.1c-.4,2-.1,3.2,2.5,4.2l4.7,1.8c4.6,1.7,5.3,4.1,4.5,8.1-1.5,6.9-6.4,10.4-13.6,11-7.6.7-9.8-2.6-8.5-8.6l.3-1.3Z"/><path class="cls-8" d="M252.37,277.6l-1.1,5.4-11.8,1-1.6,7.7,11.1-1-1.1,5.4-11.1,1-1.9,8.8,12.3-1.1-1.1,5.4-19,1.6L234,279Z"/><path class="cls-8" d="M263.67,276.7l3.3,21.7h.1l4.7-22.4,6.1-.5L271,308.3l-7.6.7-3.3-22.2H260l-4.8,22.9-6.1.5,6.9-32.8Zm-3.5-2c1.3-3.6,3.2-5.9,5.5-6.1a5.57,5.57,0,0,1,1.9.1l2,.8a5.85,5.85,0,0,0,1.3.2c.9-.1,1.5-1.2,1.6-1.8l3.3-.3c-1,3.3-3.2,5.9-5.5,6.1-2,.2-3.7-1.2-5.2-1.1a2.32,2.32,0,0,0-1.8,1.8Z"/><path class="cls-8" d="M293.07,273.5c10-.9,9.8,6.1,7.7,16.1s-4.9,17.1-14.9,18-9.8-6.1-7.7-16.1S283.07,274.4,293.07,273.5Zm-6.2,29.2c3.9-.3,5.3-3.7,7.2-12.6s1.9-12.1-2-11.8-5.3,3.8-7.2,12.6S283,303,286.87,302.7Z"/></g></g></svg>