<svg xmlns="http://www.w3.org/2000/svg" viewBox="0 0 114.68 147.02"><defs><style>.cls-1{fill:#38b5e5;}.cls-2,.cls-3,.cls-6,.cls-8{fill:#fff;}.cls-2,.cls-4,.cls-5,.cls-6,.cls-8{stroke:#112349;}.cls-2,.cls-4,.cls-5,.cls-8{stroke-linecap:round;stroke-linejoin:round;}.cls-2{stroke-width:1.2px;}.cls-4,.cls-5{fill:none;}.cls-4{stroke-width:1.68px;}.cls-5{stroke-width:1.41px;}.cls-6{stroke-miterlimit:10;stroke-width:1.36px;}.cls-7{font-size:19.85px;fill:#112349;font-family:Helvetica-CondensedBold, Helvetica-Condensed;font-weight:700;letter-spacing:0em;}.cls-8{stroke-width:1.17px;}</style></defs><title>Recurso 9</title><g id="Capa_2" data-name="Capa 2"><g id="Prod._Multimedial" data-name="Prod. Multimedial"><ellipse class="cls-1" cx="56.24" cy="54.95" rx="55.44" ry="54.06"/><polygon class="cls-2" points="56.02 76.8 57.43 79.64 60.56 80.1 58.29 82.31 58.83 85.43 56.02 83.96 53.22 85.43 53.75 82.31 51.48 80.1 54.62 79.64 56.02 76.8"/><rect class="cls-3" x="21.72" y="49.89" width="69.46" height="11.4" transform="translate(55.84 -23.64) rotate(45)"/><rect class="cls-4" x="21.71" y="49.73" width="68.85" height="12.2" transform="translate(55.92 -23.34) rotate(45)"/><line class="cls-4" x1="42.74" y1="33.97" x2="40.14" y2="36.56"/><line class="cls-4" x1="49.8" y1="41.02" x2="47.2" y2="43.62"/><line class="cls-4" x1="70.96" y1="62.19" x2="68.37" y2="64.79"/><line class="cls-4" x1="78.02" y1="69.24" x2="75.42" y2="71.84"/><rect class="cls-3" x="65.36" y="33.53" width="14.57" height="13.39" transform="translate(50.62 -39.84) rotate(45.64)"/><path class="cls-3" d="M73.65,31.36l2.08-2a1.31,1.31,0,0,1,1.83.08l5.81,5.95a1.3,1.3,0,0,1,0,1.84l-2,2"/><rect class="cls-3" x="46.25" y="38.33" width="11" height="44.29" transform="translate(58.81 -18.8) rotate(45.64)"/><polyline class="cls-3" points="32.07 72.03 29.28 82.44 39.75 79.89"/><rect class="cls-4" x="65.59" y="32.64" width="14.05" height="13.78" transform="translate(49.22 -39.77) rotate(45)"/><path class="cls-4" d="M73.81,30.66l2.11-2.12a1.3,1.3,0,0,1,1.83,0l5.67,5.68a1.29,1.29,0,0,1,0,1.82l-2,2"/><line class="cls-4" x1="69.34" y1="32.88" x2="74.96" y2="38.5"/><line class="cls-4" x1="69.71" y1="40.75" x2="75.34" y2="46.38"/><rect class="cls-4" x="46.04" y="37.82" width="10.6" height="45.59" transform="translate(57.9 -18.55) rotate(45)"/><line class="cls-4" x1="66.16" y1="43.4" x2="34.4" y2="75.17"/><line class="cls-4" x1="68.41" y1="45.65" x2="36.65" y2="77.42"/><polyline class="cls-4" points="31.47 72.99 28.47 83.49 38.97 80.49"/><line class="cls-4" x1="29.55" y1="80.1" x2="31.83" y2="82.38"/><circle class="cls-5" cx="55.88" cy="55.88" r="55.18"/><path class="cls-5" d="M28.29,93.61A46.73,46.73,0,0,1,11.13,69.42"/><path class="cls-5" d="M100.76,69a46.73,46.73,0,0,1-11.9,20"/><path class="cls-5" d="M10.54,44.47a46.76,46.76,0,0,1,89.89-2.78"/><polygon class="cls-6" points="102.37 91.72 14.44 98.85 8.99 122.61 18 121.84 17.23 125.46 96.42 118.33 102.37 91.72"/><text class="cls-7" transform="matrix(0.99, -0.09, -0.21, 0.98, 13.85, 119.02)">ESTÉTICA</text><polygon class="cls-6" points="113.85 113.73 28.84 121.23 24.63 146.27 105.58 139.52 106.16 136.42 109.66 136.1 113.85 113.73"/><text class="cls-7" transform="matrix(0.99, -0.09, -0.21, 0.98, 28.14, 141.1)">Y DISEÑO</text><polygon class="cls-8" points="55.75 21.18 57.12 23.97 60.2 24.41 57.97 26.58 58.5 29.64 55.75 28.19 53 29.64 53.53 26.58 51.3 24.41 54.38 23.97 55.75 21.18"/></g></g></svg>