<svg xmlns="http://www.w3.org/2000/svg" viewBox="0 0 178.19 181.68"><defs><style>.cls-1{fill:#b76d3b;}.cls-2,.cls-9{fill:none;}.cls-11,.cls-13,.cls-2,.cls-3,.cls-4{stroke:#112349;}.cls-2,.cls-3{stroke-linecap:round;stroke-linejoin:round;}.cls-2{stroke-width:1.5px;}.cls-11,.cls-13,.cls-3,.cls-4,.cls-8{fill:#fff;}.cls-3{stroke-width:1.28px;}.cls-11,.cls-13,.cls-4{stroke-miterlimit:10;}.cls-4{stroke-width:1.35px;}.cls-5{font-size:14.67px;letter-spacing:0em;}.cls-12,.cls-5{fill:#112349;font-family:Helvetica-CondensedBold, Helvetica-Condensed;font-weight:700;}.cls-6{letter-spacing:-0.04em;}.cls-7{letter-spacing:-0.01em;}.cls-10{fill:#132448;}.cls-11{stroke-width:1.11px;}.cls-12{font-size:20.3px;letter-spacing:0em;}.cls-13{stroke-width:1.16px;}</style></defs><title>Recurso 11</title><g id="Capa_2" data-name="Capa 2"><g id="Prod._Multimedial" data-name="Prod. Multimedial"><ellipse class="cls-1" cx="84.4" cy="59.31" rx="59.23" ry="59.3"/><circle class="cls-2" cx="86.62" cy="59.7" r="58.95"/><path class="cls-2" d="M57.14,100A49.94,49.94,0,0,1,38.81,74.16"/><path class="cls-2" d="M134.57,73.71a49.93,49.93,0,0,1-12.71,21.38"/><path class="cls-2" d="M38.18,47.51a50,50,0,0,1,96-3"/><polygon class="cls-3" points="132.8 55.39 134.29 58.43 137.65 58.92 135.22 61.28 135.79 64.62 132.8 63.04 129.8 64.62 130.37 61.28 127.95 58.92 131.3 58.43 132.8 55.39"/><polygon class="cls-3" points="64.09 28.96 65.59 32 68.94 32.48 66.52 34.85 67.09 38.18 64.09 36.61 61.09 38.18 61.67 34.85 59.24 32.48 62.59 32 64.09 28.96"/><polygon class="cls-4" points="177.34 97.57 4.76 111.52 0.85 129.36 6.61 128.91 6.07 131.57 173.07 117.51 177.34 97.57"/><text class="cls-5" transform="matrix(0.99, -0.09, -0.21, 0.98, 7.6, 127.75)">E<tspan class="cls-6" x="7.26" y="0">V</tspan><tspan class="cls-7" x="14.8" y="0">ALUACIÓN Y SELECCIÓN</tspan></text><path class="cls-8" d="M96.44,65.68c-.49-3-2.72-4.34-4.34-6.75a3.93,3.93,0,0,1-2.07.54c-3.52,0-4.63-3.71-3.36-6.08a20.63,20.63,0,0,0-7.57-3.27,3.66,3.66,0,0,1-3.69,2.74c-1.63,0-3.21.3-3.8-.8a15.38,15.38,0,0,1-.81-2.4c-2.91.49-5,1.88-7.42,3.44.87,2.36-.52,7.78-3.79,7.78a12.11,12.11,0,0,1-3.2-.81c-1.88,2.58-1.87,3.14-2.41,6.41,5.34.17,4.81,7.21-.8,9.62.5,2.76.93,3.33,2.4,5.6A18.68,18.68,0,0,1,59,81.5c3.36,0,5.62,5.84,4.6,8.21,2.29,1.68,2.76,1.77,5.61,2.41.4-1.57,2.71-4.21,4.81-4.21s6.1,2.51,6.41,4.21c3.07-.45,3.32-2.59,5.8-4.22-1.19-2.37-.06-6,3.41-6,.87,0,3.83-.58,4.4-.2,1.57-2.2,1-2.88,1.61-5.6C91.09,75.59,91.75,66,96.44,65.68Zm-13.84,8c-2,2.89-5.86,5.2-9.48,5-4.63-.23-8.49-4.15-6.9-8.89a9.26,9.26,0,0,1,1.15-2.26,10.41,10.41,0,0,1,7-4.94,4.14,4.14,0,0,1,4.42,1.72C83.08,65.39,85.35,69.78,82.6,73.69Z"/><path class="cls-8" d="M119,45.51a15.65,15.65,0,0,0-.12-6.61,3,3,0,0,1-1.61-.17c-2.48-.93-2.28-3.84-.76-5.17a15.54,15.54,0,0,0-4.46-4.31,2.75,2.75,0,0,1-3.33,1A2.72,2.72,0,0,1,106.89,28a2.6,2.6,0,0,1-.23-.91,15.72,15.72,0,0,0-6.45.11,3,3,0,0,1-4,3A3.08,3.08,0,0,1,95,29.39a10.65,10.65,0,0,0-4.19,4.25c1.49,1.67-.39,5.7-2.59,6a15.55,15.55,0,0,0,.13,6.16,3.1,3.1,0,0,1,1.23.2,3,3,0,0,1,.94,5,15.71,15.71,0,0,0,4.54,4.54,2.9,2.9,0,0,1,5.23,2.2,15.51,15.51,0,0,0,6.78,0,3,3,0,0,1,4-3.32,2.9,2.9,0,0,1,1.37,1,15.6,15.6,0,0,0,4.31-4.37C113.68,49.5,115.64,44.47,119,45.51Zm-12.33,1.27c-2.2,1.5-2.15,1.56-4.64.48-3.2-1.39-5.58-4.3-3.21-7.21.41-.5-.17-1.26.35-1.62,1.64-1.48,3.9-1.07,6.06-.79a2.85,2.85,0,0,1,2.4,2.41C108,42.52,109.66,44.76,106.69,46.78Z"/><path class="cls-9" d="M90.53,72.6a15.66,15.66,0,0,0,0-3.87,3.25,3.25,0,0,1,1.62-3.24c.6-.35,1.21-.7,1.8-1.06l-1.18-2.85c-.67.17-1.35.34-2,.53A3.27,3.27,0,0,1,87.31,61a15.07,15.07,0,0,0-2.74-2.73,3.26,3.26,0,0,1-1.14-3.44c.18-.68.36-1.36.53-2L81.1,51.58c-.36.59-.71,1.2-1.06,1.81A3.29,3.29,0,0,1,76.8,55a15.66,15.66,0,0,0-3.87,0,3.28,3.28,0,0,1-3.24-1.62c-.35-.61-.7-1.22-1.06-1.81l-2.85,1.18c.17.67.34,1.35.53,2a3.27,3.27,0,0,1-1.15,3.43A15.73,15.73,0,0,0,62.43,61,3.28,3.28,0,0,1,59,62.11c-.68-.19-1.36-.36-2-.53l-1.18,2.85c.59.36,1.2.71,1.81,1.06a3.29,3.29,0,0,1,1.62,3.24,15.66,15.66,0,0,0,0,3.87,3.28,3.28,0,0,1-1.62,3.24L55.78,76.9,57,79.76l2-.53a3.24,3.24,0,0,1,3.43,1.14,16.15,16.15,0,0,0,2.74,2.74,3.27,3.27,0,0,1,1.15,3.43c-.19.68-.36,1.36-.53,2l2.85,1.18c.36-.59.71-1.19,1.06-1.8a3.27,3.27,0,0,1,3.24-1.62,15.66,15.66,0,0,0,3.87,0,2.83,2.83,0,0,1,.41,0A3.26,3.26,0,0,1,80,88c.35.6.7,1.21,1.06,1.81L84,88.57c-.17-.67-.35-1.35-.53-2a3.25,3.25,0,0,1,1.14-3.43,15.79,15.79,0,0,0,2.74-2.74,3.25,3.25,0,0,1,3.43-1.14l2,.53L94,76.9c-.59-.36-1.2-.71-1.8-1.06A3.25,3.25,0,0,1,90.53,72.6Z"/><path class="cls-10" d="M96,74.54c-.72-.44-1.46-.87-2.19-1.3l-.23-.13,0-.26a18.79,18.79,0,0,0,0-4.37l0-.26.23-.13L96,66.8a2.5,2.5,0,0,0,1-3.07l-1.58-3.8a2.49,2.49,0,0,0-2.88-1.46l-2.46.64-.26.07L89.65,59a18.76,18.76,0,0,0-3.09-3.08l-.21-.17.07-.25c.22-.83.44-1.66.64-2.47a2.49,2.49,0,0,0-1.46-2.88l-3.8-1.57a2.5,2.5,0,0,0-3.07,1c-.43.72-.86,1.46-1.29,2.2l-.13.23-.26,0a18.25,18.25,0,0,0-4.37,0l-.26,0-.13-.23c-.43-.74-.86-1.48-1.29-2.2a2.49,2.49,0,0,0-3.07-1l-3.8,1.57A2.5,2.5,0,0,0,62.67,53c.21.81.42,1.64.64,2.47l.07.25-.21.16A19.15,19.15,0,0,0,60.09,59l-.17.21-.25-.07-2.47-.64a2.5,2.5,0,0,0-2.88,1.46l-1.57,3.8a2.49,2.49,0,0,0,1,3.07L56,68.09l.23.13,0,.26a19.35,19.35,0,0,0,0,4.37l0,.26-.23.13c-.74.43-1.48.86-2.2,1.3a2.48,2.48,0,0,0-1,3.06l1.57,3.8a2.48,2.48,0,0,0,2.88,1.46l2.47-.64.25-.07.16.21a19.63,19.63,0,0,0,3.09,3.09l.21.16-.07.26c-.22.82-.44,1.65-.64,2.46a2.5,2.5,0,0,0,1.46,2.88l3.8,1.58a2.55,2.55,0,0,0,3.07-1c.43-.71.86-1.45,1.29-2.19l.13-.23.26,0a18.79,18.79,0,0,0,4.37,0l.26,0,.13.23c.43.73.86,1.47,1.29,2.19a2.5,2.5,0,0,0,3.07,1l3.8-1.58a2.49,2.49,0,0,0,1.46-2.88c-.2-.8-.41-1.63-.64-2.46l-.07-.26.21-.16a18.44,18.44,0,0,0,3.09-3.09l.16-.21.26.07c.82.22,1.65.44,2.46.64a2.47,2.47,0,0,0,2.88-1.46L97,77.6A2.49,2.49,0,0,0,96,74.54ZM93.25,80.7l-.34-.08L90.53,80a2.46,2.46,0,0,0-2.59.87,16.3,16.3,0,0,1-2.88,2.87,2.48,2.48,0,0,0-.86,2.6c.22.8.42,1.59.62,2.37l.08.34-4.13,1.71-.18-.3c-.42-.69-.84-1.4-1.24-2.11a2.48,2.48,0,0,0-2.45-1.23,16.3,16.3,0,0,1-4.07,0,2.46,2.46,0,0,0-2.44,1.23c-.42.71-.83,1.42-1.25,2.11l-.17.3-4.14-1.71.08-.34c.2-.78.41-1.58.62-2.37a2.48,2.48,0,0,0-.86-2.6,16.36,16.36,0,0,1-2.88-2.88A2.46,2.46,0,0,0,59.2,80c-.8.22-1.6.42-2.38.62l-.33.08-1.72-4.13.3-.18c.69-.42,1.4-.83,2.12-1.24a2.48,2.48,0,0,0,1.22-2.45,16.3,16.3,0,0,1,0-4.07,2.48,2.48,0,0,0-1.22-2.44c-.71-.41-1.43-.83-2.12-1.25l-.3-.17,1.72-4.14.33.09,2.38.61a2.44,2.44,0,0,0,2.59-.86,16.7,16.7,0,0,1,2.88-2.88A2.47,2.47,0,0,0,65.53,55c-.21-.79-.42-1.59-.62-2.38l-.08-.33L69,50.57l.17.3c.42.69.84,1.4,1.25,2.12a2.48,2.48,0,0,0,2.44,1.22,16.3,16.3,0,0,1,4.07,0A2.48,2.48,0,0,0,79.35,53c.41-.71.82-1.43,1.24-2.12l.18-.3,4.13,1.72-.08.33c-.2.79-.41,1.58-.62,2.38a2.47,2.47,0,0,0,.86,2.59,16.36,16.36,0,0,1,2.88,2.88,2.48,2.48,0,0,0,2.6.86c.79-.21,1.59-.42,2.37-.61l.34-.09L95,64.77l-.3.17c-.69.42-1.4.84-2.11,1.25a2.47,2.47,0,0,0-1.23,2.44,16.3,16.3,0,0,1,0,4.07,2.48,2.48,0,0,0,1.23,2.45c.71.41,1.42.82,2.11,1.24l.3.18Z"/><path class="cls-10" d="M74.87,81.13a10.59,10.59,0,0,1-4-.8,10.35,10.35,0,0,1-5.65-5.66,10.46,10.46,0,1,1,19.32-8h0a10.47,10.47,0,0,1-9.66,14.46Zm0-17.85A7.39,7.39,0,0,0,72,77.49a7.29,7.29,0,0,0,5.65,0,7.39,7.39,0,0,0-2.83-14.21Z"/><path class="cls-9" d="M113.91,39.31a11.35,11.35,0,0,0-1-2.5,2.8,2.8,0,0,1,.22-3.12l.68-.9-1-1-.89.69a2.85,2.85,0,0,1-3.13.22,10.67,10.67,0,0,0-2.49-1,2.8,2.8,0,0,1-2-2.36c-.05-.38-.1-.75-.16-1.12h-1.46l-.15,1.12a2.83,2.83,0,0,1-2,2.36,10.56,10.56,0,0,0-2.5,1,2.84,2.84,0,0,1-3.12-.22l-.9-.69-1,1,.69.9a2.84,2.84,0,0,1,.22,3.12,10.92,10.92,0,0,0-1,2.5,2.83,2.83,0,0,1-2.36,2l-1.12.15V43l1.12.16a2.8,2.8,0,0,1,2.36,2,10.67,10.67,0,0,0,1,2.49,2.85,2.85,0,0,1-.22,3.13l-.69.89,1,1,.9-.68a2.8,2.8,0,0,1,3.12-.22,11.35,11.35,0,0,0,2.5,1,2.83,2.83,0,0,1,2,2.37l.15,1.11H104c.06-.37.11-.74.16-1.11a2.81,2.81,0,0,1,2-2.37,11.08,11.08,0,0,0,2.49-1,2.82,2.82,0,0,1,3.13.22l.89.68,1-1c-.23-.29-.45-.59-.68-.89a2.82,2.82,0,0,1-.22-3.13,11.08,11.08,0,0,0,1-2.49,2.81,2.81,0,0,1,2.37-2l1.11-.16V41.51l-1.11-.15A2.82,2.82,0,0,1,113.91,39.31Z"/><path class="cls-10" d="M118.58,38.74,117,38.51l-.25,0-.08-.24a12.89,12.89,0,0,0-1.07-2.58l-.12-.23.16-.21,1-1.3a2,2,0,0,0-.2-2.64l-2.12-2.12a2,2,0,0,0-2.64-.2l-1.3,1-.21.16-.22-.12a14.48,14.48,0,0,0-2.58-1.07l-.25-.07,0-.26c-.08-.55-.15-1.09-.23-1.62a2,2,0,0,0-2-1.72h-3a2,2,0,0,0-2,1.73c-.08.52-.16,1.06-.23,1.61l0,.26-.24.07A14.18,14.18,0,0,0,96.7,30l-.23.12-.2-.16L95,29a2,2,0,0,0-2.64.2L90.2,31.27a2,2,0,0,0-.2,2.64l1,1.3.16.21-.12.23A13.89,13.89,0,0,0,90,38.23l-.07.24-.26,0L88,38.74a2,2,0,0,0-1.72,2v3a2,2,0,0,0,1.72,2l1.62.23.26,0,.07.25A14.18,14.18,0,0,0,91,48.84l.12.22-.16.21-1,1.3a2,2,0,0,0,.2,2.64l2.12,2.12a2,2,0,0,0,2.64.2l1.3-1,.21-.16.23.12a13.5,13.5,0,0,0,2.58,1.07l.24.08,0,.25c.07.55.15,1.09.23,1.62a2,2,0,0,0,2,1.73h3a2.05,2.05,0,0,0,2-1.73c.08-.53.15-1.07.23-1.62l0-.25.25-.08a12.81,12.81,0,0,0,2.57-1.07l.23-.12.21.16,1.3,1a2,2,0,0,0,2.64-.2l2.12-2.12a2,2,0,0,0,.2-2.64l-1-1.3-.16-.21.12-.22a14.18,14.18,0,0,0,1.07-2.58l.08-.25.25,0,1.62-.23a2,2,0,0,0,1.72-2v-3A2,2,0,0,0,118.58,38.74Zm-.39,4.93-.34,0-1.47.2a2,2,0,0,0-1.7,1.47,11.84,11.84,0,0,1-1.11,2.68,2,2,0,0,0,.16,2.24l.9,1.18.21.28-2,2-.28-.21-1.18-.9a2,2,0,0,0-2.24-.16,11.58,11.58,0,0,1-2.68,1.11,2,2,0,0,0-1.47,1.7c-.06.49-.13,1-.2,1.47l0,.34h-2.85l-.05-.34-.21-1.47a2,2,0,0,0-1.47-1.7,11.58,11.58,0,0,1-2.68-1.11,2,2,0,0,0-2.24.16c-.39.3-.78.61-1.18.9l-.28.21-2-2,.2-.28.9-1.18A2,2,0,0,0,93,48.07a12,12,0,0,1-1.11-2.68,2,2,0,0,0-1.7-1.47l-1.47-.2-.34,0V40.82l.34,0,1.47-.21a2,2,0,0,0,1.7-1.47A11.77,11.77,0,0,1,93,36.42a2,2,0,0,0-.16-2.25L92,33l-.2-.28,2-2,.28.21,1.18.89a2,2,0,0,0,2.24.16,12,12,0,0,1,2.68-1.11,2,2,0,0,0,1.47-1.69l.21-1.47.05-.35h2.85l0,.35c.07.48.14,1,.2,1.46a2,2,0,0,0,1.47,1.7A12,12,0,0,1,109.12,32a2,2,0,0,0,2.24-.16l1.18-.9.28-.2,2,2-.21.28-.9,1.19a2,2,0,0,0-.16,2.24,11.77,11.77,0,0,1,1.11,2.67,2,2,0,0,0,1.7,1.47l1.47.21.34,0Z"/><circle class="cls-9" cx="103.29" cy="42.24" r="3.05"/><path class="cls-10" d="M103.29,36.43a5.81,5.81,0,1,0,5.81,5.81A5.82,5.82,0,0,0,103.29,36.43Zm0,9.66a3.85,3.85,0,1,1,3.85-3.85A3.85,3.85,0,0,1,103.29,46.09Z"/><polygon class="cls-11" points="140.1 120.55 35.77 129.55 31 151.03 39.77 150.27 39.03 153.8 134.89 145.25 140.1 120.55"/><text class="cls-12" transform="matrix(0.99, -0.09, -0.21, 0.98, 37.79, 148.44)">DE MEDIOS </text><polygon class="cls-13" points="16.73 181.03 147.46 169.5 152.43 147.08 143.28 147.87 144.05 144.19 22.51 154.72 16.73 181.03"/><text class="cls-12" transform="matrix(0.99, -0.09, -0.21, 0.98, 21.76, 175.68)">Y TECNOLOGÍA</text></g></g></svg>