<svg xmlns="http://www.w3.org/2000/svg" viewBox="0 0 399.74 512"><defs><style>.cls-1,.cls-10,.cls-4,.cls-7,.cls-9{fill:#fff;}.cls-2{fill:#b76d3b;}.cls-3,.cls-5{fill:none;}.cls-10,.cls-3,.cls-4,.cls-7,.cls-9{stroke:#112349;}.cls-3,.cls-4{stroke-linecap:round;stroke-linejoin:round;}.cls-3{stroke-width:1.5px;}.cls-4{stroke-width:1.28px;}.cls-6{fill:#132448;}.cls-10,.cls-7,.cls-9{stroke-miterlimit:10;}.cls-7{stroke-width:1.35px;}.cls-8{fill:#112349;}.cls-9{stroke-width:1.11px;}.cls-10{stroke-width:1.16px;}</style></defs><title>evaluacion-y-seleccion-de-medios-y-tecnologias_1</title><g id="Capa_2" data-name="Capa 2"><g id="Layer_1" data-name="Layer 1"><rect class="cls-1" width="399.74" height="512"/><ellipse class="cls-2" cx="199.87" cy="129.7" rx="129.6" ry="129.7"/><circle class="cls-3" cx="199.87" cy="130.5" r="129"/><path class="cls-3" d="M135.37,218.7a109,109,0,0,1-40.1-56.6"/><path class="cls-3" d="M304.77,161.2A109.38,109.38,0,0,1,277,208"/><path class="cls-3" d="M93.87,103.9A109.28,109.28,0,0,1,304,97.4"/><polygon class="cls-4" points="300.87 121.1 304.17 127.7 311.47 128.8 306.17 134 307.47 141.3 300.87 137.8 294.37 141.3 295.57 134 290.27 128.8 297.57 127.7 300.87 121.1"/><polygon class="cls-4" points="150.57 63.3 153.87 69.9 161.17 71 155.87 76.1 157.17 83.4 150.57 80 143.97 83.4 145.27 76.1 139.97 71 147.27 69.9 150.57 63.3"/><path class="cls-1" d="M221.37,143.6c-1.1-6.5-5.9-9.5-9.5-14.8a7.94,7.94,0,0,1-4.5,1.2c-7.7,0-10.1-8.1-7.3-13.3a45.84,45.84,0,0,0-16.6-7.2,7.94,7.94,0,0,1-8.1,6c-3.6,0-7,.6-8.3-1.8-.6-.7-1.4-4.4-1.8-5.3-6.4,1.1-11.1,4.1-16.2,7.5,1.9,5.2-1.1,17-8.3,17a24.78,24.78,0,0,1-7-1.8c-4.1,5.6-4.1,6.9-5.3,14,11.7.4,10.5,15.8-1.8,21,1.1,6.1,2,7.3,5.3,12.3,1-.4,6.1-.4,7.4-.4,7.4,0,12.3,12.8,10.1,18,5,3.7,6,3.9,12.3,5.3.9-3.4,5.9-9.2,10.5-9.2,4.9,0,13.4,5.5,14,9.2,6.7-1,7.3-5.7,12.7-9.2-2.6-5.2-.1-13.1,7.4-13.1,1.9,0,8.4-1.3,9.6-.4,3.4-4.8,2.2-6.3,3.5-12.3C209.67,165.3,211.07,144.2,221.37,143.6Zm-30.3,17.5c-4.5,6.3-12.8,11.4-20.7,11-10.1-.5-18.6-9.1-15.1-19.5a23.38,23.38,0,0,1,2.5-5c3-5.7,9.1-9.4,15.3-10.8a8.92,8.92,0,0,1,9.7,3.8C192.17,143,197.07,152.6,191.07,161.1Z"/><path class="cls-1" d="M270.77,99.5a33.72,33.72,0,0,0-.3-14.5,6.25,6.25,0,0,1-3.5-.4c-5.4-2-5-8.4-1.7-11.3a33.84,33.84,0,0,0-9.8-9.4,6.42,6.42,0,0,1-11.4-2.8,6.53,6.53,0,0,1-.5-2,35.16,35.16,0,0,0-14.1.2c0,4.1-3.7,8.4-8.8,6.5a6.92,6.92,0,0,1-2.6-1.7c-4.4,2.9-6.5,4.6-9.2,9.3,3.3,3.7-.9,12.5-5.7,13.2a34,34,0,0,0,.3,13.5,7.07,7.07,0,0,1,2.7.5c5.2,1.9,5,7.9,2.1,10.9a33.37,33.37,0,0,0,9.9,9.9,6,6,0,0,1,7.4-2.3,6.12,6.12,0,0,1,4,7.1,33.58,33.58,0,0,0,14.8-.1c-.5-4.3,3.4-9.3,8.7-7.3a6.92,6.92,0,0,1,3,2.2,33.1,33.1,0,0,0,9.4-9.6C259.07,108.2,263.37,97.2,270.77,99.5Zm-27,2.8c-4.8,3.3-4.7,3.4-10.2,1-7-3-12.2-9.4-7-15.8.9-1.1-.4-2.7.8-3.5,3.6-3.2,8.5-2.4,13.3-1.7a6.26,6.26,0,0,1,5.3,5.3C246.67,92.9,250.27,97.8,243.77,102.3Z"/><path class="cls-5" d="M208.37,158.7a30.25,30.25,0,0,0,0-8.5,7.09,7.09,0,0,1,3.5-7.1c1.3-.8,2.7-1.5,4-2.3l-2.6-6.3c-1.5.4-3,.8-4.4,1.2a7,7,0,0,1-7.5-2.5,37.83,37.83,0,0,0-6-6,7,7,0,0,1-2.5-7.5c.4-1.5.8-3,1.2-4.4l-6.3-2.6c-.8,1.3-1.6,2.6-2.3,4a7,7,0,0,1-7.1,3.5,34.54,34.54,0,0,0-8.5,0,7.09,7.09,0,0,1-7.1-3.5c-.8-1.3-1.5-2.7-2.3-4l-6.2,2.6c.4,1.5.8,3,1.2,4.4a7,7,0,0,1-2.5,7.5,37.83,37.83,0,0,0-6,6,7,7,0,0,1-7.5,2.5c-1.5-.4-3-.8-4.4-1.2l-2.6,6.3c1.3.8,2.6,1.6,4,2.3a7,7,0,0,1,3.5,7.1,30.25,30.25,0,0,0,0,8.5,7.09,7.09,0,0,1-3.5,7.1c-1.3.8-2.7,1.5-4,2.3l2.6,6.3c1.5-.4,3-.8,4.4-1.2a7,7,0,0,1,7.5,2.5,37.83,37.83,0,0,0,6,6,7,7,0,0,1,2.5,7.5c-.4,1.5-.8,3-1.2,4.4l6.2,2.6c.8-1.3,1.5-2.6,2.3-4a7,7,0,0,1,7.1-3.5,40.25,40.25,0,0,0,8.5,0c.3,0,.6-.1.9-.1a7.31,7.31,0,0,1,6.2,3.6c.8,1.3,1.5,2.7,2.3,4l6.3-2.6c-.4-1.5-.8-2.9-1.2-4.4a7,7,0,0,1,2.5-7.5,37.83,37.83,0,0,0,6-6,7,7,0,0,1,7.5-2.5c1.5.4,3,.8,4.4,1.2l2.6-6.3c-1.3-.8-2.6-1.6-4-2.3A7.35,7.35,0,0,1,208.37,158.7Z"/><path class="cls-6" d="M220.37,163c-1.6-.9-3.2-1.9-4.8-2.8l-.5-.3.1-.6a38.55,38.55,0,0,0,0-9.6l-.1-.6.5-.3c1.6-.9,3.2-1.9,4.8-2.8a5.42,5.42,0,0,0,2.2-6.7l-3.4-8.3a5.43,5.43,0,0,0-6.3-3.2c-1.8.4-3.6.9-5.4,1.4l-.6.1-.4-.5a43.73,43.73,0,0,0-6.8-6.8l-.5-.4.2-.6c.5-1.8,1-3.6,1.4-5.4a5.43,5.43,0,0,0-3.2-6.3l-8.3-3.4a5.42,5.42,0,0,0-6.7,2.2c-.9,1.6-1.9,3.2-2.8,4.8l-.3.5-.6-.1a38.55,38.55,0,0,0-9.6,0l-.6.1-.3-.5c-.9-1.6-1.9-3.2-2.8-4.8a5.42,5.42,0,0,0-6.7-2.2l-8.3,3.4a5.43,5.43,0,0,0-3.2,6.3c.4,1.8.9,3.6,1.4,5.4l.1.6-.5.4a43.73,43.73,0,0,0-6.8,6.8l-.4.5-.6-.1c-1.8-.5-3.6-1-5.4-1.4a5.43,5.43,0,0,0-6.3,3.2l-3.4,8.3a5.42,5.42,0,0,0,2.2,6.7c1.6.9,3.2,1.9,4.8,2.8l.5.3-.1.6a38.55,38.55,0,0,0,0,9.6l.1.6-.5.3c-1.6.9-3.2,1.9-4.8,2.8a5.42,5.42,0,0,0-2.2,6.7l3.4,8.3a5.43,5.43,0,0,0,6.3,3.2c1.8-.4,3.6-.9,5.4-1.4l.6-.1.4.5a39.78,39.78,0,0,0,6.8,6.8l.5.4-.1.6c-.5,1.8-1,3.6-1.4,5.4a5.43,5.43,0,0,0,3.2,6.3l8.3,3.4a5.53,5.53,0,0,0,6.7-2.2c.9-1.6,1.9-3.2,2.8-4.8l.3-.5.6.1a38.55,38.55,0,0,0,9.6,0l.6-.1.3.5c.9,1.6,1.9,3.2,2.8,4.8a5.42,5.42,0,0,0,6.7,2.2l8.3-3.4a5.43,5.43,0,0,0,3.2-6.3c-.4-1.8-.9-3.6-1.4-5.4l-.1-.6.5-.4a43.73,43.73,0,0,0,6.8-6.8l.4-.5.6.1c1.8.5,3.6,1,5.4,1.4a5.43,5.43,0,0,0,6.3-3.2l3.4-8.3A5.66,5.66,0,0,0,220.37,163Zm-6,13.5-.7-.2c-1.7-.4-3.5-.9-5.2-1.4a5.46,5.46,0,0,0-5.7,1.9,34.16,34.16,0,0,1-6.3,6.3,5.4,5.4,0,0,0-1.9,5.7c.5,1.7.9,3.5,1.4,5.2l.2.7-9,3.7-.4-.6c-.9-1.5-1.8-3.1-2.7-4.6a5.51,5.51,0,0,0-5.3-2.7,33.15,33.15,0,0,1-8.9,0,5.4,5.4,0,0,0-5.4,2.7c-.9,1.6-1.8,3.1-2.7,4.6l-.4.6-9-3.7.2-.7c.4-1.7.9-3.5,1.4-5.2a5.46,5.46,0,0,0-1.9-5.7,34.16,34.16,0,0,1-6.3-6.3,5.4,5.4,0,0,0-5.7-1.9c-1.7.5-3.5.9-5.2,1.4l-.7.2-3.7-9,.6-.4c1.5-.9,3.1-1.8,4.6-2.7a5.51,5.51,0,0,0,2.7-5.3,33.15,33.15,0,0,1,0-8.9,5.4,5.4,0,0,0-2.7-5.4c-1.6-.9-3.1-1.8-4.6-2.7l-.6-.4,3.7-9,.7.2c1.7.4,3.5.9,5.2,1.4a5.46,5.46,0,0,0,5.7-1.9,31.34,31.34,0,0,1,6.3-6.3,5.4,5.4,0,0,0,1.9-5.7c-.5-1.7-.9-3.5-1.4-5.2l-.2-.7,9-3.7.4.6c.9,1.5,1.8,3.1,2.7,4.6a5.51,5.51,0,0,0,5.3,2.7,33.15,33.15,0,0,1,8.9,0,5.4,5.4,0,0,0,5.4-2.7c.9-1.6,1.8-3.1,2.7-4.6l.4-.6,9,3.7-.2.7c-.4,1.7-.9,3.5-1.4,5.2a5.46,5.46,0,0,0,1.9,5.7,31.34,31.34,0,0,1,6.3,6.3,5.4,5.4,0,0,0,5.7,1.9c1.7-.5,3.5-.9,5.2-1.4l.7-.2,3.7,9-.6.4c-1.5.9-3.1,1.8-4.6,2.7a5.51,5.51,0,0,0-2.7,5.3,33.15,33.15,0,0,1,0,8.9,5.4,5.4,0,0,0,2.7,5.4c1.6.9,3.1,1.8,4.6,2.7l.6.4Z"/><path class="cls-6" d="M174.17,177.4a22.92,22.92,0,1,1,21.1-31.7h0a22.88,22.88,0,0,1-12.4,29.9A22.23,22.23,0,0,1,174.17,177.4Zm0-39a17.07,17.07,0,0,0-6.2,1.2,16.14,16.14,0,0,0,0,29.8,15.71,15.71,0,0,0,12.4,0,16.11,16.11,0,0,0-6.2-31Z"/><path class="cls-5" d="M259.57,85.9a23.79,23.79,0,0,0-2.3-5.5,6.22,6.22,0,0,1,.5-6.8c.5-.7,1-1.3,1.5-2L257,69.3c-.7.5-1.3,1-2,1.5a6.25,6.25,0,0,1-6.8.5,26.63,26.63,0,0,0-5.5-2.3,6.22,6.22,0,0,1-4.5-5.2l-.3-2.4h-3.2l-.3,2.4a6.22,6.22,0,0,1-4.5,5.2,23.79,23.79,0,0,0-5.5,2.3,6.22,6.22,0,0,1-6.8-.5c-.7-.5-1.3-1-2-1.5l-2.3,2.3c.5.7,1,1.3,1.5,2a6.25,6.25,0,0,1,.5,6.8,26.63,26.63,0,0,0-2.3,5.5,6.22,6.22,0,0,1-5.2,4.5l-2.4.3v3.2l2.4.3a6.22,6.22,0,0,1,5.2,4.5,23.79,23.79,0,0,0,2.3,5.5,6.22,6.22,0,0,1-.5,6.8c-.5.7-1,1.3-1.5,2l2.3,2.3c.7-.5,1.3-1,2-1.5a6.25,6.25,0,0,1,6.8-.5,26.63,26.63,0,0,0,5.5,2.3,6.22,6.22,0,0,1,4.5,5.2l.3,2.4h3.2l.3-2.4a6.22,6.22,0,0,1,4.5-5.2,23.79,23.79,0,0,0,5.5-2.3,6.22,6.22,0,0,1,6.8.5c.7.5,1.3,1,2,1.5l2.3-2.3c-.5-.7-1-1.3-1.5-2a6.25,6.25,0,0,1-.5-6.8,26.63,26.63,0,0,0,2.3-5.5,6.22,6.22,0,0,1,5.2-4.5l2.4-.3V90.7l-2.4-.3A6.22,6.22,0,0,1,259.57,85.9Z"/><path class="cls-6" d="M269.77,84.7c-1.2-.2-2.3-.3-3.5-.5l-.6-.1-.2-.5a38.78,38.78,0,0,0-2.3-5.6l-.3-.5.3-.4c.7-1,1.5-1.9,2.1-2.9a4.54,4.54,0,0,0-.4-5.8l-4.6-4.6a4.53,4.53,0,0,0-5.8-.4c-.9.7-1.9,1.4-2.9,2.1l-.4.3-.5-.3a24.5,24.5,0,0,0-5.6-2.3l-.5-.2-.1-.6c-.2-1.2-.3-2.4-.5-3.5a4.42,4.42,0,0,0-4.4-3.8h-6.5a4.42,4.42,0,0,0-4.4,3.8c-.2,1.2-.3,2.3-.5,3.5l-.1.6-.5.2a38.78,38.78,0,0,0-5.6,2.3l-.5.3-.5-.3c-1-.7-1.9-1.4-2.9-2.1a4.54,4.54,0,0,0-5.8.4l-4.6,4.6a4.53,4.53,0,0,0-.4,5.8c.7.9,1.4,1.9,2.1,2.9l.3.4-.3.5a24.5,24.5,0,0,0-2.3,5.6l-.2.5-.6.1c-1.2.2-2.4.3-3.5.5a4.42,4.42,0,0,0-3.8,4.4v6.5a4.42,4.42,0,0,0,3.8,4.4c1.2.2,2.3.3,3.5.5l.6.1.2.5a34.62,34.62,0,0,0,2.3,5.6l.3.5-.3.4c-.7,1-1.4,1.9-2.1,2.9a4.54,4.54,0,0,0,.4,5.8l4.6,4.6a4.53,4.53,0,0,0,5.8.4c.9-.7,1.9-1.4,2.9-2.1l.4-.3.5.3a24.5,24.5,0,0,0,5.6,2.3l.5.2.1.6c.2,1.2.3,2.4.5,3.5a4.42,4.42,0,0,0,4.4,3.8h6.5a4.42,4.42,0,0,0,4.4-3.8c.2-1.2.3-2.3.5-3.5l.1-.6.5-.2a38.78,38.78,0,0,0,5.6-2.3l.5-.3.5.3c1,.7,1.9,1.4,2.9,2.1a4.55,4.55,0,0,0,5.8-.4l4.6-4.6a4.53,4.53,0,0,0,.4-5.8c-.7-.9-1.4-1.9-2.1-2.9l-.3-.4.3-.5a24.5,24.5,0,0,0,2.3-5.6l.2-.5.6-.1c1.2-.2,2.4-.3,3.5-.5a4.42,4.42,0,0,0,3.8-4.4V89.1A4.42,4.42,0,0,0,269.77,84.7ZM269,95.4l-.8.1c-1.1.2-2.1.3-3.2.4a4.39,4.39,0,0,0-3.7,3.2,33.2,33.2,0,0,1-2.4,5.9,4.57,4.57,0,0,0,.3,4.9l2,2.6.5.6-4.4,4.4-.6-.5c-.9-.6-1.7-1.3-2.6-2a4.38,4.38,0,0,0-4.9-.3,23.58,23.58,0,0,1-5.9,2.4,4.39,4.39,0,0,0-3.2,3.7c-.1,1.1-.3,2.2-.4,3.2l-.1.8h-6.2l-.1-.8c-.2-1.1-.3-2.1-.4-3.2a4.39,4.39,0,0,0-3.2-3.7,33.2,33.2,0,0,1-5.9-2.4,4.57,4.57,0,0,0-4.9.3l-2.6,2-.6.5-4.4-4.4.5-.6c.6-.9,1.3-1.7,2-2.6a4.38,4.38,0,0,0,.3-4.9,23.58,23.58,0,0,1-2.4-5.9,4.39,4.39,0,0,0-3.7-3.2c-1.1-.1-2.2-.3-3.2-.4l-.7-.1V89.2l.7-.1c1.1-.2,2.1-.3,3.2-.4a4.39,4.39,0,0,0,3.7-3.2,33.2,33.2,0,0,1,2.4-5.9,4.57,4.57,0,0,0-.3-4.9c-.7-.9-1.3-1.7-2-2.6l-.5-.6,4.4-4.4.6.5c.9.6,1.7,1.3,2.6,2a4.38,4.38,0,0,0,4.9.3,23.58,23.58,0,0,1,5.9-2.4,4.39,4.39,0,0,0,3.2-3.7c.1-1.1.3-2.2.4-3.2l.1-.8h6.2l.1.8c.2,1.1.3,2.1.4,3.2a4.39,4.39,0,0,0,3.2,3.7,33.2,33.2,0,0,1,5.9,2.4,4.57,4.57,0,0,0,4.9-.3l2.6-2,.6-.5,4.4,4.4-.5.6c-.6.9-1.3,1.7-2,2.6a4.38,4.38,0,0,0-.3,4.9,23.58,23.58,0,0,1,2.4,5.9,4.39,4.39,0,0,0,3.7,3.2c1.1.1,2.2.3,3.2.4l.8.1Z"/><circle class="cls-5" cx="236.37" cy="92.3" r="6.7"/><path class="cls-6" d="M236.37,79.6a12.7,12.7,0,1,0,12.7,12.7A12.72,12.72,0,0,0,236.37,79.6Zm0,21.2a8.4,8.4,0,1,1,8.4-8.4A8.45,8.45,0,0,1,236.37,100.8Z"/><polygon class="cls-7" points="392.3 212.94 15.9 243.33 7.43 282.18 19.94 281.22 18.78 286.99 382.97 256.41 392.3 212.94"/><path class="cls-8" d="M44,254.2,43.21,258l-8.46.77-1.16,5.48,8-.67-.86,3.85-8,.67-1.35,6.25,8.75-.77-.86,3.85-13.56,1.15,4.9-23.37Z"/><path class="cls-8" d="M50,253.71l-.29,17h.1l7.21-17.6,4.9-.39L51.58,276.6l-6.16.58-.48-23Z"/><path class="cls-8" d="M67,252.27l5.87-.48,1.35,22.89-5,.38-.09-4.8-6.35.57-2.11,5-5,.39Zm-2.4,14.52,4.61-.38-.09-10.29H69Z"/><path class="cls-8" d="M75.71,274.49l4.91-23.37,4.81-.39-4.14,19.53,8.46-.77-.86,3.84Z"/><path class="cls-8" d="M100.33,249.39l-3.46,16.35c-.48,2.3-.29,4,1.92,3.84s3.18-2,3.66-4.32l3.46-16.35,4.81-.39-3.46,16.35c-1.25,6-5.29,7.89-9.14,8.17s-7.31-.67-6-6.92l3.46-16.35Z"/><path class="cls-8" d="M118.12,247.85l5.87-.48,1.35,22.89-5,.38-.1-4.81-6.35.58-2.11,5-5,.38Zm-2.4,14.52,4.62-.38-.1-10.29h-.1Z"/><path class="cls-8" d="M140.34,253.71c.67-3.36.29-4.8-1.83-4.61-2.4.19-3.46,2.69-4.9,9.23-1.54,7.12-.77,8.27,1.25,8.08,1.73-.19,3.17-1.15,4.23-6.16l4.81-.38c-1.06,5.1-3.27,9.52-9.52,10.1-7.22.57-7-4.33-5.48-11.45s3.46-12.21,10.67-12.88c6.83-.58,6.25,4.32,5.58,7.69Z"/><path class="cls-8" d="M144.76,268.52l4.91-23.36,4.81-.39-4.91,23.37Z"/><path class="cls-8" d="M165.54,243.33c7.21-.58,7,4.33,5.48,11.44s-3.46,12.22-10.68,12.89-7-4.33-5.48-11.44S158.42,243.91,165.54,243.33Zm-4.43,20.87c2.79-.29,3.75-2.7,5.1-8.95s1.35-8.65-1.44-8.36-3.85,2.69-5.1,8.94S158.32,264.39,161.11,264.2Zm5.29-26.55,4.62-.38-4.23,5-3.08.29Z"/><path class="cls-8" d="M181.69,242.37,184.1,258h.09l3.37-16.06,4.42-.39-4.9,23.37-5.48.48-2.41-15.87h-.09l-3.47,16.35-4.42.39,4.9-23.37Z"/><path class="cls-8" d="M206.7,240.25,208,249H208l5.2-9.33,5.19-.48-9.14,14.72-1.92,9.23-4.81.38,1.92-9.23-3.17-13.65Z"/><path class="cls-8" d="M228.24,254.2l-.2.67c-.48,2.21-.09,3.56,2.41,3.36a3.81,3.81,0,0,0,3.46-3.17c.48-2.11-.48-2.79-3.36-3.65-4-1.06-5.58-2.7-4.72-6.54,1-4.52,4.23-7.12,8.75-7.5,4.24-.39,6.93,1.15,6,5.67l-.1.67-4.61.39c.48-2.21,0-3.37-1.83-3.27a3.41,3.41,0,0,0-3.27,3c-.29,1.44-.1,2.31,1.83,3l3.36,1.25c3.27,1.25,3.85,3,3.17,5.77-1,4.91-4.61,7.41-9.71,7.89-5.38.48-7-1.83-6.06-6.16l.2-1Z"/><path class="cls-8" d="M258.05,235.83l-.77,3.84-8.46.77-1.16,5.49,8-.68-.87,3.85-8,.67L245.45,256l8.75-.77-.77,3.85-13.56,1.25L244.78,237Z"/><path class="cls-8" d="M255.65,259l4.9-23.36,4.81-.39-4.14,19.52,8.47-.77-.87,3.85Z"/><path class="cls-8" d="M289.11,233.13l-.77,3.85-8.46.77-1.15,5.48,8-.67-.77,3.85-8,.67-1.35,6.25,8.75-.77-.77,3.85L271,257.56l4.91-23.37Z"/><path class="cls-8" d="M300.08,240c.76-3.36.28-4.81-1.83-4.61-2.41.19-3.46,2.69-4.91,9.23-1.54,7.12-.77,8.27,1.25,8.08,1.73-.2,3.18-1.16,4.24-6.16l4.8-.38c-1.05,5.09-3.27,9.52-9.52,10.1-7.21.57-7-4.33-5.48-11.45s3.46-12.21,10.68-12.89c6.82-.57,6.25,4.33,5.57,7.7Z"/><path class="cls-8" d="M317.77,238.42c.77-3.36.29-4.8-1.83-4.61-2.4.19-3.46,2.69-4.9,9.23-1.54,7.12-.77,8.27,1.25,8.08,1.73-.19,3.17-1.16,4.23-6.16l4.81-.38c-1.06,5.1-3.27,9.52-9.52,10.1-7.21.57-7-4.33-5.48-11.45S309.79,231,317,230.35c6.83-.58,6.25,4.32,5.58,7.69Z"/><path class="cls-8" d="M322.29,253.23l4.91-23.36,4.8-.39-4.9,23.37Z"/><path class="cls-8" d="M343.06,228c7.22-.58,7,4.33,5.48,11.44s-3.46,12.22-10.67,12.89-7-4.33-5.48-11.45S335.85,228.61,343.06,228Zm-4.42,20.87c2.79-.29,3.75-2.7,5.1-8.95s1.34-8.65-1.45-8.36-3.84,2.69-5.09,8.94S335.75,249.1,338.64,248.91Zm5.19-26.55,4.62-.38-4.23,5-3.08.29Z"/><path class="cls-8" d="M359.12,227.08l2.41,15.58h.09L365,226.6l4.42-.39-4.9,23.37-5.48.48-2.41-15.87h-.09l-3.47,16.35-4.42.39,4.9-23.37Z"/><polygon class="cls-9" points="326.81 262.47 88.5 283.05 77.54 332.09 97.64 330.36 95.91 338.44 314.88 318.92 326.81 262.47"/><path class="cls-8" d="M102.55,293.53l10.86-1c9.23-.77,9.52,5.29,7.5,14.81-2.4,11.44-6,16.83-14.81,17.6l-10.38.86Zm.76,27,3-.29c4.61-.38,6.15-3.36,8-12.11,1.54-7.31,1.73-11.06-3.27-10.68l-2.79.29Z"/><path class="cls-8" d="M146.69,289.78l-1.16,5.38-11.73,1-1.64,7.59,11.06-1-1.15,5.39-11.06,1-1.83,8.75,12.22-1.06-1.16,5.39-18.75,1.63,6.83-32.41Z"/><path class="cls-8" d="M161.11,288.53l9.81-.87-.19,22.51h.1l9.52-23.28,9.81-.86-6.83,32.41-6.06.48,5.48-25.87h-.1L171.4,319.4l-5.09.48-.39-25.39h-.1l-5.48,25.87-6.06.48Z"/><path class="cls-8" d="M213,284l-1.15,5.38-11.73,1L198.52,298l11.06-1-1.15,5.39-11.06,1-1.83,8.75L207.75,311l-1.15,5.39-18.66,1.63,6.83-32.41Z"/><path class="cls-8" d="M216.89,283.72l10.87-1c9.23-.77,9.52,5.29,7.5,14.81-2.41,11.44-6,16.83-14.81,17.6l-10.39,1Zm.87,27,3-.29c4.61-.38,6.15-3.36,8-12.11,1.54-7.31,1.73-11.06-3.27-10.68l-2.79.29Z"/><path class="cls-8" d="M236.22,313.82l6.83-32.41,6.63-.58-6.82,32.41Z"/><path class="cls-8" d="M265,278.91c9.91-.86,9.72,6.06,7.6,15.87s-4.81,16.92-14.71,17.79-9.72-6.06-7.6-15.87S255.07,279.78,265,278.91Zm-6.05,28.95c3.94-.29,5.28-3.75,7.11-12.41s1.92-11.92-2-11.63-5.29,3.75-7.11,12.4S255,308.15,258.92,307.86Z"/><path class="cls-8" d="M280.26,300.16l-.19,1c-.67,3.07-.19,4.9,3.27,4.61a5.45,5.45,0,0,0,4.81-4.33c.58-3-.67-3.94-4.71-5-5.48-1.53-7.7-3.65-6.54-9,1.35-6.34,6-9.9,12.12-10.38,5.86-.48,9.61,1.63,8.27,7.79l-.2.86-6.34.58c.67-3.08,0-4.71-2.6-4.52a4.76,4.76,0,0,0-4.52,4.14c-.38,2-.1,3.17,2.5,4.13l4.62,1.73c4.52,1.73,5.29,4.14,4.42,8.08-1.44,6.83-6.35,10.29-13.46,11-7.5.68-9.72-2.59-8.47-8.56l.29-1.34Z"/><polygon class="cls-10" points="44.94 400.66 343.64 374.31 354.99 323.05 334.12 324.88 335.85 316.51 58.21 340.56 44.94 400.66"/><path class="cls-8" d="M78.6,352.48l1.63,12.12h.1l7.21-12.89,7.12-.58-12.6,20.39-2.69,12.79-6.64.58,2.7-12.79-4.33-19Z"/><path class="cls-8" d="M127,348.34l-1.15,5.39-7.21.58-5.68,27-6.63.58,5.67-27-7.12.58,1.16-5.38Z"/><path class="cls-8" d="M147.84,346.52l-1.15,5.38-11.74,1-1.63,7.6,11.06-1-1.16,5.39-11.06,1-1.82,8.75,12.21-1.06-1.15,5.39-18.76,1.63,6.83-32.41Z"/><path class="cls-8" d="M163.13,355.94c1-4.71.48-6.63-2.5-6.44-3.36.29-4.81,3.65-6.73,12.79-2.12,9.81-1.06,11.44,1.83,11.25,2.4-.19,4.42-1.54,5.86-8.56l6.64-.58c-1.44,7-4.52,13.18-13.18,14-9.9.86-9.71-6.06-7.59-15.87s4.8-16.92,14.71-17.79c9.42-.77,8.65,6,7.69,10.68Z"/><path class="cls-8" d="M183.52,343.44,186.79,365h.1l4.71-22.21,6.06-.48-6.83,32.41-7.5.67-3.27-22H180L175.15,376l-6.06.48,6.83-32.41Z"/><path class="cls-8" d="M212.56,340.36c9.91-.86,9.72,6.06,7.6,15.87s-4.81,16.93-14.71,17.79-9.72-6.06-7.6-15.87S202.66,341.13,212.56,340.36Zm-6.06,28.85c3.95-.29,5.29-3.75,7.12-12.4s1.92-11.93-2-11.64-5.29,3.75-7.12,12.41S202.56,369.5,206.5,369.21Z"/><path class="cls-8" d="M220.45,372.1l6.83-32.41,6.63-.58-5.67,27,11.73-1-1.15,5.39Z"/><path class="cls-8" d="M258.92,336.32c9.9-.86,9.71,6.06,7.59,15.87S261.7,369.12,251.8,370s-9.71-6.06-7.6-15.87S249,337.19,258.92,336.32Zm-6.06,28.85c3.94-.28,5.29-3.75,7.11-12.4s1.93-11.93-2-11.64-5.29,3.75-7.11,12.41S248.91,365.56,252.86,365.17Z"/><path class="cls-8" d="M286.13,344c.48-2.41,0-5.39-2.6-5.1-3.17.29-5.19,3.65-6.92,11.73-1.63,7.79-1.92,12.6,1.83,12.31,1.54-.09,4.42-2,5.19-5.48l.67-3.27-4.32.39,1-4.81,10.68-1-3.66,17.5-4.9.38.67-3h-.09A10.5,10.5,0,0,1,276,368c-8.17.68-8.46-5.19-6-16.35,2.3-10.86,6-16.73,14.52-17.4,7.21-.68,9.42,2.79,8,9.33Z"/><path class="cls-8" d="M292.38,365.85l6.83-32.41,6.64-.58L299,365.27Zm11.45-41.07,6.34-.57-5.86,6.92-4.33.39Z"/><path class="cls-8" d="M316.91,332l8.17-.68L326.91,363l-6.93.58-.09-6.73-8.76.77-3,7-6.92.57Zm-3.37,20.1,6.44-.58-.09-14.33h-.1Z"/></g></g></svg>