<svg xmlns="http://www.w3.org/2000/svg" viewBox="0 0 141.46 150.68"><defs><style>.cls-1{fill:#38cece;}.cls-2{fill:none;stroke-width:1.41px;}.cls-2,.cls-3,.cls-4{stroke:#112349;}.cls-2,.cls-3{stroke-linecap:round;stroke-linejoin:round;}.cls-3,.cls-4,.cls-6,.cls-7{fill:#fff;}.cls-3{stroke-width:1.2px;}.cls-4,.cls-6,.cls-7{stroke-miterlimit:10;}.cls-4{stroke-width:1.36px;}.cls-5{font-size:19.85px;fill:#112349;font-family:Helvetica-CondensedBold, Helvetica-Condensed;font-weight:700;letter-spacing:0em;}.cls-6,.cls-7{stroke:#142348;}.cls-6{stroke-width:1.17px;}.cls-7{stroke-width:0.78px;}</style></defs><title>Recurso 8</title><g id="Capa_2" data-name="Capa 2"><g id="Prod._Multimedial" data-name="Prod. Multimedial"><ellipse class="cls-1" cx="69.36" cy="54.06" rx="55.44" ry="54.06"/><circle class="cls-2" cx="69.8" cy="55.97" r="55.18"/><path class="cls-2" d="M42.21,93.7A46.84,46.84,0,0,1,25.05,69.51"/><path class="cls-2" d="M114.68,69.09a46.73,46.73,0,0,1-11.9,20"/><path class="cls-2" d="M24.46,44.56a46.76,46.76,0,0,1,89.89-2.78"/><polygon class="cls-3" points="38.5 38.09 39.9 40.94 43.03 41.39 40.77 43.6 41.3 46.73 38.5 45.25 35.69 46.73 36.23 43.6 33.96 41.39 37.09 40.94 38.5 38.09"/><polygon class="cls-3" points="96.74 71.57 98.14 74.41 101.28 74.87 99 77.08 99.54 80.2 96.74 78.73 93.93 80.2 94.47 77.08 92.2 74.87 95.33 74.41 96.74 71.57"/><polygon class="cls-4" points="135.62 92.3 5.99 103.01 0.87 125.59 9.87 124.81 9.11 128.44 130 117.73 135.62 92.3"/><text class="cls-5" transform="matrix(0.99, -0.09, -0.21, 0.98, 5.73, 123.57)">GESTIÓN DE LA</text><polygon class="cls-4" points="140.62 114.14 16.96 124.89 12.75 149.93 132.36 139.93 132.94 136.83 136.43 136.51 140.62 114.14"/><text class="cls-5" transform="matrix(0.99, -0.09, -0.21, 0.98, 16.6, 144.86)">INFORMACIÓN</text><path class="cls-6" d="M84.31,53.43a1.41,1.41,0,0,1-1.08-.49l-9-10.25L68.14,50a1.44,1.44,0,1,1-2.21-1.84l7.2-8.64A1.44,1.44,0,0,1,74.21,39a1.38,1.38,0,0,1,1.11.49l8.61,9.85,3-6.1a1.44,1.44,0,1,1,2.62,1.2L85.62,52.6a1.46,1.46,0,0,1-1.1.82Z"/><rect class="cls-6" x="56.25" y="59.36" width="10.23" height="4.03" transform="translate(-25.43 61.36) rotate(-45)"/><path class="cls-6" d="M78.89,22.7A21.15,21.15,0,1,0,100,43.85,21.15,21.15,0,0,0,78.89,22.7Zm0,39a17.81,17.81,0,1,1,17.8-17.8A17.81,17.81,0,0,1,78.89,61.65Z"/><path class="cls-6" d="M38.5,86.6l-2.36-2.36a2.23,2.23,0,0,1,0-3.15L54.92,62.31a2.23,2.23,0,0,1,3.15,0l2.36,2.36a2.22,2.22,0,0,1,0,3.14L41.65,86.6A2.23,2.23,0,0,1,38.5,86.6Z"/><circle class="cls-6" cx="67.03" cy="49.11" r="2.88"/><path class="cls-7" d="M83.74,41.15a.64.64,0,0,0,.64.64h8a.65.65,0,0,0,.65-.64v-2.5a.34.34,0,0,0-.34-.34h-.61a.34.34,0,0,0-.34.34v1.52a.34.34,0,0,1-.34.33h-6a.33.33,0,0,1-.33-.33V38.65a.34.34,0,0,0-.34-.34h-.61a.34.34,0,0,0-.34.34Z"/><path class="cls-7" d="M88.26,38.1l-1.84-2.23s-.28-.27,0-.27h.94a.09.09,0,0,0,.1-.09V32.36s0-.16.2-.16h1.46c.17,0,.17.13.17.13v3.11a.1.1,0,0,0,.09.1h.87c.37,0,.09.27.09.27s-1.57,2.09-1.79,2.3a.21.21,0,0,1-.31,0Z"/></g></g></svg>