<svg xmlns="http://www.w3.org/2000/svg" viewBox="0 0 141.56 132.68"><defs><style>.cls-1{fill:#58dee8;}.cls-2{fill:none;stroke-width:1.27px;}.cls-2,.cls-3,.cls-6,.cls-7{stroke:#112349;}.cls-2,.cls-7{stroke-linecap:round;stroke-linejoin:round;}.cls-3,.cls-6,.cls-7,.cls-8{fill:#fff;}.cls-3,.cls-6{stroke-miterlimit:10;}.cls-3{stroke-width:1.23px;}.cls-4{font-size:17.95px;fill:#112349;font-family:Helvetica-CondensedBold, Helvetica-Condensed;font-weight:700;letter-spacing:-0.01em;}.cls-5{letter-spacing:-0.06em;}.cls-6{stroke-width:1.19px;}.cls-7{stroke-width:1.08px;}.cls-9{fill:#132448;}</style></defs><title>Recurso 14</title><g id="Capa_2" data-name="Capa 2"><g id="Prod._Multimedial" data-name="Prod. Multimedial"><ellipse class="cls-1" cx="69.37" cy="49.47" rx="50.12" ry="48.87"/><circle class="cls-2" cx="68.89" cy="50.52" r="49.89"/><path class="cls-2" d="M43.94,84.64A42.3,42.3,0,0,1,28.43,62.76"/><path class="cls-2" d="M109.46,62.38A42.23,42.23,0,0,1,98.71,80.47"/><path class="cls-2" d="M27.89,40.21a42.28,42.28,0,0,1,81.28-2.52"/><polygon class="cls-3" points="140.79 77.44 5.2 89.41 0.78 109.92 8.92 109.22 8.23 112.5 135.91 100.53 140.79 77.44"/><text class="cls-4" transform="matrix(0.99, -0.09, -0.21, 0.98, 5.17, 107.39)">INTERPRE<tspan class="cls-5" x="74.06" y="0">T</tspan><tspan x="81.96" y="0">ACIÓN</tspan></text><polygon class="cls-6" points="108.69 103.14 36.64 109.39 33.07 132.02 101.68 126.45 102.17 123.65 105.14 123.36 108.69 103.14"/><text class="cls-4" transform="matrix(0.99, -0.09, -0.21, 0.98, 36.25, 127.35)">TEXTUAL</text><polygon class="cls-7" points="34.87 43.28 36.14 45.85 38.98 46.26 36.92 48.26 37.41 51.08 34.87 49.75 32.34 51.08 32.82 48.26 30.77 46.26 33.6 45.85 34.87 43.28"/><polygon class="cls-7" points="102.13 34.07 103.39 36.64 106.23 37.05 104.18 39.05 104.66 41.88 102.13 40.54 99.59 41.88 100.08 39.05 98.02 37.05 100.86 36.64 102.13 34.07"/><rect class="cls-8" x="52.38" y="28.76" width="33.54" height="41.44" rx="1.48" ry="1.48"/><path class="cls-9" d="M76.89,48.1H61a1.09,1.09,0,1,0,0,2.18H76.89a1.09,1.09,0,1,0,0-2.18Z"/><path class="cls-9" d="M92.52,52.2A.8.8,0,0,0,92,52a.71.71,0,0,0-.5.25L81,63.86l-5.63-5.43a.75.75,0,0,0-.51-.21.79.79,0,0,0-.54.23.75.75,0,0,0-.2.53.7.7,0,0,0,.23.52l6.19,6a.74.74,0,0,0,1,0L92.55,53.27a.79.79,0,0,0,.21-.58.66.66,0,0,0-.23-.47Z"/><path class="cls-9" d="M59.87,58.63A1.09,1.09,0,0,0,61,59.72h4.72a1.1,1.1,0,0,0,0-2.19H61A1.09,1.09,0,0,0,59.87,58.63Z"/><path class="cls-9" d="M76.89,38.36H61a1.09,1.09,0,0,0,0,2.18H76.89a1.09,1.09,0,0,0,0-2.18Z"/><path class="cls-9" d="M85.15,28.39h-33a.74.74,0,0,0-.74.74V69.54a.74.74,0,0,0,.74.74H67.45a.74.74,0,1,0,0-1.48H52.85V29.87H84.41V50.66a.74.74,0,1,0,1.47,0V29.13A.74.74,0,0,0,85.15,28.39Z"/></g></g></svg>