<svg xmlns="http://www.w3.org/2000/svg" viewBox="0 0 399.74 512.44"><defs><style>.cls-1,.cls-4,.cls-6,.cls-8{fill:#fff;}.cls-2{fill:#58dee8;}.cls-3{fill:none;stroke-width:1.27px;}.cls-3,.cls-4,.cls-6,.cls-8{stroke:#112349;}.cls-3,.cls-4{stroke-linecap:round;stroke-linejoin:round;}.cls-4{stroke-width:1.08px;}.cls-5{fill:#132448;}.cls-6,.cls-8{stroke-miterlimit:10;}.cls-6{stroke-width:1.23px;}.cls-7{fill:#112349;}.cls-8{stroke-width:1.19px;}</style></defs><title>interpretacion-textual_1</title><g id="Capa_2" data-name="Capa 2"><g id="Layer_1" data-name="Layer 1"><rect class="cls-1" y="0.44" width="399.74" height="512"/><ellipse class="cls-2" cx="200.12" cy="129.74" rx="129.8" ry="129.3"/><circle class="cls-3" cx="198.92" cy="129.84" r="129.2"/><path class="cls-3" d="M134.32,218.14a110.37,110.37,0,0,1-40.2-56.7"/><path class="cls-3" d="M304,160.54a109.33,109.33,0,0,1-27.9,46.9"/><path class="cls-3" d="M92.72,103a109.49,109.49,0,0,1,210.5-6.6"/><polygon class="cls-4" points="110.82 125.04 114.12 131.74 121.42 132.74 116.12 137.94 117.42 145.24 110.82 141.84 104.22 145.24 105.52 137.94 100.22 132.74 107.52 131.74 110.82 125.04"/><polygon class="cls-4" points="285.02 87.24 288.32 93.84 295.62 94.94 290.32 100.14 291.62 107.44 285.02 103.94 278.42 107.44 279.72 100.14 274.42 94.94 281.72 93.84 285.02 87.24"/><path class="cls-1" d="M241.52,180.74h-83.9a1.54,1.54,0,0,1-1.5-1.5V74.94a1.54,1.54,0,0,1,1.5-1.5h83.9a1.54,1.54,0,0,1,1.5,1.5v104.4A1.39,1.39,0,0,1,241.52,180.74Z"/><path class="cls-5" d="M219.62,123.54h-41.3a2.8,2.8,0,0,0,0,5.6h41.3a2.8,2.8,0,0,0,2.8-2.8A2.73,2.73,0,0,0,219.62,123.54Z"/><path class="cls-5" d="M260.12,134.14a1.87,1.87,0,0,0-1.4-.5,2,2,0,0,0-1.3.6l-27,30-14.6-14.1a2.11,2.11,0,0,0-1.3-.5,1.82,1.82,0,0,0-1.4.6,1.74,1.74,0,0,0-.5,1.4,2,2,0,0,0,.6,1.4l16,15.4a1.74,1.74,0,0,0,1.4.5,2,2,0,0,0,1.3-.6l28.3-31.6a1.78,1.78,0,0,0-.1-2.6Z"/><path class="cls-5" d="M175.52,150.84a2.8,2.8,0,0,0,2.8,2.8h12.2a2.8,2.8,0,0,0,0-5.6h-12.2A2.73,2.73,0,0,0,175.52,150.84Z"/><path class="cls-5" d="M219.62,98.34h-41.3a2.8,2.8,0,0,0-2.8,2.8,2.86,2.86,0,0,0,2.8,2.8h41.3a2.8,2.8,0,0,0,0-5.6Z"/><path class="cls-5" d="M241,72.44h-85.6a1.9,1.9,0,0,0-1.9,1.9V179a1.9,1.9,0,0,0,1.9,1.9h39.7a1.9,1.9,0,0,0,0-3.8h-37.8V76.34h81.8v53.9a1.9,1.9,0,0,0,1.9,1.9,2,2,0,0,0,1.9-1.9V74.44A1.92,1.92,0,0,0,241,72.44Z"/><polygon class="cls-6" points="358.62 210.74 51.12 237.84 41.12 284.34 59.52 282.74 58.02 290.24 347.52 263.04 358.62 210.74"/><path class="cls-7" d="M63.42,276.44l6-28.4,5.8-.5-6,28.4Z"/><path class="cls-7" d="M86,246.54l2.9,18.9H89l4.1-19.5,5.3-.5-6,28.4-6.6.6-2.9-19.3h-.1L78.62,275l-5.3.5,6-28.4Z"/><path class="cls-7" d="M119,243.74l-1,4.7-6.3.5-5,23.7-5.8.5,5-23.7-6.3.5,1-4.7Z"/><path class="cls-7" d="M137.42,242.14l-1,4.7-10.3.9-1.4,6.7,9.7-.8-1,4.7-9.7.8-1.6,7.6,10.7-.9-1,4.7-16.5,1.4,6-28.4Z"/><path class="cls-7" d="M140.52,241.84l10.7-.9c4.8-.4,7.1,1.8,6.1,6.7-.8,3.8-2.9,6.5-6.3,7.4v.1c3.8.2,4,2.3,2.8,8.3-.6,3-.8,4.5.2,5l-.1.2-6.3.5a4.65,4.65,0,0,1-.1-2.9l1-5.4c.4-2.2-.3-3.5-2.7-3.3l-3.1.3-2.5,12-5.8.5Zm3.2,12,2.4-.2a5.35,5.35,0,0,0,5.3-4.6c.6-2.6-.6-3.8-3.2-3.6l-2.7.2Z"/><path class="cls-7" d="M162.72,239.94l10.2-.9c5.9-.5,7,3.6,6.1,7.8-1.2,5.9-5.5,8.9-11,9.3l-3.1.3-2.4,11.3-5.8.5Zm3.1,12.4,2.6-.2a5.28,5.28,0,0,0,4.8-4.6c.6-2.8-.2-4.3-3.1-4l-2.4.2Z"/><path class="cls-7" d="M183.42,238.14l10.7-.9c4.8-.4,7.1,1.8,6.1,6.7-.8,3.8-2.9,6.5-6.3,7.4v.1c3.8.2,4,2.3,2.8,8.3-.6,3-.8,4.5.2,5l-.1.2-6.3.5a4.65,4.65,0,0,1-.1-2.9l1-5.4c.4-2.2-.3-3.5-2.7-3.3l-3.1.3-2.5,12-5.8.5Zm3.2,12,2.4-.2a5.35,5.35,0,0,0,5.3-4.6c.6-2.6-.6-3.8-3.2-3.6l-2.7.2Z"/><path class="cls-7" d="M221.72,234.84l-1,4.7-10.3.9-1.4,6.7,9.7-.8-1,4.7-9.7.8-1.6,7.6,10.7-.9-1,4.7-16.5,1.4,6-28.4Z"/><path class="cls-7" d="M241.72,233.14l-1,4.7-6.3.5-5,23.7-5.8.5,5-23.7-6.3.5,1-4.7Z"/><path class="cls-7" d="M247.32,232.64l7.2-.6,1.6,27.8-6,.5-.1-5.9-7.7.7-2.6,6.1-6,.5Zm-2.9,17.7,5.6-.5-.1-12.5h-.1Z"/><path class="cls-7" d="M274.22,239.74c.9-4.1.4-5.9-2.2-5.6-2.9.3-4.2,3.2-5.9,11.3-1.8,8.6-.9,10,1.6,9.8,2.1-.2,3.9-1.4,5.1-7.5l5.8-.5c-1.3,6.1-3.9,11.6-11.6,12.2-8.7.8-8.5-5.3-6.7-13.9s4.2-14.9,12.9-15.6c8.3-.7,7.6,5.2,6.8,9.4Z"/><path class="cls-7" d="M279.72,257.84l6-28.4,5.8-.5-6,28.4Z"/><path class="cls-7" d="M304.92,227.14c8.7-.8,8.5,5.3,6.7,13.9s-4.2,14.9-12.9,15.6-8.5-5.3-6.7-13.9S296.22,227.94,304.92,227.14Zm-5.4,25.3c3.4-.3,4.6-3.2,6.2-10.9s1.7-10.5-1.8-10.2-4.6,3.3-6.2,10.9S296.12,252.74,299.52,252.44Zm6.4-32.1,5.6-.5-5.2,6.1-3.8.3Z"/><path class="cls-7" d="M324.52,226l2.9,18.9h.1l4.1-19.5,5.3-.5-6,28.4-6.6.6-2.9-19.3h-.1l-4.2,19.9-5.3.5,6-28.4Z"/><polygon class="cls-8" points="285.62 268.94 122.22 283.14 114.12 334.44 269.72 321.84 270.82 315.54 277.52 314.84 285.62 268.94"/><path class="cls-7" d="M156.22,291.84l-1,4.7-6.3.5-5,23.7-5.8.5,5-23.7-6.3.5,1-4.7Z"/><path class="cls-7" d="M174.52,290.24l-1,4.7-10.3.9-1.4,6.7,9.7-.8-1,4.7-9.7.8-1.6,7.6,10.7-.9-1,4.7-16.5,1.4,6-28.4Z"/><path class="cls-7" d="M176.42,290l6.4-.6,1.8,8.9,5.6-9.5,6.3-.5-9.7,14.6,4.1,13.8-6.5.6-2.1-9.3-6.1,10-6.4.5,10.2-15Z"/><path class="cls-7" d="M215.92,286.64l-1,4.7-6.3.5-5,23.7-5.8.5,5-23.7-6.3.5,1-4.7Z"/><path class="cls-7" d="M223.62,286l-4.2,19.8c-.6,2.8-.4,4.9,2.3,4.6s3.8-2.4,4.4-5.2l4.2-19.8,5.8-.5-4.2,19.8c-1.5,7.2-6.4,9.5-11.1,9.9s-8.9-.8-7.3-8.4l4.2-19.8Z"/><path class="cls-7" d="M245.32,284.14l7.2-.6,1.6,27.8-6,.5-.1-5.9-7.7.7-2.6,6.1-6,.5Zm-3,17.7,5.6-.5-.1-12.5h-.1Z"/><path class="cls-7" d="M255.92,311.14l6-28.4,5.8-.5-5,23.7L273,305l-1,4.7Z"/></g></g></svg>