<svg xmlns="http://www.w3.org/2000/svg" viewBox="0 0 142.25 170.61"><defs><style>.cls-1{fill:#93e2a2;}.cls-10,.cls-2,.cls-4,.cls-9{fill:#fff;}.cls-10,.cls-2,.cls-3,.cls-4,.cls-9{stroke:#112349;}.cls-2,.cls-3{stroke-linecap:round;stroke-linejoin:round;}.cls-2{stroke-width:1.2px;}.cls-3{fill:none;stroke-width:1.41px;}.cls-10,.cls-4,.cls-9{stroke-miterlimit:10;}.cls-4{stroke-width:1.36px;}.cls-5,.cls-8{font-size:19.85px;fill:#112349;font-family:Helvetica-CondensedBold, Helvetica-Condensed;font-weight:700;}.cls-5{letter-spacing:-0.04em;}.cls-6,.cls-8{letter-spacing:0em;}.cls-7{letter-spacing:-0.02em;}.cls-9{stroke-width:1.32px;}.cls-10{stroke-width:1.57px;}</style></defs><title>Recurso 10</title><g id="Capa_2" data-name="Capa 2"><g id="Prod._Multimedial" data-name="Prod. Multimedial"><ellipse class="cls-1" cx="68.98" cy="54.51" rx="55.44" ry="54.06"/><polygon class="cls-2" points="110 53.3 111.41 56.14 114.55 56.6 112.28 58.81 112.81 61.94 110 60.46 107.2 61.94 107.74 58.81 105.47 56.6 108.6 56.14 110 53.3"/><circle class="cls-3" cx="69.13" cy="55.88" r="55.18"/><path class="cls-3" d="M41.54,93.61A46.84,46.84,0,0,1,24.38,69.42"/><path class="cls-3" d="M114,69a46.73,46.73,0,0,1-11.9,20"/><path class="cls-3" d="M23.79,44.47a46.76,46.76,0,0,1,89.89-2.78"/><polygon class="cls-2" points="43.5 26.12 44.9 28.96 48.04 29.41 45.77 31.63 46.31 34.75 43.5 33.28 40.7 34.75 41.23 31.63 38.96 29.41 42.1 28.96 43.5 26.12"/><polygon class="cls-4" points="141.4 87.05 5.74 98.52 0.85 122.36 9.85 121.59 9.09 125.21 136.01 113.75 141.4 87.05"/><text class="cls-5" transform="matrix(0.99, -0.09, -0.21, 0.98, 5.71, 118.78)">P<tspan class="cls-6" x="10.2" y="0">A</tspan><tspan class="cls-7" x="21.14" y="0">R</tspan><tspan class="cls-6" x="32.81" y="0">TICI</tspan><tspan x="64.41" y="0">P</tspan><tspan class="cls-6" x="74.61" y="0">ACIÓN</tspan></text><polygon class="cls-4" points="31.39 169.86 123.19 162.31 128.09 138.46 119.08 139.24 119.84 135.09 36.79 142.64 31.39 169.86"/><text class="cls-8" transform="matrix(0.99, -0.09, -0.21, 0.98, 33.13, 164.99)"><tspan xml:space="preserve"> SOCIALES</tspan></text><polygon class="cls-9" points="109.25 114.07 20.16 122.55 16.2 147.59 101.49 139.86 102.03 136.76 105.31 136.44 109.25 114.07"/><text class="cls-8" transform="matrix(0.99, -0.09, -0.21, 0.98, 19.71, 141.64)">EN REDES</text><path class="cls-10" d="M60.17,52.26l2.09-1.61a1.48,1.48,0,0,0,.26-.24c.87-1,6.51-7.78,7.78-12.07a1.49,1.49,0,0,0,.07-.47V30.94a2.31,2.31,0,0,1,.92-1.84,4.69,4.69,0,0,1,5.32-.41,1.73,1.73,0,0,1,.64.59,23.65,23.65,0,0,1,2.8,6.7,6.42,6.42,0,0,1,.09,2.62l-1.4,8.1A.29.29,0,0,0,79,47H93.11a3.55,3.55,0,0,1,3.48,2.75A5.38,5.38,0,0,1,96.71,51a3.83,3.83,0,0,1-2.11,3.64.51.51,0,0,0-.12.81A3.52,3.52,0,0,1,95.57,58a4.3,4.3,0,0,1-1.78,3.19.33.33,0,0,0-.05.49,3.63,3.63,0,0,1,.87,2.45,4.34,4.34,0,0,1-2,3.33.54.54,0,0,0-.15.73,5,5,0,0,1,.7,2.68,4.1,4.1,0,0,1-4.11,3.76H64.64a1.67,1.67,0,0,1-.76-.18l-3.44-1.72a1.67,1.67,0,0,1-.93-1.5V53.59A1.67,1.67,0,0,1,60.17,52.26Z"/><rect class="cls-10" x="41.66" y="50.98" width="17.86" height="25.3" rx="1.78" ry="1.78"/></g></g></svg>