<svg xmlns="http://www.w3.org/2000/svg" viewBox="0 0 112.24 131.97"><defs><style>.cls-1{fill:#fcd430;}.cls-2,.cls-4,.cls-6,.cls-7{fill:#fff;}.cls-2,.cls-3,.cls-4,.cls-7,.cls-9{stroke:#112349;}.cls-2,.cls-3{stroke-linecap:round;stroke-linejoin:round;}.cls-2{stroke-width:1.08px;}.cls-3,.cls-9{fill:none;}.cls-3{stroke-width:1.27px;}.cls-4,.cls-7,.cls-9{stroke-miterlimit:10;}.cls-4{stroke-width:1.23px;}.cls-5,.cls-8{font-size:17.95px;fill:#112349;font-family:Helvetica-CondensedBold, Helvetica-Condensed;font-weight:700;}.cls-5{letter-spacing:-0.01em;}.cls-7{stroke-width:1.19px;}.cls-8{letter-spacing:0em;}.cls-9{stroke-width:1.5px;}.cls-10{fill:#142348;}</style></defs><title>Recurso 15</title><g id="Capa_2" data-name="Capa 2"><g id="Prod._Multimedial" data-name="Prod. Multimedial"><ellipse class="cls-1" cx="55.74" cy="50.21" rx="50.12" ry="48.87"/><polygon class="cls-2" points="85.3 48.19 86.57 50.76 89.41 51.17 87.35 53.17 87.84 56 85.3 54.66 82.77 56 83.25 53.17 81.2 51.17 84.03 50.76 85.3 48.19"/><circle class="cls-3" cx="55.43" cy="50.52" r="49.89"/><path class="cls-3" d="M30.48,84.64A42.3,42.3,0,0,1,15,62.76"/><path class="cls-3" d="M96,62.38A42.35,42.35,0,0,1,85.25,80.47"/><path class="cls-3" d="M14.44,40.21a42.27,42.27,0,0,1,81.27-2.52"/><polygon class="cls-2" points="35.8 22.2 37.06 24.77 39.9 25.18 37.85 27.18 38.33 30 35.8 28.67 33.26 30 33.74 27.18 31.69 25.18 34.53 24.77 35.8 22.2"/><polygon class="cls-4" points="107.76 78.36 5.42 87.33 0.77 109.22 8.91 108.52 8.22 111.79 102.65 102.82 107.76 78.36"/><text class="cls-5" transform="matrix(0.99, -0.09, -0.21, 0.98, 5.17, 105.98)">PREVENCIÓN</text><polygon class="cls-6" points="77.42 67.84 32.42 67.84 55.42 25.84 77.42 67.84"/><polygon class="cls-7" points="111.52 100.3 16.81 108.68 13.24 131.31 104.51 123.62 105 120.82 107.97 120.53 111.52 100.3"/><text class="cls-8" transform="matrix(0.99, -0.09, -0.21, 0.98, 15, 126.65)">DE RIESGOS</text><path class="cls-9" d="M33.09,66.56,54.85,27A.65.65,0,0,1,56,27L77.75,66.56a.65.65,0,0,1-.57,1H33.66A.65.65,0,0,1,33.09,66.56Z"/><path class="cls-10" d="M54,53.94c0,1.35.09,2.44,1.44,2.44s1.44-1.09,1.44-2.44V39.88c0-1.34-.09-2.43-1.44-2.43S54,38.54,54,39.88Z"/><path class="cls-10" d="M55.42,59.48a2,2,0,1,0,2,2,2,2,0,0,0-2-2Z"/></g></g></svg>