<svg xmlns="http://www.w3.org/2000/svg" viewBox="0 0 141.78 146.24"><defs><style>.cls-1{fill:#e867bd;}.cls-2,.cls-4,.cls-8,.cls-9{fill:#fff;}.cls-2,.cls-3,.cls-4,.cls-8{stroke:#112349;}.cls-2,.cls-3,.cls-8{stroke-linecap:round;stroke-linejoin:round;}.cls-2{stroke-width:1.2px;}.cls-10,.cls-3{fill:none;}.cls-3{stroke-width:1.41px;}.cls-4{stroke-miterlimit:10;stroke-width:1.36px;}.cls-5{font-size:19.85px;fill:#112349;font-family:Helvetica-CondensedBold, Helvetica-Condensed;font-weight:700;letter-spacing:0em;}.cls-6{letter-spacing:-0.08em;}.cls-7{letter-spacing:0em;}.cls-8{stroke-width:1.17px;}.cls-11{fill:#142348;}</style></defs><title>Recurso 4</title><g id="Capa_2" data-name="Capa 2"><g id="Prod._Multimedial" data-name="Prod. Multimedial"><ellipse class="cls-1" cx="70.05" cy="54.95" rx="55.44" ry="54.06"/><polygon class="cls-2" points="106.64 44.69 108.05 47.53 111.18 47.98 108.91 50.2 109.45 53.32 106.64 51.84 103.84 53.32 104.38 50.2 102.11 47.98 105.24 47.53 106.64 44.69"/><circle class="cls-3" cx="69.69" cy="55.88" r="55.18"/><path class="cls-3" d="M42.1,93.61A46.73,46.73,0,0,1,24.94,69.42"/><path class="cls-3" d="M114.57,69a46.73,46.73,0,0,1-11.9,20"/><path class="cls-3" d="M24.35,44.47a46.76,46.76,0,0,1,89.89-2.78"/><polygon class="cls-4" points="122.9 89.11 5.99 99.36 0.87 121.83 9.87 121.05 9.11 124.68 117.28 114.42 122.9 89.11"/><text class="cls-5" transform="matrix(0.99, -0.09, -0.21, 0.98, 5.73, 119.02)">PRODUCCIÓN</text><polygon class="cls-4" points="140.97 109.82 20.72 120.45 16.51 145.49 133.49 135.6 134.07 132.51 137.56 132.18 140.97 109.82"/><text class="cls-5" transform="matrix(0.99, -0.09, -0.21, 0.98, 20.02, 140.32)">MU<tspan class="cls-6" x="27.37" y="0">L</tspan><tspan class="cls-7" x="35.73" y="0">TIMEDIAL</tspan></text><polygon class="cls-8" points="32.75 57.21 34.12 59.99 37.19 60.44 34.97 62.61 35.49 65.67 32.75 64.22 30 65.67 30.52 62.61 28.3 60.44 31.37 59.99 32.75 57.21"/><rect class="cls-9" x="44.93" y="30.49" width="48.09" height="36.82" rx="4.6" ry="4.6"/><rect class="cls-9" x="44.93" y="30.49" width="48.09" height="29.65" rx="4.12" ry="4.12"/><rect class="cls-9" x="41.72" y="49.06" width="24.85" height="31.33" rx="3.05" ry="3.05"/><rect class="cls-9" x="41.72" y="53.38" width="24.85" height="22.62" rx="2.59" ry="2.59"/><rect class="cls-9" x="81.65" y="55.21" width="14.33" height="25.19" rx="2.08" ry="2.08"/><rect class="cls-9" x="81.65" y="60.14" width="14.33" height="15.76" rx="1.64" ry="1.64"/><path class="cls-10" d="M75.4,76.08a.64.64,0,0,0,.11-.55l-.13-.47H67.44v1.26H74.9A.65.65,0,0,0,75.4,76.08Z"/><path class="cls-10" d="M64.37,50.09H44a.63.63,0,0,0-.63.63v1.56H65V50.72A.63.63,0,0,0,64.37,50.09Z"/><path class="cls-10" d="M83.79,79.1H94a.63.63,0,0,0,.63-.63V76.91H83.16v1.56A.63.63,0,0,0,83.79,79.1Z"/><rect class="cls-10" x="83.16" y="61.19" width="11.43" height="13.28"/><rect class="cls-10" x="67.44" y="61.19" width="13.28" height="4.96"/><polygon class="cls-10" points="67.44 68.59 67.44 72.62 74.71 72.62 73.61 68.59 67.44 68.59"/><path class="cls-10" d="M89.34,31.6H48.65a2.48,2.48,0,0,0-2.48,2.48V47.66h18.2a3.07,3.07,0,0,1,3.07,3.06v8H80.72V57.2a3.08,3.08,0,0,1,3.07-3.07h8V34.08A2.48,2.48,0,0,0,89.34,31.6Z"/><path class="cls-10" d="M94,56.57H83.79a.63.63,0,0,0-.63.63v1.55H94.59V57.2A.63.63,0,0,0,94,56.57Z"/><rect class="cls-10" x="43.4" y="54.72" width="21.61" height="19.76"/><path class="cls-10" d="M44,79.1H64.37a.63.63,0,0,0,.63-.63V76.91H43.4v1.56A.63.63,0,0,0,44,79.1Z"/><path class="cls-11" d="M94,54.72h-.29V34.08a4.33,4.33,0,0,0-4.33-4.33H48.65a4.33,4.33,0,0,0-4.33,4.33V48.24H44a2.49,2.49,0,0,0-2.48,2.48V78.47A2.49,2.49,0,0,0,44,81H64.37a2.49,2.49,0,0,0,2.48-2.48v-.3H74.9a2.46,2.46,0,0,0,2-1A2.49,2.49,0,0,0,77.29,75l-1.92-7h5.94V78.47A2.49,2.49,0,0,0,83.79,81H94a2.49,2.49,0,0,0,2.48-2.48V57.2A2.48,2.48,0,0,0,94,54.72ZM65.59,78.47a1.22,1.22,0,0,1-1.22,1.22H44a1.22,1.22,0,0,1-1.22-1.22V76.32H65.59Zm0-3.41H42.81V54.13H65.59Zm0-22.19H42.81V50.72A1.22,1.22,0,0,1,44,49.51H64.37a1.22,1.22,0,0,1,1.22,1.21Zm10.48,22.5a1.21,1.21,0,0,1-.2,1.06h0a1.21,1.21,0,0,1-1,.48H66.85V74.47h9Zm-.59-2.16H66.85V68h7.21Zm5.83-6.47H66.85V60.6H81.31Zm0-9.54v2.14H66.85V50.72a2.49,2.49,0,0,0-2.48-2.48H45.58V34.08A3.08,3.08,0,0,1,48.65,31H89.34a3.08,3.08,0,0,1,3.07,3.07V54.72H83.79A2.48,2.48,0,0,0,81.31,57.2ZM95.18,78.47A1.22,1.22,0,0,1,94,79.69H83.79a1.22,1.22,0,0,1-1.22-1.22V76.32H95.18Zm0-3.41H82.57V60.6H95.18Zm0-15.72H82.57V57.2A1.22,1.22,0,0,1,83.79,56H94a1.22,1.22,0,0,1,1.22,1.22Z"/><path class="cls-9" d="M67.15,68.29v4.63H75.1l-1.26-4.63Zm.29,4.33v-4h6.17l1.1,4Z"/><path class="cls-9" d="M64.37,49.8H44a.93.93,0,0,0-.93.92v1.85H65.3V50.72A.93.93,0,0,0,64.37,49.8ZM65,52.28H43.4V50.72a.63.63,0,0,1,.63-.63H64.37a.63.63,0,0,1,.63.63Z"/><path class="cls-9" d="M81,60.9H67.15v5.55H81Zm-.3,5.25H67.44v-5H80.72Z"/><path class="cls-9" d="M44,79.39H64.37a.93.93,0,0,0,.93-.92V76.62H43.1v1.85A.93.93,0,0,0,44,79.39Zm-.63-2.48H65v1.56a.63.63,0,0,1-.63.63H44a.63.63,0,0,1-.63-.63Z"/><path class="cls-9" d="M75.63,76.25a.89.89,0,0,0,.16-.8l-.19-.68H67.15v1.85H74.9A.91.91,0,0,0,75.63,76.25Z"/><path class="cls-9" d="M65.3,54.42H43.1V74.77H65.3Zm-.3,20H43.4V54.72H65Z"/><path class="cls-9" d="M83.79,79.39H94a.93.93,0,0,0,.93-.92V76.62h-12v1.85A.92.92,0,0,0,83.79,79.39Zm-.63-2.48H94.59v1.56a.63.63,0,0,1-.63.63H83.79a.63.63,0,0,1-.63-.63Z"/><path class="cls-9" d="M94.89,60.9h-12V74.77h12Zm-.3,13.57H83.16V61.19H94.59Z"/><path class="cls-9" d="M94,56.27H83.79a.93.93,0,0,0-.92.93v1.85h12V57.2A.93.93,0,0,0,94,56.27Zm.63,2.48H83.16V57.2a.63.63,0,0,1,.63-.63H94a.63.63,0,0,1,.63.63Z"/><path class="cls-9" d="M42.81,78.47A1.22,1.22,0,0,0,44,79.69H64.37a1.22,1.22,0,0,0,1.22-1.22V76.32H42.81Zm.29-1.85H65.3v1.85a.93.93,0,0,1-.93.92H44a.93.93,0,0,1-.93-.92Z"/><path class="cls-9" d="M94,56H83.79a1.22,1.22,0,0,0-1.22,1.22v2.14H95.18V57.2A1.22,1.22,0,0,0,94,56Zm.93,3.07h-12V57.2a.93.93,0,0,1,.92-.93H94a.93.93,0,0,1,.93.93Z"/><path class="cls-9" d="M66.85,66.74H81.31V60.6H66.85Zm.3-5.84H81v5.55H67.15Z"/><path class="cls-9" d="M66.85,68v5.21h8.63L74.06,68Z"/><path class="cls-9" d="M64.37,49.51H44a1.22,1.22,0,0,0-1.22,1.21v2.15H65.59V50.72A1.22,1.22,0,0,0,64.37,49.51Zm.93,3.06H43.1V50.72A.93.93,0,0,1,44,49.8H64.37a.93.93,0,0,1,.93.92Z"/><path class="cls-9" d="M66.85,76.91H74.9a1.21,1.21,0,0,0,1-.48h0a1.21,1.21,0,0,0,.2-1.06l-.24-.9h-9Zm.3-2.14H75.6l.19.68a.89.89,0,0,1-.16.8.91.91,0,0,1-.73.37H67.15Z"/><path class="cls-9" d="M42.81,75.06H65.59V54.13H42.81Zm.29-20.64H65.3V74.77H43.1Z"/><path class="cls-9" d="M82.57,78.47a1.22,1.22,0,0,0,1.22,1.22H94a1.22,1.22,0,0,0,1.22-1.22V76.32H82.57Zm.3-1.85h12v1.85a.93.93,0,0,1-.93.92H83.79a.92.92,0,0,1-.92-.92Z"/><path class="cls-9" d="M82.57,75.06H95.18V60.6H82.57Zm.3-14.16h12V74.77h-12Z"/><rect class="cls-11" x="46.44" y="61" width="9.97" height="1.85" rx="0.63" ry="0.63" transform="translate(-28.72 54.5) rotate(-45)"/><rect class="cls-11" x="45.66" y="64.48" width="16.51" height="1.85" rx="0.73" ry="0.73" transform="translate(-30.46 57.28) rotate(-45)"/><rect class="cls-11" x="64.73" y="41.73" width="16.51" height="1.85" rx="0.49" ry="0.49" transform="translate(-8.78 64.1) rotate(-45)"/><rect class="cls-11" x="85.49" y="67.37" width="6.54" height="1.85" rx="0.79" ry="0.79" transform="translate(-22.3 82.77) rotate(-45)"/><rect class="cls-11" x="47.73" y="33.15" width="1.85" height="1.85" rx="0.47" ry="0.47"/><rect class="cls-11" x="51.43" y="33.15" width="1.85" height="1.85" rx="0.41" ry="0.41"/><rect class="cls-11" x="55.13" y="33.15" width="1.85" height="1.85" rx="0.48" ry="0.48"/></g></g></svg>