<svg xmlns="http://www.w3.org/2000/svg" viewBox="0 0 127.07 149.99"><defs><style>.cls-1{fill:#f49e40;}.cls-2{fill:none;stroke-width:1.41px;}.cls-2,.cls-3,.cls-4{stroke:#112349;}.cls-2,.cls-3{stroke-linecap:round;stroke-linejoin:round;}.cls-3,.cls-4,.cls-6{fill:#fff;}.cls-3{stroke-width:1.2px;}.cls-4,.cls-6{stroke-miterlimit:10;}.cls-4{stroke-width:1.36px;}.cls-5{font-size:19.85px;fill:#112349;font-family:Helvetica-CondensedBold, Helvetica-Condensed;font-weight:700;letter-spacing:0em;}.cls-6{stroke:#142348;stroke-width:1.57px;}</style></defs><title>Recurso 3</title><g id="Capa_2" data-name="Capa 2"><g id="Prod._Multimedial" data-name="Prod. Multimedial"><ellipse class="cls-1" cx="61.52" cy="54.06" rx="55.44" ry="54.06"/><circle class="cls-2" cx="61.96" cy="55.97" r="55.18"/><path class="cls-2" d="M34.37,93.7A46.73,46.73,0,0,1,17.21,69.51"/><path class="cls-2" d="M106.84,69.09a46.73,46.73,0,0,1-11.9,20"/><path class="cls-2" d="M16.62,44.56a46.76,46.76,0,0,1,89.89-2.78"/><polygon class="cls-3" points="37.89 34.82 39.3 37.66 42.43 38.12 40.16 40.33 40.7 43.46 37.89 41.98 35.09 43.46 35.62 40.33 33.35 38.12 36.49 37.66 37.89 34.82"/><polygon class="cls-3" points="93.43 58.09 94.84 60.93 97.97 61.39 95.7 63.6 96.24 66.72 93.43 65.25 90.63 66.72 91.16 63.6 88.89 61.39 92.03 60.93 93.43 58.09"/><polygon class="cls-4" points="126.21 92.02 5.98 101.94 0.86 125.59 9.86 124.81 9.1 128.44 120.59 118.51 126.21 92.02"/><text class="cls-5" transform="matrix(0.99, -0.09, -0.21, 0.98, 5.72, 122)">PRODUCCIÓN</text><polygon class="cls-4" points="104.92 117.37 25.91 124.21 21.69 149.25 96.66 143.16 97.24 140.06 100.73 139.74 104.92 117.37"/><text class="cls-5" transform="matrix(0.99, -0.09, -0.21, 0.98, 25.99, 144.08)">SONORA</text><path class="cls-6" d="M78.18,28,55,35.09c-5.37,2.07-5.1,3.74-5.1,6.56V66.14s-1.68-1.13-5.43-.6c-5.5.78-10,5-10,9.43s4.47,7.15,10,6.37S54,76.46,54,72V51.12c0-2,2.36-2.81,2.36-2.81l20.53-6.44s2.27-.76,2.27,1.34V60a10,10,0,0,0-5.84-.76c-5.5.67-10,4.81-10,9.24s4.46,7.24,10,6.57,10-4.8,10-9.24V31.63C83.27,28.82,83,26,78.18,28Z"/></g></g></svg>