<svg xmlns="http://www.w3.org/2000/svg" viewBox="0 0 143.73 146.75"><defs><style>.cls-1{fill:#d8e563;}.cls-2,.cls-4,.cls-6,.cls-7{fill:#fff;}.cls-2,.cls-3,.cls-4,.cls-6{stroke:#112349;}.cls-2,.cls-3{stroke-linecap:round;stroke-linejoin:round;}.cls-2{stroke-width:1.2px;}.cls-3,.cls-9{fill:none;}.cls-3{stroke-width:1.41px;}.cls-4,.cls-6,.cls-9{stroke-miterlimit:10;}.cls-4{stroke-width:1.36px;}.cls-5{font-size:19.85px;fill:#112349;font-family:Helvetica-CondensedBold, Helvetica-Condensed;font-weight:700;letter-spacing:0em;}.cls-6{stroke-width:1.32px;}.cls-8{fill:#142348;}.cls-9{stroke:#142348;stroke-width:1.17px;}</style></defs><title>Recurso 5</title><g id="Capa_2" data-name="Capa 2"><g id="Prod._Multimedial" data-name="Prod. Multimedial"><ellipse class="cls-1" cx="69.48" cy="55.54" rx="55.44" ry="54.06"/><polygon class="cls-2" points="107.66 45.47 109.06 48.31 112.2 48.77 109.93 50.98 110.47 54.1 107.66 52.63 104.86 54.1 105.39 50.98 103.12 48.77 106.26 48.31 107.66 45.47"/><circle class="cls-3" cx="69.14" cy="55.88" r="55.18"/><path class="cls-3" d="M41.55,93.61A46.73,46.73,0,0,1,24.39,69.42"/><path class="cls-3" d="M114,69a46.73,46.73,0,0,1-11.9,20"/><path class="cls-3" d="M23.8,44.47a46.76,46.76,0,0,1,89.89-2.78"/><polygon class="cls-2" points="48.17 20.03 49.58 22.88 52.71 23.33 50.44 25.54 50.98 28.67 48.17 27.19 45.37 28.67 45.9 25.54 43.63 23.33 46.77 22.88 48.17 20.03"/><polygon class="cls-4" points="126.23 88.23 6 98.16 0.86 122.36 9.86 121.59 9.1 125.21 120.58 115.29 126.23 88.23"/><text class="cls-5" transform="matrix(0.99, -0.09, -0.21, 0.98, 5.72, 118.78)">PRODUCCIÓN</text><polygon class="cls-6" points="142.93 110.16 25.64 120.98 21.69 146.02 135.17 135.94 135.72 132.85 139 132.52 142.93 110.16"/><text class="cls-5" transform="matrix(0.99, -0.09, -0.21, 0.98, 25.2, 140.07)">AUDIOVISUAL</text><rect class="cls-7" x="47.16" y="46.82" width="45.99" height="35.81" rx="1.2" ry="1.2"/><rect class="cls-7" x="44.82" y="32.72" width="45.82" height="9.45" rx="0.58" ry="0.58" transform="translate(-8.1 21.97) rotate(-17.4)"/><path class="cls-8" d="M83,63.68H52.72c-.58,0-1,.23-1,.51s.47.52,1,.52H83c.58,0,1.05-.23,1.05-.52s-.47-.51-1.05-.51Z"/><path class="cls-8" d="M85.34,71.88H55.07c-.58,0-1,.26-1,.58s.47.58,1,.58H85.34c.58,0,1-.26,1-.58s-.47-.58-1-.58Z"/><path class="cls-9" d="M92.1,46.75H57.31c-2.71,0-2.62.18-.09-.61L90.45,35.87a1.06,1.06,0,0,0,.7-1.32l-2.22-7.17a1,1,0,0,0-.52-.62,1,1,0,0,0-.8-.07L45.79,39.62a1.05,1.05,0,0,0-.7,1.32l2.17,7V81.57a1,1,0,0,0,1.05,1.05H92.1a1,1,0,0,0,1.05-1.05V47.8a1,1,0,0,0-1.05-1Zm-6.22,2.4-5,5.05a.18.18,0,0,1-.12,0H74.42a.18.18,0,0,1-.13-.3l5.06-5.05a.17.17,0,0,1,.12,0h6.29A.17.17,0,0,1,85.88,49.15Zm-9.83.07-5,5a.2.2,0,0,1-.15.06H64.76a.22.22,0,0,1-.15-.37l5-5a.25.25,0,0,1,.16-.06H75.9A.22.22,0,0,1,76.05,49.22Zm-9.67-.08L61.31,54.2a.17.17,0,0,1-.12,0H54.88a.17.17,0,0,1-.12-.29l5.07-5.06a.18.18,0,0,1,.12,0h6.31A.17.17,0,0,1,66.38,49.14Zm-9.76,0L51.55,54.2a.17.17,0,0,1-.12,0h-1.9a.17.17,0,0,1-.17-.17V49a.17.17,0,0,1,.17-.17h7A.17.17,0,0,1,56.62,49.14ZM87.23,29l1.6,5.16-2,.63L80,31.23Zm-10,3.1,6.76,3.57-6.48,2L70.7,34.12ZM67.86,35l6.76,3.56-6.48,2L61.38,37Zm-9.32,2.88,6.76,3.56-6.49,2-6.75-3.57ZM47.41,41.32l1.81-.56L56,44.33l-7,2.15Zm41.92,39.2H50.64a1.28,1.28,0,0,1-1.28-1.28V57.53a1.18,1.18,0,0,1,1.19-1.18H89.62a1.43,1.43,0,0,1,1.43,1.43v21A1.72,1.72,0,0,1,89.33,80.52Zm1.41-26.27H84.49a.3.3,0,0,1-.21-.52l4.79-4.79a.27.27,0,0,1,.21-.09h1.46a.31.31,0,0,1,.31.31v4.78A.31.31,0,0,1,90.74,54.25Z"/></g></g></svg>