<svg xmlns="http://www.w3.org/2000/svg" viewBox="0 0 399.74 512"><defs><style>.cls-1,.cls-4,.cls-7{fill:#fff;}.cls-2{fill:#bb90dd;}.cls-3,.cls-5{fill:none;}.cls-3,.cls-4,.cls-5,.cls-7{stroke:#112349;}.cls-3,.cls-4,.cls-5{stroke-linecap:round;stroke-linejoin:round;}.cls-3{stroke-width:1.41px;}.cls-4{stroke-width:1.2px;}.cls-5{stroke-width:1.39px;}.cls-6{fill:#112349;}.cls-7{stroke-miterlimit:10;stroke-width:1.36px;}</style></defs><title>produccion-escrita_1</title><g id="Capa_2" data-name="Capa 2"><g id="Layer_1" data-name="Layer 1"><rect class="cls-1" width="399.74" height="512"/><ellipse class="cls-2" cx="202.42" cy="128.1" rx="128.5" ry="128.1"/><polygon class="cls-1" points="189.22 159.6 274.62 73.5 258.32 57.2 172.22 143.2 166.82 165.3 189.22 159.6"/><circle class="cls-3" cx="203.52" cy="128.7" r="127.9" transform="translate(-31.4 181.6) rotate(-45)"/><path class="cls-3" d="M139.52,216.2a108.71,108.71,0,0,1-39.8-56.1"/><path class="cls-3" d="M307.52,159.1a108,108,0,0,1-27.6,46.4"/><path class="cls-3" d="M98.42,102.3a108.36,108.36,0,0,1,208.3-6.5"/><polygon class="cls-4" points="147.72 79.7 150.92 86.3 158.22 87.4 152.92 92.5 154.22 99.7 147.72 96.3 141.22 99.7 142.42 92.5 137.22 87.4 144.42 86.3 147.72 79.7"/><polygon class="cls-4" points="258.22 133.6 261.52 140.2 268.82 141.3 263.52 146.4 264.72 153.6 258.22 150.2 251.72 153.6 253.02 146.4 247.72 141.3 255.02 140.2 258.22 133.6"/><path class="cls-5" d="M221.62,95.7l36-36a2.42,2.42,0,0,1,3.5,0L272,70.6a2.42,2.42,0,0,1,0,3.5L236.12,110"/><rect class="cls-6" x="170.51" y="116.92" width="68.4" height="20.4" transform="translate(-29.93 181.98) rotate(-45)"/><polyline class="cls-5" points="173.32 144.1 167.52 164.3 187.72 158.5"/><polyline class="cls-5" points="270.42 78.4 273.92 81.8 240.82 114.9"/><line class="cls-5" x1="136.72" y1="178.6" x2="258.32" y2="178.6"/><line class="cls-5" x1="224.12" y1="193.3" x2="245.62" y2="193.3"/><line class="cls-5" x1="147.62" y1="193.3" x2="204.92" y2="193.3"/><line class="cls-5" x1="131.12" y1="165.5" x2="163.42" y2="165.5"/><polygon class="cls-7" points="341.42 206.7 68.82 229.2 58.32 283.8 78.72 282 77.02 290.2 329.82 267.7 341.42 206.7"/><path class="cls-6" d="M81.62,242.1l11.9-1c6.9-.6,8.2,4.2,7.2,9.2-1.5,6.9-6.4,10.4-12.9,11l-3.6.3-2.8,13.3-6.8.6Zm3.6,14.5,3-.3c2.7-.2,4.9-2,5.6-5.4s-.2-5-3.6-4.7l-2.8.2Z"/><path class="cls-6" d="M105.92,240l12.6-1.1c5.6-.5,8.4,2.1,7.2,7.8-.9,4.4-3.4,7.6-7.4,8.7v.1c4.5.2,4.7,2.7,3.3,9.7-.7,3.5-.9,5.3.2,5.9l-.1.3-7.4.6c-.5-.9-.3-2.1-.1-3.4l1.2-6.4c.5-2.6-.4-4.1-3.1-3.9l-3.6.3-3,14.1-6.8.6Zm3.8,14,2.8-.2c3.3-.3,5.4-1.8,6.2-5.4.7-3.1-.7-4.5-3.8-4.2l-3.2.3Z"/><path class="cls-6" d="M142.92,236.2c10.2-.9,10,6.2,7.8,16.4s-4.9,17.5-15.2,18.3-10-6.2-7.8-16.4S132.72,237.1,142.92,236.2Zm-6.3,29.7c4-.3,5.4-3.8,7.3-12.8s2-12.3-2.1-12-5.4,3.9-7.3,12.8S132.62,266.3,136.62,265.9Z"/><path class="cls-6" d="M158.42,235.5l11.2-1c9.5-.8,9.8,5.4,7.7,15.3-2.5,11.8-6.2,17.4-15.2,18.2l-10.7.9Zm.8,27.9,3-.3c4.7-.4,6.3-3.4,8.2-12.5,1.6-7.6,1.8-11.4-3.4-11l-2.9.2Z"/><path class="cls-6" d="M191.42,232.7l-4.9,23.3c-.7,3.3-.4,5.7,2.8,5.5s4.5-2.8,5.2-6.1l4.9-23.3,6.8-.6-4.9,23.3c-1.8,8.5-7.5,11.2-13.1,11.7s-10.4-.9-8.5-9.8l4.9-23.3Z"/><path class="cls-6" d="M222.32,241.1c1-4.9.5-6.9-2.6-6.6-3.5.3-5,3.8-7,13.2-2.1,10.1-1.1,11.8,1.8,11.5,2.5-.2,4.5-1.6,6-8.8l6.8-.6c-1.5,7.2-4.6,13.6-13.6,14.3-10.2.9-10-6.2-7.8-16.4s4.9-17.5,15.2-18.3c9.7-.8,9,6.2,7.9,11Z"/><path class="cls-6" d="M247.52,238.9c1-4.9.5-6.9-2.6-6.6-3.5.3-5,3.8-7,13.2-2.1,10.1-1.1,11.8,1.8,11.5,2.5-.2,4.5-1.6,6-8.8l6.8-.6c-1.5,7.2-4.6,13.6-13.6,14.3-10.2.9-10-6.2-7.8-16.4s4.9-17.5,15.2-18.3c9.7-.8,9,6.2,7.9,11Z"/><path class="cls-6" d="M253.92,260.1l7.1-33.4,6.8-.6-7.1,33.4Z"/><path class="cls-6" d="M283.52,224.1c10.2-.9,10,6.2,7.8,16.4s-4.9,17.5-15.2,18.3-10-6.2-7.8-16.4S273.32,225,283.52,224.1Zm-6.3,29.7c4-.3,5.4-3.8,7.3-12.8s2-12.3-2.1-12-5.4,3.9-7.3,12.8S273.22,254.2,277.22,253.8Zm7.5-37.7,6.5-.6-6.1,7.1-4.4.4Z"/><path class="cls-6" d="M306.52,222.8l3.4,22.2h.1l4.8-22.9,6.2-.5-7.1,33.4-7.8.7-3.4-22.7h-.1l-4.9,23.4-6.2.5,7.1-33.4Z"/><polygon class="cls-7" points="294.32 265.2 115.12 280.7 105.62 337.4 275.52 323.6 276.82 316.6 284.82 315.9 294.32 265.2"/><path class="cls-6" d="M144.42,290.7l-1.2,5.5-12.1,1-1.7,7.9,11.4-1-1.2,5.5-11.4,1-1.9,9,12.5-1.1-1.2,5.5-19.4,1.7,7.1-33.4Z"/><path class="cls-6" d="M148.72,312.8l-.2,1c-.7,3.1-.2,5.1,3.4,4.8a5.56,5.56,0,0,0,4.9-4.5c.6-3-.7-4-4.9-5.2-5.6-1.5-7.9-3.8-6.7-9.3,1.4-6.5,6.1-10.2,12.5-10.7,6.1-.5,9.9,1.7,8.6,8.1l-.2.9-6.5.6c.7-3.1,0-4.9-2.6-4.6a4.86,4.86,0,0,0-4.7,4.2c-.4,2.1-.1,3.3,2.5,4.2l4.8,1.8c4.6,1.8,5.4,4.2,4.6,8.3-1.5,7.1-6.5,10.6-13.9,11.3-7.7.7-10-2.6-8.7-8.8l.3-1.4Z"/><path class="cls-6" d="M184.42,298.3c1-4.9.5-6.9-2.6-6.6-3.5.3-5,3.8-7,13.2-2.1,10.1-1.1,11.8,1.8,11.5,2.5-.2,4.5-1.6,6-8.8l6.8-.6c-1.5,7.2-4.6,13.6-13.6,14.3-10.2.9-10-6.2-7.8-16.4s4.9-17.5,15.2-18.3c9.7-.8,9,6.2,7.9,11Z"/><path class="cls-6" d="M197.52,286.1l12.6-1.1c5.6-.5,8.4,2.1,7.2,7.8-.9,4.4-3.4,7.6-7.4,8.7v.1c4.5.2,4.7,2.7,3.3,9.7-.7,3.5-.9,5.3.2,5.9l-.1.3-7.4.6c-.5-.9-.3-2.1-.1-3.4l1.2-6.4c.5-2.6-.4-4.1-3.1-3.9l-3.6.3-3,14.1-6.8.6Zm3.8,14,2.8-.2c3.3-.3,5.4-1.8,6.2-5.4.7-3.1-.7-4.5-3.8-4.2l-3.2.3Z"/><path class="cls-6" d="M216.92,317.2l7.1-33.4,6.8-.6-7.1,33.4Z"/><path class="cls-6" d="M255.42,281.1l-1.2,5.5-7.4.6-5.9,27.9-6.8.6,5.9-27.9-7.4.6,1.2-5.5Z"/><path class="cls-6" d="M262,280.5l8.4-.7,1.9,32.6-7.1.6-.1-6.9-9,.8-3.1,7.2-7.1.6Zm-3.5,20.8,6.6-.6L265,286h-.1Z"/></g></g></svg>