<svg xmlns="http://www.w3.org/2000/svg" viewBox="0 0 126.52 149.99"><defs><style>.cls-1{fill:#bb90dd;}.cls-2,.cls-4,.cls-5{fill:#fff;}.cls-3,.cls-8{fill:none;}.cls-3,.cls-4,.cls-5,.cls-8{stroke:#112349;}.cls-3,.cls-4,.cls-8{stroke-linecap:round;stroke-linejoin:round;}.cls-3{stroke-width:1.41px;}.cls-4{stroke-width:1.2px;}.cls-5{stroke-miterlimit:10;stroke-width:1.36px;}.cls-6{font-size:19.85px;font-family:Helvetica-CondensedBold, Helvetica-Condensed;font-weight:700;letter-spacing:0em;}.cls-6,.cls-9{fill:#112349;}.cls-7{letter-spacing:-0.06em;}.cls-8{stroke-width:1.39px;}</style></defs><title>Recurso 6</title><g id="Capa_2" data-name="Capa 2"><g id="Prod._Multimedial" data-name="Prod. Multimedial"><ellipse class="cls-1" cx="61.49" cy="54.06" rx="55.44" ry="54.06"/><polygon class="cls-2" points="55.77 69.27 92.65 32.14 85.6 25.09 48.46 62.23 46.11 71.76 55.77 69.27"/><circle class="cls-3" cx="61.94" cy="55.97" r="55.18"/><path class="cls-3" d="M34.34,93.7A46.77,46.77,0,0,1,17.19,69.51"/><path class="cls-3" d="M106.82,69.09a46.73,46.73,0,0,1-11.9,20"/><path class="cls-3" d="M16.6,44.56a46.76,46.76,0,0,1,89.89-2.78"/><polygon class="cls-4" points="37.87 34.82 39.27 37.66 42.41 38.12 40.14 40.33 40.68 43.46 37.87 41.98 35.07 43.46 35.6 40.33 33.33 38.12 36.47 37.66 37.87 34.82"/><polygon class="cls-4" points="85.58 58.09 86.98 60.93 90.12 61.39 87.85 63.6 88.38 66.72 85.58 65.25 82.77 66.72 83.31 63.6 81.04 61.39 84.17 60.93 85.58 58.09"/><polygon class="cls-5" points="125.69 91.57 5.45 101.49 0.84 125.59 9.84 124.81 9.08 128.44 120.57 118.51 125.69 91.57"/><text class="cls-6" transform="matrix(0.99, -0.09, -0.21, 0.98, 5.7, 122)">PRODUCCIÓN</text><polygon class="cls-5" points="104.9 117.37 25.88 124.21 21.67 149.25 96.63 143.16 97.21 140.06 100.71 139.74 104.9 117.37"/><text class="cls-6" transform="matrix(0.99, -0.09, -0.21, 0.98, 25.18, 144.08)">ESCRI<tspan class="cls-7" x="49.14" y="0">T</tspan><tspan x="57.88" y="0">A</tspan></text><path class="cls-8" d="M69.78,41.73,85.32,26.19a1.07,1.07,0,0,1,1.52,0l4.71,4.71a1.08,1.08,0,0,1,0,1.51L76.07,47.89"/><rect class="cls-9" x="58.05" y="40.52" width="8.8" height="29.51" transform="translate(57.38 -27.97) rotate(45)"/><polyline class="cls-8" points="48.91 62.6 46.42 71.31 55.13 68.83"/><polyline class="cls-8" points="90.84 34.24 92.32 35.72 78.04 50"/><line class="cls-8" x1="33.12" y1="77.48" x2="85.6" y2="77.48"/><line class="cls-8" x1="70.85" y1="83.84" x2="80.12" y2="83.84"/><line class="cls-8" x1="37.82" y1="83.84" x2="62.57" y2="83.84"/><line class="cls-8" x1="30.7" y1="71.83" x2="44.63" y2="71.83"/></g></g></svg>