<svg xmlns="http://www.w3.org/2000/svg" viewBox="0 0 151.71 146.77"><defs><style>.cls-1{fill:#e71a49;}.cls-2,.cls-4,.cls-6{fill:#fff;}.cls-2,.cls-3,.cls-4,.cls-5,.cls-6{stroke:#112349;}.cls-2,.cls-3,.cls-4{stroke-linecap:round;stroke-linejoin:round;}.cls-2{stroke-width:1.2px;}.cls-3,.cls-5{fill:none;}.cls-3{stroke-width:1.41px;}.cls-4,.cls-5{stroke-width:1.57px;fill-rule:evenodd;}.cls-5,.cls-6{stroke-miterlimit:10;}.cls-6{stroke-width:1.36px;}.cls-7{font-size:19.85px;fill:#112349;font-family:Helvetica-CondensedBold, Helvetica-Condensed;font-weight:700;letter-spacing:0em;}</style></defs><title>Recurso 2</title><g id="Capa_2" data-name="Capa 2"><g id="Prod._Multimedial" data-name="Prod. Multimedial"><ellipse class="cls-1" cx="69.5" cy="55.54" rx="55.44" ry="54.06"/><polygon class="cls-2" points="110.03 53.3 111.44 56.14 114.57 56.6 112.3 58.81 112.84 61.94 110.03 60.46 107.23 61.94 107.76 58.81 105.5 56.6 108.63 56.14 110.03 53.3"/><circle class="cls-3" cx="69.16" cy="55.88" r="55.18"/><path class="cls-3" d="M41.57,93.61A46.84,46.84,0,0,1,24.41,69.42"/><path class="cls-3" d="M114,69a46.73,46.73,0,0,1-11.9,20"/><path class="cls-3" d="M23.82,44.47a46.76,46.76,0,0,1,89.89-2.78"/><polygon class="cls-2" points="43.53 26.12 44.93 28.96 48.07 29.41 45.8 31.63 46.33 34.75 43.53 33.28 40.72 34.75 41.26 31.63 38.99 29.41 42.13 28.96 43.53 26.12"/><path class="cls-4" d="M42.2,40.48A3.64,3.64,0,0,0,38.64,44V74.21A3.74,3.74,0,0,0,42.47,78H95.26a3.76,3.76,0,0,0,3.83-3.78V44a3.45,3.45,0,0,0-3.37-3.54h-14l-.94-5a2.82,2.82,0,0,0-2.85-2.36H59.82a2.73,2.73,0,0,0-2.61,2.36l-1.21,5Zm13,19A13.3,13.3,0,1,1,68.54,72.76,13.29,13.29,0,0,1,55.25,59.47Zm3.9,0a9.4,9.4,0,1,1,9.39,9.39A9.39,9.39,0,0,1,59.15,59.47Z"/><path class="cls-5" d="M47.2,43.32a2.63,2.63,0,0,1,0,5.23,2.62,2.62,0,0,1,0-5.23Z"/><polygon class="cls-6" points="126.72 88.68 6.48 98.6 0.88 122.36 9.88 121.59 9.12 125.21 120.61 115.29 126.72 88.68"/><text class="cls-7" transform="matrix(0.99, -0.09, -0.21, 0.98, 5.74, 118.78)">PRODUCCIÓN</text><polygon class="cls-6" points="150.88 110.16 25.93 120.98 21.71 146.02 142.61 135.94 143.19 132.85 146.69 132.52 150.88 110.16"/><text class="cls-7" transform="matrix(0.99, -0.09, -0.21, 0.98, 25.23, 140.85)">FOTOGRÁFICA</text></g></g></svg>