<svg xmlns="http://www.w3.org/2000/svg" viewBox="0 0 399.74 512.75"><defs><style>.cls-1,.cls-4,.cls-7{fill:#fff;}.cls-2{fill:#98a5a4;}.cls-3,.cls-5,.cls-6{fill:none;}.cls-3,.cls-4,.cls-5,.cls-6,.cls-7{stroke:#112349;}.cls-3,.cls-4,.cls-5,.cls-6{stroke-linecap:round;stroke-linejoin:round;}.cls-3{stroke-width:1.5px;}.cls-4{stroke-width:1.28px;}.cls-5{stroke-width:2.51px;}.cls-6{stroke-width:1.67px;}.cls-7{stroke-miterlimit:10;stroke-width:1.45px;}.cls-8{fill:#112349;}</style></defs><title>programacion_1</title><g id="Capa_2" data-name="Capa 2"><g id="Layer_1" data-name="Layer 1"><rect class="cls-1" y="0.75" width="399.74" height="512"/><ellipse class="cls-2" cx="193.82" cy="133.55" rx="134.3" ry="131"/><circle class="cls-3" cx="193.82" cy="134.45" r="133.7"/><path class="cls-3" d="M127,225.85a113.2,113.2,0,0,1-41.6-58.6"/><path class="cls-3" d="M302.52,166.25a113.43,113.43,0,0,1-28.8,48.5"/><path class="cls-3" d="M84,106.85a113.23,113.23,0,0,1,217.7-6.7"/><polygon class="cls-4" points="298.52 124.65 301.92 131.55 309.52 132.65 304.02 138.05 305.32 145.55 298.52 142.05 291.72 145.55 293.02 138.05 287.52 132.65 295.12 131.55 298.52 124.65"/><path class="cls-1" d="M263.62,190.85H127.52a2.11,2.11,0,0,1-2.1-2.1V85a2.11,2.11,0,0,1,2.1-2.1h136.1a2.11,2.11,0,0,1,2.1,2.1v103.8A2.11,2.11,0,0,1,263.62,190.85Z"/><polyline class="cls-5" points="177.52 132.65 157.72 148.35 177.02 163.75"/><polyline class="cls-5" points="214.92 163.75 234.72 147.95 215.42 132.65"/><line class="cls-5" x1="206.72" y1="128.05" x2="186.92" y2="167.15"/><path class="cls-6" d="M264.22,190.55H128.12a2.11,2.11,0,0,1-2.1-2.1V84.65a2.11,2.11,0,0,1,2.1-2.1h136.1a2.11,2.11,0,0,1,2.1,2.1v103.7A2.14,2.14,0,0,1,264.22,190.55Z"/><line class="cls-6" x1="243.82" y1="100.65" x2="254.92" y2="89.55"/><line class="cls-6" x1="243.82" y1="89.55" x2="254.92" y2="100.65"/><line class="cls-6" x1="125.92" y1="107.85" x2="265.12" y2="107.85"/><line class="cls-6" x1="140.02" y1="96.35" x2="219.02" y2="96.35"/><polygon class="cls-4" points="91.92 124.65 95.32 131.55 102.92 132.65 97.42 138.05 98.72 145.55 91.92 142.05 85.12 145.55 86.42 138.05 80.92 132.65 88.52 131.55 91.92 124.65"/><polygon class="cls-7" points="382.72 210.35 28.92 240.55 17.02 295.45 38.82 293.65 37.02 302.35 369.72 272.25 382.72 210.35"/><path class="cls-8" d="M51.32,252l12-1c7-.6,8.3,4.2,7.2,9.3-1.5,7-6.5,10.5-12.9,11l-3.7.3L51.12,285l-6.9.6Zm3.6,14.6,3-.3c2.7-.2,4.9-2,5.6-5.4s-.2-5.1-3.7-4.8l-2.9.2Z"/><path class="cls-8" d="M75.82,249.85l12.7-1.1c5.6-.5,8.4,2.1,7.2,7.9-.9,4.5-3.4,7.6-7.4,8.8v.1c4.5.2,4.7,2.7,3.3,9.8-.7,3.5-.9,5.3.3,5.9l-.1.3-7.4.6c-.5-.9-.3-2.1-.1-3.5l1.2-6.4c.5-2.6-.4-4.1-3.2-3.9l-3.7.3-3,14.2-6.9.6Zm3.7,14.1,2.9-.2c3.3-.3,5.4-1.9,6.2-5.5.7-3.1-.7-4.5-3.8-4.2l-3.2.3Z"/><path class="cls-8" d="M113,246.05c10.3-.9,10,6.2,7.9,16.5s-5,17.6-15.3,18.4-10-6.2-7.9-16.5S102.72,246.85,113,246.05Zm-6.3,29.9c4-.3,5.4-3.8,7.3-12.9s2-12.4-2.1-12.1-5.5,3.9-7.3,12.9S102.62,276.25,106.72,276Z"/><path class="cls-8" d="M141.22,254.05c.5-2.5,0-5.5-2.7-5.3-3.3.3-5.4,3.8-7.2,12.2-1.7,8.1-2,13.1,1.9,12.8,1.6-.1,4.6-2.1,5.4-5.7l.7-3.4-4.5.4,1.1-5,11.1-1-3.8,18.1-5,.4.7-3.1h-.1a10.7,10.7,0,0,1-7.9,4.4c-8.4.7-8.8-5.3-6.3-17,2.4-11.3,6.3-17.3,15-18.1,7.5-.6,9.8,2.9,8.3,9.7Z"/><path class="cls-8" d="M154.52,243.05l12.7-1.1c5.6-.5,8.4,2.1,7.2,7.9-.9,4.5-3.4,7.6-7.4,8.8v.1c4.5.2,4.7,2.7,3.3,9.8-.7,3.5-.9,5.3.3,5.9l-.1.3-7.4.6c-.5-.9-.3-2.1-.1-3.5l1.2-6.4c.5-2.6-.4-4.1-3.2-3.9l-3.7.3-3,14.2-6.9.6Zm3.7,14.1,2.9-.2c3.3-.3,5.4-1.9,6.2-5.5.7-3.1-.7-4.5-3.8-4.2l-3.2.3Z"/><path class="cls-8" d="M187.32,240.25l8.5-.7,1.9,32.8-7.1.6-.1-7-9,.8-3.1,7.2-7.1.6Zm-3.5,20.9,6.7-.6-.1-14.8h-.1Z"/><path class="cls-8" d="M207.12,238.55l10.2-.9-.2,23.3h.1l9.9-24.1,10.1-.9-7.1,33.6-6.3.5,5.7-26.8h-.1l-11.7,27.3-5.3.5-.4-26.3h-.1l-5.7,26.8-6.3.5Z"/><path class="cls-8" d="M248.62,235l8.5-.7,1.9,32.8-7.1.6-.1-7-9,.8-3.1,7.2-7.1.6Zm-3.6,20.9,6.7-.6-.1-14.8h-.1Z"/><path class="cls-8" d="M280.32,243.35c1-4.9.5-6.9-2.6-6.7-3.5.3-5,3.8-7,13.3-2.1,10.2-1.1,11.9,1.8,11.6,2.5-.2,4.6-1.6,6.1-8.9l6.9-.6c-1.5,7.2-4.7,13.7-13.7,14.4-10.3.9-10-6.2-7.9-16.5s5-17.6,15.3-18.5c9.8-.8,9,6.2,8,11.1Z"/><path class="cls-8" d="M286.82,264.65l7.1-33.6,6.9-.6-7.1,33.6Z"/><path class="cls-8" d="M316.62,228.45c10.3-.9,10,6.2,7.9,16.5s-5,17.6-15.3,18.4-10-6.2-7.9-16.5S306.32,229.35,316.62,228.45Zm-6.4,29.9c4-.3,5.4-3.8,7.3-12.9s2-12.4-2.1-12.1-5.4,3.9-7.3,12.9S306.22,258.75,310.22,258.35Zm7.5-37.9,6.6-.6-6.1,7.2-4.5.4Z"/><path class="cls-8" d="M339.72,227.15l3.4,22.3h.1l4.9-23,6.3-.5-7.1,33.6-7.8.7-3.4-22.8H336L331,261l-6.3.5,7.1-33.6Z"/></g></g></svg>