<svg xmlns="http://www.w3.org/2000/svg" viewBox="0 0 163.11 134.59"><defs><style>.cls-1{fill:#98a5a4;}.cls-2,.cls-7,.cls-8{fill:none;}.cls-2,.cls-3,.cls-4,.cls-7,.cls-8{stroke:#112349;}.cls-2,.cls-3,.cls-7,.cls-8{stroke-linecap:round;stroke-linejoin:round;}.cls-2{stroke-width:1.5px;}.cls-3,.cls-4,.cls-6{fill:#fff;}.cls-3{stroke-width:1.28px;}.cls-4{stroke-miterlimit:10;stroke-width:1.45px;}.cls-5{font-size:21.21px;fill:#112349;font-family:Helvetica-CondensedBold, Helvetica-Condensed;font-weight:700;letter-spacing:-0.01em;}.cls-7{stroke-width:2.51px;}.cls-8{stroke-width:1.67px;}</style></defs><title>Recurso 13</title><g id="Capa_2" data-name="Capa 2"><g id="Prod._Multimedial" data-name="Prod. Multimedial"><ellipse class="cls-1" cx="80.2" cy="59.29" rx="59.23" ry="57.75"/><circle class="cls-2" cx="78.89" cy="59.7" r="58.95"/><path class="cls-2" d="M49.41,100A50,50,0,0,1,31.08,74.16"/><path class="cls-2" d="M126.84,73.71a49.93,49.93,0,0,1-12.71,21.38"/><path class="cls-2" d="M30.45,47.51a50,50,0,0,1,96-3"/><polygon class="cls-3" points="125.07 55.39 126.57 58.43 129.92 58.92 127.49 61.28 128.06 64.62 125.07 63.04 122.07 64.62 122.64 61.28 120.22 58.92 123.57 58.43 125.07 55.39"/><polygon class="cls-4" points="162.2 93.19 6.14 106.49 0.92 130.73 10.54 129.9 9.72 133.77 156.44 120.47 162.2 93.19"/><text class="cls-5" transform="matrix(0.99, -0.09, -0.21, 0.98, 6.12, 127.76)">PROGRAMACIÓN</text><rect class="cls-6" x="48.68" y="36.92" width="61.92" height="47.66" rx="2.15" ry="2.15"/><polyline class="cls-7" points="71.67 58.91 62.95 65.85 71.49 72.61"/><polyline class="cls-7" points="88.2 72.61 96.92 65.67 88.38 58.91"/><line class="cls-7" x1="84.56" y1="56.87" x2="75.85" y2="74.12"/><rect class="cls-8" x="48.94" y="36.77" width="61.92" height="47.66" rx="2.15" ry="2.15"/><line class="cls-8" x1="100.95" y1="44.79" x2="105.85" y2="39.89"/><line class="cls-8" x1="100.95" y1="39.89" x2="105.85" y2="44.79"/><line class="cls-8" x1="48.94" y1="47.99" x2="110.33" y2="47.99"/><line class="cls-8" x1="55.14" y1="42.91" x2="89.97" y2="42.91"/><polygon class="cls-3" points="33.93 55.39 35.43 58.43 38.78 58.92 36.36 61.28 36.93 64.62 33.93 63.04 30.94 64.62 31.51 61.28 29.08 58.92 32.43 58.43 33.93 55.39"/></g></g></svg>