<svg xmlns="http://www.w3.org/2000/svg" viewBox="0 0 143.19 152.24"><defs><style>.cls-1{fill:#70c936;}.cls-2,.cls-4,.cls-6,.cls-9{fill:#fff;}.cls-3,.cls-8{fill:none;}.cls-3,.cls-4,.cls-6,.cls-8,.cls-9{stroke:#112349;}.cls-3,.cls-8,.cls-9{stroke-linecap:round;stroke-linejoin:round;}.cls-3{stroke-width:1.41px;}.cls-4,.cls-6{stroke-miterlimit:10;}.cls-4{stroke-width:1.36px;}.cls-5{font-size:19.85px;fill:#112349;font-family:Helvetica-CondensedBold, Helvetica-Condensed;font-weight:700;letter-spacing:0em;}.cls-6{stroke-width:1.32px;}.cls-7{letter-spacing:-0.06em;}.cls-8{stroke-width:1.7px;}.cls-9{stroke-width:1.2px;}</style></defs><title>Recurso 7</title><g id="Capa_2" data-name="Capa 2"><g id="Prod._Multimedial" data-name="Prod. Multimedial"><ellipse class="cls-1" cx="67.56" cy="54.71" rx="55.44" ry="54.06"/><circle class="cls-2" cx="54.66" cy="43.19" r="4.7"/><circle class="cls-2" cx="79.73" cy="43.19" r="4.7"/><circle class="cls-3" cx="67.03" cy="55.88" r="55.18"/><path class="cls-3" d="M39.44,93.61A46.73,46.73,0,0,1,22.28,69.42"/><path class="cls-3" d="M111.91,69A46.73,46.73,0,0,1,100,89"/><path class="cls-3" d="M21.69,44.47a46.76,46.76,0,0,1,89.89-2.78"/><polygon class="cls-4" points="112.09 91.92 27.92 98.89 23.03 121.58 32.03 120.81 31.27 124.43 106.7 117.46 112.09 91.92"/><text class="cls-5" transform="matrix(0.99, -0.09, -0.21, 0.98, 27.89, 117.99)">TRABAJO</text><polygon class="cls-6" points="142.39 114.07 4.74 126.47 0.78 151.51 134.63 139.86 135.18 136.76 138.45 136.44 142.39 114.07"/><text class="cls-5" transform="matrix(0.99, -0.09, -0.21, 0.98, 4.3, 145.55)">COLABOR<tspan class="cls-7" x="78.72" y="0">A</tspan><tspan x="88.56" y="0">TIVO</tspan></text><path class="cls-2" d="M86.65,89.4V82.22a4.46,4.46,0,0,1,.13-1.06c-1.07-2.32.06-5.73,3.39-5.73a4.28,4.28,0,0,1,.52,0V55.85c-2-2.15-3.5-4.79-6.54-5-1.82-.1-3.51.06-5.14-.12a4.08,4.08,0,0,1-1.24.18,3.54,3.54,0,0,1-3.48-2.31c-3.29-3-5-8.49-5.1-13.29h-4.3a4,4,0,0,1,0,2c-1,3.78-2.12,7.75-4.37,10.49a3.56,3.56,0,0,1-3.33,2.62,11.06,11.06,0,0,1-5,.88,6.41,6.41,0,0,1-3.15-1,4.05,4.05,0,0,1-3.05,1.92,4.35,4.35,0,0,1-1.46,2.1v21.2a4.44,4.44,0,0,1,1.06.15c3.72.22,4.48,4.85,2.29,6.88a48.86,48.86,0,0,0,.47,6.82H60.65l0-.16c.54-2.22.26-4.67.16-7A37.61,37.61,0,0,1,61,77.61a12.6,12.6,0,0,1-.11-3.23,7.66,7.66,0,0,1-.76-3.73,20.55,20.55,0,0,1,.78-4.56,3.92,3.92,0,0,1,.36-3.71,5.23,5.23,0,0,1-.25-3A11.69,11.69,0,0,1,62,57c.21-.44,1.44-2.41,1.62-2.72,2.84-4.8,4.41-5.58,7.84,0,.32.52,0,1.18-.15,1.73a6.28,6.28,0,0,1,1,.64c1.79,1.39,1.66,3.6,1.58,5.64,0,.55,0,1.09,0,1.64a4.42,4.42,0,0,1,0,2c0,.08,0,.14-.07.21,0,1.44,0,2.87-.12,4.3a10.3,10.3,0,0,1-.44,2.35,10.6,10.6,0,0,1,0,3.51c0,2.21,0,4.42.21,6.67a28.88,28.88,0,0,1,.35,6.45Z"/><path class="cls-8" d="M59.72,43.32a5.08,5.08,0,1,1-.71-2.6A5.08,5.08,0,0,1,59.72,43.32Z"/><path class="cls-8" d="M44.46,75.55V57.45s0-6.22,5.65-6.22h6.22c2.82,0,4-1.13,5.09-3.39.71-1.43,3.39-10.17,3.39-10.17"/><path class="cls-8" d="M64.81,38a2.55,2.55,0,1,1,5.09,0"/><path class="cls-8" d="M67.31,48.39a17.16,17.16,0,0,1-1.94,4c-2.82,4-4.52,5.08-4.52,5.08v31.1"/><line class="cls-8" x1="48.41" y1="61.41" x2="48.41" y2="88.55"/><line class="cls-8" x1="54.63" y1="74.13" x2="54.63" y2="88.55"/><circle class="cls-8" cx="80.07" cy="43.32" r="5.09"/><path class="cls-8" d="M90.25,75.55V57.45s0-6.22-5.65-6.22H78.38c-2.83,0-4-1.13-5.09-3.39-.72-1.43-3.39-10.17-3.39-10.17"/><path class="cls-8" d="M69.9,38a2.55,2.55,0,1,0-5.09,0"/><path class="cls-8" d="M64.81,38.23s1.69,10.18,4.52,14.14,4.52,5.08,4.52,5.08v31.1"/><line class="cls-8" x1="86.29" y1="61.41" x2="86.29" y2="88.55"/><line class="cls-8" x1="80.07" y1="74.13" x2="80.07" y2="88.55"/><line class="cls-8" x1="59.72" y1="29.75" x2="63.11" y2="33.14"/><line class="cls-8" x1="74.98" y1="29.75" x2="71.59" y2="33.14"/><line class="cls-8" x1="67.35" y1="27.35" x2="67.35" y2="32.15"/><polygon class="cls-9" points="97.53 43.17 98.93 46.01 102.07 46.47 99.8 48.68 100.33 51.8 97.53 50.33 94.72 51.8 95.26 48.68 92.99 46.47 96.13 46.01 97.53 43.17"/><polygon class="cls-9" points="37.24 33.77 38.64 36.61 41.78 37.07 39.51 39.28 40.05 42.4 37.24 40.93 34.44 42.4 34.97 39.28 32.7 37.07 35.84 36.61 37.24 33.77"/></g></g></svg>