<svg xmlns="http://www.w3.org/2000/svg" viewBox="0 0 104.04 20"><defs><style>.cls-1{fill:#fff;}</style></defs><title>copa-tic_logo-footer</title><g id="Capa_2" data-name="Capa 2"><g id="Layer_1" data-name="Layer 1"><path class="cls-1" d="M-138-98v-2h-41v19h3v1h40V-98Zm-31.51,9.49-1.39,1.38-2.53-2.52h0L-174.78-91h0l1.39-1.39h0l2.53-2.52,1.39,1.38L-172-91ZM-159-95h-3v10h-2V-95h-3v-2h8Zm8,10h-7v-2h3v-8h-3v-2h6v2h-1v8h2Zm9-8h-2v-2h-4v8h4v-1h2v3h-8v-.24l.58.24H-150V-97h8Z" transform="translate(240 100)"/><path class="cls-1" d="M-233.71-98.61h-.13a13.13,13.13,0,0,0-2.18.17,5.09,5.09,0,0,0-2.9,1.46c-.75.75-1.08,2.07-1.08,3.92v5a9.23,9.23,0,0,0,.09,1.73,4.47,4.47,0,0,0,.53,1.48,3.47,3.47,0,0,0,1.13,1.19,6,6,0,0,0,1.86.73,13.53,13.53,0,0,0,3,.27,8.78,8.78,0,0,0,3.12-.48,3.56,3.56,0,0,0,1.78-1.54A6.47,6.47,0,0,0-228-88v-.16h-3.56v.36c0,.53.27,1,.18,1.27s-.06.52-.27.69a1.48,1.48,0,0,1-.73.36,7.76,7.76,0,0,1-1.35.09,3.85,3.85,0,0,1-2.21-.48c-.46-.3-.52-.93-.52-1.87v-5.71c0-.94.07-1.59.53-1.92a3.84,3.84,0,0,1,2.3-.52,2.43,2.43,0,0,1,1.87.5c.36.33.2,1,.2,2v1l3.56-.39v-.35a8.94,8.94,0,0,0-.24-2.8C-228.84-97.71-230.57-98.61-233.71-98.61Z" transform="translate(240 100)"/><path class="cls-1" d="M-219.2-98.61a8.35,8.35,0,0,0-4.64,1.08c-1.34.88-1.92,2.43-1.92,4.61v4.73A6.06,6.06,0,0,0-225-84.9c1,1.52,2.89,2.29,5.86,2.29a7.44,7.44,0,0,0,4.47-1.13c1.33-.94,1.87-2.5,1.87-4.61v-4.42a6.8,6.8,0,0,0-.69-3.4C-214.48-97.79-216.32-98.61-219.2-98.61Zm2.48,12.7a4.31,4.31,0,0,1-2.49.55,4.84,4.84,0,0,1-2.59-.56,2.15,2.15,0,0,1-.84-1.93v-5.48a2.15,2.15,0,0,1,.85-2,4.6,4.6,0,0,1,2.56-.58,4.19,4.19,0,0,1,2.49.58,2.3,2.3,0,0,1,.78,2v5.48A2.27,2.27,0,0,1-216.72-85.91Z" transform="translate(240 100)"/><path class="cls-1" d="M-200.57-97.16a5.24,5.24,0,0,0-3.79-1.2h-5.82v15.57h3.12v-4.89h2.41a5.52,5.52,0,0,0,4.14-1.48,5.93,5.93,0,0,0,1.18-4A5.49,5.49,0,0,0-200.57-97.16Zm-1.92,4a3.73,3.73,0,0,1-.36,1.92c-.22.36-.67.48-1.33.48h-2.88v-5.34h3a1.59,1.59,0,0,1,.78.34C-202.76-95.48-202.49-94.5-202.49-93.2Z" transform="translate(240 100)"/><path class="cls-1" d="M-189.46-96.58h-2.91v-1.78h-1.95l-5,15.57h3.5l.87-3.11h5.56l.84,3.11H-185Zm-4.8,8.45,2.13-7.14,2,7.14Z" transform="translate(240 100)"/></g></g></svg>