<svg xmlns="http://www.w3.org/2000/svg" viewBox="0 0 295.8 36.82"><defs><style>.cls-1{fill:#ea1347;}.cls-2{fill:#0ca5f2;}.cls-3{fill:#fff;}.cls-4{fill:none;}</style></defs><title>copa-tic_logo-header</title><g id="Capa_2" data-name="Capa 2"><g id="Layer_1" data-name="Layer 1"><polygon class="cls-1" points="289.43 9.1 287.98 7.65 285.34 10.29 285.34 10.28 285.34 10.29 285.33 10.28 285.33 10.29 282.7 7.65 281.25 9.1 283.89 11.74 281.25 14.38 282.7 15.83 285.33 13.19 285.33 13.19 285.34 13.19 285.34 13.19 285.34 13.19 287.98 15.83 289.43 14.38 286.79 11.74 289.43 9.1"/><rect class="cls-1" x="165.85" width="1.89" height="36.82"/><path d="M186.37,15.28v1.34h-4.92V7.26L183,7.19v8.09Z"/><path d="M192.47,14.81h-3.93L188,16.62h-1.53l3.11-9.33,1.9-.1,3.12,9.43h-1.52Zm-.41-1.29-1.54-4.83L189,13.52Z"/><path d="M200.28,8.55v2.89h3.29v1.34h-3.29v2.5h4.54v1.34h-6V7.23h6V8.55Z"/><path d="M205.54,14.22l1.47-.37a1.67,1.67,0,0,0,1.71,1.41c1,0,1.6-.55,1.58-1.31,0-1.89-4.67-1.37-4.67-4.27a2.82,2.82,0,0,1,3.09-2.54,3.05,3.05,0,0,1,3.19,2.37l-1.4.33a1.66,1.66,0,0,0-1.7-1.29c-1,0-1.55.61-1.49,1.19.11,1.77,4.59,1.19,4.59,4.28,0,1.46-1.15,2.69-3.14,2.69A3.09,3.09,0,0,1,205.54,14.22Z"/><path d="M212.67,12.08v-.31c0-3.08,2.08-4.63,4.2-4.63a3.83,3.83,0,0,1,3.55,2.23l-1.34.54a2.44,2.44,0,0,0-2.21-1.36c-1.29,0-2.7.91-2.7,3.22v.31c0,2.31,1.41,3.22,2.68,3.22a2.36,2.36,0,0,0,2.23-1.45l1.36.56a3.73,3.73,0,0,1-3.57,2.3C214.75,16.71,212.67,15.16,212.67,12.08Z"/><path d="M221.55,13l0-5.69,1.51-.08,0,5.69a2.2,2.2,0,1,0,4.38,0l0-5.67h1.51L229,13a3.71,3.71,0,1,1-7.42,0Z"/><path d="M232,8.55v2.89h3.28v1.34H232v2.5h4.54v1.34h-6V7.23h6V8.55Z"/><path d="M242.7,15.28v1.34h-4.92V7.26l1.53-.07v8.09Z"/><path d="M248.8,14.81h-3.93l-.57,1.81h-1.53l3.11-9.33,1.9-.1,3.12,9.43h-1.52Zm-.41-1.29-1.54-4.83-1.57,4.83Z"/><path d="M185.45,21.05V27c0,2.48-1.33,3.61-3,3.61a3.16,3.16,0,0,1-2.16-.76l.85-1.51a2,2,0,0,0,.95.22c.79,0,1.11-.57,1.11-1.53V23.08h-1.89V21.15Z"/><path d="M186.46,26.79l0-5.57,2.23-.12v5.52a1.65,1.65,0,0,0,1.66,1.88c1,0,1.65-.67,1.65-1.88l0-5.5h2.23l0,5.67a3.88,3.88,0,0,1-7.75,0Z"/><path d="M197.5,23.06v1.88h2.91v2H197.5v1.65h4.22v2h-6.43V21.12l6.43,0v2Z"/><path d="M202.26,25.93V25.7c0-3.09,2-4.67,4.36-4.67a4.12,4.12,0,0,1,3.93,2.65l-2.15.56A1.89,1.89,0,0,0,206.62,23c-1.1,0-2.16.67-2.16,2.74v.23c0,2.06,1.06,2.74,2.16,2.74a1.65,1.65,0,0,0,1.79-1.53v-.07h-1.95V25.24h4.32v1.35a4,4,0,0,1-4.16,4C204.3,30.6,202.26,29,202.26,25.93Z"/><path d="M217,29h-3.43l-.46,1.53h-2.25l3-9.31,2.73-.15,3.07,9.46h-2.24Zm-.57-1.89-1.15-3.78-1.13,3.78Z"/><path d="M226,23.06v1.88h2.91v2H226v1.65h4.22v2h-6.43V21.12l6.43,0v2Z"/><path d="M236.43,28.55v2h-5.26V21.17l2.25-.12v7.5Z"/><path d="M250.81,21.18v9.33h-2.24V25l-2.1,3.64h-1.29l-2.09-3.6v5.43h-2.24V21.2l2.24-.13,2.73,4.61,2.73-4.61Z"/><path d="M251.91,26.79l0-5.57,2.23-.12v5.52a1.65,1.65,0,0,0,1.66,1.88c1,0,1.65-.67,1.65-1.88l0-5.5h2.23l0,5.67a3.88,3.88,0,0,1-7.75,0Z"/><path d="M268.59,21.12v9.39h-2L263,25v5.52h-2.24V21.18l2-.11,3.57,5.62V21.12Z"/><path d="M269.91,21.2c1.15-.07,2.28-.12,3.45-.17,2,0,4.08,1.55,4.08,4.88,0,3.54-2.52,4.6-4.3,4.6h-3.23Zm3.2,7.23c1.36,0,2.06-1,2.06-2.45s-.66-2.87-2-2.87c-.36,0-.66,0-1,.05v5.27Z"/><path d="M280.68,30.51h-2.24V21.15l2.24-.1Z"/><path d="M287.36,29h-3.43l-.46,1.53h-2.25l3-9.31,2.73-.15,3.07,9.46h-2.24Zm-.57-1.89-1.15-3.78-1.13,3.78Z"/><path d="M295.8,28.55v2h-5.26V21.17l2.24-.12v7.5Z"/><polygon class="cls-2" points="147.65 5.86 147.65 3.85 88.65 3.85 88.65 31.86 94.65 31.86 94.65 33.85 152.65 33.85 152.65 5.86 147.65 5.86"/><rect class="cls-3" x="106.5" y="10.06" width="12.22" height="2.85"/><rect class="cls-3" x="104.81" y="17.7" width="15.6" height="2.85" transform="translate(131.74 -93.48) rotate(90)"/><rect class="cls-3" x="120.24" y="10.06" width="9.63" height="2.85"/><rect class="cls-3" x="119.81" y="24.07" width="10.49" height="2.85"/><rect class="cls-3" x="116.64" y="17.09" width="16.83" height="2.85" transform="translate(143.57 -106.54) rotate(90)"/><rect class="cls-3" x="131.9" y="24.07" width="10.49" height="2.85"/><rect class="cls-3" x="131.9" y="10.06" width="9.96" height="2.85"/><rect class="cls-3" x="125.53" y="17.7" width="15.6" height="2.85" transform="translate(152.45 -114.2) rotate(90)"/><rect class="cls-3" x="138.52" y="11.08" width="4.89" height="2.85" transform="translate(153.47 -128.46) rotate(90)"/><rect class="cls-3" x="138.52" y="23.06" width="4.89" height="2.85" transform="translate(165.45 -116.48) rotate(90)"/><rect class="cls-3" x="94.83" y="15.24" width="8.05" height="2.85" transform="translate(180.53 -41.45) rotate(135)"/><rect class="cls-3" x="94.83" y="18.9" width="8.05" height="2.85" transform="translate(154.38 104.6) rotate(-135)"/><path d="M9.38,7.49h-.2A17.87,17.87,0,0,0,6,7.75,7.91,7.91,0,0,0,1.68,9.86C.59,11,0,12.87,0,15.55v7.34a14,14,0,0,0,.24,2.52,6.81,6.81,0,0,0,.84,2.15,5.21,5.21,0,0,0,1.67,1.73,8.6,8.6,0,0,0,2.71,1.06,19.82,19.82,0,0,0,4.37.4A12.61,12.61,0,0,0,14.37,30a5.41,5.41,0,0,0,2.71-2.23c.66-1,.85-2.61.85-4.86v-.52H13.21v.82a8.47,8.47,0,0,1-.07,1.84,1.89,1.89,0,0,1-.58,1,2.41,2.41,0,0,1-1.13.52,11.78,11.78,0,0,1-2,.13,6.12,6.12,0,0,1-3.34-.69c-.68-.44-.89-1.35-.89-2.72V15c0-1.36.22-2.3.88-2.78a5.77,5.77,0,0,1,3.4-.76,4.58,4.58,0,0,1,3.08.73c.53.48.66,1.46.66,2.9v1.41L17.93,16v-.5a12.6,12.6,0,0,0-.46-4.08C16.57,8.8,13.94,7.49,9.38,7.49Z"/><path d="M30.45,7.49a13.31,13.31,0,0,0-7,1.58c-2,1.27-3.11,3.53-3.11,6.69v6.88a8.73,8.73,0,0,0,1.35,4.77C23,29.62,26,30.75,30.31,30.75a12,12,0,0,0,6.8-1.64c1.91-1.38,3-3.64,3-6.71V16a9.76,9.76,0,0,0-1.22-4.94C37.53,8.69,34.64,7.49,30.45,7.49ZM33.94,26a6.08,6.08,0,0,1-3.55.8,6.82,6.82,0,0,1-3.74-.82,3.09,3.09,0,0,1-1.17-2.8v-8a3.11,3.11,0,0,1,1.22-2.83,6.65,6.65,0,0,1,3.72-.85,5.75,5.75,0,0,1,3.5.84,3.34,3.34,0,0,1,1,2.84v8C34.92,24.48,34.65,25.43,33.94,26Z"/><path d="M57.53,9.57A7.7,7.7,0,0,0,52,7.8H42.94V30.45h5.2V22.9h3.45c2.85,0,4.87-.68,6-1.9s1.72-3.19,1.72-5.76S58.72,10.73,57.53,9.57Zm-2.8,5.79a5,5,0,0,1-.52,2.69c-.32.52-1,.6-1.93.6H48.14V11.1h4.28a2.38,2.38,0,0,1,1.14.49C54.34,12.06,54.73,13.47,54.73,15.36Z"/><polygon class="cls-4" points="66.34 22.9 73.11 22.9 69.78 11.35 66.34 22.9"/><path d="M73.66,10.63H69.84V7.8H66.61L59.32,30.45h5.09l1.26-4.25h8.08L75,30.45h5.17Zm-7,11.8,3.09-10.38,3,10.38Z"/></g></g></svg>