<?xml version="1.0" encoding="utf-8"?>
<!-- Generator: Adobe Illustrator 22.1.0, SVG Export Plug-In . SVG Version: 6.00 Build 0)  -->
<svg version="1.1" id="Capa_1" xmlns="http://www.w3.org/2000/svg" xmlns:xlink="http://www.w3.org/1999/xlink" x="0px" y="0px"
	 viewBox="0 0 1280 80" style="enable-background:new 0 0 1280 80;" xml:space="preserve">
<style type="text/css">
	.st0{fill:#9ACA3C;}
	.st1{fill:#FFFFFF;}
</style>
<title>header-oficial</title>
<g id="Capa_2_1_">
	<g id="Layer_1">
		<polygon class="st0" points="1280,80 0.9,80 0,0 1280,0 		"/>
		<g id="layer1">
			<g id="g3037">
				<path id="path2988" class="st1" d="M1087.8,38.6c0-0.7-0.4-1.4-1-1.8l0,0c-1.4-0.8-1.8-2.6-0.9-4c0-0.1,0.1-0.1,0.1-0.2l0,0
					c0.3-0.4,0.4-0.8,0.4-1.2c0-0.5-0.2-1.1-0.5-1.5c-0.4-0.5-3.5-4.4-11.6-9.2c-1-0.6-2.3-0.6-3.3,0.1l0,0l-4.9,3.5l0,0
					c-0.5,0.3-1,0.5-1.6,0.5h-3.7c-1.2,0-2.2,1-2.2,2.2v29.5c0,0.5,0.2,1,0.5,1.4c0.6,0.6,1.2,1.2,2,1.6c0.3,0.2,0.8,0.3,1.2,0.3
					c1.2,0,2.2-1,2.2-2.2c0,0,0,0,0,0v-5.8c0-1.2,1-2.2,2.2-2.2c0,0,0,0,0,0c0.3,0,0.7,0.1,1,0.2l0,0c1.8,0.8,3.8,1.2,5.7,1.2
					c7,0,13.1-5,14.4-11.8C1087.9,39,1087.9,38.8,1087.8,38.6"/>
				<path id="path2990" class="st1" d="M1096.3,42.9c0-0.4,0.3-0.7,0.6-0.7c0,0,0.1,0,0.1,0h3.8c2.4,0,3.9,1.5,3.9,3.7
					s-1.5,3.7-3.9,3.7h-2.8c0,0-0.1,0-0.1,0.1c0,0,0,0,0,0v4.1c0,0.4-0.3,0.8-0.7,0.9c0,0-0.1,0-0.1,0c-0.4,0-0.8-0.3-0.8-0.8
					c0,0,0-0.1,0-0.1L1096.3,42.9L1096.3,42.9z M1103.2,45.9c0-1.3-0.9-2.2-2.4-2.2h-2.8c0,0-0.1,0-0.1,0.1c0,0,0,0,0,0V48
					c0,0,0,0.1,0.1,0.1c0,0,0,0,0,0h2.8C1102.3,48.1,1103.2,47.2,1103.2,45.9"/>
				<path id="path2992" class="st1" d="M1106,53.8v-7.2c0-0.4,0.3-0.8,0.8-0.8s0.8,0.3,0.8,0.8V47l0,0c0.4-0.8,1.3-1.4,2.2-1.3
					c0.4,0,0.9,0.1,1.3,0.3c0.3,0.1,0.4,0.4,0.4,0.7c0,0.4-0.3,0.7-0.7,0.8c0,0,0,0,0,0c-0.1,0-0.3,0-0.4-0.1
					c-0.3-0.1-0.7-0.2-1-0.2c-1.3,0-1.8,1.1-1.8,2.5v4.2c0,0.4-0.3,0.8-0.7,0.8c0,0-0.1,0-0.1,0C1106.3,54.6,1105.9,54.2,1106,53.8
					C1105.9,53.8,1105.9,53.8,1106,53.8"/>
				<path id="path2994" class="st1" d="M1112.4,52.4c-0.4-1.4-0.4-2.9,0-4.4c0.5-1.5,1.9-2.4,3.4-2.3c1.5-0.1,2.9,0.9,3.4,2.3
					c0.2,0.7,0.3,1.4,0.3,2.2c0,0.7-0.1,1.5-0.3,2.2c-0.8,1.9-2.9,2.8-4.8,2C1113.5,54,1112.7,53.3,1112.4,52.4 M1117.7,51.9
					c0.2-0.6,0.2-1.2,0.2-1.8c0-0.6,0-1.2-0.2-1.8c-0.4-1.1-1.6-1.6-2.7-1.2c-0.6,0.2-1,0.7-1.2,1.2c-0.2,0.6-0.2,1.2-0.2,1.8
					c0,0.6,0,1.2,0.2,1.8c0.4,1.1,1.6,1.6,2.7,1.2C1117.1,52.9,1117.5,52.5,1117.7,51.9"/>
				<path id="path2996" class="st1" d="M1123,53.6l-2.6-6.8c-0.1-0.1-0.1-0.2-0.1-0.4c0-0.4,0.3-0.7,0.7-0.7c0,0,0,0,0.1,0
					c0.3,0,0.6,0.2,0.7,0.5l2.3,6l0,0l2.2-6c0.1-0.3,0.4-0.5,0.7-0.5c0.4,0,0.7,0.3,0.7,0.7c0,0,0,0,0,0.1c0,0.1,0,0.3-0.1,0.4
					l-2.6,6.8c-0.3,0.7-0.5,1-1,1S1123.3,54.4,1123,53.6"/>
				<path id="path2998" class="st1" d="M1128.8,43.1c0-0.6,0.4-1,1-1s1,0.4,1,1s-0.4,1-1,1S1128.8,43.7,1128.8,43.1 M1129.1,46.6
					c0-0.4,0.3-0.8,0.8-0.8s0.8,0.3,0.8,0.8v7.2c0,0.4-0.3,0.8-0.8,0.8s-0.8-0.3-0.8-0.8l0,0V46.6z"/>
				<path id="path3000" class="st1" d="M1132.8,46.6c0-0.4,0.3-0.8,0.7-0.9c0.4,0,0.8,0.3,0.9,0.7c0,0.1,0,0.1,0,0.2v0.3l0,0
					c0.5-0.8,1.5-1.2,2.4-1.2c1.9,0,3,1.3,3,3.3v4.9c0,0.4-0.3,0.8-0.7,0.9c-0.4,0-0.8-0.3-0.9-0.7c0-0.1,0-0.1,0-0.2v-4.5
					c0-1.4-0.6-2.2-1.9-2.2c-1.1,0-2,0.9-2,2c0,0,0,0.1,0,0.1v4.6c0,0.4-0.3,0.8-0.7,0.9c-0.4,0-0.8-0.3-0.9-0.7c0-0.1,0-0.1,0-0.2
					L1132.8,46.6L1132.8,46.6z"/>
				<path id="path3002" class="st1" d="M1141.8,52.4c-0.2-0.7-0.3-1.4-0.3-2.2c0-0.7,0.1-1.5,0.3-2.2c0.5-1.5,1.9-2.4,3.4-2.3
					c1.1,0,2.1,0.4,2.8,1.3c0.1,0.2,0.2,0.4,0.2,0.6c0,0.4-0.3,0.7-0.6,0.7c0,0,0,0,0,0c-0.3,0-0.5-0.1-0.7-0.3
					c-0.4-0.5-1-0.8-1.7-0.7c-0.9-0.1-1.7,0.5-1.9,1.4c-0.2,0.6-0.2,1.2-0.2,1.7c0,0.6,0,1.2,0.2,1.8c0.2,0.9,1.1,1.4,1.9,1.4
					c0.6,0,1.2-0.3,1.7-0.7c0.2-0.2,0.4-0.3,0.7-0.3c0.4,0,0.7,0.3,0.7,0.6c0,0,0,0,0,0c0,0.2-0.1,0.4-0.2,0.6
					c-0.7,0.8-1.7,1.3-2.8,1.3C1143.7,54.8,1142.3,53.8,1141.8,52.4"/>
				<path id="path3004" class="st1" d="M1149.7,43.1c0-0.6,0.4-1,1-1s1,0.4,1,1s-0.4,1-1,1S1149.7,43.7,1149.7,43.1 M1149.9,46.6
					c0-0.4,0.3-0.8,0.8-0.8s0.8,0.3,0.8,0.8v7.2c0,0.4-0.3,0.8-0.8,0.8s-0.8-0.3-0.8-0.8l0,0V46.6z"/>
				<path id="path3006" class="st1" d="M1160.7,53.9c0,0.4-0.3,0.7-0.7,0.7c0,0,0,0,0,0c-0.3,0-0.5-0.1-0.7-0.4l-0.3-0.5l0,0
					c-0.7,0.7-1.7,1.1-2.7,1c-1.9,0-3-1-3-2.6s1.2-2.7,3.4-2.7h2c0.1,0,0.1,0,0.1-0.1v-0.4c0-1.2-0.6-1.9-2.1-1.9
					c-0.6,0-1.2,0.2-1.8,0.4c-0.1,0.1-0.3,0.1-0.4,0.1c-0.3,0-0.6-0.2-0.7-0.6c0,0,0-0.1,0-0.1c0-0.3,0.1-0.5,0.3-0.6
					c0.8-0.5,1.7-0.7,2.6-0.7c2.3,0,3.4,1.1,3.4,3.2V52c0,0.3,0,0.6,0.2,0.9l0.3,0.6c0.1,0.1,0.2,0.3,0.2,0.4 M1158.7,51.7v-1
					c0,0,0-0.1-0.1-0.1c0,0,0,0,0,0h-1.8c-1.5,0-2.2,0.4-2.2,1.4s0.7,1.4,1.8,1.4C1157.9,53.3,1158.7,52.7,1158.7,51.7"/>
				<path id="path3008" class="st1" d="M1096.3,27.6c-0.1-0.6,0.4-1.1,1-1.2c0.1,0,0.1,0,0.2,0h3.8c2.7,0,3.9,1.3,3.9,3.3
					c0.1,1.1-0.5,2.1-1.4,2.6l0,0c1.1,0.5,1.7,1.6,1.7,2.8c0,2.4-1.6,3.6-4.2,3.6h-3.7c-0.5,0.1-1.1-0.3-1.1-0.8c0-0.1,0-0.2,0-0.3
					L1096.3,27.6L1096.3,27.6z M1101,31.5c1,0,1.6-0.5,1.6-1.5s-0.6-1.4-1.6-1.4h-1.9c-0.1,0-0.1,0-0.1,0.1v2.7c0,0.1,0,0.1,0.1,0.1
					L1101,31.5L1101,31.5z M1099.1,36.6h2c0.8,0.1,1.6-0.6,1.7-1.4c0.1-0.8-0.6-1.6-1.4-1.7c-0.1,0-0.2,0-0.2,0h-2
					c0,0-0.1,0-0.1,0.1c0,0,0,0,0,0v2.9C1099,36.5,1099,36.6,1099.1,36.6"/>
				<path id="path3010" class="st1" d="M1112,37.9L1112,37.9c-0.6,0.7-1.4,1.1-2.3,1c-1.9,0-2.9-1.4-2.9-3.2v-4.5
					c-0.1-0.7,0.5-1.3,1.1-1.3c0,0,0.1,0,0.1,0c0.7,0,1.2,0.5,1.2,1.2c0,0,0,0.1,0,0.1v4c0,1,0.4,1.6,1.3,1.6s1.3-0.6,1.3-1.6v-4
					c0-0.7,0.6-1.3,1.3-1.3s1.3,0.6,1.3,1.3v6.3c0.1,0.7-0.5,1.3-1.1,1.3c0,0-0.1,0-0.1,0C1112.6,38.9,1112.1,38.5,1112,37.9"/>
				<path id="path3012" class="st1" d="M1116.2,36.4c-0.2-0.7-0.3-1.4-0.3-2.1c0-0.7,0.1-1.4,0.3-2.1c0.5-1.6,2.1-2.6,3.8-2.5
					c1.7-0.2,3.2,0.9,3.8,2.5c0.2,0.6,0.3,1.3,0.3,2c0,0.4-0.3,0.8-0.7,0.8c0,0-0.1,0-0.1,0h-4.6c-0.1,0-0.1,0-0.1,0.1
					c0,0.2,0,0.3,0.1,0.5c0.3,0.8,1,1.2,1.8,1.1c0.6,0,1.1-0.2,1.7-0.5c0.3-0.2,0.6-0.3,0.9-0.3c0.5,0,0.9,0.4,0.9,0.9
					c0,0,0,0.1,0,0.1c0,0.4-0.2,0.7-0.5,0.9c-0.9,0.6-2,1-3.2,1C1118.4,39.1,1116.8,38.1,1116.2,36.4 M1121.4,33.5
					C1121.5,33.5,1121.5,33.5,1121.4,33.5c0.1-0.3,0.1-0.5,0-0.7c-0.2-0.6-0.8-1-1.5-1c-0.6,0-1.2,0.3-1.5,1
					c-0.1,0.2-0.1,0.4-0.1,0.6c0,0.1,0,0.1,0.1,0.1H1121.4z"/>
				<path id="path3014" class="st1" d="M1130.6,37.5v-4c0-1-0.5-1.6-1.4-1.6s-1.4,0.6-1.4,1.6v4c0,0.7-0.6,1.3-1.3,1.3
					s-1.3-0.6-1.3-1.3v-6.3c-0.1-0.7,0.5-1.3,1.1-1.3c0,0,0.1,0,0.1,0c0.6,0,1.1,0.4,1.2,0.9l0,0c0.6-0.7,1.4-1.1,2.3-1
					c1.9,0,3,1.4,3,3.2v4.5c0.1,0.7-0.5,1.3-1.1,1.3c0,0-0.1,0-0.1,0c-0.7,0-1.2-0.4-1.3-1.1C1130.6,37.7,1130.6,37.6,1130.6,37.5"
					/>
				<path id="path3016" class="st1" d="M1134.7,36.4c-0.4-1.3-0.4-2.8,0-4.1c0.9-2.1,3.4-3.1,5.5-2.2c1,0.4,1.7,1.2,2.2,2.2
					c0.4,1.3,0.4,2.8,0,4.1c-0.5,1.6-2.1,2.7-3.8,2.5C1136.8,39.1,1135.2,38,1134.7,36.4 M1139.8,35.8c0.1-0.5,0.2-1,0.2-1.5
					c0-0.5,0-1-0.2-1.5c-0.2-0.6-0.7-1-1.4-1c-0.6,0-1.2,0.4-1.4,1c-0.1,0.5-0.2,1-0.2,1.5c0,0.5,0,1,0.2,1.5c0.2,0.6,0.7,1,1.4,1
					C1139.1,36.9,1139.7,36.4,1139.8,35.8"/>
				<path id="path3018" class="st1" d="M1144.2,38.1c-0.4-0.2-0.6-0.6-0.6-1c0-0.6,0.4-1,1-1c0.3,0,0.5,0.1,0.7,0.2
					c0.7,0.4,1.4,0.6,2.2,0.6c0.9,0,1.4-0.3,1.4-0.8s-0.2-0.6-1.3-0.7l-1-0.1c-1.9-0.2-2.8-1.1-2.8-2.7c0-1.7,1.3-2.8,3.6-2.8
					c0.9,0,1.8,0.2,2.7,0.6c0.4,0.2,0.7,0.6,0.7,1c0,0.6-0.4,1-1,1c-0.3,0-0.5-0.1-0.7-0.2c-0.6-0.3-1.2-0.4-1.8-0.4
					c-0.8,0-1.1,0.3-1.1,0.7s0.2,0.6,1.2,0.7l0.9,0.1c2.1,0.2,2.9,1.2,2.9,2.7c0,1.8-1.4,3-3.9,3c-1.1,0.1-2.2-0.2-3.2-0.8"/>
				<path id="path3020" class="st1" d="M1156.3,37.1l3.3-9.2c0.3-1,0.9-1.5,1.8-1.5s1.5,0.6,1.8,1.5l3.3,9.2
					c0.1,0.2,0.1,0.3,0.1,0.5c0,0.7-0.5,1.2-1.2,1.2c0,0,0,0-0.1,0c-0.6,0-1.1-0.4-1.2-1l-0.5-1.5h-4.4l-0.5,1.5
					c-0.1,0.6-0.6,1-1.2,1c-0.7,0-1.2-0.5-1.3-1.2c0,0,0,0,0-0.1C1156.2,37.4,1156.2,37.2,1156.3,37.1 M1162.8,34.2l-1.4-4.3h-0.1
					l-1.4,4.3H1162.8z"/>
				<path id="path3022" class="st1" d="M1167.6,27.7c0-0.8,0.6-1.4,1.4-1.4c0.8,0,1.4,0.6,1.4,1.4c0,0.8-0.6,1.4-1.4,1.4
					C1168.3,29.1,1167.6,28.5,1167.6,27.7C1167.6,27.7,1167.6,27.7,1167.6,27.7 M1167.8,37.5v-6.3c0-0.7,0.6-1.3,1.3-1.3
					s1.3,0.6,1.3,1.3v6.3c0.1,0.7-0.5,1.3-1.1,1.3c0,0-0.1,0-0.1,0c-0.7,0-1.2-0.4-1.3-1.1C1167.8,37.7,1167.8,37.6,1167.8,37.5"/>
				<path id="path3024" class="st1" d="M1172.2,37.5v-6.3c-0.1-0.7,0.5-1.3,1.1-1.3c0,0,0.1,0,0.1,0c0.6,0,1.1,0.4,1.2,1l0,0l0,0
					c0.5-0.7,1.3-1.1,2.2-1.1c0.3,0,0.6,0,0.9,0.2c0.4,0.2,0.7,0.6,0.7,1c0,0.7-0.5,1.2-1.1,1.3c0,0-0.1,0-0.1,0
					c-0.2,0-0.4,0-0.5-0.1c-0.2-0.1-0.4-0.1-0.6-0.1c-1,0-1.3,0.7-1.3,1.8v3.5c0.1,0.7-0.5,1.3-1.1,1.3c0,0-0.1,0-0.1,0
					c-0.6,0.1-1.2-0.4-1.3-1C1172.1,37.6,1172.1,37.6,1172.2,37.5"/>
				<path id="path3026" class="st1" d="M1178.9,36.4c-0.2-0.7-0.3-1.4-0.3-2.1c0-0.7,0.1-1.4,0.3-2.1c0.5-1.6,2.1-2.6,3.8-2.5
					c1.7-0.2,3.2,0.9,3.8,2.5c0.2,0.6,0.3,1.3,0.3,2c0,0.4-0.3,0.8-0.7,0.8c0,0-0.1,0-0.1,0h-4.6c0,0-0.1,0-0.1,0.1c0,0,0,0,0,0
					c0,0.2,0,0.3,0.1,0.5c0.3,0.8,1,1.2,1.8,1.1c0.6,0,1.1-0.2,1.7-0.5c0.3-0.2,0.6-0.3,0.9-0.3c0.5,0,0.9,0.4,0.9,0.9
					c0,0,0,0.1,0,0.1c0,0.4-0.2,0.7-0.5,0.9c-0.9,0.6-2,1-3.2,1C1180.8,38.9,1179.4,38,1178.9,36.4 M1184.1,33.5
					C1184.2,33.5,1184.2,33.5,1184.1,33.5c0.1-0.3,0.1-0.5,0-0.7c-0.2-0.6-0.8-1-1.5-1c-0.6,0-1.2,0.3-1.5,1
					c-0.1,0.2-0.1,0.4-0.1,0.6c0,0.1,0,0.1,0.1,0.1H1184.1z"/>
				<path id="path3028" class="st1" d="M1188.3,38.1c-0.4-0.2-0.6-0.6-0.6-1c0-0.6,0.4-1,1-1c0.3,0,0.5,0.1,0.7,0.2
					c0.7,0.4,1.4,0.6,2.2,0.6c0.9,0,1.4-0.3,1.4-0.8s-0.2-0.6-1.3-0.7l-1-0.1c-1.9-0.2-2.9-1.1-2.9-2.7c0-1.7,1.3-2.8,3.6-2.8
					c0.9,0,1.8,0.2,2.7,0.6c0.4,0.2,0.7,0.6,0.7,1c0,0.6-0.4,1-1,1c-0.3,0-0.5-0.1-0.7-0.2c-0.6-0.3-1.2-0.4-1.8-0.4
					c-0.8,0-1.1,0.3-1.1,0.7s0.2,0.6,1.2,0.7l1,0.1c2.1,0.2,2.9,1.2,2.9,2.7c0,1.8-1.4,3-3.9,3C1190.3,39,1189.2,38.8,1188.3,38.1"
					/>
			</g>
		</g>
		<path class="st1" d="M732.3,33.9c0-0.2,0.1-0.3,0.2-0.5c0.1-0.1,0.3-0.2,0.5-0.2h2.8c2.2,0,3.5,0.8,4,2.5c0.1,0.2,0.1,0.4,0.2,0.5
			s0.1,0.4,0.1,0.6s0,0.5,0.1,0.8s0,0.6,0,1s0,0.7,0,1s0,0.5-0.1,0.8s-0.1,0.5-0.1,0.6c0,0.2-0.1,0.4-0.2,0.5
			c-0.5,1.7-1.9,2.5-4,2.5h-2.8c-0.2,0-0.4-0.1-0.5-0.2c-0.1-0.1-0.2-0.3-0.2-0.5V33.9z M733.7,42.9C733.7,43,733.7,43,733.7,42.9
			l1.9,0.1c0.6,0,1.2-0.1,1.8-0.4c0.5-0.3,0.8-0.7,1-1.3c0-0.1,0.1-0.3,0.1-0.4s0.1-0.3,0.1-0.5c0-0.2,0-0.5,0-0.7
			c0-0.2,0-0.5,0-0.9s0-0.6,0-0.9c0-0.2,0-0.5,0-0.7c0-0.2,0-0.4-0.1-0.5s-0.1-0.3-0.1-0.5c-0.2-0.5-0.5-1-1-1.3
			c-0.6-0.3-1.2-0.4-1.8-0.4h-1.8c0,0-0.1,0-0.1,0.1c0,0,0,0,0,0V42.9z"/>
		<path class="st1" d="M743,35c-0.2,0-0.5-0.1-0.6-0.3c-0.2-0.2-0.3-0.4-0.3-0.6c0-0.2,0.1-0.5,0.3-0.6c0.2-0.2,0.4-0.3,0.6-0.2
			c0.2,0,0.5,0.1,0.6,0.2c0.2,0.2,0.3,0.4,0.3,0.6c0,0.2-0.1,0.5-0.3,0.6C743.5,34.9,743.2,35,743,35z M742.3,37.2
			c0-0.2,0.1-0.4,0.2-0.5c0.1-0.1,0.3-0.2,0.5-0.2c0.2,0,0.4,0.1,0.5,0.2c0.1,0.1,0.2,0.3,0.2,0.5v6.5c0,0.2-0.1,0.4-0.2,0.5
			c-0.1,0.1-0.3,0.2-0.5,0.2c-0.2,0-0.4-0.1-0.5-0.2c-0.1-0.1-0.2-0.3-0.2-0.5V37.2z"/>
		<path class="st1" d="M746.9,44.4c-0.2,0-0.4-0.1-0.5-0.2c-0.1-0.1-0.2-0.3-0.2-0.5v-6.5c0-0.2,0.1-0.4,0.2-0.5
			c0.3-0.3,0.7-0.3,1,0c0.1,0.1,0.2,0.3,0.2,0.5v0.4l0,0c0.2-0.4,0.4-0.7,0.8-0.9c0.4-0.2,0.8-0.3,1.2-0.3c0.2,0,0.5,0,0.7,0.1
			c0.2,0,0.3,0.1,0.5,0.2c0.2,0.1,0.4,0.3,0.4,0.6c0,0.2-0.1,0.4-0.2,0.5c-0.1,0.1-0.3,0.2-0.5,0.2c-0.1,0-0.2,0-0.3-0.1l-0.5-0.1
			c-0.1,0-0.3,0-0.5,0c-0.5,0-1,0.2-1.3,0.7c-0.3,0.5-0.4,1.1-0.4,1.6v3.8c0,0.2-0.1,0.4-0.2,0.5C747.2,44.3,747,44.4,746.9,44.4z"
			/>
		<path class="st1" d="M755.3,44.5c-0.7,0-1.4-0.2-2-0.5c-0.6-0.4-1-0.9-1.1-1.6c-0.1-0.3-0.2-0.5-0.2-0.8c-0.1-0.4-0.1-0.8-0.1-1.1
			c0-0.4,0-0.8,0.1-1.2c0-0.3,0.1-0.6,0.2-0.8c0.2-0.6,0.6-1.2,1.1-1.5c1.2-0.7,2.7-0.7,3.9,0c0.5,0.4,0.9,0.9,1.1,1.5
			c0.2,0.6,0.3,1.2,0.3,1.9c0,0.1-0.1,0.3-0.2,0.4c-0.1,0.1-0.2,0.1-0.4,0.1h-4.6c-0.1,0-0.1,0-0.1,0.1c0,0.2,0,0.3,0,0.5
			c0,0.2,0,0.3,0.1,0.5c0.1,0.4,0.4,0.8,0.7,1c0.4,0.2,0.8,0.3,1.2,0.3c0.3,0,0.7-0.1,1-0.2c0.3-0.1,0.6-0.3,0.9-0.5
			c0.1-0.1,0.3-0.2,0.5-0.2c0.2,0,0.3,0.1,0.4,0.2c0.1,0.1,0.2,0.3,0.2,0.4c0,0.2-0.1,0.4-0.2,0.5C757.4,44.1,756.4,44.5,755.3,44.5
			L755.3,44.5z M757.1,39.7C757.1,39.7,757.2,39.7,757.1,39.7c0.1-0.4,0.1-0.7,0-1c-0.1-0.4-0.3-0.7-0.7-0.9c-0.7-0.4-1.6-0.4-2.3,0
			c-0.3,0.2-0.5,0.5-0.7,0.9c-0.1,0.3-0.1,0.6-0.1,0.9c0,0.1,0,0.1,0.1,0.1H757.1z"/>
		<path class="st1" d="M763.5,44.5c-0.7,0-1.4-0.2-2-0.5c-0.6-0.4-1-0.9-1.2-1.6c-0.1-0.3-0.1-0.6-0.2-0.8c-0.1-0.8-0.1-1.5,0-2.3
			c0-0.3,0.1-0.6,0.2-0.8c0.2-0.6,0.6-1.2,1.2-1.5c0.6-0.4,1.3-0.6,2-0.5c0.5,0,1,0.1,1.5,0.3c0.4,0.2,0.7,0.5,1,0.8
			c0.1,0.1,0.2,0.3,0.2,0.5c0,0.3-0.2,0.6-0.6,0.6c0,0,0,0,0,0c-0.1,0-0.2,0-0.3-0.1c-0.1-0.1-0.2-0.1-0.3-0.2
			c-0.2-0.2-0.4-0.4-0.6-0.5c-0.3-0.1-0.6-0.2-0.9-0.2c-0.4,0-0.8,0.1-1.1,0.3c-0.3,0.2-0.6,0.5-0.7,0.9c-0.1,0.2-0.1,0.5-0.1,0.7
			c0,0.2,0,0.5,0,0.9s0,0.7,0,0.9c0,0.2,0.1,0.5,0.1,0.7c0.1,0.4,0.3,0.7,0.7,0.9c0.3,0.2,0.7,0.3,1.1,0.3c0.3,0,0.6-0.1,0.9-0.2
			c0.2-0.1,0.4-0.3,0.6-0.5c0.1-0.1,0.2-0.2,0.3-0.2c0.1-0.1,0.2-0.1,0.3-0.1c0.2,0,0.3,0.1,0.4,0.2c0.1,0.1,0.2,0.3,0.2,0.4
			c0,0.2-0.1,0.4-0.2,0.5C765.4,44.1,764.5,44.5,763.5,44.5L763.5,44.5z"/>
		<path class="st1" d="M771.1,44.5c-0.7,0-1.4-0.2-2-0.5c-0.5-0.4-0.9-0.9-1.1-1.6c-0.1-0.3-0.1-0.6-0.2-0.8c-0.1-0.8-0.1-1.5,0-2.3
			c0-0.3,0.1-0.6,0.2-0.8c0.2-0.6,0.6-1.2,1.1-1.5c0.6-0.4,1.3-0.6,2-0.5c1,0,1.9,0.4,2.5,1.1c0.1,0.1,0.2,0.3,0.2,0.5
			c0,0.2-0.1,0.3-0.2,0.4c-0.1,0.1-0.3,0.2-0.4,0.2c-0.1,0-0.2,0-0.3-0.1c-0.1-0.1-0.2-0.1-0.3-0.2c-0.2-0.2-0.4-0.3-0.6-0.5
			c-0.3-0.1-0.6-0.2-0.9-0.2c-0.4,0-0.8,0.1-1.1,0.3c-0.3,0.2-0.6,0.5-0.7,0.9c-0.1,0.2-0.1,0.5-0.1,0.7c0,0.3,0,0.6,0,0.9
			c0,0.3,0,0.6,0,0.9c0,0.2,0.1,0.5,0.1,0.7c0.1,0.4,0.3,0.7,0.7,0.9c0.3,0.2,0.7,0.3,1.1,0.3c0.3,0,0.6-0.1,0.9-0.2
			c0.2-0.1,0.4-0.3,0.6-0.5c0.1-0.1,0.2-0.2,0.3-0.2c0.1-0.1,0.2-0.1,0.3-0.1c0.3,0,0.6,0.2,0.6,0.5c0,0,0,0,0,0.1
			c0,0.2-0.1,0.4-0.2,0.5C773,44.1,772.1,44.5,771.1,44.5L771.1,44.5z"/>
		<path class="st1" d="M776.5,35c-0.2,0-0.5-0.1-0.6-0.3c-0.2-0.2-0.3-0.4-0.3-0.6c0-0.2,0.1-0.5,0.3-0.6c0.2-0.2,0.4-0.3,0.6-0.2
			c0.2,0,0.5,0.1,0.6,0.2c0.2,0.2,0.3,0.4,0.3,0.6c0,0.2-0.1,0.5-0.3,0.6C776.9,34.9,776.7,35,776.5,35z M775.8,37.2
			c0-0.2,0.1-0.4,0.2-0.5c0.3-0.3,0.7-0.3,1,0c0.1,0.1,0.2,0.3,0.2,0.5v6.5c0,0.2-0.1,0.4-0.2,0.5c-0.3,0.3-0.7,0.3-1,0c0,0,0,0,0,0
			c-0.1-0.1-0.2-0.3-0.2-0.5V37.2z"/>
		<path class="st1" d="M782.6,44.5c-0.7,0-1.4-0.2-2-0.6c-0.5-0.4-0.9-0.9-1.1-1.5c-0.1-0.3-0.2-0.6-0.2-0.8c0-0.4-0.1-0.8-0.1-1.1
			c0-0.4,0-0.7,0.1-1.1c0-0.3,0.1-0.6,0.2-0.8c0.2-0.6,0.6-1.2,1.1-1.5c1.2-0.7,2.7-0.7,3.9,0c0.5,0.4,0.9,0.9,1.1,1.5
			c0.1,0.3,0.2,0.6,0.2,0.8c0,0.4,0.1,0.7,0.1,1.1c0,0.4,0,0.8-0.1,1.1c0,0.3-0.1,0.6-0.2,0.8c-0.2,0.6-0.6,1.2-1.1,1.5
			C783.9,44.3,783.3,44.5,782.6,44.5z M782.6,43.2c0.4,0,0.8-0.1,1.1-0.3c0.3-0.2,0.5-0.5,0.7-0.9c0.1-0.2,0.1-0.4,0.1-0.7
			c0-0.3,0-0.6,0-0.9c0-0.3,0-0.6,0-0.9c0-0.2-0.1-0.5-0.1-0.7c-0.1-0.4-0.3-0.7-0.7-0.9c-0.3-0.2-0.7-0.3-1.1-0.3
			c-0.4,0-0.8,0.1-1.1,0.3c-0.3,0.2-0.5,0.5-0.7,0.9c-0.1,0.2-0.1,0.4-0.1,0.7c0,0.3,0,0.6,0,0.9c0,0.3,0,0.6,0,0.9
			c0,0.2,0.1,0.5,0.1,0.7c0.1,0.4,0.3,0.7,0.7,0.9C781.8,43.1,782.2,43.2,782.6,43.2z M782.6,35.4c-0.1,0-0.3,0-0.4-0.1
			c-0.1-0.1-0.2-0.2-0.2-0.4c0-0.1,0-0.3,0.1-0.4l0.9-1.4c0.1-0.2,0.3-0.3,0.5-0.3c0.1,0,0.3,0.1,0.4,0.2c0.1,0.1,0.2,0.2,0.2,0.4
			c0,0.1-0.1,0.3-0.1,0.4l-1,1.4C783,35.3,782.8,35.4,782.6,35.4z"/>
		<path class="st1" d="M788,37.2c0-0.2,0.1-0.4,0.2-0.5c0.3-0.3,0.7-0.3,1,0c0.1,0.1,0.2,0.3,0.2,0.5v0.2l0,0
			c0.2-0.3,0.5-0.6,0.8-0.8c0.4-0.2,0.9-0.3,1.4-0.3c0.8,0,1.5,0.3,2,0.8c0.5,0.6,0.8,1.3,0.7,2.1v4.4c0,0.2-0.1,0.4-0.2,0.5
			c-0.3,0.3-0.7,0.3-1,0c-0.1-0.1-0.2-0.3-0.2-0.5v-4.1c0-0.5-0.1-1-0.4-1.5c-0.3-0.4-0.8-0.6-1.3-0.5c-0.5,0-1,0.2-1.3,0.5
			c-0.3,0.4-0.5,0.9-0.5,1.4v4.1c0,0.2-0.1,0.4-0.2,0.5c-0.3,0.3-0.7,0.3-1,0c0,0,0,0,0,0c-0.1-0.1-0.2-0.3-0.2-0.5L788,37.2z"/>
		<path class="st1" d="M800.5,41.8c-0.1-0.2-0.1-0.4-0.2-0.6c0-0.2-0.1-0.4-0.1-0.7s0-0.5,0-0.8s0-0.6,0-1s0-0.7,0-1s0-0.6,0-0.8
			s0.1-0.5,0.1-0.7s0.1-0.4,0.2-0.6c0.2-0.8,0.7-1.5,1.4-1.9c0.7-0.5,1.5-0.7,2.4-0.7c0.7,0,1.5,0.1,2.2,0.5c0.6,0.3,1,0.7,1.3,1.3
			c0.1,0.1,0.1,0.3,0.1,0.4c0,0.2-0.1,0.4-0.2,0.5c-0.1,0.1-0.3,0.2-0.5,0.2c-0.3,0-0.5-0.2-0.7-0.4c-0.5-0.8-1.4-1.2-2.3-1.1
			c-0.6,0-1.1,0.1-1.5,0.5c-0.4,0.3-0.7,0.8-0.8,1.2c-0.1,0.3-0.2,0.7-0.2,1c0,0.2,0,0.5,0,0.7s0,0.6,0,1s0,0.7,0,1s0,0.5,0,0.7
			c0,0.2,0,0.4,0.1,0.5c0,0.1,0.1,0.3,0.1,0.4c0.1,0.5,0.4,0.9,0.8,1.2c0.4,0.3,1,0.5,1.5,0.5c0.5,0,1.1-0.1,1.5-0.4
			c0.4-0.3,0.7-0.7,0.9-1.2c0.1-0.3,0.2-0.5,0.2-0.8c0-0.3,0-0.6,0-0.8c0,0,0-0.1-0.1-0.1c0,0,0,0,0,0h-1.7c-0.2,0-0.4-0.1-0.5-0.2
			c-0.1-0.1-0.2-0.3-0.2-0.5c0-0.2,0.1-0.3,0.2-0.5c0.1-0.1,0.3-0.2,0.5-0.2h2.6c0.3,0,0.6,0.2,0.7,0.6c0,0,0,0.1,0,0.1v0.3
			c0,0.4,0,0.8-0.1,1.3c0,0.4-0.1,0.8-0.2,1.2c-0.2,0.8-0.7,1.5-1.4,2c-1.5,0.9-3.3,0.9-4.8,0C801.2,43.4,800.7,42.7,800.5,41.8z"/>
		<path class="st1" d="M813.5,44.5c-0.7,0-1.4-0.2-2-0.5c-0.6-0.4-1-0.9-1.1-1.6c-0.1-0.3-0.2-0.5-0.2-0.8c0-0.4-0.1-0.8-0.1-1.1
			c0-0.4,0-0.8,0.1-1.2c0-0.3,0.1-0.6,0.2-0.8c0.2-0.6,0.6-1.2,1.1-1.5c0.6-0.4,1.3-0.6,1.9-0.5c0.7,0,1.4,0.2,2,0.5
			c0.5,0.4,0.9,0.9,1.1,1.5c0.2,0.6,0.3,1.2,0.3,1.9c0,0.1-0.1,0.3-0.2,0.4c-0.1,0.1-0.2,0.1-0.4,0.1h-4.6c0,0-0.1,0-0.1,0.1
			c0,0,0,0,0,0c0,0.2,0,0.3,0,0.5c0,0.2,0,0.3,0.1,0.5c0.1,0.4,0.4,0.8,0.7,1c0.4,0.2,0.8,0.3,1.2,0.3c0.3,0,0.7-0.1,1-0.2
			c0.3-0.1,0.6-0.3,0.9-0.5c0.1-0.1,0.3-0.2,0.5-0.2c0.2,0,0.3,0.1,0.4,0.2c0.1,0.1,0.2,0.3,0.2,0.4c0,0.2-0.1,0.4-0.2,0.5
			C815.6,44.1,814.6,44.5,813.5,44.5L813.5,44.5z M815.2,39.7C815.3,39.7,815.3,39.7,815.2,39.7c0.1-0.4,0.1-0.7,0-1
			c-0.1-0.4-0.4-0.7-0.7-0.9c-0.7-0.4-1.6-0.4-2.3,0c-0.3,0.2-0.5,0.5-0.7,0.9c-0.1,0.3-0.1,0.6-0.1,0.9c0,0.1,0,0.1,0.1,0.1H815.2z
			"/>
		<path class="st1" d="M818.8,37.2c0-0.2,0.1-0.4,0.2-0.5c0.3-0.3,0.7-0.3,1,0c0.1,0.1,0.2,0.3,0.2,0.5v0.2l0,0
			c0.2-0.3,0.5-0.6,0.8-0.8c0.4-0.2,0.9-0.3,1.4-0.3c0.8,0,1.5,0.3,2,0.8c0.5,0.6,0.8,1.3,0.7,2.1v4.4c0,0.2-0.1,0.4-0.2,0.5
			c-0.3,0.3-0.7,0.3-1,0c-0.1-0.1-0.2-0.3-0.2-0.5v-4.1c0-0.5-0.1-1-0.4-1.5c-0.3-0.4-0.8-0.6-1.3-0.5c-0.5,0-1,0.2-1.3,0.5
			c-0.4,0.4-0.5,0.9-0.5,1.4v4.1c0,0.2-0.1,0.4-0.2,0.5c-0.3,0.3-0.7,0.3-1,0c0,0,0,0,0,0c-0.1-0.1-0.2-0.3-0.2-0.5L818.8,37.2z"/>
		<path class="st1" d="M830.5,44.5c-0.7,0-1.4-0.2-2-0.5c-0.6-0.4-1-0.9-1.1-1.6c-0.1-0.3-0.2-0.5-0.2-0.8c-0.1-0.4-0.1-0.8-0.1-1.1
			c0-0.4,0-0.8,0.1-1.2c0-0.3,0.1-0.6,0.2-0.8c0.2-0.6,0.6-1.2,1.1-1.5c1.2-0.7,2.7-0.7,3.9,0c0.5,0.4,0.9,0.9,1.1,1.5
			c0.2,0.6,0.3,1.2,0.3,1.9c0,0.1-0.1,0.3-0.2,0.4c-0.1,0.1-0.2,0.1-0.4,0.1h-4.6c-0.1,0-0.1,0-0.1,0.1c0,0.2,0,0.3,0,0.5
			c0,0.2,0,0.3,0.1,0.5c0.1,0.4,0.4,0.8,0.7,1c0.4,0.2,0.8,0.3,1.2,0.3c0.3,0,0.7-0.1,1-0.2c0.3-0.1,0.6-0.3,0.9-0.5
			c0.1-0.1,0.3-0.2,0.5-0.2c0.2,0,0.3,0.1,0.4,0.2c0.1,0.1,0.2,0.3,0.2,0.4c0,0.2-0.1,0.4-0.2,0.5C832.5,44.1,831.5,44.5,830.5,44.5
			L830.5,44.5z M832.2,39.7C832.3,39.7,832.3,39.7,832.2,39.7c0.1-0.4,0.1-0.7,0-1c-0.1-0.4-0.3-0.7-0.7-0.9c-0.7-0.4-1.6-0.4-2.3,0
			c-0.3,0.2-0.5,0.5-0.7,0.9c-0.1,0.3-0.1,0.6-0.1,0.9c0,0.1,0,0.1,0.1,0.1H832.2z"/>
		<path class="st1" d="M836.4,44.4c-0.2,0-0.4-0.1-0.5-0.2c-0.1-0.1-0.2-0.3-0.2-0.5v-6.5c0-0.2,0.1-0.4,0.2-0.5
			c0.1-0.1,0.3-0.2,0.5-0.2c0.2,0,0.4,0.1,0.5,0.2c0.1,0.1,0.2,0.3,0.2,0.5v0.4l0,0c0.2-0.3,0.4-0.6,0.8-0.9
			c0.4-0.2,0.8-0.3,1.3-0.3c0.2,0,0.5,0,0.7,0.1c0.2,0,0.3,0.1,0.5,0.2c0.2,0.1,0.4,0.3,0.4,0.6c0,0.2-0.1,0.4-0.2,0.5
			c-0.1,0.1-0.3,0.2-0.5,0.2c-0.1,0-0.2,0-0.3-0.1l-0.4-0.1c-0.2,0-0.3,0-0.5,0c-0.5,0-1,0.2-1.3,0.7c-0.3,0.5-0.4,1.1-0.4,1.6v3.8
			c0,0.2-0.1,0.4-0.2,0.5C836.8,44.3,836.6,44.4,836.4,44.4z"/>
		<path class="st1" d="M848.2,43.3c0.1,0.1,0.1,0.3,0.1,0.4c0,0.2-0.1,0.3-0.2,0.5c-0.1,0.1-0.3,0.2-0.5,0.2c-0.2,0-0.5-0.2-0.6-0.4
			l-0.3-0.5l0,0c-0.3,0.3-0.6,0.5-1,0.7c-0.5,0.2-1,0.3-1.5,0.2c-0.7,0-1.4-0.2-2-0.6c-0.5-0.4-0.8-1.1-0.7-1.7
			c-0.1-0.7,0.2-1.4,0.8-1.8c0.7-0.4,1.5-0.7,2.3-0.6h1.8c0,0,0.1,0,0.1-0.1c0,0,0,0,0,0v-0.4c0-0.5-0.2-0.9-0.5-1.2
			c-0.4-0.3-0.9-0.5-1.5-0.4c-0.3,0-0.6,0-0.9,0.1c-0.2,0.1-0.5,0.2-0.7,0.3c-0.1,0.1-0.3,0.1-0.4,0.1c-0.2,0-0.3,0-0.4-0.2
			c-0.1-0.1-0.2-0.3-0.2-0.4c0-0.1,0-0.2,0.1-0.3c0.1-0.1,0.1-0.2,0.3-0.2c0.3-0.2,0.6-0.3,1-0.4c0.5-0.1,0.9-0.2,1.4-0.2
			c0.8-0.1,1.7,0.2,2.3,0.7c0.5,0.6,0.8,1.4,0.7,2.2V42c0,0.2,0,0.3,0,0.5c0,0.1,0.1,0.2,0.1,0.3L848.2,43.3z M844.4,43.3
			c0.5,0,1-0.1,1.5-0.4c0.4-0.3,0.6-0.7,0.5-1.1v-0.9c0-0.1,0-0.1-0.1-0.1h-1.6c-0.5,0-1,0.1-1.5,0.3c-0.3,0.2-0.5,0.6-0.5,1
			c0,0.4,0.1,0.7,0.4,0.9C843.6,43.3,844,43.3,844.4,43.3L844.4,43.3z"/>
		<path class="st1" d="M852.1,44.4c-0.5,0.1-1.1-0.1-1.5-0.5c-0.3-0.5-0.5-1-0.4-1.6v-8.4c0-0.2,0.1-0.4,0.2-0.5
			c0.1-0.1,0.3-0.2,0.5-0.2c0.2,0,0.4,0.1,0.5,0.2c0.1,0.1,0.2,0.3,0.2,0.5v8.3c0,0.2,0,0.5,0.2,0.7c0.2,0.1,0.4,0.2,0.6,0.2
			c0.2,0,0.3,0.1,0.5,0.2c0.1,0.1,0.2,0.3,0.2,0.5c0,0.2-0.1,0.3-0.2,0.5c-0.1,0.1-0.3,0.2-0.5,0.2H852.1z"/>
		<path class="st1" d="M863.9,44.4c-0.2,0-0.4-0.1-0.5-0.2c-0.1-0.1-0.2-0.3-0.2-0.5v-0.2l0,0c-0.2,0.3-0.5,0.6-0.8,0.8
			c-0.4,0.2-0.9,0.3-1.4,0.3c-0.6,0-1.2-0.2-1.7-0.5c-0.5-0.4-0.8-0.9-1-1.4c-0.1-0.3-0.2-0.7-0.2-1c0-0.4-0.1-0.8-0.1-1.2
			c0-0.4,0-0.8,0.1-1.2c0-0.3,0.1-0.7,0.2-1c0.2-0.6,0.5-1.1,1-1.4c0.5-0.3,1.1-0.5,1.7-0.5c0.5,0,1,0.1,1.4,0.3
			c0.3,0.2,0.6,0.4,0.8,0.8l0,0v-3.4c0-0.2,0.1-0.4,0.2-0.5c0.3-0.3,0.7-0.3,1,0c0.1,0.1,0.2,0.3,0.2,0.5v9.8c0,0.2-0.1,0.4-0.2,0.5
			C864.3,44.3,864.1,44.4,863.9,44.4z M861.3,43.2c0.4,0,0.8-0.1,1.1-0.3c0.3-0.2,0.5-0.5,0.6-0.9c0.1-0.2,0.1-0.5,0.2-0.7
			c0-0.2,0-0.5,0-0.9s0-0.6,0-0.9c0-0.2-0.1-0.5-0.2-0.7c-0.1-0.4-0.3-0.7-0.6-0.9c-0.3-0.2-0.7-0.3-1.1-0.3
			c-0.8-0.1-1.5,0.5-1.7,1.2c-0.1,0.2-0.1,0.5-0.2,0.7c0,0.2,0,0.5,0,0.9s0,0.6,0,0.9c0,0.2,0.1,0.5,0.2,0.7
			c0.1,0.4,0.3,0.7,0.6,0.9C860.5,43.1,860.9,43.2,861.3,43.2z"/>
		<path class="st1" d="M870,44.5c-0.7,0-1.4-0.2-2-0.5c-0.5-0.4-0.9-0.9-1.1-1.6c-0.1-0.3-0.2-0.5-0.2-0.8c0-0.4-0.1-0.8-0.1-1.1
			c0-0.5,0-0.8,0-1.2c0-0.3,0.1-0.6,0.2-0.8c0.2-0.6,0.6-1.2,1.2-1.6c1.2-0.7,2.7-0.7,3.9,0c0.5,0.4,0.9,0.9,1.1,1.5
			c0.2,0.6,0.3,1.2,0.3,1.9c0,0.1,0,0.3-0.1,0.4c-0.1,0.1-0.3,0.1-0.4,0.1h-4.6c-0.1,0-0.1,0-0.1,0.1s0,0.3,0,0.5
			c0,0.2,0.1,0.3,0.1,0.5c0.1,0.4,0.4,0.8,0.7,1c0.4,0.2,0.8,0.3,1.2,0.3c0.3,0,0.7-0.1,1-0.2c0.3-0.1,0.6-0.3,0.9-0.5
			c0.1-0.1,0.3-0.2,0.5-0.2c0.2,0,0.3,0.1,0.4,0.2c0.1,0.1,0.2,0.3,0.2,0.4c0,0.2-0.1,0.4-0.2,0.5c-0.4,0.3-0.8,0.6-1.2,0.8
			C871.1,44.4,870.6,44.5,870,44.5z M871.8,39.7C871.8,39.7,871.9,39.7,871.8,39.7C871.9,39.6,871.9,39.6,871.8,39.7
			c0.1-0.4,0.1-0.7,0-1c-0.1-0.4-0.3-0.7-0.7-0.9c-0.3-0.2-0.7-0.3-1.1-0.3c-0.4,0-0.8,0.1-1.1,0.3c-0.3,0.2-0.6,0.5-0.7,0.9
			c-0.1,0.3-0.1,0.6-0.1,0.9c0,0.1,0,0.1,0.1,0.1H871.8z"/>
		<path class="st1" d="M879.1,41.8c-0.1-0.2-0.1-0.4-0.2-0.6c0-0.2-0.1-0.4-0.1-0.7s0-0.5,0-0.8s0-0.6,0-1s0-0.7,0-1s0-0.6,0-0.8
			s0.1-0.5,0.1-0.7c0-0.2,0.1-0.4,0.2-0.6c0.2-0.8,0.7-1.5,1.4-1.9c1.3-0.8,2.9-0.9,4.3-0.2c0.6,0.3,1,0.8,1.3,1.3
			c0.1,0.1,0.1,0.3,0.1,0.5c0,0.2-0.1,0.4-0.2,0.5c-0.1,0.1-0.3,0.2-0.5,0.2c-0.3,0-0.5-0.2-0.7-0.4c-0.2-0.4-0.5-0.7-0.9-0.9
			c-0.4-0.2-0.8-0.3-1.2-0.3c-0.5,0-1.1,0.1-1.5,0.5c-0.4,0.3-0.7,0.8-0.8,1.2c-0.1,0.1-0.1,0.3-0.1,0.4c0,0.2-0.1,0.3-0.1,0.5
			s0,0.5,0,0.7s0,0.6,0,1s0,0.7,0,1s0,0.5,0,0.7s0,0.4,0.1,0.5c0,0.1,0.1,0.3,0.1,0.4c0.1,0.5,0.4,0.9,0.8,1.2
			c0.4,0.3,1,0.5,1.5,0.5c0.4,0,0.8-0.1,1.2-0.3c0.4-0.2,0.7-0.5,0.9-0.9c0.1-0.2,0.4-0.4,0.7-0.4c0.2,0,0.3,0.1,0.5,0.2
			c0.1,0.1,0.2,0.3,0.2,0.5c0,0.2,0,0.3-0.1,0.5c-0.3,0.5-0.8,1-1.3,1.2c-1.4,0.7-3,0.6-4.3-0.2C879.8,43.3,879.3,42.6,879.1,41.8z"
			/>
		<path class="st1" d="M894.4,43.6c0,0.2-0.1,0.4-0.2,0.5c-0.1,0.1-0.3,0.2-0.5,0.2c-0.2,0-0.4-0.1-0.5-0.2
			c-0.1-0.1-0.2-0.3-0.2-0.5v-0.2l0,0c-0.2,0.3-0.5,0.6-0.8,0.8c-0.4,0.2-0.9,0.3-1.3,0.3c-0.8,0-1.5-0.3-2-0.8
			c-0.5-0.6-0.7-1.4-0.7-2.1v-4.4c0-0.2,0.1-0.4,0.2-0.5c0.3-0.3,0.7-0.3,1,0c0.1,0.1,0.2,0.3,0.2,0.5v4.1c0,0.5,0.1,1,0.4,1.5
			c0.3,0.4,0.8,0.6,1.3,0.5c0.5,0,0.9-0.2,1.3-0.5c0.3-0.4,0.5-0.9,0.5-1.4v-4.1c0-0.2,0.1-0.4,0.2-0.5c0.1-0.1,0.3-0.2,0.5-0.2
			c0.2,0,0.4,0.1,0.5,0.2c0.1,0.1,0.2,0.3,0.2,0.5L894.4,43.6z"/>
		<path class="st1" d="M898.8,44.4c-0.6,0.1-1.1-0.1-1.5-0.5c-0.3-0.5-0.5-1-0.4-1.6v-8.4c0-0.2,0.1-0.4,0.2-0.5
			c0.1-0.1,0.3-0.2,0.5-0.2c0.2,0,0.4,0.1,0.5,0.2c0.1,0.1,0.2,0.3,0.2,0.5v8.3c0,0.2,0,0.5,0.2,0.7c0.2,0.1,0.4,0.2,0.6,0.2
			c0.2,0,0.3,0.1,0.5,0.2c0.1,0.1,0.2,0.3,0.2,0.5c0,0.2-0.1,0.3-0.2,0.5c-0.1,0.1-0.3,0.2-0.5,0.2H898.8z"/>
		<path class="st1" d="M903.6,44.4c-0.6,0.1-1.2-0.1-1.7-0.5c-0.4-0.5-0.6-1.1-0.5-1.8v-4.4c0-0.1,0-0.1-0.1-0.1h-0.5
			c-0.2,0-0.3,0-0.4-0.2c-0.1-0.1-0.2-0.2-0.2-0.4c0-0.1,0.1-0.3,0.2-0.4c0.1-0.1,0.3-0.2,0.4-0.2h0.5c0.1,0,0.1,0,0.1-0.1v-1.7
			c0-0.2,0.1-0.4,0.2-0.5c0.1-0.1,0.3-0.2,0.5-0.2c0.2,0,0.4,0.1,0.5,0.2c0.1,0.1,0.2,0.3,0.2,0.5v1.7c0,0.1,0,0.1,0.1,0.1h1
			c0.2,0,0.3,0,0.4,0.2c0.1,0.1,0.2,0.3,0.2,0.4c0,0.1,0,0.3-0.2,0.4c-0.1,0.1-0.3,0.2-0.4,0.2h-1c0,0-0.1,0-0.1,0.1c0,0,0,0,0,0V42
			c0,0.3,0,0.6,0.2,0.8c0.2,0.2,0.5,0.3,0.8,0.2c0.2,0,0.4,0.1,0.5,0.2c0.1,0.1,0.2,0.3,0.2,0.5c0,0.2-0.1,0.3-0.2,0.5
			c-0.2,0.1-0.3,0.2-0.5,0.2L903.6,44.4z"/>
		<path class="st1" d="M912.5,43.6c0,0.2-0.1,0.4-0.2,0.5c-0.3,0.3-0.7,0.3-1,0c0,0,0,0,0,0c-0.1-0.1-0.2-0.3-0.2-0.5v-0.2l0,0
			c-0.2,0.3-0.5,0.6-0.8,0.8c-0.4,0.2-0.9,0.3-1.3,0.3c-0.8,0-1.5-0.2-2-0.8c-0.5-0.6-0.8-1.4-0.7-2.1v-4.4c0-0.2,0.1-0.4,0.2-0.5
			c0.1-0.1,0.3-0.2,0.5-0.2c0.2,0,0.4,0.1,0.5,0.2c0.1,0.1,0.2,0.3,0.2,0.5v4.1c0,0.5,0.1,1,0.4,1.5c0.3,0.4,0.8,0.6,1.3,0.5
			c0.5,0,1-0.2,1.3-0.5c0.3-0.4,0.5-0.9,0.5-1.4v-4.1c0-0.2,0.1-0.4,0.2-0.5c0.3-0.3,0.7-0.3,1,0c0.1,0.1,0.2,0.3,0.2,0.5
			L912.5,43.6z"/>
		<path class="st1" d="M915.7,44.4c-0.2,0-0.4-0.1-0.5-0.2c-0.1-0.1-0.2-0.3-0.2-0.5v-6.5c0-0.2,0.1-0.4,0.2-0.5
			c0.1-0.1,0.3-0.2,0.5-0.2c0.2,0,0.4,0.1,0.5,0.2c0.1,0.1,0.2,0.3,0.2,0.5v0.4l0,0c0.2-0.4,0.4-0.6,0.8-0.9
			c0.4-0.2,0.8-0.3,1.3-0.3c0.2,0,0.5,0,0.7,0.1c0.2,0,0.3,0.1,0.5,0.2c0.2,0.1,0.4,0.3,0.4,0.6c0,0.2-0.1,0.4-0.2,0.5
			c-0.1,0.1-0.3,0.2-0.5,0.2c-0.1,0-0.2,0-0.3-0.1l-0.4-0.1c-0.2,0-0.3,0-0.5,0c-0.5,0-1,0.2-1.3,0.7c-0.3,0.5-0.4,1.1-0.4,1.6v3.8
			c0,0.2-0.1,0.4-0.2,0.5C916,44.3,915.8,44.4,915.7,44.4z"/>
		<path class="st1" d="M927.4,43.3c0.1,0.1,0.1,0.3,0.1,0.4c0,0.2-0.1,0.3-0.2,0.5c-0.1,0.1-0.3,0.2-0.5,0.2c-0.2,0-0.5-0.1-0.6-0.3
			l-0.3-0.5l0,0c-0.3,0.3-0.6,0.5-1,0.7c-0.5,0.2-0.9,0.3-1.4,0.2c-0.7,0-1.5-0.2-2-0.6c-0.5-0.4-0.8-1.1-0.7-1.7
			c-0.1-0.7,0.2-1.4,0.8-1.8c0.7-0.4,1.5-0.7,2.3-0.6h1.8c0.1,0,0.1,0,0.1-0.1v-0.4c0-0.5-0.1-0.9-0.4-1.3c-0.4-0.3-0.9-0.5-1.5-0.4
			c-0.3,0-0.6,0-0.9,0.1c-0.2,0.1-0.5,0.2-0.7,0.3c-0.1,0.1-0.3,0.1-0.4,0.1c-0.3,0-0.6-0.2-0.6-0.5c0,0,0-0.1,0-0.1
			c0-0.1,0-0.2,0.1-0.3c0.1-0.1,0.1-0.2,0.2-0.2c0.3-0.2,0.6-0.3,1-0.4c0.5-0.1,0.9-0.2,1.4-0.2c0.8-0.1,1.7,0.2,2.3,0.7
			c0.5,0.6,0.8,1.4,0.8,2.2V42c0,0.2,0,0.3,0,0.5c0,0.1,0.1,0.2,0.1,0.3L927.4,43.3z M923.7,43.3c0.5,0,1-0.1,1.5-0.4
			c0.4-0.3,0.6-0.7,0.5-1.1v-0.9c0-0.1,0-0.1-0.1-0.1H924c-0.5,0-1,0.1-1.5,0.3c-0.3,0.2-0.5,0.6-0.5,1c0,0.4,0.1,0.7,0.4,0.9
			C922.8,43.3,923.3,43.3,923.7,43.3L923.7,43.3z"/>
		<path class="st1" d="M933.6,47.2c-0.2,0-0.4-0.1-0.5-0.2c-0.1-0.1-0.2-0.3-0.2-0.5c0-0.2,0.1-0.3,0.2-0.5c0.1-0.1,0.3-0.2,0.5-0.2
			c0.3,0,0.6-0.1,0.8-0.2c0.3-0.3,0.5-0.6,0.6-0.9l0.3-0.7l-2.7-6.7c0-0.1,0-0.1,0-0.2c0-0.1,0-0.1,0-0.2c0-0.2,0.1-0.3,0.2-0.5
			c0.1-0.1,0.3-0.2,0.5-0.2c0.3,0,0.6,0.2,0.7,0.5l2,5.4l0,0l2-5.4c0.1-0.3,0.3-0.5,0.6-0.5c0.2,0,0.4,0.1,0.5,0.2
			c0.1,0.1,0.2,0.3,0.2,0.5c0,0.1,0,0.1,0,0.2c0,0.1,0,0.1,0,0.2l-3,7.7c-0.1,0.4-0.3,0.7-0.5,1.1c-0.1,0.2-0.3,0.5-0.5,0.7
			c-0.2,0.2-0.4,0.3-0.6,0.3c-0.2,0.1-0.5,0.1-0.8,0.1L933.6,47.2z"/>
		<path class="st1" d="M944.8,33.9c0-0.2,0.1-0.3,0.2-0.5c0.1-0.1,0.3-0.2,0.5-0.2h5.7c0.2,0,0.4,0.1,0.5,0.2
			c0.1,0.1,0.2,0.3,0.2,0.5c0,0.2-0.1,0.4-0.2,0.5c-0.1,0.1-0.3,0.2-0.5,0.2h-4.8c0,0-0.1,0-0.1,0.1c0,0,0,0,0,0v3.2
			c0,0,0,0.1,0.1,0.1c0,0,0,0,0,0h4c0.2,0,0.4,0.1,0.5,0.2c0.1,0.1,0.2,0.3,0.2,0.5c0,0.2-0.1,0.4-0.2,0.5c-0.1,0.1-0.3,0.2-0.5,0.2
			h-4c0,0-0.1,0-0.1,0.1c0,0,0,0,0,0v3.4c0,0,0,0.1,0.1,0.1c0,0,0,0,0,0h4.8c0.2,0,0.4,0.1,0.5,0.2c0.1,0.1,0.2,0.3,0.2,0.5
			c0,0.2-0.1,0.4-0.2,0.5c-0.1,0.1-0.3,0.2-0.5,0.2h-5.7c-0.2,0-0.4-0.1-0.5-0.2c-0.1-0.1-0.2-0.3-0.2-0.5V33.9z"/>
		<path class="st1" d="M959.2,44.4c-0.2,0-0.4-0.1-0.5-0.2c-0.1-0.1-0.2-0.3-0.2-0.5v-0.2l0,0c-0.2,0.3-0.5,0.6-0.8,0.8
			c-0.4,0.2-0.9,0.3-1.4,0.3c-0.6,0-1.2-0.2-1.7-0.5c-0.5-0.4-0.8-0.9-1-1.4c-0.1-0.3-0.2-0.7-0.2-1c0-0.4-0.1-0.8-0.1-1.2
			c0-0.4,0-0.8,0.1-1.2c0-0.3,0.1-0.7,0.2-1c0.2-0.6,0.5-1.1,1-1.4c0.5-0.3,1.1-0.5,1.7-0.5c0.5,0,1,0.1,1.4,0.3
			c0.3,0.2,0.6,0.4,0.8,0.8l0,0v-3.4c0-0.2,0.1-0.4,0.2-0.5c0.1-0.1,0.3-0.2,0.5-0.2c0.2,0,0.4,0.1,0.5,0.2c0.1,0.1,0.2,0.3,0.2,0.5
			v9.8c0,0.2-0.1,0.4-0.2,0.5C959.6,44.3,959.4,44.4,959.2,44.4z M956.6,43.2c0.8,0,1.5-0.4,1.7-1.2c0.1-0.2,0.1-0.5,0.1-0.7
			c0-0.2,0-0.5,0-0.9s0-0.6,0-0.9c0-0.2-0.1-0.5-0.1-0.7c-0.1-0.4-0.3-0.7-0.6-0.9c-0.3-0.2-0.7-0.3-1.1-0.3c-0.4,0-0.8,0.1-1.1,0.3
			c-0.3,0.2-0.5,0.5-0.6,0.9c-0.1,0.2-0.1,0.5-0.1,0.7c-0.1,0.6-0.1,1.2,0,1.8c0,0.2,0.1,0.5,0.1,0.7c0.1,0.4,0.3,0.7,0.6,0.9
			C955.9,43.1,956.3,43.2,956.6,43.2z"/>
		<path class="st1" d="M968.6,43.6c0,0.2-0.1,0.4-0.2,0.5c-0.3,0.3-0.7,0.3-1,0c0,0,0,0,0,0c-0.1-0.1-0.2-0.3-0.2-0.5v-0.2l0,0
			c-0.2,0.3-0.5,0.6-0.8,0.8c-0.4,0.2-0.9,0.3-1.3,0.3c-0.8,0-1.5-0.2-2-0.8c-0.5-0.6-0.8-1.4-0.7-2.1v-4.4c0-0.2,0.1-0.4,0.2-0.5
			c0.1-0.1,0.3-0.2,0.5-0.2c0.2,0,0.4,0.1,0.5,0.2c0.1,0.1,0.2,0.3,0.2,0.5v4.1c0,0.5,0.1,1,0.4,1.5c0.3,0.4,0.8,0.6,1.3,0.5
			c0.5,0,1-0.2,1.3-0.5c0.3-0.4,0.5-0.9,0.5-1.4v-4.1c0-0.2,0.1-0.4,0.2-0.5c0.3-0.3,0.7-0.3,1,0c0.1,0.1,0.2,0.3,0.2,0.5
			L968.6,43.6z"/>
		<path class="st1" d="M974,44.5c-0.7,0-1.4-0.2-2-0.5c-0.6-0.4-1-0.9-1.2-1.6c-0.1-0.3-0.1-0.6-0.2-0.8c-0.1-0.8-0.1-1.5,0-2.3
			c0-0.3,0.1-0.6,0.2-0.8c0.2-0.6,0.6-1.2,1.2-1.5c0.6-0.4,1.3-0.6,2-0.5c1,0,1.9,0.4,2.5,1.1c0.1,0.1,0.2,0.3,0.2,0.5
			c0,0.2-0.1,0.3-0.2,0.4c-0.1,0.1-0.3,0.2-0.4,0.2c-0.1,0-0.2,0-0.3-0.1c-0.1-0.1-0.2-0.1-0.3-0.2c-0.2-0.2-0.4-0.4-0.6-0.5
			c-0.3-0.1-0.6-0.2-0.9-0.2c-0.4,0-0.8,0.1-1.1,0.3c-0.3,0.2-0.5,0.5-0.7,0.9c-0.1,0.2-0.1,0.5-0.1,0.7c0,0.3,0,0.6,0,0.9
			c0,0.3,0,0.6,0,0.9c0,0.2,0.1,0.5,0.1,0.7c0.1,0.4,0.3,0.7,0.7,0.9c0.3,0.2,0.7,0.3,1.1,0.3c0.3,0,0.6-0.1,0.9-0.2
			c0.2-0.1,0.4-0.3,0.6-0.5c0.1-0.1,0.2-0.2,0.3-0.2c0.1-0.1,0.2-0.1,0.3-0.1c0.3,0,0.6,0.2,0.6,0.5c0,0,0,0,0,0.1
			c0,0.2-0.1,0.4-0.2,0.5c-0.3,0.3-0.6,0.6-1,0.8C975,44.4,974.5,44.5,974,44.5z"/>
		<path class="st1" d="M984.8,43.3c0.1,0.1,0.1,0.3,0.1,0.4c0,0.2-0.1,0.3-0.2,0.5c-0.1,0.1-0.3,0.2-0.5,0.2c-0.2,0-0.5-0.1-0.6-0.3
			l-0.3-0.5l0,0c-0.3,0.3-0.6,0.5-1,0.7c-0.5,0.2-0.9,0.3-1.4,0.2c-0.7,0-1.4-0.2-2-0.6c-0.5-0.4-0.8-1.1-0.7-1.7
			c-0.1-0.7,0.2-1.4,0.8-1.8c0.7-0.4,1.5-0.7,2.3-0.6h1.8c0.1,0,0.1,0,0.1-0.1v-0.4c0-0.5-0.1-0.9-0.4-1.3c-0.4-0.3-0.9-0.5-1.5-0.4
			c-0.3,0-0.6,0-0.9,0.1c-0.2,0.1-0.5,0.2-0.7,0.3c-0.1,0.1-0.3,0.1-0.4,0.1c-0.2,0-0.3,0-0.4-0.2c-0.1-0.1-0.2-0.3-0.2-0.4
			c0-0.1,0-0.2,0.1-0.3c0.1-0.1,0.1-0.2,0.2-0.2c0.3-0.2,0.6-0.3,1-0.4c0.5-0.1,0.9-0.2,1.4-0.2c0.8-0.1,1.7,0.2,2.3,0.7
			c0.5,0.6,0.8,1.4,0.8,2.2V42c0,0.2,0,0.3,0,0.5c0,0.1,0.1,0.2,0.1,0.3L984.8,43.3z M981.1,43.3c0.5,0,1-0.1,1.5-0.4
			c0.4-0.3,0.6-0.7,0.5-1.1v-0.9c0-0.1,0-0.1-0.1-0.1h-1.6c-0.5,0-1,0.1-1.5,0.3c-0.3,0.2-0.5,0.6-0.5,1c0,0.4,0.1,0.7,0.4,0.9
			C980.2,43.3,980.7,43.3,981.1,43.3L981.1,43.3z"/>
		<path class="st1" d="M989.7,44.5c-0.7,0-1.4-0.2-2-0.5c-0.6-0.4-1-0.9-1.2-1.6c-0.1-0.3-0.1-0.6-0.2-0.8c-0.1-0.8-0.1-1.5,0-2.3
			c0-0.3,0.1-0.6,0.2-0.8c0.2-0.6,0.6-1.2,1.2-1.5c0.6-0.4,1.3-0.6,2-0.5c1,0,1.9,0.4,2.5,1.1c0.1,0.1,0.2,0.3,0.2,0.5
			c0,0.2-0.1,0.3-0.2,0.4c-0.1,0.1-0.3,0.2-0.4,0.2c-0.1,0-0.2,0-0.3-0.1c-0.1-0.1-0.2-0.1-0.3-0.2c-0.2-0.2-0.4-0.3-0.6-0.5
			c-0.3-0.1-0.6-0.2-0.9-0.2c-0.4,0-0.8,0.1-1.1,0.3c-0.3,0.2-0.6,0.5-0.7,0.9c-0.1,0.2-0.1,0.5-0.1,0.7c0,0.3,0,0.6,0,0.9
			c0,0.3,0,0.6,0,0.9c0,0.2,0.1,0.5,0.2,0.7c0.1,0.4,0.3,0.7,0.7,0.9c0.3,0.2,0.7,0.3,1.1,0.3c0.3,0,0.6-0.1,0.9-0.2
			c0.2-0.1,0.4-0.3,0.6-0.5c0.1-0.1,0.2-0.2,0.3-0.2c0.1-0.1,0.2-0.1,0.3-0.1c0.3,0,0.6,0.2,0.6,0.5c0,0,0,0,0,0.1
			c0,0.2-0.1,0.4-0.2,0.5c-0.3,0.3-0.6,0.6-1,0.8C990.8,44.4,990.3,44.5,989.7,44.5z"/>
		<path class="st1" d="M995.1,35c-0.2,0-0.5-0.1-0.6-0.3c-0.2-0.2-0.3-0.4-0.3-0.6c0-0.2,0.1-0.5,0.3-0.6c0.2-0.2,0.4-0.3,0.6-0.2
			c0.2,0,0.5,0.1,0.6,0.2c0.2,0.2,0.3,0.4,0.3,0.6c0,0.2-0.1,0.5-0.3,0.6C995.6,34.9,995.4,35,995.1,35z M994.5,37.2
			c0-0.2,0.1-0.4,0.2-0.5c0.1-0.1,0.3-0.2,0.5-0.2c0.2,0,0.4,0.1,0.5,0.2c0.1,0.1,0.2,0.3,0.2,0.5v6.5c0,0.2-0.1,0.4-0.2,0.5
			c-0.1,0.1-0.3,0.2-0.5,0.2c-0.2,0-0.4-0.1-0.5-0.2c-0.1-0.1-0.2-0.3-0.2-0.5V37.2z"/>
		<path class="st1" d="M1001.2,44.5c-0.7,0-1.4-0.2-2-0.6c-0.5-0.4-0.9-0.9-1.1-1.5c-0.1-0.3-0.2-0.6-0.2-0.8c0-0.4-0.1-0.8-0.1-1.1
			c0-0.4,0-0.7,0.1-1.1c0-0.3,0.1-0.6,0.2-0.8c0.2-0.6,0.6-1.2,1.1-1.5c1.2-0.7,2.7-0.7,3.9,0c0.5,0.4,0.9,0.9,1.1,1.5
			c0.1,0.3,0.1,0.6,0.2,0.8c0.1,0.4,0.1,0.7,0.1,1.1c0,0.4,0,0.8-0.1,1.1c0,0.3-0.1,0.6-0.2,0.8c-0.2,0.6-0.6,1.2-1.1,1.5
			C1002.6,44.3,1001.9,44.5,1001.2,44.5z M1001.2,43.2c0.4,0,0.8-0.1,1.1-0.3c0.3-0.2,0.5-0.5,0.7-0.9c0.1-0.2,0.1-0.4,0.1-0.7
			c0-0.3,0-0.6,0-0.9c0-0.3,0-0.6,0-0.9c0-0.2-0.1-0.5-0.1-0.7c-0.1-0.4-0.3-0.7-0.7-0.9c-0.3-0.2-0.7-0.3-1.1-0.3
			c-0.4,0-0.8,0.1-1.1,0.3c-0.3,0.2-0.5,0.5-0.7,0.9c-0.1,0.2-0.1,0.4-0.1,0.7c0,0.3,0,0.6,0,0.9c0,0.3,0,0.6,0,0.9
			c0,0.2,0.1,0.5,0.1,0.7c0.1,0.4,0.3,0.7,0.7,0.9C1000.5,43.1,1000.8,43.2,1001.2,43.2z M1001.3,35.4c-0.1,0-0.3,0-0.4-0.1
			c-0.1-0.1-0.2-0.2-0.2-0.4c0-0.1,0-0.3,0.1-0.4l0.9-1.4c0.1-0.2,0.3-0.3,0.5-0.3c0.1,0,0.3,0.1,0.4,0.2c0.1,0.1,0.2,0.2,0.2,0.4
			c0,0.1-0.1,0.3-0.1,0.4l-1,1.4C1001.6,35.3,1001.5,35.4,1001.3,35.4z"/>
		<path class="st1" d="M1006.7,37.2c0-0.2,0.1-0.4,0.2-0.5c0.3-0.3,0.7-0.3,1,0c0.1,0.1,0.2,0.3,0.2,0.5v0.2l0,0
			c0.2-0.3,0.5-0.6,0.8-0.8c0.4-0.2,0.9-0.3,1.4-0.3c0.8,0,1.5,0.3,2,0.8c0.5,0.6,0.8,1.3,0.7,2.1v4.4c0,0.2-0.1,0.4-0.2,0.5
			c-0.1,0.1-0.3,0.2-0.5,0.2c-0.2,0-0.4-0.1-0.5-0.2c-0.1-0.1-0.2-0.3-0.2-0.5v-4.1c0-0.5-0.1-1-0.4-1.5c-0.3-0.4-0.8-0.6-1.3-0.5
			c-0.5,0-1,0.2-1.3,0.5c-0.4,0.4-0.5,0.9-0.5,1.4v4.1c0,0.2-0.1,0.4-0.2,0.5c-0.3,0.3-0.7,0.3-1,0c0,0,0,0,0,0
			c-0.1-0.1-0.2-0.3-0.2-0.5L1006.7,37.2z"/>
	</g>
</g>
</svg>
