<svg xmlns="http://www.w3.org/2000/svg" viewBox="0 0 265.35 265.35"><defs><style>.cls-1{fill:#0891c1;stroke-width:4.36px;}.cls-1,.cls-3,.cls-4{stroke:#fff;}.cls-1,.cls-4{stroke-miterlimit:10;}.cls-2{font-size:20.92px;fill:#fff;font-family:Affogato-Medium, Affogato;}.cls-3,.cls-4{fill:none;stroke-width:3.49px;}.cls-3{stroke-linecap:round;stroke-linejoin:round;}</style></defs><title>Recurso 1</title><g id="Capa_2" data-name="Capa 2"><g id="Layer_1" data-name="Layer 1"><polygon class="cls-1" points="235.58 2.18 2.18 2.18 2.18 263.17 263.17 263.17 263.17 30.6 235.58 30.6 235.58 2.18"/><text class="cls-2" transform="translate(23.93 34.23)">INSTRUCCIONES</text><polyline class="cls-3" points="160.11 53.58 25.55 53.58 25.55 69.57"/><line class="cls-3" x1="231.12" y1="220" x2="231.12" y2="239.96"/><line class="cls-3" x1="202.57" y1="239.96" x2="231.12" y2="239.96"/><path class="cls-4" d="M197.06,85.18V218.92a2.88,2.88,0,0,1-2.91,2.85H56a2.88,2.88,0,0,1-2.91-2.85V85.18A2.88,2.88,0,0,1,56,82.33H194.15A2.88,2.88,0,0,1,197.06,85.18Z"/><path class="cls-4" d="M125.36,118.37v6.21c0,.3.35.55.78.55h51.73c.43,0,.77-.25.77-.55v-6.21c0-.31-.34-.56-.77-.56H126.14C125.71,117.81,125.36,118.06,125.36,118.37Z"/><path class="cls-4" d="M111,159.89h66.81c.44,0,.8-.26.8-.57v-6.08c0-.31-.36-.57-.8-.57H111c-.44,0-.8.26-.8.57v6.08C110.23,159.63,110.59,159.89,111,159.89Z"/><path class="cls-4" d="M71.52,194.68H177.84c.44,0,.8-.25.8-.56v-6c0-.32-.36-.57-.8-.57H71.52c-.45,0-.81.25-.81.57v6C70.71,194.43,71.07,194.68,71.52,194.68Z"/><path class="cls-4" d="M114.85,119.14A23.59,23.59,0,1,0,87,141.78a.57.57,0,0,1,.47.53l.09,4.52a.57.57,0,0,1-.39.54l-2.62.87a.57.57,0,0,0-.39.53v25.72a.57.57,0,0,0,.19.42c.74.66,3.66,3,7.3,2.8a10.79,10.79,0,0,0,6.62-2.81.53.53,0,0,0,.17-.4V148.78a.57.57,0,0,0-.44-.55l-2.26-.5a.55.55,0,0,1-.44-.54l-.07-4.86a.58.58,0,0,1,.47-.56,23.18,23.18,0,0,0,19.19-22.63Z"/><path class="cls-4" d="M91.28,135a15.86,15.86,0,1,1,16.2-16.84A16,16,0,0,1,91.28,135Z"/></g></g></svg>