<svg xmlns="http://www.w3.org/2000/svg" viewBox="0 0 1280 80"><defs><style>.cls-1{fill:#aac037;}.cls-2{fill:#fff;}</style></defs><title>header-oficial</title><g id="Capa_2" data-name="Capa 2"><g id="Layer_1" data-name="Layer 1"><polygon class="cls-1" points="1280 80 0.89 80 0 0 1280 0 1280 80"/><g id="layer1"><g id="g3037"><path id="path2988" class="cls-2" d="M1087.82,38.62a2.18,2.18,0,0,0-1-1.85h0a2.91,2.91,0,0,1-.82-4.19h0a2.11,2.11,0,0,0,.4-1.24,2.26,2.26,0,0,0-.54-1.46c-.42-.51-3.51-4.42-11.61-9.25a3,3,0,0,0-3.28.12h0l-4.9,3.51h0a2.73,2.73,0,0,1-1.56.47h-3.66a2.19,2.19,0,0,0-2.18,2.18V56.46a2.13,2.13,0,0,0,.52,1.41,7.65,7.65,0,0,0,2,1.59,2.2,2.2,0,0,0,1.17.35,2.17,2.17,0,0,0,2.18-2.18V51.78a2.17,2.17,0,0,1,2.17-2.18,2.21,2.21,0,0,1,1,.21h0a14.6,14.6,0,0,0,5.74,1.15,14.75,14.75,0,0,0,14.45-11.85c0-.14,0-.3,0-.49"/><path id="path2990" class="cls-2" d="M1096.33,42.91a.68.68,0,0,1,.73-.73h3.81c2.44,0,3.93,1.49,3.93,3.68s-1.49,3.69-3.93,3.69h-2.8a.08.08,0,0,0-.09.09V53.7a.77.77,0,0,1-.79.86.8.8,0,0,1-.83-.86V42.91Zm6.89,3c0-1.33-.89-2.15-2.42-2.15H1098a.08.08,0,0,0-.09.09v4.13a.08.08,0,0,0,.09.09h2.76c1.53,0,2.42-.82,2.42-2.16"/><path id="path2992" class="cls-2" d="M1106,53.77V46.56a.76.76,0,1,1,1.52,0V47h0a2.36,2.36,0,0,1,2.22-1.33,2.47,2.47,0,0,1,1.27.32.72.72,0,0,1,.44.67.74.74,0,0,1-.76.76.9.9,0,0,1-.38-.1,2.79,2.79,0,0,0-1-.22c-1.31,0-1.85,1.08-1.85,2.54V53.8a.75.75,0,0,1-.76.83.8.8,0,0,1-.76-.86"/><path id="path2994" class="cls-2" d="M1112.36,52.37a8.41,8.41,0,0,1,0-4.38,3.35,3.35,0,0,1,3.43-2.32,3.39,3.39,0,0,1,3.43,2.32,6.81,6.81,0,0,1,.28,2.19,6.53,6.53,0,0,1-.28,2.19,3.7,3.7,0,0,1-6.86,0m5.36-.44a5.41,5.41,0,0,0,.19-1.78,6.09,6.09,0,0,0-.19-1.75,2.1,2.1,0,0,0-3.93,0,5.18,5.18,0,0,0-.19,1.75,6.37,6.37,0,0,0,.19,1.78,2.1,2.1,0,0,0,3.93,0"/><path id="path2996" class="cls-2" d="M1123,53.64l-2.63-6.79a.81.81,0,0,1-.07-.38.7.7,0,0,1,.73-.73.77.77,0,0,1,.73.54l2.26,6h0l2.19-6a.75.75,0,0,1,.73-.54.7.7,0,0,1,.73.73,2.1,2.1,0,0,1-.06.38L1125,53.64c-.28.7-.51,1-1,1s-.73-.25-1-1"/><path id="path2998" class="cls-2" d="M1128.83,43.1a1,1,0,0,1,1-1,1,1,0,0,1,0,2,1,1,0,0,1-1-1m.26,3.46a.76.76,0,1,1,1.52,0v7.21a.76.76,0,1,1-1.52,0Z"/><path id="path3000" class="cls-2" d="M1132.83,46.56a.77.77,0,1,1,1.53,0v.26h0a2.71,2.71,0,0,1,2.41-1.18c1.88,0,3,1.27,3,3.27V53.8a.77.77,0,1,1-1.53,0V49.29c0-1.39-.63-2.19-1.93-2.19a2,2,0,0,0-2,2.13v4.6a.77.77,0,1,1-1.53,0V46.56Z"/><path id="path3002" class="cls-2" d="M1141.79,52.37a7.57,7.57,0,0,1-.29-2.19,6.65,6.65,0,0,1,.29-2.19,3.34,3.34,0,0,1,3.43-2.32,3.38,3.38,0,0,1,2.76,1.27.81.81,0,0,1,.22.57.65.65,0,0,1-.67.67.93.93,0,0,1-.66-.35,2.06,2.06,0,0,0-1.65-.73,1.86,1.86,0,0,0-1.94,1.37,5.22,5.22,0,0,0-.19,1.74,6.47,6.47,0,0,0,.19,1.78,1.89,1.89,0,0,0,1.94,1.37,2.11,2.11,0,0,0,1.65-.73.85.85,0,0,1,.66-.35.65.65,0,0,1,.67.66.92.92,0,0,1-.22.57,3.38,3.38,0,0,1-2.76,1.27,3.51,3.51,0,0,1-3.43-2.41"/><path id="path3004" class="cls-2" d="M1149.69,43.1a1,1,0,0,1,1-1,1,1,0,0,1,0,2,1,1,0,0,1-1-1m.26,3.46a.76.76,0,1,1,1.52,0v7.21a.76.76,0,1,1-1.52,0Z"/><path id="path3006" class="cls-2" d="M1160.71,53.86a.73.73,0,0,1-.77.73.76.76,0,0,1-.66-.38l-.35-.54h0a3.24,3.24,0,0,1-2.67,1c-1.94,0-3-.95-3-2.6s1.24-2.67,3.4-2.67h2c.06,0,.09,0,.09-.1v-.41c0-1.2-.57-1.9-2.06-1.9a4.09,4.09,0,0,0-1.78.44,1.51,1.51,0,0,1-.44.13.62.62,0,0,1-.67-.67.66.66,0,0,1,.35-.6,5,5,0,0,1,2.63-.67c2.32,0,3.4,1.11,3.4,3.24V52a1.67,1.67,0,0,0,.16.89l.32.57a.63.63,0,0,1,.16.41m-2.07-2.19v-1a.08.08,0,0,0-.09-.09h-1.75c-1.49,0-2.16.44-2.16,1.39s.67,1.37,1.81,1.37c1.34,0,2.19-.64,2.19-1.72"/><path id="path3008" class="cls-2" d="M1096.33,27.61a1.08,1.08,0,0,1,1.14-1.17h3.81c2.67,0,3.94,1.33,3.94,3.27a2.85,2.85,0,0,1-1.43,2.63v0a2.94,2.94,0,0,1,1.65,2.8c0,2.41-1.62,3.58-4.25,3.58h-3.69a1,1,0,0,1-1.14-1.14v-10Zm4.63,3.84c1,0,1.62-.54,1.62-1.46s-.6-1.43-1.62-1.43h-1.87c-.06,0-.09,0-.09.1v2.66c0,.07,0,.1.09.1H1101Zm-1.87,5.14h2a1.54,1.54,0,1,0,0-3.07h-2a.08.08,0,0,0-.09.09v2.86c0,.06,0,.12.09.12"/><path id="path3010" class="cls-2" d="M1112,37.93h0a2.8,2.8,0,0,1-2.32,1c-1.93,0-2.92-1.36-2.92-3.23V31.2a1.24,1.24,0,0,1,1.27-1.34,1.22,1.22,0,0,1,1.24,1.34v4c0,.95.45,1.58,1.34,1.58s1.33-.63,1.33-1.58v-4a1.27,1.27,0,1,1,2.54,0v6.28a1.24,1.24,0,0,1-1.27,1.34,1.13,1.13,0,0,1-1.21-.89"/><path id="path3012" class="cls-2" d="M1116.2,36.44a6.12,6.12,0,0,1-.29-2.07,6.12,6.12,0,0,1,.29-2.09A3.69,3.69,0,0,1,1120,29.8a3.63,3.63,0,0,1,3.78,2.45,6.51,6.51,0,0,1,.28,2,.78.78,0,0,1-.82.82h-4.64c-.06,0-.09,0-.09.1a1.4,1.4,0,0,0,.09.51,1.72,1.72,0,0,0,1.81,1.14,3.47,3.47,0,0,0,1.65-.45,1.7,1.7,0,0,1,.86-.28.91.91,0,0,1,.92,1,1,1,0,0,1-.51.89,5.31,5.31,0,0,1-3.17.95,3.72,3.72,0,0,1-3.94-2.47m5.21-3c.06,0,.09,0,.09-.1a1.75,1.75,0,0,0-.09-.63,1.41,1.41,0,0,0-1.46-.95,1.44,1.44,0,0,0-1.46.95,1.63,1.63,0,0,0-.1.63c0,.07,0,.1.1.1Z"/><path id="path3014" class="cls-2" d="M1130.58,37.52v-4c0-1-.48-1.59-1.36-1.59s-1.37.63-1.37,1.59v4a1.27,1.27,0,1,1-2.54,0V31.2a1.24,1.24,0,0,1,1.27-1.34,1.18,1.18,0,0,1,1.21.93h0a2.79,2.79,0,0,1,2.32-1c1.93,0,3,1.36,3,3.24v4.47a1.24,1.24,0,0,1-1.27,1.34,1.19,1.19,0,0,1-1.27-1.3"/><path id="path3016" class="cls-2" d="M1134.71,36.4a7.46,7.46,0,0,1,0-4.12,4.15,4.15,0,0,1,7.62,0,7.72,7.72,0,0,1,0,4.12,3.67,3.67,0,0,1-3.81,2.51,3.63,3.63,0,0,1-3.81-2.51m5.14-.57a4.63,4.63,0,0,0,.16-1.46,4.67,4.67,0,0,0-.16-1.46,1.32,1.32,0,0,0-1.36-1,1.34,1.34,0,0,0-1.37,1,4.67,4.67,0,0,0-.16,1.46,4.63,4.63,0,0,0,.16,1.46,1.33,1.33,0,0,0,1.37,1,1.36,1.36,0,0,0,1.36-1"/><path id="path3018" class="cls-2" d="M1144.17,38.09a1.13,1.13,0,0,1-.61-1,1,1,0,0,1,1-1,1.46,1.46,0,0,1,.73.23,4.31,4.31,0,0,0,2.16.63c.92,0,1.37-.32,1.37-.82s-.23-.64-1.27-.73l-1-.1c-1.9-.22-2.85-1.14-2.85-2.67,0-1.71,1.33-2.82,3.62-2.82a6,6,0,0,1,2.66.57,1.12,1.12,0,0,1,.73,1,1,1,0,0,1-1,1,1.76,1.76,0,0,1-.73-.22,4.06,4.06,0,0,0-1.78-.38c-.76,0-1.11.28-1.11.69s.22.61,1.21.73l.95.1c2.06.22,2.92,1.21,2.92,2.67,0,1.77-1.43,3-3.91,3a5.44,5.44,0,0,1-3.2-.79"/><path id="path3020" class="cls-2" d="M1156.29,37.07l3.34-9.21c.35-1,.89-1.55,1.81-1.55s1.49.57,1.84,1.55l3.27,9.21a1.4,1.4,0,0,1,.09.51,1.23,1.23,0,0,1-1.27,1.24,1.29,1.29,0,0,1-1.24-1l-.5-1.49h-4.38l-.48,1.49a1.28,1.28,0,0,1-1.24,1,1.23,1.23,0,0,1-1.27-1.24.75.75,0,0,1,0-.51m6.58-2.92-1.4-4.29h-.07L1160,34.15Z"/><path id="path3022" class="cls-2" d="M1167.63,27.67a1.43,1.43,0,1,1,1.43,1.43,1.41,1.41,0,0,1-1.43-1.43m.16,9.85V31.2a1.27,1.27,0,1,1,2.54,0v6.28a1.24,1.24,0,0,1-1.27,1.34,1.19,1.19,0,0,1-1.27-1.3"/><path id="path3024" class="cls-2" d="M1172.17,37.52V31.2a1.24,1.24,0,0,1,1.27-1.34,1.21,1.21,0,0,1,1.23,1v0h0a2.72,2.72,0,0,1,2.19-1.08,1.8,1.8,0,0,1,.92.19,1.12,1.12,0,0,1,.66,1,1.2,1.2,0,0,1-1.23,1.27,1.44,1.44,0,0,1-.54-.1,2.35,2.35,0,0,0-.64-.09c-1,0-1.33.66-1.33,1.84v3.55a1.24,1.24,0,0,1-1.27,1.34,1.18,1.18,0,0,1-1.3-1.3"/><path id="path3026" class="cls-2" d="M1178.93,36.44a6.12,6.12,0,0,1-.29-2.07,6.12,6.12,0,0,1,.29-2.09,3.68,3.68,0,0,1,3.78-2.48,3.61,3.61,0,0,1,3.77,2.45,6.49,6.49,0,0,1,.29,2,.78.78,0,0,1-.83.82h-4.63a.09.09,0,0,0-.1.1,1.4,1.4,0,0,0,.1.51,1.72,1.72,0,0,0,1.81,1.14,3.5,3.5,0,0,0,1.65-.45,1.7,1.7,0,0,1,.86-.28.91.91,0,0,1,.92,1,1,1,0,0,1-.51.89,5.34,5.34,0,0,1-3.18.95c-2.06,0-3.46-.92-3.93-2.47m5.2-3c.07,0,.1,0,.1-.1a1.53,1.53,0,0,0-.1-.63,1.41,1.41,0,0,0-1.46-.95,1.45,1.45,0,0,0-1.46.95,1.87,1.87,0,0,0-.09.63c0,.07,0,.1.09.1Z"/><path id="path3028" class="cls-2" d="M1188.32,38.09a1.14,1.14,0,0,1-.6-1,1,1,0,0,1,1-1,1.49,1.49,0,0,1,.73.23,4.28,4.28,0,0,0,2.16.63c.92,0,1.36-.32,1.36-.82s-.22-.64-1.27-.73l-1-.1c-1.9-.22-2.86-1.14-2.86-2.67,0-1.71,1.34-2.82,3.62-2.82a6,6,0,0,1,2.67.57,1.13,1.13,0,0,1,.73,1,1,1,0,0,1-1,1,1.76,1.76,0,0,1-.73-.22,4,4,0,0,0-1.77-.38c-.76,0-1.11.28-1.11.69s.22.61,1.2.73l1,.1c2.07.22,2.93,1.21,2.93,2.67,0,1.77-1.43,3-3.91,3a5.39,5.39,0,0,1-3.21-.79"/></g></g><path class="cls-2" d="M732.26,33.89a.68.68,0,0,1,.17-.47.65.65,0,0,1,.49-.17h2.83c2.15,0,3.49.84,4,2.51.06.19.11.37.15.55s.07.4.1.63.05.5.06.79,0,.64,0,1,0,.74,0,1,0,.55-.06.78-.06.45-.1.64a4.26,4.26,0,0,1-.15.54c-.55,1.68-1.89,2.52-4,2.52h-2.83a.66.66,0,0,1-.49-.18.68.68,0,0,1-.17-.47Zm1.46,9c0,.07,0,.1.1.1h1.83a3.6,3.6,0,0,0,1.78-.37,2.21,2.21,0,0,0,1-1.29c0-.14.08-.29.11-.44s.06-.34.08-.53a6.34,6.34,0,0,0,0-.68c0-.25,0-.54,0-.86s0-.62,0-.87a6.34,6.34,0,0,0,0-.68c0-.19-.05-.37-.08-.52s-.07-.31-.11-.45a2.19,2.19,0,0,0-1-1.28,3.59,3.59,0,0,0-1.78-.38h-1.83a.09.09,0,0,0-.1.1Z"/><path class="cls-2" d="M743,35a.88.88,0,0,1-.64-.26.82.82,0,0,1-.26-.63.86.86,0,0,1,.26-.64.87.87,0,0,1,.64-.25.89.89,0,0,1,.64.25.9.9,0,0,1,.26.64.86.86,0,0,1-.26.63A.9.9,0,0,1,743,35Zm-.69,2.21a.69.69,0,0,1,.2-.54.66.66,0,0,1,.49-.19.67.67,0,0,1,.49.19.73.73,0,0,1,.2.54v6.48a.72.72,0,0,1-.2.53.68.68,0,0,1-.49.2.66.66,0,0,1-.49-.2.69.69,0,0,1-.2-.53Z"/><path class="cls-2" d="M746.87,44.37a.66.66,0,0,1-.49-.2.72.72,0,0,1-.2-.53V37.16a.73.73,0,0,1,.2-.54.73.73,0,0,1,1,0,.73.73,0,0,1,.2.54v.36h0a2,2,0,0,1,.76-.86,2.26,2.26,0,0,1,1.25-.33,2.61,2.61,0,0,1,.69.08,2.17,2.17,0,0,1,.48.2.64.64,0,0,1,.39.58.66.66,0,0,1-.19.49.65.65,0,0,1-.5.19.79.79,0,0,1-.34-.08l-.45-.14a2.14,2.14,0,0,0-.45,0,1.36,1.36,0,0,0-1.28.65,3.18,3.18,0,0,0-.38,1.62v3.77a.72.72,0,0,1-.2.53A.66.66,0,0,1,746.87,44.37Z"/><path class="cls-2" d="M755.35,44.47a3.55,3.55,0,0,1-2-.55,2.85,2.85,0,0,1-1.14-1.57,4.7,4.7,0,0,1-.19-.82,7.05,7.05,0,0,1-.07-1.14,9,9,0,0,1,.06-1.15,4.1,4.1,0,0,1,.19-.82,2.79,2.79,0,0,1,1.13-1.55,3.77,3.77,0,0,1,3.89,0,2.85,2.85,0,0,1,1.13,1.54,6,6,0,0,1,.26,1.88.52.52,0,0,1-.15.38.56.56,0,0,1-.39.14h-4.61c-.07,0-.1,0-.1.1a3.58,3.58,0,0,0,0,.49,1.82,1.82,0,0,0,.1.45,1.93,1.93,0,0,0,.74,1,2.26,2.26,0,0,0,1.25.33,2.85,2.85,0,0,0,1-.17,3.53,3.53,0,0,0,.87-.5.8.8,0,0,1,.48-.19.56.56,0,0,1,.41.16.54.54,0,0,1,.16.41.66.66,0,0,1-.21.48,4.11,4.11,0,0,1-2.82,1.08Zm1.72-4.75c.07,0,.1,0,.1-.09a2.71,2.71,0,0,0-.12-.88,1.7,1.7,0,0,0-.66-.9,2.19,2.19,0,0,0-2.28,0,1.7,1.7,0,0,0-.66.9,2.71,2.71,0,0,0-.12.88c0,.06,0,.09.1.09Z"/><path class="cls-2" d="M763.5,44.47a3.43,3.43,0,0,1-2-.54,2.83,2.83,0,0,1-1.15-1.56,4.4,4.4,0,0,1-.18-.84,9.24,9.24,0,0,1,0-2.27,4.4,4.4,0,0,1,.18-.84,2.77,2.77,0,0,1,1.15-1.55,3.43,3.43,0,0,1,2-.54,3.21,3.21,0,0,1,1.51.33,3.26,3.26,0,0,1,1,.81.87.87,0,0,1,.19.5.58.58,0,0,1-.6.6.63.63,0,0,1-.33-.09,1.49,1.49,0,0,1-.28-.23,2.16,2.16,0,0,0-.62-.47,1.87,1.87,0,0,0-.87-.18,2,2,0,0,0-1.1.3,1.66,1.66,0,0,0-.66.91,4.42,4.42,0,0,0-.14.69c0,.25,0,.54,0,.89s0,.65,0,.9a4,4,0,0,0,.14.69,1.69,1.69,0,0,0,.66.92,2,2,0,0,0,1.1.3,1.87,1.87,0,0,0,.87-.18,2.36,2.36,0,0,0,.62-.47,1.23,1.23,0,0,1,.28-.24.62.62,0,0,1,.33-.08.59.59,0,0,1,.43.16.57.57,0,0,1,.17.43.83.83,0,0,1-.19.51,3.15,3.15,0,0,1-2.51,1.14Z"/><path class="cls-2" d="M771.07,44.47a3.48,3.48,0,0,1-2-.54A2.82,2.82,0,0,1,768,42.37a5.26,5.26,0,0,1-.19-.84,10.77,10.77,0,0,1,0-2.27,5.26,5.26,0,0,1,.19-.84,2.76,2.76,0,0,1,1.14-1.55,3.48,3.48,0,0,1,2-.54,3.07,3.07,0,0,1,2.51,1.14.89.89,0,0,1,.2.5.6.6,0,0,1-.17.43.58.58,0,0,1-.44.17.57.57,0,0,1-.32-.09,1.23,1.23,0,0,1-.28-.23,2.36,2.36,0,0,0-.63-.47,1.87,1.87,0,0,0-.87-.18,1.94,1.94,0,0,0-1.09.3,1.61,1.61,0,0,0-.66.91,3.51,3.51,0,0,0-.14.69,7.63,7.63,0,0,0,0,.89,7.82,7.82,0,0,0,0,.9,3.23,3.23,0,0,0,.14.69,1.64,1.64,0,0,0,.66.92,1.94,1.94,0,0,0,1.09.3,1.87,1.87,0,0,0,.87-.18,2.59,2.59,0,0,0,.63-.47,1.05,1.05,0,0,1,.28-.24.57.57,0,0,1,.32-.08.57.57,0,0,1,.61.59.85.85,0,0,1-.2.51,3.15,3.15,0,0,1-2.51,1.14Z"/><path class="cls-2" d="M776.47,35a.88.88,0,0,1-.64-.26.82.82,0,0,1-.26-.63.86.86,0,0,1,.26-.64.87.87,0,0,1,.64-.25.89.89,0,0,1,.64.25.9.9,0,0,1,.26.64.86.86,0,0,1-.26.63A.9.9,0,0,1,776.47,35Zm-.69,2.21a.73.73,0,0,1,.2-.54.73.73,0,0,1,1,0,.73.73,0,0,1,.2.54v6.48a.72.72,0,0,1-.2.53.7.7,0,0,1-1,0,.72.72,0,0,1-.2-.53Z"/><path class="cls-2" d="M782.57,44.47a3.38,3.38,0,0,1-2-.56,2.93,2.93,0,0,1-1.14-1.54,5.56,5.56,0,0,1-.2-.85,8.84,8.84,0,0,1-.06-1.13,8.56,8.56,0,0,1,.06-1.12,6.17,6.17,0,0,1,.2-.85,2.91,2.91,0,0,1,1.14-1.55,3.83,3.83,0,0,1,3.92,0,2.91,2.91,0,0,1,1.14,1.55,6.17,6.17,0,0,1,.2.85,8.56,8.56,0,0,1,.06,1.12,8.84,8.84,0,0,1-.06,1.13,5.56,5.56,0,0,1-.2.85,2.93,2.93,0,0,1-1.14,1.54A3.38,3.38,0,0,1,782.57,44.47Zm0-1.27a1.89,1.89,0,0,0,1.11-.32,1.7,1.7,0,0,0,.66-.9,3.8,3.8,0,0,0,.14-.67,7.75,7.75,0,0,0,0-.92,7.46,7.46,0,0,0,0-.91,3.8,3.8,0,0,0-.14-.67,1.74,1.74,0,0,0-.66-.9,1.89,1.89,0,0,0-1.11-.31,1.94,1.94,0,0,0-1.12.31,1.77,1.77,0,0,0-.65.9,3.8,3.8,0,0,0-.14.67,7.46,7.46,0,0,0,0,.91,7.75,7.75,0,0,0,0,.92,3.8,3.8,0,0,0,.14.67,1.73,1.73,0,0,0,.65.9A1.94,1.94,0,0,0,782.57,43.2Zm.06-7.83a.56.56,0,0,1-.39-.14.52.52,0,0,1-.15-.38.86.86,0,0,1,.12-.39l.92-1.39a.55.55,0,0,1,.49-.28.56.56,0,0,1,.39.15.48.48,0,0,1,.17.37.85.85,0,0,1-.13.41l-1,1.39A.55.55,0,0,1,782.63,35.37Z"/><path class="cls-2" d="M788,37.16a.73.73,0,0,1,.2-.54.73.73,0,0,1,1,0,.73.73,0,0,1,.2.54v.23h0a2.15,2.15,0,0,1,.84-.76,2.85,2.85,0,0,1,1.36-.3,2.55,2.55,0,0,1,2,.8,3,3,0,0,1,.72,2.12v4.39a.72.72,0,0,1-.19.53.71.71,0,0,1-1,0,.72.72,0,0,1-.19-.53V39.58a2.19,2.19,0,0,0-.44-1.46,1.61,1.61,0,0,0-1.32-.52,1.74,1.74,0,0,0-1.3.51,1.91,1.91,0,0,0-.5,1.39v4.14a.72.72,0,0,1-.2.53.7.7,0,0,1-1,0,.72.72,0,0,1-.2-.53Z"/><path class="cls-2" d="M800.49,41.85a5.66,5.66,0,0,1-.15-.59c0-.2-.07-.42-.1-.66s0-.51,0-.8,0-.64,0-1,0-.74,0-1,0-.57,0-.81.06-.46.1-.66.09-.39.15-.59a3.84,3.84,0,0,1,1.38-1.94,4,4,0,0,1,2.4-.67,4.46,4.46,0,0,1,2.15.48,3.12,3.12,0,0,1,1.32,1.3.94.94,0,0,1,.12.44.63.63,0,0,1-.2.49.68.68,0,0,1-.48.18.74.74,0,0,1-.65-.41,2.51,2.51,0,0,0-2.26-1.14,2.36,2.36,0,0,0-1.54.47,2.5,2.5,0,0,0-.81,1.24,5.81,5.81,0,0,0-.2,1c0,.21,0,.45-.05.72s0,.59,0,1,0,.68,0,.95,0,.51.05.72a3.57,3.57,0,0,0,.09.54,3.83,3.83,0,0,0,.11.43,2.53,2.53,0,0,0,.81,1.25,2.41,2.41,0,0,0,1.54.46,2.71,2.71,0,0,0,1.54-.42,2.2,2.2,0,0,0,.88-1.22,3,3,0,0,0,.17-.81,7.86,7.86,0,0,0,0-.83.09.09,0,0,0-.1-.1H805.1a.69.69,0,0,1-.52-.19.68.68,0,0,1-.2-.49.65.65,0,0,1,.2-.47.7.7,0,0,1,.52-.2h2.59a.62.62,0,0,1,.67.67v.31a11.13,11.13,0,0,1-.07,1.26,5.73,5.73,0,0,1-.24,1.17,3.73,3.73,0,0,1-1.39,2,4.53,4.53,0,0,1-4.79,0A3.84,3.84,0,0,1,800.49,41.85Z"/><path class="cls-2" d="M813.48,44.47a3.55,3.55,0,0,1-2-.55,2.79,2.79,0,0,1-1.13-1.57,3.94,3.94,0,0,1-.2-.82,8.43,8.43,0,0,1-.07-1.14,9,9,0,0,1,.06-1.15,4.1,4.1,0,0,1,.19-.82,2.84,2.84,0,0,1,1.13-1.55,3.4,3.4,0,0,1,1.94-.54,3.45,3.45,0,0,1,2,.54,2.83,2.83,0,0,1,1.12,1.54,6,6,0,0,1,.26,1.88.52.52,0,0,1-.15.38.55.55,0,0,1-.39.14h-4.61a.09.09,0,0,0-.1.1,3.58,3.58,0,0,0,0,.49,1.48,1.48,0,0,0,.11.45,1.87,1.87,0,0,0,.73,1,2.26,2.26,0,0,0,1.25.33,2.85,2.85,0,0,0,1-.17,3.53,3.53,0,0,0,.87-.5.8.8,0,0,1,.48-.19.56.56,0,0,1,.41.16.54.54,0,0,1,.16.41.66.66,0,0,1-.21.48,4.06,4.06,0,0,1-2.82,1.08Zm1.72-4.75c.07,0,.1,0,.1-.09a3,3,0,0,0-.11-.88,1.77,1.77,0,0,0-.67-.9,2.19,2.19,0,0,0-2.28,0,1.7,1.7,0,0,0-.66.9,2.71,2.71,0,0,0-.12.88c0,.06,0,.09.1.09Z"/><path class="cls-2" d="M818.76,37.16a.73.73,0,0,1,.2-.54.73.73,0,0,1,1,0,.73.73,0,0,1,.2.54v.23h0a2.15,2.15,0,0,1,.84-.76,2.85,2.85,0,0,1,1.36-.3,2.57,2.57,0,0,1,2,.8,3,3,0,0,1,.72,2.12v4.39a.72.72,0,0,1-.19.53.71.71,0,0,1-1,0,.72.72,0,0,1-.19-.53V39.58a2.19,2.19,0,0,0-.44-1.46,1.61,1.61,0,0,0-1.32-.52,1.74,1.74,0,0,0-1.3.51,1.87,1.87,0,0,0-.5,1.39v4.14a.72.72,0,0,1-.2.53.7.7,0,0,1-1,0,.72.72,0,0,1-.2-.53Z"/><path class="cls-2" d="M830.47,44.47a3.55,3.55,0,0,1-2-.55,2.85,2.85,0,0,1-1.14-1.57,4.7,4.7,0,0,1-.19-.82,7.05,7.05,0,0,1-.07-1.14,9,9,0,0,1,.06-1.15,4.1,4.1,0,0,1,.19-.82,2.79,2.79,0,0,1,1.13-1.55,3.77,3.77,0,0,1,3.89,0,2.85,2.85,0,0,1,1.13,1.54,6,6,0,0,1,.26,1.88.52.52,0,0,1-.15.38.56.56,0,0,1-.39.14h-4.61c-.07,0-.1,0-.1.1a3.58,3.58,0,0,0,0,.49,1.82,1.82,0,0,0,.1.45,1.93,1.93,0,0,0,.74,1,2.24,2.24,0,0,0,1.25.33,2.85,2.85,0,0,0,1-.17,3.53,3.53,0,0,0,.87-.5.8.8,0,0,1,.48-.19.56.56,0,0,1,.41.16.54.54,0,0,1,.16.41.66.66,0,0,1-.21.48,4.11,4.11,0,0,1-2.82,1.08Zm1.72-4.75c.07,0,.1,0,.1-.09a2.71,2.71,0,0,0-.12-.88,1.7,1.7,0,0,0-.66-.9,2.19,2.19,0,0,0-2.28,0,1.7,1.7,0,0,0-.66.9,2.71,2.71,0,0,0-.12.88c0,.06,0,.09.1.09Z"/><path class="cls-2" d="M836.44,44.37a.7.7,0,0,1-.5-.2.72.72,0,0,1-.19-.53V37.16a.73.73,0,0,1,.19-.54.69.69,0,0,1,.5-.19.67.67,0,0,1,.49.19.73.73,0,0,1,.2.54v.36h0a2.16,2.16,0,0,1,.76-.86,2.32,2.32,0,0,1,1.26-.33,2.73,2.73,0,0,1,.69.08,2.29,2.29,0,0,1,.47.2.63.63,0,0,1,.4.58.7.7,0,0,1-.19.49.66.66,0,0,1-.5.19.87.87,0,0,1-.35-.08l-.44-.14a2.16,2.16,0,0,0-.46,0,1.35,1.35,0,0,0-1.27.65,3.08,3.08,0,0,0-.38,1.62v3.77a.72.72,0,0,1-.2.53A.68.68,0,0,1,836.44,44.37Z"/><path class="cls-2" d="M848.18,43.33a.82.82,0,0,1,.11.39.6.6,0,0,1-.19.46.69.69,0,0,1-.51.19A.76.76,0,0,1,847,44l-.31-.49h0a2.66,2.66,0,0,1-1,.68,3.81,3.81,0,0,1-1.45.25,3.13,3.13,0,0,1-2-.61,2.16,2.16,0,0,1-.72-1.73,2.11,2.11,0,0,1,.8-1.81,3.7,3.7,0,0,1,2.27-.6h1.79a.08.08,0,0,0,.09-.09v-.38A1.74,1.74,0,0,0,846,38a2,2,0,0,0-1.46-.44,3.37,3.37,0,0,0-.9.12,3.53,3.53,0,0,0-.71.27,1,1,0,0,1-.39.11.62.62,0,0,1-.44-.15.59.59,0,0,1-.15-.43.67.67,0,0,1,.07-.31.51.51,0,0,1,.26-.24,3.53,3.53,0,0,1,1-.42,5.36,5.36,0,0,1,1.42-.17,3.23,3.23,0,0,1,2.34.73,3,3,0,0,1,.74,2.18V42a2.61,2.61,0,0,0,0,.46,2.67,2.67,0,0,0,.12.33Zm-3.74,0a2.4,2.4,0,0,0,1.45-.4,1.32,1.32,0,0,0,.53-1.13v-.86c0-.07,0-.1-.09-.1h-1.58a2.8,2.8,0,0,0-1.48.3,1.08,1.08,0,0,0-.47,1,1,1,0,0,0,.43.92A2.08,2.08,0,0,0,844.44,43.3Z"/><path class="cls-2" d="M852.11,44.37a1.86,1.86,0,0,1-1.49-.51,2.45,2.45,0,0,1-.42-1.57v-8.4a.72.72,0,0,1,.19-.53.67.67,0,0,1,.49-.19.68.68,0,0,1,.5.19.72.72,0,0,1,.19.53v8.32a1.13,1.13,0,0,0,.17.69.76.76,0,0,0,.59.2.6.6,0,0,1,.46.18.61.61,0,0,1,.18.45.62.62,0,0,1-.18.46.72.72,0,0,1-.53.18Z"/><path class="cls-2" d="M863.89,44.37a.66.66,0,0,1-.49-.2.72.72,0,0,1-.2-.53v-.21h0a2,2,0,0,1-.81.75,3,3,0,0,1-1.42.29,2.78,2.78,0,0,1-1.69-.52,2.84,2.84,0,0,1-1-1.43,6.64,6.64,0,0,1-.22-1,9.88,9.88,0,0,1-.06-1.17,9.52,9.52,0,0,1,.06-1.15,6.09,6.09,0,0,1,.22-1,2.83,2.83,0,0,1,1-1.44,2.78,2.78,0,0,1,1.69-.51,3,3,0,0,1,1.42.29,2.11,2.11,0,0,1,.81.75h0V33.89a.72.72,0,0,1,.2-.53.73.73,0,0,1,1,0,.72.72,0,0,1,.2.53v9.75a.72.72,0,0,1-.2.53A.66.66,0,0,1,863.89,44.37Zm-2.61-1.17a1.85,1.85,0,0,0,1.11-.32A1.76,1.76,0,0,0,863,42a2.64,2.64,0,0,0,.15-.7c0-.25,0-.54,0-.89s0-.63,0-.88a2.64,2.64,0,0,0-.15-.7,1.8,1.8,0,0,0-.63-.9,1.84,1.84,0,0,0-1.11-.31,1.67,1.67,0,0,0-1.72,1.21,2.64,2.64,0,0,0-.15.7c0,.25,0,.54,0,.88s0,.64,0,.89a2.64,2.64,0,0,0,.15.7,1.76,1.76,0,0,0,.63.9A1.81,1.81,0,0,0,861.28,43.2Z"/><path class="cls-2" d="M870.05,44.47a3.57,3.57,0,0,1-2-.55,2.89,2.89,0,0,1-1.13-1.57,4.69,4.69,0,0,1-.2-.82,8.68,8.68,0,0,1-.06-1.14c0-.47,0-.85,0-1.15a4.93,4.93,0,0,1,.19-.82A2.84,2.84,0,0,1,868,36.87a3.79,3.79,0,0,1,3.9,0A2.83,2.83,0,0,1,873,38.41a5.73,5.73,0,0,1,.26,1.88.51.51,0,0,1-.14.38.57.57,0,0,1-.4.14h-4.6c-.07,0-.1,0-.1.1s0,.35,0,.49a1.85,1.85,0,0,0,.11.45,1.88,1.88,0,0,0,.74,1,2.23,2.23,0,0,0,1.24.33,2.81,2.81,0,0,0,1-.17,3.77,3.77,0,0,0,.88-.5.75.75,0,0,1,.47-.19.54.54,0,0,1,.41.16.55.55,0,0,1,.17.41.64.64,0,0,1-.22.48,4,4,0,0,1-1.2.77A4,4,0,0,1,870.05,44.47Zm1.73-4.75a.08.08,0,0,0,.09-.09,2.74,2.74,0,0,0-.11-.88,1.7,1.7,0,0,0-.66-.9,2,2,0,0,0-1.14-.32,2,2,0,0,0-1.14.32,1.66,1.66,0,0,0-.67.9,3,3,0,0,0-.11.88c0,.06,0,.09.1.09Z"/><path class="cls-2" d="M879.09,41.85a4,4,0,0,1-.16-.59c0-.2-.07-.42-.1-.66s0-.51,0-.8,0-.64,0-1,0-.74,0-1,0-.57,0-.81.07-.46.1-.66a4.31,4.31,0,0,1,.16-.59,3.81,3.81,0,0,1,1.36-1.94,4.34,4.34,0,0,1,4.3-.19,3.44,3.44,0,0,1,1.33,1.32.9.9,0,0,1,.13.45.63.63,0,0,1-.2.49.68.68,0,0,1-.48.18.76.76,0,0,1-.65-.41,2.72,2.72,0,0,0-.89-.87,2.23,2.23,0,0,0-1.18-.3,2.25,2.25,0,0,0-1.49.47,2.55,2.55,0,0,0-.8,1.24,2.43,2.43,0,0,0-.12.43c0,.16-.06.34-.08.54s0,.45-.05.72,0,.59,0,1,0,.68,0,.95,0,.51.05.72,0,.39.08.54a2.43,2.43,0,0,0,.12.43,2.58,2.58,0,0,0,.8,1.25,2.31,2.31,0,0,0,1.49.46,2.23,2.23,0,0,0,1.18-.3,2.72,2.72,0,0,0,.89-.87.76.76,0,0,1,.65-.41.68.68,0,0,1,.48.18.63.63,0,0,1,.2.49.9.9,0,0,1-.13.45A3.4,3.4,0,0,1,884.75,44a4.31,4.31,0,0,1-4.3-.2A3.81,3.81,0,0,1,879.09,41.85Z"/><path class="cls-2" d="M894.36,43.64a.72.72,0,0,1-.2.53.68.68,0,0,1-.49.2.66.66,0,0,1-.49-.2.69.69,0,0,1-.2-.53v-.23h0a2.14,2.14,0,0,1-.82.75,2.74,2.74,0,0,1-1.34.31,2.55,2.55,0,0,1-2-.8,3.1,3.1,0,0,1-.71-2.13V37.16a.73.73,0,0,1,.2-.54.73.73,0,0,1,1,0,.73.73,0,0,1,.2.54v4.06a2.21,2.21,0,0,0,.43,1.46,1.58,1.58,0,0,0,1.31.52,1.68,1.68,0,0,0,1.28-.51A1.92,1.92,0,0,0,893,41.3V37.16a.69.69,0,0,1,.2-.54.66.66,0,0,1,.49-.19.67.67,0,0,1,.49.19.73.73,0,0,1,.2.54Z"/><path class="cls-2" d="M898.77,44.37a1.89,1.89,0,0,1-1.5-.51,2.45,2.45,0,0,1-.42-1.57v-8.4a.69.69,0,0,1,.2-.53.66.66,0,0,1,.49-.19.67.67,0,0,1,.49.19.72.72,0,0,1,.2.53v8.32a1.06,1.06,0,0,0,.17.69.74.74,0,0,0,.58.2.63.63,0,0,1,.47.18.64.64,0,0,1,.17.45.62.62,0,0,1-.18.46.72.72,0,0,1-.53.18Z"/><path class="cls-2" d="M903.62,44.37a2.21,2.21,0,0,1-1.7-.54,2.54,2.54,0,0,1-.5-1.75V37.71c0-.06,0-.1-.09-.1h-.45a.59.59,0,0,1-.43-.15.52.52,0,0,1-.16-.4.54.54,0,0,1,.16-.4.59.59,0,0,1,.43-.15h.45c.06,0,.09,0,.09-.1v-1.7a.73.73,0,0,1,.2-.54.67.67,0,0,1,.49-.19.66.66,0,0,1,.49.19.69.69,0,0,1,.2.54v1.7c0,.07,0,.1.1.1h1a.62.62,0,0,1,.44.15.57.57,0,0,1,.15.4.55.55,0,0,1-.15.4.62.62,0,0,1-.44.15h-1a.09.09,0,0,0-.1.1V42a1.25,1.25,0,0,0,.21.84,1.13,1.13,0,0,0,.84.23.65.65,0,0,1,.5.18.6.6,0,0,1,.17.45.62.62,0,0,1-.18.46.74.74,0,0,1-.55.18Z"/><path class="cls-2" d="M912.46,43.64a.72.72,0,0,1-.2.53.7.7,0,0,1-1,0,.72.72,0,0,1-.2-.53v-.23h0a2.22,2.22,0,0,1-.82.75,2.78,2.78,0,0,1-1.35.31,2.53,2.53,0,0,1-2-.8,3,3,0,0,1-.71-2.13V37.16a.73.73,0,0,1,.19-.54.67.67,0,0,1,.49-.19.69.69,0,0,1,.5.19.73.73,0,0,1,.19.54v4.06a2.27,2.27,0,0,0,.43,1.46,1.58,1.58,0,0,0,1.31.52,1.69,1.69,0,0,0,1.29-.51,2,2,0,0,0,.48-1.39V37.16a.73.73,0,0,1,.2-.54.73.73,0,0,1,1,0,.73.73,0,0,1,.2.54Z"/><path class="cls-2" d="M915.67,44.37a.68.68,0,0,1-.49-.2.72.72,0,0,1-.2-.53V37.16a.73.73,0,0,1,.2-.54.67.67,0,0,1,.49-.19.69.69,0,0,1,.5.19.73.73,0,0,1,.19.54v.36h0a2.09,2.09,0,0,1,.76-.86,2.3,2.3,0,0,1,1.26-.33,2.73,2.73,0,0,1,.69.08,2.29,2.29,0,0,1,.47.2.64.64,0,0,1,.39.58.69.69,0,0,1-.18.49.68.68,0,0,1-.5.19.83.83,0,0,1-.35-.08l-.44-.14a2.24,2.24,0,0,0-.46,0,1.34,1.34,0,0,0-1.27.65,3.08,3.08,0,0,0-.39,1.62v3.77a.72.72,0,0,1-.19.53A.7.7,0,0,1,915.67,44.37Z"/><path class="cls-2" d="M927.41,43.33a.74.74,0,0,1,.12.39.61.61,0,0,1-.2.46.69.69,0,0,1-.51.19.73.73,0,0,1-.6-.34l-.31-.49h0a2.62,2.62,0,0,1-1,.68,3.72,3.72,0,0,1-1.44.25,3.11,3.11,0,0,1-2.05-.61,2.16,2.16,0,0,1-.72-1.73,2.1,2.1,0,0,1,.79-1.81,3.73,3.73,0,0,1,2.28-.6h1.78c.07,0,.1,0,.1-.09v-.38a1.7,1.7,0,0,0-.43-1.26,2,2,0,0,0-1.45-.44,3.37,3.37,0,0,0-.9.12,3.31,3.31,0,0,0-.71.27,1.05,1.05,0,0,1-.4.11.54.54,0,0,1-.59-.58.68.68,0,0,1,.08-.31.53.53,0,0,1,.25-.24,3.6,3.6,0,0,1,1-.42,5.36,5.36,0,0,1,1.42-.17,3.21,3.21,0,0,1,2.33.73,2.91,2.91,0,0,1,.75,2.18V42a2.61,2.61,0,0,0,0,.46,1.21,1.21,0,0,0,.12.33Zm-3.73,0a2.42,2.42,0,0,0,1.45-.4,1.34,1.34,0,0,0,.53-1.13v-.86c0-.07,0-.1-.1-.1H924a2.87,2.87,0,0,0-1.49.3,1.07,1.07,0,0,0-.46,1,1.06,1.06,0,0,0,.42.92A2.11,2.11,0,0,0,923.68,43.3Z"/><path class="cls-2" d="M933.6,47.21a.65.65,0,0,1-.5-.18.6.6,0,0,1-.17-.45.61.61,0,0,1,.17-.46.65.65,0,0,1,.5-.18,1.29,1.29,0,0,0,.78-.23,2.14,2.14,0,0,0,.58-.94l.26-.71-2.67-6.67a1.09,1.09,0,0,1,0-.17.78.78,0,0,1,0-.16.59.59,0,0,1,.2-.45.69.69,0,0,1,.49-.18.66.66,0,0,1,.66.49l2,5.37h0l2-5.37a.63.63,0,0,1,.64-.49.66.66,0,0,1,.49.18.61.61,0,0,1,.18.45.78.78,0,0,1,0,.16.55.55,0,0,1,0,.17l-3,7.66a6.92,6.92,0,0,1-.51,1.08,2.85,2.85,0,0,1-.54.66,1.66,1.66,0,0,1-.63.33,2.93,2.93,0,0,1-.76.09Z"/><path class="cls-2" d="M944.76,33.89a.64.64,0,0,1,.18-.47.61.61,0,0,1,.48-.17h5.74a.69.69,0,0,1,.52.19.61.61,0,0,1,.2.47.63.63,0,0,1-.2.49.69.69,0,0,1-.52.19h-4.84a.09.09,0,0,0-.1.1v3.25a.09.09,0,0,0,.1.1h4a.71.71,0,0,1,.52.19.65.65,0,0,1,.2.47.66.66,0,0,1-.2.49.71.71,0,0,1-.52.19h-4a.09.09,0,0,0-.1.1v3.36a.09.09,0,0,0,.1.1h4.84a.69.69,0,0,1,.52.19.61.61,0,0,1,.2.47.63.63,0,0,1-.2.49.7.7,0,0,1-.52.2h-5.74a.62.62,0,0,1-.48-.18.64.64,0,0,1-.18-.47Z"/><path class="cls-2" d="M959.24,44.37a.68.68,0,0,1-.49-.2.72.72,0,0,1-.2-.53v-.21h0a2.1,2.1,0,0,1-.81.75,3,3,0,0,1-1.42.29,2.81,2.81,0,0,1-1.7-.52,2.9,2.9,0,0,1-1-1.43,5.5,5.5,0,0,1-.21-1,9.68,9.68,0,0,1-.07-1.17,9.33,9.33,0,0,1,.07-1.15,5.13,5.13,0,0,1,.21-1,2.89,2.89,0,0,1,1-1.44,2.81,2.81,0,0,1,1.7-.51,3,3,0,0,1,1.42.29,2.26,2.26,0,0,1,.81.75h0V33.89a.72.72,0,0,1,.2-.53.67.67,0,0,1,.49-.19.69.69,0,0,1,.5.19.72.72,0,0,1,.19.53v9.75a.72.72,0,0,1-.19.53A.7.7,0,0,1,959.24,44.37Zm-2.6-1.17A1.71,1.71,0,0,0,958.38,42a3.1,3.1,0,0,0,.14-.7c0-.25,0-.54,0-.89s0-.63,0-.88a3.1,3.1,0,0,0-.14-.7,1.88,1.88,0,0,0-.64-.9,1.83,1.83,0,0,0-1.1-.31,1.8,1.8,0,0,0-1.09.31,1.88,1.88,0,0,0-.64.9,3.1,3.1,0,0,0-.14.7,9.81,9.81,0,0,0,0,1.77,3.1,3.1,0,0,0,.14.7,1.83,1.83,0,0,0,.64.9A1.81,1.81,0,0,0,956.64,43.2Z"/><path class="cls-2" d="M968.61,43.64a.72.72,0,0,1-.2.53.7.7,0,0,1-1,0,.72.72,0,0,1-.2-.53v-.23h0a2.07,2.07,0,0,1-.82.75,2.74,2.74,0,0,1-1.34.31,2.53,2.53,0,0,1-2-.8,3.05,3.05,0,0,1-.72-2.13V37.16a.73.73,0,0,1,.2-.54.67.67,0,0,1,.49-.19.66.66,0,0,1,.49.19.69.69,0,0,1,.2.54v4.06a2.21,2.21,0,0,0,.43,1.46,1.58,1.58,0,0,0,1.31.52,1.72,1.72,0,0,0,1.29-.51,2,2,0,0,0,.48-1.39V37.16a.73.73,0,0,1,.2-.54.73.73,0,0,1,1,0,.73.73,0,0,1,.2.54Z"/><path class="cls-2" d="M974,44.47a3.48,3.48,0,0,1-2-.54,2.83,2.83,0,0,1-1.15-1.56,6.75,6.75,0,0,1-.18-.84,10.77,10.77,0,0,1,0-2.27,6.75,6.75,0,0,1,.18-.84,2.77,2.77,0,0,1,1.15-1.55,3.48,3.48,0,0,1,2-.54,3.07,3.07,0,0,1,2.51,1.14.89.89,0,0,1,.2.5.6.6,0,0,1-.17.43.58.58,0,0,1-.44.17.63.63,0,0,1-.33-.09,1.89,1.89,0,0,1-.28-.23,2.16,2.16,0,0,0-.62-.47,1.87,1.87,0,0,0-.87-.18,2,2,0,0,0-1.1.3,1.65,1.65,0,0,0-.65.91,3.51,3.51,0,0,0-.14.69,7.63,7.63,0,0,0,0,.89,7.82,7.82,0,0,0,0,.9,3.23,3.23,0,0,0,.14.69,1.67,1.67,0,0,0,.65.92,2,2,0,0,0,1.1.3,1.87,1.87,0,0,0,.87-.18,2.36,2.36,0,0,0,.62-.47,1.49,1.49,0,0,1,.28-.24.62.62,0,0,1,.33-.08.57.57,0,0,1,.61.59.85.85,0,0,1-.2.51,3.12,3.12,0,0,1-1,.8A3.18,3.18,0,0,1,974,44.47Z"/><path class="cls-2" d="M984.82,43.33a.74.74,0,0,1,.12.39.61.61,0,0,1-.2.46.69.69,0,0,1-.51.19.73.73,0,0,1-.6-.34l-.32-.49h0a2.7,2.7,0,0,1-1,.68,3.72,3.72,0,0,1-1.44.25,3.11,3.11,0,0,1-2-.61,2.16,2.16,0,0,1-.72-1.73,2.1,2.1,0,0,1,.79-1.81,3.72,3.72,0,0,1,2.27-.6H983c.07,0,.1,0,.1-.09v-.38a1.7,1.7,0,0,0-.43-1.26,2,2,0,0,0-1.46-.44,3.35,3.35,0,0,0-.89.12,3.31,3.31,0,0,0-.71.27,1.05,1.05,0,0,1-.4.11.59.59,0,0,1-.43-.15.56.56,0,0,1-.16-.43.68.68,0,0,1,.08-.31.49.49,0,0,1,.25-.24,3.6,3.6,0,0,1,1-.42,5.36,5.36,0,0,1,1.42-.17,3.22,3.22,0,0,1,2.33.73,2.91,2.91,0,0,1,.75,2.18V42a2.61,2.61,0,0,0,0,.46,1.21,1.21,0,0,0,.12.33Zm-3.73,0a2.42,2.42,0,0,0,1.45-.4,1.34,1.34,0,0,0,.53-1.13v-.86c0-.07,0-.1-.1-.1H981.4a2.84,2.84,0,0,0-1.49.3,1.07,1.07,0,0,0-.46,1,1.06,1.06,0,0,0,.42.92A2.11,2.11,0,0,0,981.09,43.3Z"/><path class="cls-2" d="M989.74,44.47a3.48,3.48,0,0,1-2-.54,2.88,2.88,0,0,1-1.15-1.56,5.39,5.39,0,0,1-.17-.84,9.24,9.24,0,0,1,0-2.27,5.39,5.39,0,0,1,.17-.84,2.82,2.82,0,0,1,1.15-1.55,3.48,3.48,0,0,1,2-.54,3.07,3.07,0,0,1,2.51,1.14.89.89,0,0,1,.2.5.6.6,0,0,1-.17.43.58.58,0,0,1-.44.17.57.57,0,0,1-.32-.09,1.23,1.23,0,0,1-.28-.23,2.36,2.36,0,0,0-.63-.47,1.87,1.87,0,0,0-.87-.18,1.94,1.94,0,0,0-1.09.3,1.61,1.61,0,0,0-.66.91,3.51,3.51,0,0,0-.14.69,7.63,7.63,0,0,0,0,.89,7.82,7.82,0,0,0,0,.9A3.23,3.23,0,0,0,988,42a1.64,1.64,0,0,0,.66.92,1.94,1.94,0,0,0,1.09.3,1.87,1.87,0,0,0,.87-.18,2.59,2.59,0,0,0,.63-.47,1.05,1.05,0,0,1,.28-.24.57.57,0,0,1,.32-.08.57.57,0,0,1,.61.59.85.85,0,0,1-.2.51,3.12,3.12,0,0,1-1,.8A3.18,3.18,0,0,1,989.74,44.47Z"/><path class="cls-2" d="M995.14,35a.88.88,0,0,1-.64-.26.82.82,0,0,1-.26-.63.86.86,0,0,1,.26-.64.87.87,0,0,1,.64-.25.89.89,0,0,1,.64.25.9.9,0,0,1,.26.64.86.86,0,0,1-.26.63A.9.9,0,0,1,995.14,35Zm-.69,2.21a.69.69,0,0,1,.2-.54.66.66,0,0,1,.49-.19.67.67,0,0,1,.49.19.73.73,0,0,1,.2.54v6.48a.72.72,0,0,1-.2.53.68.68,0,0,1-.49.2.66.66,0,0,1-.49-.2.69.69,0,0,1-.2-.53Z"/><path class="cls-2" d="M1001.24,44.47a3.38,3.38,0,0,1-2-.56,2.93,2.93,0,0,1-1.14-1.54,5.56,5.56,0,0,1-.2-.85,8.84,8.84,0,0,1-.06-1.13,8.56,8.56,0,0,1,.06-1.12,6.17,6.17,0,0,1,.2-.85,2.91,2.91,0,0,1,1.14-1.55,3.83,3.83,0,0,1,3.92,0,2.91,2.91,0,0,1,1.14,1.55,6.14,6.14,0,0,1,.19.85,6.94,6.94,0,0,1,.07,1.12,7.16,7.16,0,0,1-.07,1.13,5.55,5.55,0,0,1-.19.85,2.93,2.93,0,0,1-1.14,1.54A3.4,3.4,0,0,1,1001.24,44.47Zm0-1.27a1.89,1.89,0,0,0,1.11-.32,1.7,1.7,0,0,0,.66-.9,3.8,3.8,0,0,0,.14-.67,7.75,7.75,0,0,0,0-.92,7.46,7.46,0,0,0,0-.91,3.8,3.8,0,0,0-.14-.67,1.74,1.74,0,0,0-.66-.9,1.89,1.89,0,0,0-1.11-.31,1.94,1.94,0,0,0-1.12.31,1.77,1.77,0,0,0-.65.9,3.8,3.8,0,0,0-.14.67,7.46,7.46,0,0,0,0,.91,7.75,7.75,0,0,0,0,.92,3.8,3.8,0,0,0,.14.67,1.73,1.73,0,0,0,.65.9A1.94,1.94,0,0,0,1001.24,43.2Zm.06-7.83a.56.56,0,0,1-.39-.14.52.52,0,0,1-.15-.38.86.86,0,0,1,.12-.39l.92-1.39a.55.55,0,0,1,.49-.28.56.56,0,0,1,.39.15.48.48,0,0,1,.17.37.78.78,0,0,1-.14.41l-1,1.39A.55.55,0,0,1,1001.3,35.37Z"/><path class="cls-2" d="M1006.65,37.16a.69.69,0,0,1,.2-.54.73.73,0,0,1,1,0,.73.73,0,0,1,.2.54v.23h0a2.15,2.15,0,0,1,.84-.76,2.82,2.82,0,0,1,1.36-.3,2.57,2.57,0,0,1,2,.8,3,3,0,0,1,.72,2.12v4.39a.72.72,0,0,1-.19.53.7.7,0,0,1-.5.2.68.68,0,0,1-.49-.2.72.72,0,0,1-.19-.53V39.58a2.19,2.19,0,0,0-.44-1.46,1.61,1.61,0,0,0-1.32-.52,1.74,1.74,0,0,0-1.3.51,1.87,1.87,0,0,0-.5,1.39v4.14a.72.72,0,0,1-.2.53.7.7,0,0,1-1,0,.69.69,0,0,1-.2-.53Z"/></g></g></svg>