<svg xmlns="http://www.w3.org/2000/svg" viewBox="0 0 361.24 32.18"><defs><style>.cls-1{fill:#aac037;}.cls-2{fill:#d6d6d6;}</style></defs><title>textos-footer</title><g id="Capa_2" data-name="Capa 2"><g id="Layer_1" data-name="Layer 1"><g id="layer1"><g id="g3037"><path id="path2988" class="cls-1" d="M273.85,15a1.77,1.77,0,0,0-.84-1.51h0a2.38,2.38,0,0,1-1.12-2,2.34,2.34,0,0,1,.46-1.39h0a1.73,1.73,0,0,0,.32-1,1.85,1.85,0,0,0-.44-1.18c-.34-.42-2.85-3.59-9.43-7.51a2.37,2.37,0,0,0-2.66.1h0l-4,2.85h0a2.23,2.23,0,0,1-1.27.38h-3a1.77,1.77,0,0,0-1.77,1.77v24a1.78,1.78,0,0,0,.42,1.14,6.69,6.69,0,0,0,1.6,1.29,1.83,1.83,0,0,0,1,.29,1.77,1.77,0,0,0,1.77-1.77V25.65a1.77,1.77,0,0,1,2.55-1.59h0a12,12,0,0,0,16.39-8.69c0-.12,0-.25,0-.4"/><path id="path2990" class="cls-2" d="M280.76,18.45a.55.55,0,0,1,.59-.59h3.09a2.9,2.9,0,0,1,3.2,3,2.9,2.9,0,0,1-3.2,3h-2.27c-.05,0-.07,0-.07.08v3.3a.62.62,0,0,1-.65.69.64.64,0,0,1-.67-.69V18.45Zm5.59,2.4c0-1.08-.72-1.75-2-1.75h-2.24s-.08,0-.08.07v3.36s0,.07.08.07h2.24c1.24,0,2-.67,2-1.75"/><path id="path2992" class="cls-2" d="M288.62,27.27V21.42a.62.62,0,1,1,1.24,0v.33h0a1.92,1.92,0,0,1,1.81-1.08,2,2,0,0,1,1,.26.58.58,0,0,1,.36.54.6.6,0,0,1-.62.62.79.79,0,0,1-.31-.08,2.17,2.17,0,0,0-.8-.18c-1.06,0-1.49.88-1.49,2.06v3.4a.61.61,0,0,1-.62.67.64.64,0,0,1-.62-.69"/><path id="path2994" class="cls-2" d="M293.78,26.13a5.31,5.31,0,0,1-.24-1.77,5.34,5.34,0,0,1,.24-1.78,3,3,0,0,1,5.56,0,5.34,5.34,0,0,1,.24,1.78,5.08,5.08,0,0,1-.24,1.77,3,3,0,0,1-5.56,0m4.35-.36a4.28,4.28,0,0,0,.16-1.44,5.13,5.13,0,0,0-.16-1.42,1.7,1.7,0,0,0-3.19,0,4.19,4.19,0,0,0-.16,1.42,4.88,4.88,0,0,0,.16,1.44,1.7,1.7,0,0,0,3.19,0"/><path id="path2996" class="cls-2" d="M302.39,27.17l-2.14-5.52a.63.63,0,0,1-.06-.31.57.57,0,0,1,.6-.59.63.63,0,0,1,.59.43l1.83,4.9h0l1.77-4.9a.63.63,0,0,1,.6-.43.56.56,0,0,1,.59.59,2.19,2.19,0,0,1-.05.31L304,27.17c-.23.56-.41.77-.8.77s-.59-.21-.82-.77"/><path id="path2998" class="cls-2" d="M307.15,18.61a.79.79,0,0,1,.8-.8.8.8,0,1,1-.8.8m.21,2.81a.62.62,0,1,1,1.24,0v5.85a.62.62,0,1,1-1.24,0Z"/><path id="path3000" class="cls-2" d="M310.4,21.42a.62.62,0,1,1,1.24,0v.2h0a2.2,2.2,0,0,1,2-.95,2.37,2.37,0,0,1,2.44,2.65v4a.62.62,0,1,1-1.23,0V23.63c0-1.13-.52-1.77-1.58-1.77a1.58,1.58,0,0,0-1.62,1.72v3.74a.62.62,0,1,1-1.24,0v-5.9Z"/><path id="path3002" class="cls-2" d="M317.67,26.13a6.07,6.07,0,0,1-.23-1.77,5.52,5.52,0,0,1,.23-1.78,3,3,0,0,1,5-.85.64.64,0,0,1,.18.46.53.53,0,0,1-.54.54.76.76,0,0,1-.54-.28,1.66,1.66,0,0,0-1.34-.59,1.52,1.52,0,0,0-1.58,1.1,4.59,4.59,0,0,0-.15,1.42,5.6,5.6,0,0,0,.15,1.45,1.54,1.54,0,0,0,1.58,1.1,1.69,1.69,0,0,0,1.34-.59.69.69,0,0,1,.54-.28.53.53,0,0,1,.54.54.75.75,0,0,1-.18.46,2.75,2.75,0,0,1-2.24,1,2.86,2.86,0,0,1-2.79-2"/><path id="path3004" class="cls-2" d="M324.09,18.61a.78.78,0,0,1,.8-.8.8.8,0,1,1-.8.8m.21,2.81a.62.62,0,1,1,1.24,0v5.85a.62.62,0,1,1-1.24,0Z"/><path id="path3006" class="cls-2" d="M333,27.35a.59.59,0,0,1-.62.59.62.62,0,0,1-.54-.31l-.29-.44h0a2.66,2.66,0,0,1-2.17.83c-1.57,0-2.47-.78-2.47-2.12s1-2.16,2.76-2.16h1.59c.06,0,.08,0,.08-.08v-.34c0-1-.46-1.54-1.67-1.54a3.32,3.32,0,0,0-1.45.36,1.16,1.16,0,0,1-.36.1.5.5,0,0,1-.54-.54.54.54,0,0,1,.28-.49,4.09,4.09,0,0,1,2.14-.54c1.88,0,2.76.9,2.76,2.63v2.53a1.43,1.43,0,0,0,.13.72l.26.46a.49.49,0,0,1,.13.34m-1.68-1.78v-.78c0-.05,0-.07-.08-.07h-1.41c-1.22,0-1.76.36-1.76,1.13s.54,1.11,1.47,1.11c1.09,0,1.78-.52,1.78-1.39"/><path id="path3008" class="cls-2" d="M280.76,6a.89.89,0,0,1,.92-1h3.1c2.16,0,3.19,1.09,3.19,2.66a2.31,2.31,0,0,1-1.16,2.14v0a2.39,2.39,0,0,1,1.35,2.27c0,2-1.32,2.92-3.46,2.92h-3a.86.86,0,0,1-.93-.93V6Zm3.76,3.12c.83,0,1.32-.44,1.32-1.19s-.49-1.16-1.32-1.16H283a.07.07,0,0,0-.08.08V9a.07.07,0,0,0,.08.08h1.52ZM283,13.32h1.62A1.2,1.2,0,0,0,286,12.06a1.21,1.21,0,0,0-1.37-1.24H283a.07.07,0,0,0-.08.08v2.32a.09.09,0,0,0,.08.1"/><path id="path3010" class="cls-2" d="M293.52,14.41h0a2.29,2.29,0,0,1-1.88.82,2.32,2.32,0,0,1-2.38-2.63V8.94a1,1,0,0,1,1-1.08,1,1,0,0,1,1,1.08v3.22c0,.78.36,1.29,1.08,1.29s1.09-.51,1.09-1.29V8.94a1,1,0,1,1,2.06,0V14a1,1,0,0,1-1,1.09.91.91,0,0,1-1-.72"/><path id="path3012" class="cls-2" d="M296.89,13.19a5,5,0,0,1-.23-1.67,5.07,5.07,0,0,1,.23-1.7,3,3,0,0,1,3.07-2,2.94,2.94,0,0,1,3.07,2,5.48,5.48,0,0,1,.23,1.65.64.64,0,0,1-.67.67h-3.76a.07.07,0,0,0-.08.08,1.11,1.11,0,0,0,.08.41,1.4,1.4,0,0,0,1.47.93,3,3,0,0,0,1.34-.36,1.34,1.34,0,0,1,.69-.23.74.74,0,0,1,.75.77.81.81,0,0,1-.41.72,4.34,4.34,0,0,1-2.58.77,3,3,0,0,1-3.2-2m4.23-2.45c.05,0,.08,0,.08-.07a1.42,1.42,0,0,0-.08-.52,1.14,1.14,0,0,0-1.18-.77,1.17,1.17,0,0,0-1.19.77,1.54,1.54,0,0,0-.08.52c0,.05,0,.07.08.07Z"/><path id="path3014" class="cls-2" d="M308.57,14.07V10.82c0-.77-.38-1.29-1.11-1.29s-1.1.52-1.1,1.29V14a1,1,0,1,1-2.07,0V8.94a1,1,0,0,1,1-1.08,1,1,0,0,1,1,.74h0a2.29,2.29,0,0,1,1.88-.82,2.36,2.36,0,0,1,2.42,2.63V14a1,1,0,0,1-1,1.09,1,1,0,0,1-1-1.06"/><path id="path3016" class="cls-2" d="M311.92,13.17a5.54,5.54,0,0,1-.23-1.68,5.48,5.48,0,0,1,.23-1.67,3.37,3.37,0,0,1,6.19,0,5.18,5.18,0,0,1,.23,1.67,5.25,5.25,0,0,1-.23,1.68,3.37,3.37,0,0,1-6.19,0m4.18-.47a3.92,3.92,0,0,0,.13-1.18,4,4,0,0,0-.13-1.19,1.07,1.07,0,0,0-1.11-.8,1.09,1.09,0,0,0-1.11.8,4,4,0,0,0-.13,1.19,3.92,3.92,0,0,0,.13,1.18,1.08,1.08,0,0,0,1.11.8,1.1,1.1,0,0,0,1.11-.8"/><path id="path3018" class="cls-2" d="M319.61,14.53a.89.89,0,0,1-.49-.82.84.84,0,0,1,.85-.83,1.27,1.27,0,0,1,.59.18,3.46,3.46,0,0,0,1.75.52c.75,0,1.11-.26,1.11-.67s-.18-.52-1-.59l-.77-.08c-1.55-.18-2.32-.93-2.32-2.17,0-1.39,1.08-2.29,2.94-2.29a4.86,4.86,0,0,1,2.16.46A.92.92,0,0,1,325,9a.77.77,0,0,1-.8.8,1.47,1.47,0,0,1-.59-.18,3.48,3.48,0,0,0-1.44-.31c-.62,0-.9.23-.9.57s.18.49,1,.59l.77.08c1.67.18,2.37,1,2.37,2.17,0,1.44-1.16,2.42-3.17,2.42a4.34,4.34,0,0,1-2.6-.65"/><path id="path3020" class="cls-2" d="M329.45,13.71l2.71-7.48c.28-.8.72-1.26,1.47-1.26s1.21.46,1.49,1.26l2.66,7.48a1.11,1.11,0,0,1,.08.41,1,1,0,0,1-1,1,1,1,0,0,1-1-.78l-.41-1.21h-3.56l-.39,1.21a1,1,0,0,1-1,.78,1,1,0,0,1-1-1,.58.58,0,0,1,0-.41m5.34-2.37-1.13-3.48h-.06l-1.16,3.48Z"/><path id="path3022" class="cls-2" d="M338.66,6.08a1.16,1.16,0,0,1,2.32,0,1.16,1.16,0,0,1-2.32,0m.13,8V8.94a1,1,0,1,1,2.06,0V14a1,1,0,0,1-1,1.09,1,1,0,0,1-1-1.06"/><path id="path3024" class="cls-2" d="M342.34,14.07V8.94a1,1,0,0,1,2-.28v0h0a2.19,2.19,0,0,1,1.77-.87,1.5,1.5,0,0,1,.75.15.91.91,0,0,1,.54.83,1,1,0,0,1-1,1,1.32,1.32,0,0,1-.44-.08,1.88,1.88,0,0,0-.52-.08c-.77,0-1.08.54-1.08,1.5V14a1,1,0,0,1-1,1.09,1,1,0,0,1-1.06-1.06"/><path id="path3026" class="cls-2" d="M347.83,13.19a5,5,0,0,1-.23-1.67,5.07,5.07,0,0,1,.23-1.7,3,3,0,0,1,3.07-2,2.94,2.94,0,0,1,3.07,2,5.48,5.48,0,0,1,.23,1.65.64.64,0,0,1-.67.67h-3.76a.07.07,0,0,0-.08.08,1.11,1.11,0,0,0,.08.41,1.4,1.4,0,0,0,1.47.93,3,3,0,0,0,1.34-.36,1.34,1.34,0,0,1,.69-.23.74.74,0,0,1,.75.77.81.81,0,0,1-.41.72,4.34,4.34,0,0,1-2.58.77,3,3,0,0,1-3.2-2m4.23-2.45c.05,0,.08,0,.08-.07a1.42,1.42,0,0,0-.08-.52,1.14,1.14,0,0,0-1.18-.77,1.17,1.17,0,0,0-1.19.77,1.54,1.54,0,0,0-.08.52c0,.05,0,.07.08.07Z"/><path id="path3028" class="cls-2" d="M355.46,14.53a.91.91,0,0,1-.49-.82.85.85,0,0,1,.86-.83,1.27,1.27,0,0,1,.59.18,3.43,3.43,0,0,0,1.75.52c.75,0,1.11-.26,1.11-.67s-.18-.52-1-.59l-.77-.08c-1.55-.18-2.32-.93-2.32-2.17,0-1.39,1.08-2.29,2.93-2.29a4.87,4.87,0,0,1,2.17.46.92.92,0,0,1,.59.8.77.77,0,0,1-.8.8,1.43,1.43,0,0,1-.59-.18A3.48,3.48,0,0,0,358,9.35c-.62,0-.91.23-.91.57s.18.49,1,.59l.78.08c1.67.18,2.37,1,2.37,2.17,0,1.44-1.16,2.42-3.17,2.42a4.31,4.31,0,0,1-2.61-.65"/></g></g><rect class="cls-2" x="99.8" y="3.85" width="0.62" height="26.51"/><path class="cls-2" d="M116.71,23.25A.24.24,0,0,1,117,23H118a1.42,1.42,0,0,1,1.54,1l.06.21q0,.1,0,.24t0,.3v.79q0,.16,0,.3t0,.24l-.06.21a1.43,1.43,0,0,1-1.54.95H117a.24.24,0,0,1-.18-.06.24.24,0,0,1-.07-.18Zm.56,3.4s0,0,0,0h.7a1.44,1.44,0,0,0,.68-.14.89.89,0,0,0,.36-.49.85.85,0,0,0,0-.17.64.64,0,0,0,0-.2,1.84,1.84,0,0,0,0-.26,3.22,3.22,0,0,0,0-.33c0-.12,0-.23,0-.33a1.69,1.69,0,0,0,0-.25.66.66,0,0,0,0-.21,1,1,0,0,0,0-.17.83.83,0,0,0-.36-.48,1.32,1.32,0,0,0-.68-.15h-.7s0,0,0,0Z"/><path class="cls-2" d="M120.79,23.65a.33.33,0,0,1-.25-.1.35.35,0,0,1-.1-.24.37.37,0,0,1,.1-.24.33.33,0,0,1,.25-.1.34.34,0,0,1,.34.34.31.31,0,0,1-.1.24A.33.33,0,0,1,120.79,23.65Zm-.26.84a.26.26,0,0,1,.26-.28.25.25,0,0,1,.18.08.26.26,0,0,1,.08.2V27a.28.28,0,0,1-.08.2.24.24,0,0,1-.18.07.25.25,0,0,1-.19-.07.27.27,0,0,1-.07-.2Z"/><path class="cls-2" d="M122.27,27.23a.24.24,0,0,1-.18-.07A.28.28,0,0,1,122,27V24.49a.26.26,0,0,1,.08-.2.25.25,0,0,1,.18-.08.26.26,0,0,1,.19.08.26.26,0,0,1,.08.2v.14h0a.83.83,0,0,1,.29-.33.9.9,0,0,1,.48-.12,1,1,0,0,1,.26,0,.75.75,0,0,1,.18.07.24.24,0,0,1,.15.22.24.24,0,0,1-.26.26l-.13,0-.17-.05a.47.47,0,0,0-.17,0,.53.53,0,0,0-.49.24,1.21,1.21,0,0,0-.14.62V27a.28.28,0,0,1-.08.2A.25.25,0,0,1,122.27,27.23Z"/><path class="cls-2" d="M125.5,27.27a1.4,1.4,0,0,1-.77-.2,1.07,1.07,0,0,1-.43-.6,1.57,1.57,0,0,1-.08-.31,4.85,4.85,0,0,1,0-.88,1.55,1.55,0,0,1,.07-.31,1.09,1.09,0,0,1,.43-.59,1.47,1.47,0,0,1,1.48,0,1.09,1.09,0,0,1,.43.59,2.09,2.09,0,0,1,.1.71.2.2,0,0,1-.06.15.21.21,0,0,1-.15.05h-1.75a0,0,0,0,0,0,0c0,.07,0,.13,0,.19a1.36,1.36,0,0,0,0,.17.7.7,0,0,0,.28.38.82.82,0,0,0,.48.13.92.92,0,0,0,.38-.07,1.61,1.61,0,0,0,.34-.18.29.29,0,0,1,.18-.08.2.2,0,0,1,.15.06.26.26,0,0,1,.07.16.23.23,0,0,1-.09.18,1.61,1.61,0,0,1-.45.3A1.71,1.71,0,0,1,125.5,27.27Zm.66-1.8s0,0,0,0a1,1,0,0,0,0-.33.65.65,0,0,0-.25-.35.78.78,0,0,0-.44-.12.75.75,0,0,0-.43.12.65.65,0,0,0-.25.35,1,1,0,0,0,0,.33,0,0,0,0,0,0,0Z"/><path class="cls-2" d="M128.6,27.27a1.39,1.39,0,0,1-.74-.2,1.13,1.13,0,0,1-.44-.6,2.05,2.05,0,0,1-.07-.31c0-.13,0-.27,0-.44s0-.31,0-.43a2.21,2.21,0,0,1,.07-.32,1.11,1.11,0,0,1,.44-.59,1.3,1.3,0,0,1,.74-.2,1.28,1.28,0,0,1,.58.12,1.32,1.32,0,0,1,.38.31.32.32,0,0,1,.07.19.21.21,0,0,1-.06.16.22.22,0,0,1-.17.07.17.17,0,0,1-.12,0,.31.31,0,0,1-.11-.09.81.81,0,0,0-.24-.17.62.62,0,0,0-.33-.07.82.82,0,0,0-.42.11.65.65,0,0,0-.24.35,1.1,1.1,0,0,0-.06.26c0,.1,0,.21,0,.34s0,.25,0,.34a1.07,1.07,0,0,0,.06.27.69.69,0,0,0,.24.35.82.82,0,0,0,.42.11.62.62,0,0,0,.33-.07.69.69,0,0,0,.24-.18l.11-.09a.24.24,0,0,1,.12,0,.21.21,0,0,1,.23.23.32.32,0,0,1-.07.19,1.32,1.32,0,0,1-.38.31A1.28,1.28,0,0,1,128.6,27.27Z"/><path class="cls-2" d="M131.49,27.27a1.4,1.4,0,0,1-.75-.2,1.12,1.12,0,0,1-.43-.6,2.05,2.05,0,0,1-.07-.31,2.85,2.85,0,0,1,0-.44,2.72,2.72,0,0,1,0-.43,2.21,2.21,0,0,1,.07-.32,1.09,1.09,0,0,1,.43-.59,1.32,1.32,0,0,1,.75-.2,1.26,1.26,0,0,1,.57.12,1.2,1.2,0,0,1,.38.31.34.34,0,0,1,.08.19.19.19,0,0,1-.07.16.2.2,0,0,1-.16.07.2.2,0,0,1-.13,0,.28.28,0,0,1-.1-.09,1,1,0,0,0-.24-.17.67.67,0,0,0-.33-.07.79.79,0,0,0-.42.11.61.61,0,0,0-.25.35,1.09,1.09,0,0,0,0,.26,3.28,3.28,0,0,0,0,.34,3.11,3.11,0,0,0,0,.34,1.08,1.08,0,0,0,0,.27.65.65,0,0,0,.25.35.79.79,0,0,0,.42.11.67.67,0,0,0,.33-.07.8.8,0,0,0,.24-.18l.1-.09a.28.28,0,0,1,.13,0,.23.23,0,0,1,.16.06.22.22,0,0,1,.07.17.34.34,0,0,1-.08.19,1.2,1.2,0,0,1-.38.31A1.26,1.26,0,0,1,131.49,27.27Z"/><path class="cls-2" d="M133.54,23.65a.34.34,0,0,1-.34-.34.33.33,0,0,1,.1-.24.31.31,0,0,1,.24-.1.3.3,0,0,1,.24.1.33.33,0,0,1,.1.24.31.31,0,0,1-.1.24A.3.3,0,0,1,133.54,23.65Zm-.26.84a.26.26,0,0,1,.07-.2.27.27,0,0,1,.19-.08.26.26,0,0,1,.26.28V27a.27.27,0,0,1-.07.2.25.25,0,0,1-.19.07.26.26,0,0,1-.19-.07.27.27,0,0,1-.07-.2Z"/><path class="cls-2" d="M135.86,27.27a1.27,1.27,0,0,1-.74-.21,1.11,1.11,0,0,1-.44-.59,1.65,1.65,0,0,1-.07-.32,2.54,2.54,0,0,1,0-.43,2.63,2.63,0,0,1,0-.43,1.83,1.83,0,0,1,.07-.32,1.14,1.14,0,0,1,.44-.59,1.26,1.26,0,0,1,.74-.2,1.32,1.32,0,0,1,.75.2A1.13,1.13,0,0,1,137,25a1.87,1.87,0,0,1,.08.32c0,.12,0,.26,0,.43s0,.32,0,.43a1.67,1.67,0,0,1-.08.32,1.09,1.09,0,0,1-.43.59A1.32,1.32,0,0,1,135.86,27.27Zm0-.48a.75.75,0,0,0,.43-.12.72.72,0,0,0,.25-.34,2.38,2.38,0,0,0,.05-.26,3.07,3.07,0,0,0,0-.7,2.21,2.21,0,0,0-.05-.25.68.68,0,0,0-.25-.34.75.75,0,0,0-.43-.12.74.74,0,0,0-.42.12.62.62,0,0,0-.25.34,1.11,1.11,0,0,0-.05.25,3.07,3.07,0,0,0,0,.7,1.19,1.19,0,0,0,.05.26.66.66,0,0,0,.25.34A.74.74,0,0,0,135.86,26.79Zm0-3a.25.25,0,0,1-.15,0,.2.2,0,0,1-.06-.15.37.37,0,0,1,0-.15l.35-.53a.19.19,0,0,1,.18-.1.25.25,0,0,1,.15.05.2.2,0,0,1,.06.15.23.23,0,0,1-.05.15l-.36.53A.21.21,0,0,1,135.89,23.81Z"/><path class="cls-2" d="M137.92,24.49a.26.26,0,0,1,.08-.2.26.26,0,0,1,.19-.08.25.25,0,0,1,.18.08.26.26,0,0,1,.08.2v.09h0a.82.82,0,0,1,.32-.29,1.05,1.05,0,0,1,.52-.11,1,1,0,0,1,.76.3,1.17,1.17,0,0,1,.28.81V27a.28.28,0,0,1-.08.2.25.25,0,0,1-.19.07.24.24,0,0,1-.18-.07.28.28,0,0,1-.08-.2V25.41a.82.82,0,0,0-.16-.55.6.6,0,0,0-.51-.2.64.64,0,0,0-.49.19.72.72,0,0,0-.19.53V27a.28.28,0,0,1-.08.2.24.24,0,0,1-.18.07.25.25,0,0,1-.19-.07.28.28,0,0,1-.08-.2Z"/><path class="cls-2" d="M142.69,26.28a1,1,0,0,1-.06-.23,1.64,1.64,0,0,1,0-.25,2.66,2.66,0,0,1,0-.3v-.79a3,3,0,0,1,0-.31,1.87,1.87,0,0,1,0-.25.9.9,0,0,1,.06-.22,1.39,1.39,0,0,1,.52-.74,1.55,1.55,0,0,1,.91-.26,1.71,1.71,0,0,1,.82.19,1.21,1.21,0,0,1,.51.49.59.59,0,0,1,0,.17.26.26,0,0,1-.08.19.28.28,0,0,1-.18.06.3.3,0,0,1-.25-.15.94.94,0,0,0-.86-.43.87.87,0,0,0-.58.17,1,1,0,0,0-.31.47.85.85,0,0,0,0,.17,1.12,1.12,0,0,0,0,.21c0,.07,0,.17,0,.27s0,.22,0,.36,0,.26,0,.37,0,.19,0,.27a1.12,1.12,0,0,0,0,.21.75.75,0,0,0,0,.16.87.87,0,0,0,.89.65,1,1,0,0,0,.59-.16.84.84,0,0,0,.34-.47,1.33,1.33,0,0,0,.06-.3c0-.11,0-.22,0-.32a0,0,0,0,0,0,0h-.65a.27.27,0,0,1-.2-.07.25.25,0,0,1-.07-.19.24.24,0,0,1,.07-.18.32.32,0,0,1,.2-.07h1a.21.21,0,0,1,.18.07.23.23,0,0,1,.07.18v.12a4.12,4.12,0,0,1,0,.48,1.5,1.5,0,0,1-.09.45A1.35,1.35,0,0,1,145,27a1.48,1.48,0,0,1-.91.26,1.55,1.55,0,0,1-.91-.25A1.43,1.43,0,0,1,142.69,26.28Z"/><path class="cls-2" d="M147.63,27.27a1.4,1.4,0,0,1-.77-.2,1.07,1.07,0,0,1-.43-.6,1.57,1.57,0,0,1-.08-.31,4.85,4.85,0,0,1,0-.88,1.55,1.55,0,0,1,.07-.31,1.09,1.09,0,0,1,.43-.59,1.47,1.47,0,0,1,1.48,0,1.09,1.09,0,0,1,.43.59,2.09,2.09,0,0,1,.1.71.2.2,0,0,1-.06.15.21.21,0,0,1-.15.05H146.9s0,0,0,0,0,.13,0,.19a1.36,1.36,0,0,0,0,.17.7.7,0,0,0,.28.38.82.82,0,0,0,.48.13.92.92,0,0,0,.38-.07,1.61,1.61,0,0,0,.34-.18.29.29,0,0,1,.18-.08.2.2,0,0,1,.15.06.26.26,0,0,1,.07.16.23.23,0,0,1-.09.18,1.77,1.77,0,0,1-.45.3A1.71,1.71,0,0,1,147.63,27.27Zm.66-1.8s0,0,0,0a1,1,0,0,0,0-.33.65.65,0,0,0-.25-.35.78.78,0,0,0-.44-.12.75.75,0,0,0-.43.12.65.65,0,0,0-.25.35,1,1,0,0,0,0,.33,0,0,0,0,0,0,0Z"/><path class="cls-2" d="M149.64,24.49a.3.3,0,0,1,.07-.2.27.27,0,0,1,.19-.08.26.26,0,0,1,.26.28v.09h0a.82.82,0,0,1,.32-.29,1,1,0,0,1,.52-.11,1,1,0,0,1,.76.3,1.17,1.17,0,0,1,.27.81V27a.27.27,0,0,1-.07.2.25.25,0,0,1-.19.07.26.26,0,0,1-.19-.07.27.27,0,0,1-.07-.2V25.41a.82.82,0,0,0-.17-.55.58.58,0,0,0-.5-.2.68.68,0,0,0-.5.19.76.76,0,0,0-.19.53V27a.27.27,0,0,1-.07.2.25.25,0,0,1-.19.07.26.26,0,0,1-.19-.07.32.32,0,0,1-.07-.2Z"/><path class="cls-2" d="M154.1,27.27a1.43,1.43,0,0,1-.78-.2,1.17,1.17,0,0,1-.43-.6,1.55,1.55,0,0,1-.07-.31,2.68,2.68,0,0,1,0-.44c0-.18,0-.32,0-.44a1.57,1.57,0,0,1,.08-.31,1,1,0,0,1,.43-.59,1.25,1.25,0,0,1,.73-.2,1.27,1.27,0,0,1,.75.2,1.14,1.14,0,0,1,.43.59,2.38,2.38,0,0,1,.1.71.2.2,0,0,1-.06.15.25.25,0,0,1-.15.05h-1.75s0,0,0,0a1.15,1.15,0,0,0,0,.19.59.59,0,0,0,0,.17.7.7,0,0,0,.28.38.81.81,0,0,0,.47.13.94.94,0,0,0,.39-.07,1.35,1.35,0,0,0,.33-.18.31.31,0,0,1,.18-.08.21.21,0,0,1,.16.06.25.25,0,0,1,.06.16.25.25,0,0,1-.08.18,1.66,1.66,0,0,1-.46.3A1.62,1.62,0,0,1,154.1,27.27Zm.65-1.8a0,0,0,0,0,0,0,1,1,0,0,0,0-.33.67.67,0,0,0-.26-.35.75.75,0,0,0-.43-.12.73.73,0,0,0-.43.12.67.67,0,0,0-.26.35,1,1,0,0,0,0,.33,0,0,0,0,0,0,0Z"/><path class="cls-2" d="M156.37,27.23a.25.25,0,0,1-.19-.07.27.27,0,0,1-.07-.2V24.49a.26.26,0,0,1,.26-.28.27.27,0,0,1,.19.08.26.26,0,0,1,.07.2v.14h0a.83.83,0,0,1,.29-.33.9.9,0,0,1,.48-.12,1,1,0,0,1,.26,0,.75.75,0,0,1,.18.07.24.24,0,0,1,.15.22.29.29,0,0,1-.07.19.25.25,0,0,1-.19.07l-.13,0-.17-.05a.55.55,0,0,0-.18,0,.52.52,0,0,0-.48.24,1.21,1.21,0,0,0-.15.62V27a.27.27,0,0,1-.07.2A.26.26,0,0,1,156.37,27.23Z"/><path class="cls-2" d="M160.84,26.84a.28.28,0,0,1,0,.15.21.21,0,0,1-.07.17.27.27,0,0,1-.2.07.28.28,0,0,1-.23-.13l-.12-.18h0a1,1,0,0,1-.37.26,1.47,1.47,0,0,1-.55.09,1.19,1.19,0,0,1-.78-.23.94.94,0,0,1,0-1.35,1.42,1.42,0,0,1,.86-.22h.68a0,0,0,0,0,0,0v-.14a.65.65,0,0,0-.16-.48.72.72,0,0,0-.56-.17,1,1,0,0,0-.34.05,1.18,1.18,0,0,0-.27.1.34.34,0,0,1-.15,0,.21.21,0,0,1-.22-.22.5.5,0,0,1,0-.12.22.22,0,0,1,.1-.09,1.42,1.42,0,0,1,.37-.16,2.17,2.17,0,0,1,.54-.06,1.25,1.25,0,0,1,.89.27,1.13,1.13,0,0,1,.29.83v1.07a.81.81,0,0,0,0,.17.93.93,0,0,0,0,.13Zm-1.42,0a.92.92,0,0,0,.55-.15.54.54,0,0,0,.2-.43v-.33s0,0,0,0h-.6A1,1,0,0,0,159,26a.38.38,0,0,0-.18.36.41.41,0,0,0,.16.35A.8.8,0,0,0,159.42,26.83Z"/><path class="cls-2" d="M162.34,27.23a.71.71,0,0,1-.57-.19.92.92,0,0,1-.16-.6V23.25a.28.28,0,0,1,.07-.21.29.29,0,0,1,.19-.07.32.32,0,0,1,.19.07.28.28,0,0,1,.07.21v3.16a.4.4,0,0,0,.07.27.26.26,0,0,0,.22.07.29.29,0,0,1,.18.07.25.25,0,0,1,.06.17.24.24,0,0,1-.07.18.28.28,0,0,1-.2.06Z"/><path class="cls-2" d="M166.82,27.23a.25.25,0,0,1-.19-.07.27.27,0,0,1-.07-.2v-.08h0a.71.71,0,0,1-.31.28,1.26,1.26,0,0,1-1.18-.08,1.07,1.07,0,0,1-.39-.55,2.33,2.33,0,0,1-.08-.36,3.1,3.1,0,0,1,0-.45,3,3,0,0,1,0-.44,2.33,2.33,0,0,1,.08-.36,1.07,1.07,0,0,1,.39-.55,1.26,1.26,0,0,1,1.18-.08.77.77,0,0,1,.31.28h0V23.25a.28.28,0,0,1,.07-.21.29.29,0,0,1,.19-.07A.32.32,0,0,1,167,23a.28.28,0,0,1,.07.21V27a.27.27,0,0,1-.07.2A.26.26,0,0,1,166.82,27.23Zm-1-.44a.7.7,0,0,0,.42-.12.71.71,0,0,0,.24-.34.81.81,0,0,0,0-.27,3.11,3.11,0,0,0,0-.34,2.92,2.92,0,0,0,0-.33.76.76,0,0,0,0-.27.66.66,0,0,0-.24-.34.79.79,0,0,0-.84,0,.66.66,0,0,0-.24.34.76.76,0,0,0,0,.27,2.92,2.92,0,0,0,0,.33,3.11,3.11,0,0,0,0,.34.81.81,0,0,0,0,.27.71.71,0,0,0,.24.34A.7.7,0,0,0,165.83,26.79Z"/><path class="cls-2" d="M169.17,27.27a1.43,1.43,0,0,1-.78-.2,1.12,1.12,0,0,1-.43-.6,1.55,1.55,0,0,1-.07-.31,2.68,2.68,0,0,1,0-.44c0-.18,0-.32,0-.44A1.57,1.57,0,0,1,168,25a1,1,0,0,1,.43-.59,1.25,1.25,0,0,1,.73-.2,1.27,1.27,0,0,1,.75.2,1.14,1.14,0,0,1,.43.59,2.38,2.38,0,0,1,.1.71.2.2,0,0,1-.06.15.25.25,0,0,1-.15.05h-1.75s0,0,0,0a1.15,1.15,0,0,0,0,.19.59.59,0,0,0,0,.17.7.7,0,0,0,.28.38.81.81,0,0,0,.47.13.94.94,0,0,0,.39-.07,1.35,1.35,0,0,0,.33-.18.29.29,0,0,1,.18-.08.21.21,0,0,1,.16.06.25.25,0,0,1,.06.16.25.25,0,0,1-.08.18,1.47,1.47,0,0,1-1.07.41Zm.65-1.8a0,0,0,0,0,0,0,1.34,1.34,0,0,0,0-.33.67.67,0,0,0-.26-.35.75.75,0,0,0-.43-.12.73.73,0,0,0-.43.12.67.67,0,0,0-.26.35,1,1,0,0,0,0,.33,0,0,0,0,0,0,0Z"/><path class="cls-2" d="M172.61,26.28a1,1,0,0,1-.06-.23,1.64,1.64,0,0,1,0-.25,2.66,2.66,0,0,1,0-.3v-.79a3,3,0,0,1,0-.31,1.87,1.87,0,0,1,0-.25.9.9,0,0,1,.06-.22,1.43,1.43,0,0,1,.51-.74,1.52,1.52,0,0,1,.9-.26,1.41,1.41,0,0,1,.74.19,1.29,1.29,0,0,1,.51.5.34.34,0,0,1,0,.17.26.26,0,0,1-.08.19.29.29,0,0,1-.18.07.31.31,0,0,1-.25-.16,1,1,0,0,0-.34-.33.79.79,0,0,0-.45-.11.88.88,0,0,0-.57.17,1,1,0,0,0-.3.47.85.85,0,0,0,0,.17,1.12,1.12,0,0,0,0,.21c0,.07,0,.17,0,.27s0,.22,0,.36,0,.26,0,.37,0,.19,0,.27a1.12,1.12,0,0,0,0,.21.75.75,0,0,0,0,.16.91.91,0,0,0,.3.47,1,1,0,0,0,1,.07,1.1,1.1,0,0,0,.34-.34.3.3,0,0,1,.25-.15.24.24,0,0,1,.18.07.22.22,0,0,1,.08.18.41.41,0,0,1,0,.18,1.36,1.36,0,0,1-.51.5,1.5,1.5,0,0,1-.74.18,1.52,1.52,0,0,1-.9-.25A1.48,1.48,0,0,1,172.61,26.28Z"/><path class="cls-2" d="M178.42,27a.28.28,0,0,1-.08.2.24.24,0,0,1-.18.07.25.25,0,0,1-.19-.07.28.28,0,0,1-.08-.2v-.09h0a.82.82,0,0,1-.32.29,1.07,1.07,0,0,1-.51.11,1,1,0,0,1-.76-.3,1.17,1.17,0,0,1-.27-.81V24.49a.26.26,0,0,1,.08-.2.26.26,0,0,1,.19-.08.25.25,0,0,1,.18.08.26.26,0,0,1,.08.2V26a.82.82,0,0,0,.16.55.61.61,0,0,0,.5.2.65.65,0,0,0,.49-.2.71.71,0,0,0,.18-.52V24.49a.26.26,0,0,1,.08-.2.26.26,0,0,1,.19-.08.25.25,0,0,1,.18.08.26.26,0,0,1,.08.2Z"/><path class="cls-2" d="M180.1,27.23a.71.71,0,0,1-.57-.19.92.92,0,0,1-.16-.6V23.25a.28.28,0,0,1,.07-.21.29.29,0,0,1,.19-.07.32.32,0,0,1,.19.07.28.28,0,0,1,.07.21v3.16a.4.4,0,0,0,.07.27.26.26,0,0,0,.22.07.29.29,0,0,1,.18.07.25.25,0,0,1,.06.17.24.24,0,0,1-.07.18.28.28,0,0,1-.2.06Z"/><path class="cls-2" d="M181.94,27.23a.82.82,0,0,1-.64-.2,1,1,0,0,1-.19-.67V24.7a0,0,0,0,0,0,0h-.17a.21.21,0,0,1-.16-.06.18.18,0,0,1-.06-.15.2.2,0,0,1,.06-.15.21.21,0,0,1,.16-.06h.17s0,0,0,0v-.65a.28.28,0,0,1,.07-.21.26.26,0,0,1,.19-.07.25.25,0,0,1,.19.07.28.28,0,0,1,.07.21v.65s0,0,0,0h.39a.24.24,0,0,1,.17.06.2.2,0,0,1,.06.15.18.18,0,0,1-.06.15.24.24,0,0,1-.17.06h-.39a0,0,0,0,0,0,0v1.65a.51.51,0,0,0,.08.32.49.49,0,0,0,.32.08.26.26,0,0,1,.19.07.22.22,0,0,1,.07.17.29.29,0,0,1-.07.18.33.33,0,0,1-.21.06Z"/><path class="cls-2" d="M185.31,27a.28.28,0,0,1-.08.2.24.24,0,0,1-.18.07.25.25,0,0,1-.19-.07.28.28,0,0,1-.08-.2v-.09h0a.87.87,0,0,1-.31.29,1.14,1.14,0,0,1-.52.11,1,1,0,0,1-.75-.3,1.17,1.17,0,0,1-.28-.81V24.49a.26.26,0,0,1,.08-.2.26.26,0,0,1,.19-.08.25.25,0,0,1,.18.08.26.26,0,0,1,.08.2V26a.82.82,0,0,0,.16.55.63.63,0,0,0,.5.2.65.65,0,0,0,.49-.2.71.71,0,0,0,.18-.52V24.49a.26.26,0,0,1,.08-.2.26.26,0,0,1,.19-.08.25.25,0,0,1,.18.08.26.26,0,0,1,.08.2Z"/><path class="cls-2" d="M186.53,27.23a.24.24,0,0,1-.18-.07.28.28,0,0,1-.08-.2V24.49a.26.26,0,0,1,.08-.2.25.25,0,0,1,.18-.08.26.26,0,0,1,.19.08.26.26,0,0,1,.08.2v.14h0a.83.83,0,0,1,.29-.33.9.9,0,0,1,.48-.12,1,1,0,0,1,.26,0,.75.75,0,0,1,.18.07.24.24,0,0,1,.15.22.24.24,0,0,1-.26.26l-.13,0-.17-.05a.47.47,0,0,0-.17,0,.53.53,0,0,0-.49.24,1.21,1.21,0,0,0-.14.62V27a.28.28,0,0,1-.08.2A.25.25,0,0,1,186.53,27.23Z"/><path class="cls-2" d="M191,26.84a.3.3,0,0,1,.05.15.21.21,0,0,1-.08.17.25.25,0,0,1-.19.07.27.27,0,0,1-.23-.13l-.12-.18h0a1,1,0,0,1-.37.26,1.44,1.44,0,0,1-.55.09,1.23,1.23,0,0,1-.78-.23.94.94,0,0,1,0-1.35,1.43,1.43,0,0,1,.87-.22h.68s0,0,0,0v-.14a.65.65,0,0,0-.16-.48.71.71,0,0,0-.55-.17,1,1,0,0,0-.34.05,1.51,1.51,0,0,0-.28.1.27.27,0,0,1-.14,0,.22.22,0,0,1-.17-.06.21.21,0,0,1-.06-.16.27.27,0,0,1,0-.12.2.2,0,0,1,.09-.09,1.36,1.36,0,0,1,.38-.16,2.12,2.12,0,0,1,.54-.06,1.26,1.26,0,0,1,.89.27,1.17,1.17,0,0,1,.28.83v1.07a.81.81,0,0,0,0,.17,1.12,1.12,0,0,0,.05.13Zm-1.42,0a.9.9,0,0,0,.55-.15.51.51,0,0,0,.2-.43v-.33s0,0,0,0h-.6a1.05,1.05,0,0,0-.57.12.38.38,0,0,0-.18.36.39.39,0,0,0,.17.35A.76.76,0,0,0,189.58,26.83Z"/><path class="cls-2" d="M193.36,28.32a.26.26,0,0,1-.19-.07.22.22,0,0,1-.07-.17.24.24,0,0,1,.07-.18.26.26,0,0,1,.19-.07.49.49,0,0,0,.3-.09.72.72,0,0,0,.21-.35l.1-.27-1-2.54a.14.14,0,0,1,0-.06.17.17,0,0,1,0-.07.23.23,0,0,1,.08-.17.24.24,0,0,1,.18-.07.24.24,0,0,1,.25.19l.78,2h0l.75-2a.23.23,0,0,1,.24-.19.25.25,0,0,1,.19.07.25.25,0,0,1,.06.17v.07s0,0,0,.06l-1.12,2.91a4.27,4.27,0,0,1-.2.42,1.32,1.32,0,0,1-.21.25.57.57,0,0,1-.23.12,1.35,1.35,0,0,1-.29,0Z"/><path class="cls-2" d="M197.61,23.25a.24.24,0,0,1,.06-.18.25.25,0,0,1,.19-.07H200a.28.28,0,0,1,.2.08.21.21,0,0,1,.08.17.26.26,0,0,1-.08.19.27.27,0,0,1-.2.07H198.2a0,0,0,0,0,0,0v1.24s0,0,0,0h1.54a.28.28,0,0,1,.2.08.27.27,0,0,1,0,.36.28.28,0,0,1-.2.08H198.2s0,0,0,0v1.28a0,0,0,0,0,0,0H200a.28.28,0,0,1,.2.08.21.21,0,0,1,.08.17.26.26,0,0,1-.08.19.27.27,0,0,1-.2.07h-2.18a.29.29,0,0,1-.19-.06.28.28,0,0,1-.06-.18Z"/><path class="cls-2" d="M203.12,27.23a.25.25,0,0,1-.19-.07.27.27,0,0,1-.07-.2v-.08h0a.71.71,0,0,1-.31.28,1.26,1.26,0,0,1-1.18-.08,1.07,1.07,0,0,1-.39-.55,2.33,2.33,0,0,1-.08-.36,3.1,3.1,0,0,1,0-.45,3,3,0,0,1,0-.44,2.33,2.33,0,0,1,.08-.36,1.07,1.07,0,0,1,.39-.55,1.26,1.26,0,0,1,1.18-.08.77.77,0,0,1,.31.28h0V23.25a.28.28,0,0,1,.07-.21.29.29,0,0,1,.19-.07.32.32,0,0,1,.19.07.28.28,0,0,1,.07.21V27a.27.27,0,0,1-.07.2A.26.26,0,0,1,203.12,27.23Zm-1-.44a.7.7,0,0,0,.42-.12.71.71,0,0,0,.24-.34.81.81,0,0,0,.05-.27,3.11,3.11,0,0,0,0-.34,2.92,2.92,0,0,0,0-.33.76.76,0,0,0-.05-.27.66.66,0,0,0-.24-.34.8.8,0,0,0-.84,0,.66.66,0,0,0-.24.34,1.07,1.07,0,0,0-.06.27c0,.09,0,.2,0,.33s0,.25,0,.34a1.18,1.18,0,0,0,.06.27.71.71,0,0,0,.24.34A.7.7,0,0,0,202.13,26.79Z"/><path class="cls-2" d="M206.68,27a.27.27,0,0,1-.07.2.25.25,0,0,1-.19.07.26.26,0,0,1-.19-.07.27.27,0,0,1-.07-.2v-.09h0a.79.79,0,0,1-.31.29,1.13,1.13,0,0,1-.51.11,1,1,0,0,1-.76-.3,1.17,1.17,0,0,1-.27-.81V24.49a.26.26,0,0,1,.07-.2.27.27,0,0,1,.19-.08.26.26,0,0,1,.26.28V26a.82.82,0,0,0,.17.55.6.6,0,0,0,.5.2.66.66,0,0,0,.49-.2.71.71,0,0,0,.18-.52V24.49a.26.26,0,0,1,.07-.2.27.27,0,0,1,.19-.08.26.26,0,0,1,.26.28Z"/><path class="cls-2" d="M208.74,27.27a1.4,1.4,0,0,1-.75-.2,1.12,1.12,0,0,1-.43-.6,2.05,2.05,0,0,1-.07-.31,2.85,2.85,0,0,1,0-.44,2.72,2.72,0,0,1,0-.43,2.21,2.21,0,0,1,.07-.32,1.09,1.09,0,0,1,.43-.59,1.32,1.32,0,0,1,.75-.2,1.26,1.26,0,0,1,.57.12,1.2,1.2,0,0,1,.38.31.34.34,0,0,1,.08.19.19.19,0,0,1-.07.16.2.2,0,0,1-.16.07.2.2,0,0,1-.13,0,.28.28,0,0,1-.1-.09,1,1,0,0,0-.24-.17.67.67,0,0,0-.33-.07.79.79,0,0,0-.42.11.61.61,0,0,0-.25.35,1.09,1.09,0,0,0,0,.26,3.28,3.28,0,0,0,0,.34,3.11,3.11,0,0,0,0,.34,1.08,1.08,0,0,0,0,.27.65.65,0,0,0,.25.35.79.79,0,0,0,.42.11.67.67,0,0,0,.33-.07.8.8,0,0,0,.24-.18l.1-.09a.28.28,0,0,1,.13,0,.23.23,0,0,1,.16.06.22.22,0,0,1,.07.17.34.34,0,0,1-.08.19,1.2,1.2,0,0,1-.38.31A1.26,1.26,0,0,1,208.74,27.27Z"/><path class="cls-2" d="M212.86,26.84a.28.28,0,0,1,0,.15.21.21,0,0,1-.07.17.27.27,0,0,1-.2.07.27.27,0,0,1-.23-.13l-.12-.18h0a1.08,1.08,0,0,1-.37.26,1.47,1.47,0,0,1-.55.09,1.19,1.19,0,0,1-.78-.23.92.92,0,0,1,0-1.35,1.42,1.42,0,0,1,.86-.22h.68a0,0,0,0,0,0,0v-.14a.69.69,0,0,0-.16-.48.74.74,0,0,0-.56-.17,1,1,0,0,0-.34.05,1.18,1.18,0,0,0-.27.1.34.34,0,0,1-.15,0,.24.24,0,0,1-.17-.06.21.21,0,0,1-.06-.16.27.27,0,0,1,0-.12.18.18,0,0,1,.1-.09,1.28,1.28,0,0,1,.37-.16,2.12,2.12,0,0,1,.54-.06,1.26,1.26,0,0,1,.89.27,1.13,1.13,0,0,1,.28.83v1.07a.72.72,0,0,0,0,.17.38.38,0,0,0,0,.13Zm-1.43,0a.93.93,0,0,0,.56-.15.54.54,0,0,0,.2-.43v-.33s0,0,0,0h-.6A1,1,0,0,0,211,26a.46.46,0,0,0,0,.71A.76.76,0,0,0,211.43,26.83Z"/><path class="cls-2" d="M214.73,27.27a1.34,1.34,0,0,1-.74-.2,1.08,1.08,0,0,1-.44-.6,2.05,2.05,0,0,1-.07-.31,3,3,0,0,1,0-.44,2.82,2.82,0,0,1,0-.43,2.21,2.21,0,0,1,.07-.32,1.06,1.06,0,0,1,.44-.59,1.26,1.26,0,0,1,.74-.2,1.23,1.23,0,0,1,.57.12,1.2,1.2,0,0,1,.38.31.34.34,0,0,1,.08.19.24.24,0,0,1-.23.23.2.2,0,0,1-.13,0,.41.41,0,0,1-.1-.09.81.81,0,0,0-.24-.17.67.67,0,0,0-.33-.07.82.82,0,0,0-.42.11.61.61,0,0,0-.25.35,2,2,0,0,0-.05.26,3.28,3.28,0,0,0,0,.34,3.11,3.11,0,0,0,0,.34,1.86,1.86,0,0,0,.05.27.65.65,0,0,0,.25.35.82.82,0,0,0,.42.11.67.67,0,0,0,.33-.07.69.69,0,0,0,.24-.18l.1-.09a.28.28,0,0,1,.13,0,.21.21,0,0,1,.16.06.22.22,0,0,1,.07.17.34.34,0,0,1-.08.19,1.2,1.2,0,0,1-.38.31A1.23,1.23,0,0,1,214.73,27.27Z"/><path class="cls-2" d="M216.78,23.65a.33.33,0,0,1-.24-.1.31.31,0,0,1-.1-.24.34.34,0,0,1,.34-.34.33.33,0,0,1,.25.1.37.37,0,0,1,.1.24.35.35,0,0,1-.1.24A.33.33,0,0,1,216.78,23.65Zm-.26.84a.26.26,0,0,1,.08-.2.25.25,0,0,1,.18-.08.26.26,0,0,1,.19.08.26.26,0,0,1,.08.2V27a.28.28,0,0,1-.08.2.25.25,0,0,1-.19.07.24.24,0,0,1-.18-.07.28.28,0,0,1-.08-.2Z"/><path class="cls-2" d="M219.11,27.27a1.3,1.3,0,0,1-.75-.21,1,1,0,0,1-.43-.59,1.67,1.67,0,0,1-.08-.32,2.69,2.69,0,0,1,0-.43,2.75,2.75,0,0,1,0-.43,1.87,1.87,0,0,1,.08-.32,1.08,1.08,0,0,1,.43-.59,1.29,1.29,0,0,1,.75-.2,1.26,1.26,0,0,1,.74.2,1.14,1.14,0,0,1,.44.59c0,.11.05.21.07.32a2.63,2.63,0,0,1,0,.43,2.54,2.54,0,0,1,0,.43,3,3,0,0,1-.07.32,1.11,1.11,0,0,1-.44.59A1.27,1.27,0,0,1,219.11,27.27Zm0-.48a.74.74,0,0,0,.42-.12.66.66,0,0,0,.25-.34,2.38,2.38,0,0,0,.05-.26,3.07,3.07,0,0,0,0-.7,2.21,2.21,0,0,0-.05-.25.62.62,0,0,0-.25-.34.74.74,0,0,0-.42-.12.75.75,0,0,0-.43.12.62.62,0,0,0-.25.34,2.21,2.21,0,0,0-.05.25,3.07,3.07,0,0,0,0,.7,2.38,2.38,0,0,0,.05.26.66.66,0,0,0,.25.34A.75.75,0,0,0,219.11,26.79Zm0-3a.25.25,0,0,1-.15,0,.2.2,0,0,1-.06-.15.37.37,0,0,1,.05-.15l.35-.53a.2.2,0,0,1,.18-.1.25.25,0,0,1,.15.05.18.18,0,0,1,.07.15.3.3,0,0,1-.05.15l-.37.53A.19.19,0,0,1,219.13,23.81Z"/><path class="cls-2" d="M221.17,24.49a.26.26,0,0,1,.26-.28.25.25,0,0,1,.18.08.26.26,0,0,1,.08.2v.09h0a.79.79,0,0,1,.31-.29,1.08,1.08,0,0,1,.52-.11,1,1,0,0,1,.76.3,1.13,1.13,0,0,1,.28.81V27a.28.28,0,0,1-.08.2.24.24,0,0,1-.18.07.25.25,0,0,1-.19-.07A.28.28,0,0,1,223,27V25.41a.82.82,0,0,0-.16-.55.6.6,0,0,0-.5-.2.66.66,0,0,0-.5.19.72.72,0,0,0-.19.53V27a.28.28,0,0,1-.08.2.24.24,0,0,1-.18.07.25.25,0,0,1-.19-.07.27.27,0,0,1-.07-.2Z"/><path class="cls-2" d="M118.35,11.23a2.83,2.83,0,0,1-.9-.14,3.32,3.32,0,0,1-.68-.33.35.35,0,0,1-.16-.29.29.29,0,0,1,.08-.22.32.32,0,0,1,.24-.09.42.42,0,0,1,.21.06,2.46,2.46,0,0,0,.59.28,1.81,1.81,0,0,0,.67.12,1.31,1.31,0,0,0,.84-.24.74.74,0,0,0,.3-.62.73.73,0,0,0-.05-.3.6.6,0,0,0-.17-.23,1,1,0,0,0-.33-.18,2.75,2.75,0,0,0-.51-.12l-.25,0a2.15,2.15,0,0,1-1.14-.45,1.26,1.26,0,0,1-.36-.95,1.54,1.54,0,0,1,.11-.61,1.28,1.28,0,0,1,.34-.46,1.63,1.63,0,0,1,.52-.29,2.08,2.08,0,0,1,.69-.11,3,3,0,0,1,.76.1,2.33,2.33,0,0,1,.59.25.32.32,0,0,1,.18.28.29.29,0,0,1-.09.22.32.32,0,0,1-.21.08.22.22,0,0,1-.11,0l-.11,0a4.09,4.09,0,0,0-.49-.18,2.35,2.35,0,0,0-.54-.07,1,1,0,0,0-.73.23.78.78,0,0,0-.24.59.87.87,0,0,0,0,.28.66.66,0,0,0,.18.23,1.07,1.07,0,0,0,.32.18,2.16,2.16,0,0,0,.51.11l.24,0a2.15,2.15,0,0,1,1.15.46,1.27,1.27,0,0,1,.37,1,1.46,1.46,0,0,1-.12.6,1.2,1.2,0,0,1-.35.48,1.84,1.84,0,0,1-.59.32A2.78,2.78,0,0,1,118.35,11.23Z"/><path class="cls-2" d="M124,10.85a.33.33,0,0,1-.09.25.29.29,0,0,1-.22.09.32.32,0,0,1-.23-.09.33.33,0,0,1-.09-.25v-.1h0a1,1,0,0,1-.38.34,1.36,1.36,0,0,1-1.52-.22,1.39,1.39,0,0,1-.33-1v-2a.32.32,0,0,1,.09-.24.32.32,0,0,1,.23-.09.29.29,0,0,1,.22.09.32.32,0,0,1,.09.24V9.75a1.11,1.11,0,0,0,.19.67.88.88,0,0,0,1.19,0,.88.88,0,0,0,.22-.63V7.89a.32.32,0,0,1,.09-.24.32.32,0,0,1,.23-.09.29.29,0,0,1,.22.09.32.32,0,0,1,.09.24Z"/><path class="cls-2" d="M125.43,11.19a.29.29,0,0,1-.22-.09.33.33,0,0,1-.09-.25V6.4a.32.32,0,0,1,.09-.24.29.29,0,0,1,.22-.09.32.32,0,0,1,.23.09.32.32,0,0,1,.09.24V8h0a1,1,0,0,1,.37-.34,1.37,1.37,0,0,1,.65-.13,1.26,1.26,0,0,1,.78.23,1.3,1.3,0,0,1,.46.66,2.05,2.05,0,0,1,.09.43,4,4,0,0,1,0,.53,3.71,3.71,0,0,1,0,.53,2.15,2.15,0,0,1-.09.44,1.39,1.39,0,0,1-.46.66,1.33,1.33,0,0,1-.78.23,1.37,1.37,0,0,1-.65-.13.94.94,0,0,1-.37-.34h0v.09a.33.33,0,0,1-.09.25A.32.32,0,0,1,125.43,11.19Zm1.19-.54a.87.87,0,0,0,.5-.14.88.88,0,0,0,.29-.41,1.65,1.65,0,0,0,.07-.32c0-.12,0-.25,0-.41s0-.29,0-.4a1.65,1.65,0,0,0-.07-.32.83.83,0,0,0-.29-.41.91.91,0,0,0-1,0,.77.77,0,0,0-.29.41,1.14,1.14,0,0,0-.07.32c0,.11,0,.25,0,.4s0,.29,0,.41a1.14,1.14,0,0,0,.07.32.81.81,0,0,0,.29.41A.87.87,0,0,0,126.62,10.65Z"/><path class="cls-2" d="M130.28,11.23a2.17,2.17,0,0,1-.74-.12,2.66,2.66,0,0,1-.56-.27.31.31,0,0,1-.15-.26.3.3,0,0,1,.08-.2.32.32,0,0,1,.21-.08h.1l.11,0a2.77,2.77,0,0,0,.46.22,1.54,1.54,0,0,0,.55.1,1,1,0,0,0,.59-.15.47.47,0,0,0,.19-.39A.4.4,0,0,0,131,9.8a1.09,1.09,0,0,0-.56-.16l-.38,0a1.37,1.37,0,0,1-.8-.32A.88.88,0,0,1,129,8.6a1,1,0,0,1,.35-.8,1.49,1.49,0,0,1,1-.28,2.22,2.22,0,0,1,.59.07,1.72,1.72,0,0,1,.48.19.28.28,0,0,1,.19.25.26.26,0,0,1-.08.19.24.24,0,0,1-.19.08.56.56,0,0,1-.23-.06,2.32,2.32,0,0,0-.37-.13,1.51,1.51,0,0,0-.42,0,.8.8,0,0,0-.51.13.46.46,0,0,0-.17.36.4.4,0,0,0,.15.33,1.26,1.26,0,0,0,.55.15l.38,0a1.38,1.38,0,0,1,.82.31.94.94,0,0,1,.26.69,1.05,1.05,0,0,1-.38.85A1.63,1.63,0,0,1,130.28,11.23Z"/><path class="cls-2" d="M134,11.23a1.56,1.56,0,0,1-.92-.25,1.27,1.27,0,0,1-.52-.71,2.11,2.11,0,0,1-.09-.38,3.64,3.64,0,0,1,0-.52,3.64,3.64,0,0,1,0-.52,1.51,1.51,0,0,1,.08-.38,1.27,1.27,0,0,1,.52-.71,1.57,1.57,0,0,1,.88-.24,1.59,1.59,0,0,1,.9.24,1.31,1.31,0,0,1,.51.7,2.73,2.73,0,0,1,.12.87.23.23,0,0,1-.07.17.24.24,0,0,1-.18.06h-2.1a0,0,0,0,0,0,0c0,.08,0,.16,0,.22a1.6,1.6,0,0,0,.05.21.9.9,0,0,0,.34.46,1.05,1.05,0,0,0,.57.15,1.31,1.31,0,0,0,.46-.07,2.05,2.05,0,0,0,.4-.23.37.37,0,0,1,.22-.09.24.24,0,0,1,.26.26.28.28,0,0,1-.1.22,1.86,1.86,0,0,1-1.29.49Zm.79-2.16a0,0,0,0,0,0-.05,1.12,1.12,0,0,0-.06-.4.79.79,0,0,0-.3-.41,1,1,0,0,0-1,0,.79.79,0,0,0-.3.41,1.12,1.12,0,0,0-.06.4,0,0,0,0,0,0,.05Z"/><path class="cls-2" d="M137.74,11.23a1.6,1.6,0,0,1-.89-.24,1.31,1.31,0,0,1-.53-.72,2.49,2.49,0,0,1-.08-.38,3.84,3.84,0,0,1,0-.52,3.94,3.94,0,0,1,0-.52,3.14,3.14,0,0,1,.08-.38,1.29,1.29,0,0,1,.53-.71,1.6,1.6,0,0,1,.89-.24,1.47,1.47,0,0,1,.69.15,1.38,1.38,0,0,1,.45.36.45.45,0,0,1,.09.23.27.27,0,0,1-.07.2.3.3,0,0,1-.2.08.24.24,0,0,1-.15,0,.45.45,0,0,1-.13-.11,1.08,1.08,0,0,0-.28-.21.82.82,0,0,0-.4-.09.89.89,0,0,0-.5.14.74.74,0,0,0-.3.42,2.38,2.38,0,0,0-.07.31c0,.12,0,.25,0,.41s0,.29,0,.41a2.55,2.55,0,0,0,.07.32.82.82,0,0,0,.3.42.89.89,0,0,0,.5.13.82.82,0,0,0,.4-.08,1.08,1.08,0,0,0,.28-.21.45.45,0,0,1,.13-.11.24.24,0,0,1,.15,0,.26.26,0,0,1,.2.08.25.25,0,0,1,.07.19.37.37,0,0,1-.09.23,1.28,1.28,0,0,1-.45.37A1.47,1.47,0,0,1,137.74,11.23Z"/><path class="cls-2" d="M140.2,11.19a.29.29,0,0,1-.22-.09.33.33,0,0,1-.09-.25v-3a.32.32,0,0,1,.09-.24.29.29,0,0,1,.22-.09.32.32,0,0,1,.23.09.32.32,0,0,1,.09.24v.17h0a1,1,0,0,1,.35-.39,1.06,1.06,0,0,1,.58-.15,1.35,1.35,0,0,1,.31,0l.22.09a.3.3,0,0,1,.18.27.29.29,0,0,1-.09.22.3.3,0,0,1-.23.09.34.34,0,0,1-.15,0l-.21-.06a.66.66,0,0,0-.21,0,.62.62,0,0,0-.58.3,1.53,1.53,0,0,0-.17.74v1.72a.33.33,0,0,1-.09.25A.32.32,0,0,1,140.2,11.19Z"/><path class="cls-2" d="M144.07,11.23a1.56,1.56,0,0,1-.92-.25,1.27,1.27,0,0,1-.52-.71,2.11,2.11,0,0,1-.09-.38,3.64,3.64,0,0,1,0-.52,3.64,3.64,0,0,1,0-.52,1.51,1.51,0,0,1,.08-.38,1.27,1.27,0,0,1,.52-.71,1.57,1.57,0,0,1,.88-.24,1.59,1.59,0,0,1,.9.24,1.31,1.31,0,0,1,.51.7,2.73,2.73,0,0,1,.12.87.23.23,0,0,1-.07.17.24.24,0,0,1-.18.06h-2.1a0,0,0,0,0,0,0c0,.08,0,.16,0,.22a1.6,1.6,0,0,0,.05.21.9.9,0,0,0,.34.46,1.05,1.05,0,0,0,.57.15,1.31,1.31,0,0,0,.46-.07,2.05,2.05,0,0,0,.4-.23.37.37,0,0,1,.22-.09.24.24,0,0,1,.26.26.28.28,0,0,1-.1.22,1.86,1.86,0,0,1-1.29.49Zm.79-2.16a0,0,0,0,0,0-.05,1.12,1.12,0,0,0-.06-.4.79.79,0,0,0-.3-.41,1,1,0,0,0-1,0,.79.79,0,0,0-.3.41,1.12,1.12,0,0,0-.06.4,0,0,0,0,0,0,.05Z"/><path class="cls-2" d="M147.57,11.19a1,1,0,0,1-.78-.25,1.16,1.16,0,0,1-.23-.8v-2s0-.05,0-.05h-.21a.24.24,0,0,1-.19-.07.24.24,0,0,1-.07-.18.23.23,0,0,1,.07-.18.24.24,0,0,1,.19-.07h.21s0,0,0,0V6.77a.32.32,0,0,1,.09-.24.32.32,0,0,1,.23-.09.29.29,0,0,1,.22.09.32.32,0,0,1,.09.24v.78a0,0,0,0,0,.05,0h.47a.27.27,0,0,1,.2.07.27.27,0,0,1,.07.18.29.29,0,0,1-.07.18.27.27,0,0,1-.2.07h-.47a0,0,0,0,0-.05.05v2a.4.4,0,0,0,.48.49.32.32,0,0,1,.23.08.29.29,0,0,1,.08.21.32.32,0,0,1-.08.21.38.38,0,0,1-.26.08Z"/><path class="cls-2" d="M151.68,10.71a.41.41,0,0,1,0,.18.29.29,0,0,1-.09.21.32.32,0,0,1-.23.09.36.36,0,0,1-.28-.16l-.14-.22h0a1.25,1.25,0,0,1-.44.31,1.78,1.78,0,0,1-.66.11,1.41,1.41,0,0,1-.94-.28,1,1,0,0,1-.33-.79,1,1,0,0,1,.37-.82,1.72,1.72,0,0,1,1-.27h.81a0,0,0,0,0,0-.05V8.85a.82.82,0,0,0-.2-.58.91.91,0,0,0-.66-.2,1.4,1.4,0,0,0-.41.06,1.54,1.54,0,0,0-.33.12.49.49,0,0,1-.18.05.27.27,0,0,1-.2-.07.3.3,0,0,1-.07-.2.27.27,0,0,1,0-.14.29.29,0,0,1,.11-.11,2.43,2.43,0,0,1,.45-.19,2.49,2.49,0,0,1,.65-.07,1.46,1.46,0,0,1,1.06.33,1.31,1.31,0,0,1,.34,1v1.28a1.06,1.06,0,0,0,0,.21.88.88,0,0,0,.05.15Zm-1.71,0a1.08,1.08,0,0,0,.66-.18.61.61,0,0,0,.25-.52V9.61a0,0,0,0,0,0,0h-.72a1.26,1.26,0,0,0-.67.14.47.47,0,0,0-.22.44.48.48,0,0,0,.2.42A1,1,0,0,0,150,10.7Z"/><path class="cls-2" d="M152.93,11.19a.32.32,0,0,1-.23-.09.33.33,0,0,1-.09-.25v-3a.32.32,0,0,1,.09-.24.32.32,0,0,1,.23-.09.29.29,0,0,1,.22.09.32.32,0,0,1,.09.24v.17h0a.94.94,0,0,1,.35-.39,1.05,1.05,0,0,1,.57-.15,1.45,1.45,0,0,1,.32,0l.22.09a.31.31,0,0,1,.17.27.29.29,0,0,1-.08.22.32.32,0,0,1-.23.09.37.37,0,0,1-.16,0l-.2-.06a.66.66,0,0,0-.21,0,.62.62,0,0,0-.58.3,1.42,1.42,0,0,0-.18.74v1.72a.33.33,0,0,1-.09.25A.29.29,0,0,1,152.93,11.19Z"/><path class="cls-2" d="M155.59,7.89a.32.32,0,0,1,.09-.24.29.29,0,0,1,.22-.09.32.32,0,0,1,.23.09.32.32,0,0,1,.09.24v3a.33.33,0,0,1-.09.25.32.32,0,0,1-.23.09.29.29,0,0,1-.22-.09.33.33,0,0,1-.09-.25Zm.34-.81a.24.24,0,0,1-.18-.07.24.24,0,0,1-.06-.17.35.35,0,0,1,.05-.18l.42-.64a.25.25,0,0,1,.22-.12.24.24,0,0,1,.18.07.21.21,0,0,1,.08.17.32.32,0,0,1-.06.18l-.44.64A.26.26,0,0,1,155.93,7.08Z"/><path class="cls-2" d="M160.26,10.71a.41.41,0,0,1,.05.18.29.29,0,0,1-.09.21.32.32,0,0,1-.23.09.34.34,0,0,1-.28-.16l-.14-.22h0a1.25,1.25,0,0,1-.44.31,1.82,1.82,0,0,1-.66.11,1.39,1.39,0,0,1-.94-.28,1,1,0,0,1-.33-.79,1,1,0,0,1,.36-.82,1.74,1.74,0,0,1,1-.27h.82s0,0,0-.05V8.85a.81.81,0,0,0-.19-.58.92.92,0,0,0-.67-.2,1.45,1.45,0,0,0-.41.06,1.44,1.44,0,0,0-.32.12.49.49,0,0,1-.18.05.24.24,0,0,1-.27-.27.39.39,0,0,1,0-.14.26.26,0,0,1,.12-.11,2.06,2.06,0,0,1,.44-.19,2.54,2.54,0,0,1,.65-.07,1.49,1.49,0,0,1,1.07.33,1.31,1.31,0,0,1,.34,1v1.28a1.06,1.06,0,0,0,0,.21.44.44,0,0,0,0,.15Zm-1.71,0a1.08,1.08,0,0,0,.66-.18.63.63,0,0,0,.24-.52V9.61s0,0,0,0h-.72a1.3,1.3,0,0,0-.68.14.49.49,0,0,0-.21.44.47.47,0,0,0,.19.42A1,1,0,0,0,158.55,10.7Z"/><path class="cls-2" d="M165.42,11.19a.32.32,0,0,1-.23-.09.33.33,0,0,1-.09-.25v-.09h0a.82.82,0,0,1-.37.34,1.52,1.52,0,0,1-1.42-.1,1.32,1.32,0,0,1-.46-.66,2.16,2.16,0,0,1-.1-.44,3.89,3.89,0,0,1,0-.53,4.11,4.11,0,0,1,0-.53,2.07,2.07,0,0,1,.1-.43,1.22,1.22,0,0,1,1.24-.89,1.3,1.3,0,0,1,.64.13.88.88,0,0,1,.37.34h0V6.4a.32.32,0,0,1,.09-.24.32.32,0,0,1,.23-.09.29.29,0,0,1,.22.09.32.32,0,0,1,.09.24v4.45a.33.33,0,0,1-.09.25A.29.29,0,0,1,165.42,11.19Zm-1.19-.54a.87.87,0,0,0,.5-.14.88.88,0,0,0,.29-.41,1.65,1.65,0,0,0,.07-.32c0-.12,0-.25,0-.41s0-.29,0-.4a1.65,1.65,0,0,0-.07-.32.83.83,0,0,0-.29-.41.91.91,0,0,0-1,0,.77.77,0,0,0-.29.41,1.14,1.14,0,0,0-.07.32c0,.11,0,.25,0,.4s0,.29,0,.41a1.14,1.14,0,0,0,.07.32.81.81,0,0,0,.29.41A.87.87,0,0,0,164.23,10.65Z"/><path class="cls-2" d="M168.23,11.23a1.61,1.61,0,0,1-.93-.25,1.3,1.3,0,0,1-.51-.71,2.11,2.11,0,0,1-.09-.38,3.64,3.64,0,0,1,0-.52c0-.21,0-.39,0-.52a2.11,2.11,0,0,1,.09-.38,1.27,1.27,0,0,1,.52-.71,1.57,1.57,0,0,1,.88-.24,1.61,1.61,0,0,1,.9.24,1.31,1.31,0,0,1,.51.7,2.73,2.73,0,0,1,.12.87.23.23,0,0,1-.07.17.24.24,0,0,1-.18.06h-2.1a0,0,0,0,0-.05,0c0,.08,0,.16,0,.22a1.6,1.6,0,0,0,.05.21.85.85,0,0,0,.34.46,1,1,0,0,0,.57.15,1.31,1.31,0,0,0,.46-.07,2.39,2.39,0,0,0,.4-.23.35.35,0,0,1,.22-.09.24.24,0,0,1,.18.07.27.27,0,0,1,.08.19.28.28,0,0,1-.1.22,1.86,1.86,0,0,1-1.29.49ZM169,9.07s0,0,0-.05a1.15,1.15,0,0,0-.05-.4.79.79,0,0,0-.3-.41.89.89,0,0,0-.52-.15.86.86,0,0,0-.52.15.81.81,0,0,0-.31.41,1.45,1.45,0,0,0-.05.4,0,0,0,0,0,.05.05Z"/><path class="cls-2" d="M172.4,6.4a.25.25,0,0,1,.08-.21.26.26,0,0,1,.22-.08h1.57a2.13,2.13,0,0,1,.69.1,1.62,1.62,0,0,1,.51.31,1.23,1.23,0,0,1,.32.48,1.54,1.54,0,0,1,.11.61,1.51,1.51,0,0,1-.11.61,1.23,1.23,0,0,1-.32.48A1.32,1.32,0,0,1,175,9a2.12,2.12,0,0,1-.69.11h-1.16s-.05,0-.05,0v1.67a.35.35,0,0,1-.08.26.3.3,0,0,1-.24.1.32.32,0,0,1-.25-.1.36.36,0,0,1-.09-.26Zm1.85,2.1a1,1,0,0,0,.73-.24.8.8,0,0,0,.26-.65A.82.82,0,0,0,175,7a1,1,0,0,0-.73-.24h-1.14a0,0,0,0,0-.05,0V8.46s0,0,.05,0Z"/><path class="cls-2" d="M178,11.23a1.56,1.56,0,0,1-.9-.25,1.3,1.3,0,0,1-.52-.71,2.34,2.34,0,0,1-.09-.38,3.74,3.74,0,0,1,0-.52,3.49,3.49,0,0,1,0-.51,2.46,2.46,0,0,1,.09-.39,1.34,1.34,0,0,1,.52-.71,1.63,1.63,0,0,1,.9-.24,1.6,1.6,0,0,1,.89.24,1.34,1.34,0,0,1,.52.71,2.46,2.46,0,0,1,.09.39,3.49,3.49,0,0,1,0,.51,3.74,3.74,0,0,1,0,.52,2.34,2.34,0,0,1-.09.38,1.3,1.3,0,0,1-.52.71A1.53,1.53,0,0,1,178,11.23Zm0-.58a.93.93,0,0,0,.51-.14.83.83,0,0,0,.3-.41,1.7,1.7,0,0,0,.06-.31c0-.11,0-.25,0-.42s0-.31,0-.42a1.59,1.59,0,0,0-.06-.3.79.79,0,0,0-.3-.41.94.94,0,0,0-1,0,.79.79,0,0,0-.3.41c0,.1-.05.2-.07.3s0,.25,0,.42,0,.31,0,.42,0,.21.07.31a.83.83,0,0,0,.3.41A.93.93,0,0,0,178,10.65Z"/><path class="cls-2" d="M181.35,11.19a.84.84,0,0,1-.68-.24,1.07,1.07,0,0,1-.2-.71V6.4a.32.32,0,0,1,.09-.24.32.32,0,0,1,.23-.09.29.29,0,0,1,.22.09.32.32,0,0,1,.09.24v3.8a.54.54,0,0,0,.08.32.34.34,0,0,0,.27.09.27.27,0,0,1,.29.29.32.32,0,0,1-.08.21.36.36,0,0,1-.24.08Z"/><path class="cls-2" d="M182.5,7.89a.32.32,0,0,1,.09-.24.32.32,0,0,1,.23-.09.29.29,0,0,1,.22.09.32.32,0,0,1,.09.24v3a.33.33,0,0,1-.09.25.29.29,0,0,1-.22.09.32.32,0,0,1-.23-.09.33.33,0,0,1-.09-.25Zm.35-.81a.21.21,0,0,1-.18-.07.21.21,0,0,1-.07-.17.49.49,0,0,1,.05-.18l.42-.64a.27.27,0,0,1,.23-.12.24.24,0,0,1,.18.07.21.21,0,0,1,.07.17.32.32,0,0,1-.06.18l-.43.64A.26.26,0,0,1,182.85,7.08Z"/><path class="cls-2" d="M185.37,11.19a1,1,0,0,1-.78-.25,1.16,1.16,0,0,1-.23-.8v-2s0-.05,0-.05h-.21a.24.24,0,0,1-.19-.07.25.25,0,0,1-.08-.18.26.26,0,0,1,.27-.25h.21s0,0,0,0V6.77a.32.32,0,0,1,.09-.24.32.32,0,0,1,.23-.09.29.29,0,0,1,.22.09.32.32,0,0,1,.09.24v.78a0,0,0,0,0,0,0h.47a.27.27,0,0,1,.2.07.27.27,0,0,1,.07.18.29.29,0,0,1-.07.18.27.27,0,0,1-.2.07H185a0,0,0,0,0,0,.05v2a.4.4,0,0,0,.48.49.32.32,0,0,1,.23.08.3.3,0,0,1,0,.42.36.36,0,0,1-.25.08Z"/><path class="cls-2" d="M186.91,6.88a.38.38,0,0,1-.29-.11.4.4,0,0,1-.12-.29.41.41,0,0,1,.41-.41.4.4,0,0,1,.29.12.38.38,0,0,1,.12.29.4.4,0,0,1-.12.29A.39.39,0,0,1,186.91,6.88Zm-.32,1a.32.32,0,0,1,.09-.24.32.32,0,0,1,.23-.09.29.29,0,0,1,.22.09.32.32,0,0,1,.09.24v3a.33.33,0,0,1-.09.25.29.29,0,0,1-.22.09.32.32,0,0,1-.23-.09.33.33,0,0,1-.09-.25Z"/><path class="cls-2" d="M189.69,11.23a1.6,1.6,0,0,1-.89-.24,1.31,1.31,0,0,1-.53-.72,2.49,2.49,0,0,1-.08-.38,3.84,3.84,0,0,1,0-.52,3.94,3.94,0,0,1,0-.52,3.14,3.14,0,0,1,.08-.38,1.29,1.29,0,0,1,.53-.71,1.6,1.6,0,0,1,.89-.24,1.47,1.47,0,0,1,.69.15,1.38,1.38,0,0,1,.45.36.45.45,0,0,1,.09.23.24.24,0,0,1-.08.2.26.26,0,0,1-.19.08.24.24,0,0,1-.15,0,.45.45,0,0,1-.13-.11,1,1,0,0,0-.29-.21.75.75,0,0,0-.39-.09.89.89,0,0,0-.5.14.74.74,0,0,0-.3.42,1.41,1.41,0,0,0-.07.31c0,.12,0,.25,0,.41s0,.29,0,.41a1.5,1.5,0,0,0,.07.32.82.82,0,0,0,.3.42.89.89,0,0,0,.5.13.75.75,0,0,0,.39-.08,1,1,0,0,0,.29-.21.45.45,0,0,1,.13-.11.24.24,0,0,1,.15,0,.27.27,0,0,1,.27.27.37.37,0,0,1-.09.23,1.28,1.28,0,0,1-.45.37A1.47,1.47,0,0,1,189.69,11.23Z"/><path class="cls-2" d="M194.63,10.71a.31.31,0,0,1,.05.18.29.29,0,0,1-.09.21.3.3,0,0,1-.23.09.36.36,0,0,1-.28-.16l-.14-.22h0a1.17,1.17,0,0,1-.44.31,1.75,1.75,0,0,1-.66.11,1.38,1.38,0,0,1-.93-.28,1,1,0,0,1-.33-.79,1,1,0,0,1,.36-.82,1.72,1.72,0,0,1,1-.27h.81a0,0,0,0,0,.05-.05V8.85a.82.82,0,0,0-.2-.58.91.91,0,0,0-.66-.2,1.4,1.4,0,0,0-.41.06,1.78,1.78,0,0,0-.33.12.49.49,0,0,1-.18.05.24.24,0,0,1-.19-.07.26.26,0,0,1-.08-.2.43.43,0,0,1,0-.14.29.29,0,0,1,.11-.11,2.43,2.43,0,0,1,.45-.19,2.49,2.49,0,0,1,.65-.07,1.51,1.51,0,0,1,1.07.33,1.35,1.35,0,0,1,.34,1v1.28a1.22,1.22,0,0,0,0,.21.88.88,0,0,0,.05.15Zm-1.71,0a1.13,1.13,0,0,0,.67-.18.63.63,0,0,0,.24-.52V9.61a0,0,0,0,0-.05,0h-.71a1.3,1.3,0,0,0-.68.14.47.47,0,0,0-.22.44.48.48,0,0,0,.2.42A1,1,0,0,0,192.92,10.7Z"/><path class="cls-2" d="M196.78,11.23a2.17,2.17,0,0,1-.74-.12,2.44,2.44,0,0,1-.56-.27.31.31,0,0,1-.15-.26.3.3,0,0,1,.08-.2.32.32,0,0,1,.21-.08h.09l.12,0a2.43,2.43,0,0,0,.46.22,1.53,1.53,0,0,0,.54.1,1,1,0,0,0,.59-.15.47.47,0,0,0,.2-.39.43.43,0,0,0-.14-.34,1.09,1.09,0,0,0-.56-.16l-.38,0a1.37,1.37,0,0,1-.8-.32.88.88,0,0,1-.27-.68,1,1,0,0,1,.34-.8,1.52,1.52,0,0,1,1-.28,2.15,2.15,0,0,1,.58.07,1.67,1.67,0,0,1,.49.19.28.28,0,0,1,.18.25.25.25,0,0,1-.07.19.26.26,0,0,1-.2.08.56.56,0,0,1-.22-.06,2.43,2.43,0,0,0-.38-.13,1.4,1.4,0,0,0-.41,0,.8.8,0,0,0-.51.13.44.44,0,0,0-.18.36.4.4,0,0,0,.15.33,1.32,1.32,0,0,0,.56.15l.37,0a1.32,1.32,0,0,1,.82.31.9.9,0,0,1,.26.69,1,1,0,0,1-.37.85A1.65,1.65,0,0,1,196.78,11.23Z"/><path class="cls-2" d="M116.82,14.71a.28.28,0,0,1,.07-.21.3.3,0,0,1,.23-.09h1.29a1.71,1.71,0,0,1,1.84,1.15,2.58,2.58,0,0,1,.08.26c0,.08,0,.18,0,.28l0,.36v.95l0,.36c0,.11,0,.2,0,.29a1.83,1.83,0,0,1-.08.25,1.71,1.71,0,0,1-1.84,1.15h-1.29a.34.34,0,0,1-.23-.08.32.32,0,0,1-.07-.22Zm.66,4.09s0,0,0,0h.84a1.57,1.57,0,0,0,.81-.17,1,1,0,0,0,.43-.58,1.6,1.6,0,0,0,0-.21,1.5,1.5,0,0,0,0-.24,2.69,2.69,0,0,0,0-.31c0-.11,0-.25,0-.39s0-.28,0-.4a2.69,2.69,0,0,0,0-.31,1.5,1.5,0,0,0,0-.24,1.17,1.17,0,0,0,0-.2,1,1,0,0,0-.43-.59,1.68,1.68,0,0,0-.81-.17h-.84a0,0,0,0,0,0,0Z"/><path class="cls-2" d="M122.71,19.54a1.51,1.51,0,0,1-.89-.25,1.34,1.34,0,0,1-.52-.71,2.23,2.23,0,0,1-.09-.39,4.35,4.35,0,0,1,0-1,2.23,2.23,0,0,1,.09-.39,1.3,1.3,0,0,1,.52-.71,1.58,1.58,0,0,1,.89-.25,1.64,1.64,0,0,1,.9.25,1.36,1.36,0,0,1,.52.71,2.23,2.23,0,0,1,.09.39,4.35,4.35,0,0,1,0,1,2.23,2.23,0,0,1-.09.39,1.4,1.4,0,0,1-.52.71A1.56,1.56,0,0,1,122.71,19.54Zm0-.58a.93.93,0,0,0,.51-.14.82.82,0,0,0,.3-.42,1.45,1.45,0,0,0,.06-.3,2.56,2.56,0,0,0,0-.42,2.49,2.49,0,0,0,0-.42,1.59,1.59,0,0,0-.06-.3.75.75,0,0,0-.3-.41.94.94,0,0,0-1,0,.75.75,0,0,0-.3.41,1.59,1.59,0,0,0-.06.3c0,.11,0,.24,0,.42s0,.31,0,.42a1.45,1.45,0,0,0,.06.3.82.82,0,0,0,.3.42A.93.93,0,0,0,122.71,19Z"/><path class="cls-2" d="M126.49,19.54a1.62,1.62,0,0,1-.89-.24,1.33,1.33,0,0,1-.52-.72,1.8,1.8,0,0,1-.08-.38,3.84,3.84,0,0,1,0-.52,3.94,3.94,0,0,1,0-.52,2,2,0,0,1,.08-.38,1.27,1.27,0,0,1,.52-.71,1.63,1.63,0,0,1,.89-.25,1.35,1.35,0,0,1,.69.16,1.42,1.42,0,0,1,.46.36.42.42,0,0,1,.09.23.27.27,0,0,1-.28.28.42.42,0,0,1-.15,0l-.12-.11a1.23,1.23,0,0,0-.29-.22,1,1,0,0,0-.9.06.74.74,0,0,0-.3.42,1.42,1.42,0,0,0-.06.31c0,.11,0,.25,0,.41s0,.29,0,.41a1.31,1.31,0,0,0,.06.31.74.74,0,0,0,.3.42.84.84,0,0,0,.5.14.92.92,0,0,0,.4-.08,1.23,1.23,0,0,0,.29-.22.53.53,0,0,1,.12-.1.28.28,0,0,1,.15,0,.27.27,0,0,1,.2.07.3.3,0,0,1,.08.2.4.4,0,0,1-.09.23,1.44,1.44,0,0,1-.46.37A1.47,1.47,0,0,1,126.49,19.54Z"/><path class="cls-2" d="M130,19.54a1.61,1.61,0,0,1-.93-.25,1.3,1.3,0,0,1-.51-.71,2.11,2.11,0,0,1-.09-.38,3.64,3.64,0,0,1,0-.52c0-.21,0-.39,0-.52a1.93,1.93,0,0,1,.09-.38,1.27,1.27,0,0,1,.52-.71,1.57,1.57,0,0,1,.88-.25,1.64,1.64,0,0,1,.9.25,1.31,1.31,0,0,1,.51.7,2.7,2.7,0,0,1,.12.86.21.21,0,0,1-.07.17.21.21,0,0,1-.18.07h-2.1a0,0,0,0,0-.05.05,1.55,1.55,0,0,0,0,.22,1.6,1.6,0,0,0,0,.21.85.85,0,0,0,.34.46A1,1,0,0,0,130,19a1.11,1.11,0,0,0,.46-.08,1.78,1.78,0,0,0,.4-.22.35.35,0,0,1,.22-.09.24.24,0,0,1,.18.07.26.26,0,0,1,.08.19.28.28,0,0,1-.1.22,1.92,1.92,0,0,1-.55.35A1.88,1.88,0,0,1,130,19.54Zm.79-2.17s0,0,0,0a1.15,1.15,0,0,0,0-.4.75.75,0,0,0-.3-.41.89.89,0,0,0-.52-.15.86.86,0,0,0-.52.15.72.72,0,0,0-.31.41,1.45,1.45,0,0,0-.05.4s0,0,.05,0Z"/><path class="cls-2" d="M132.4,16.2a.32.32,0,0,1,.09-.24.32.32,0,0,1,.23-.09.29.29,0,0,1,.22.09.32.32,0,0,1,.09.24v.11h0a1,1,0,0,1,.38-.35,1.33,1.33,0,0,1,.63-.14,1.19,1.19,0,0,1,.91.37,1.37,1.37,0,0,1,.33,1v2a.33.33,0,0,1-.09.25.31.31,0,0,1-.23.08.29.29,0,0,1-.22-.08.33.33,0,0,1-.09-.25V17.31a1,1,0,0,0-.2-.67.73.73,0,0,0-.6-.24.78.78,0,0,0-.6.24.85.85,0,0,0-.23.63v1.89a.33.33,0,0,1-.09.25.29.29,0,0,1-.22.08.31.31,0,0,1-.23-.08.33.33,0,0,1-.09-.25Z"/><path class="cls-2" d="M137.48,19.49a1,1,0,0,1-.78-.24,1.16,1.16,0,0,1-.22-.8v-2a0,0,0,0,0,0,0h-.21a.27.27,0,0,1-.2-.07.29.29,0,0,1-.07-.18A.25.25,0,0,1,136,16a.27.27,0,0,1,.2-.07h.21a0,0,0,0,0,0-.05v-.78a.32.32,0,0,1,.09-.24.29.29,0,0,1,.22-.09.32.32,0,0,1,.23.09.32.32,0,0,1,.09.24v.78s0,.05,0,.05h.48a.24.24,0,0,1,.19.07.22.22,0,0,1,.08.18.25.25,0,0,1-.08.18.24.24,0,0,1-.19.07h-.48s0,0,0,0v2a.54.54,0,0,0,.1.38.51.51,0,0,0,.38.11.3.3,0,0,1,.23.08.29.29,0,0,1,.08.21.25.25,0,0,1-.09.2.32.32,0,0,1-.25.08Z"/><path class="cls-2" d="M140.06,19.54a1.61,1.61,0,0,1-.93-.25,1.32,1.32,0,0,1-.52-.71,2.11,2.11,0,0,1-.09-.38c0-.13,0-.31,0-.52a3.87,3.87,0,0,1,0-.52,1.93,1.93,0,0,1,.09-.38,1.3,1.3,0,0,1,.51-.71,1.6,1.6,0,0,1,.89-.25,1.58,1.58,0,0,1,.89.25,1.28,1.28,0,0,1,.52.7,2.7,2.7,0,0,1,.12.86.24.24,0,0,1-.25.24h-2.11s0,0,0,.05a1.55,1.55,0,0,0,0,.22.8.8,0,0,0,0,.21.85.85,0,0,0,.34.46,1,1,0,0,0,.57.15,1.14,1.14,0,0,0,.46-.08,1.78,1.78,0,0,0,.4-.22.32.32,0,0,1,.21-.09.25.25,0,0,1,.19.07.26.26,0,0,1,.08.19.32.32,0,0,1-.1.22,2.06,2.06,0,0,1-.55.35A1.88,1.88,0,0,1,140.06,19.54Zm.79-2.17s0,0,0,0a1.45,1.45,0,0,0,0-.4.75.75,0,0,0-.3-.41.91.91,0,0,0-.52-.15.92.92,0,0,0-.53.15.75.75,0,0,0-.3.41,1.45,1.45,0,0,0-.05.4s0,0,0,0Z"/><path class="cls-2" d="M143.69,19.54a2.19,2.19,0,0,1-.75-.12,2.66,2.66,0,0,1-.56-.27.31.31,0,0,1-.15-.26.27.27,0,0,1,.09-.2.24.24,0,0,1,.2-.08h.1l.11.05a2.77,2.77,0,0,0,.46.22,1.55,1.55,0,0,0,.55.09,1.07,1.07,0,0,0,.59-.14.47.47,0,0,0,.2-.39.43.43,0,0,0-.14-.34,1.12,1.12,0,0,0-.57-.17l-.37,0a1.37,1.37,0,0,1-.81-.32.93.93,0,0,1-.26-.68,1,1,0,0,1,.34-.8,1.51,1.51,0,0,1,1-.29,2.73,2.73,0,0,1,.59.07,2.09,2.09,0,0,1,.48.19.29.29,0,0,1,.19.26.26.26,0,0,1-.08.19.27.27,0,0,1-.19.08.49.49,0,0,1-.22-.06,2.43,2.43,0,0,0-.38-.13,1.47,1.47,0,0,0-.42-.05.84.84,0,0,0-.51.13.44.44,0,0,0-.17.35.41.41,0,0,0,.15.34,1.26,1.26,0,0,0,.55.15l.38,0a1.35,1.35,0,0,1,.82.32.94.94,0,0,1,.26.69,1.07,1.07,0,0,1-.37.84A1.65,1.65,0,0,1,143.69,19.54Z"/><path class="cls-2" d="M148,20.79a.28.28,0,0,1-.23-.08.29.29,0,0,1-.08-.21.28.28,0,0,1,.08-.2.29.29,0,0,1,.23-.09.61.61,0,0,0,.36-.1,1,1,0,0,0,.26-.43l.12-.33-1.22-3,0-.08v-.07a.26.26,0,0,1,.09-.21.33.33,0,0,1,.22-.08.29.29,0,0,1,.3.22l.94,2.46h0l.9-2.46a.29.29,0,0,1,.29-.22.34.34,0,0,1,.23.08.29.29,0,0,1,.08.21.17.17,0,0,1,0,.07.24.24,0,0,1,0,.08l-1.35,3.5a4.68,4.68,0,0,1-.23.49,1.11,1.11,0,0,1-.25.3.67.67,0,0,1-.29.15,1.18,1.18,0,0,1-.34,0Z"/><path class="cls-2" d="M153,18.35a2.29,2.29,0,0,1-.07-.28c0-.09,0-.19,0-.3s0-.23,0-.36v-.94c0-.14,0-.26,0-.37s0-.21,0-.3a2.68,2.68,0,0,1,.07-.27,1.73,1.73,0,0,1,.63-.89,1.87,1.87,0,0,1,1.09-.31,2,2,0,0,1,1,.23,1.37,1.37,0,0,1,.6.59.37.37,0,0,1,0,.2.29.29,0,0,1-.3.3.33.33,0,0,1-.3-.18,1.15,1.15,0,0,0-1-.52,1.08,1.08,0,0,0-.7.21,1.21,1.21,0,0,0-.37.57,1.05,1.05,0,0,0,0,.19,1.87,1.87,0,0,0,0,.25,3.08,3.08,0,0,0,0,.33c0,.12,0,.27,0,.44s0,.31,0,.43a2.92,2.92,0,0,0,0,.33,1.64,1.64,0,0,0,0,.25,1.17,1.17,0,0,0,0,.2,1.23,1.23,0,0,0,.37.56,1.08,1.08,0,0,0,.7.21,1.31,1.31,0,0,0,.71-.18,1,1,0,0,0,.4-.57,1.35,1.35,0,0,0,.08-.36c0-.13,0-.26,0-.38a0,0,0,0,0,0-.05h-.77a.32.32,0,0,1-.24-.09.29.29,0,0,1-.09-.22.31.31,0,0,1,.09-.22.36.36,0,0,1,.24-.08h1.18a.27.27,0,0,1,.22.08.28.28,0,0,1,.09.22v.14c0,.18,0,.38,0,.58a2.47,2.47,0,0,1-.11.53,1.75,1.75,0,0,1-.63.91,1.85,1.85,0,0,1-1.1.31,1.8,1.8,0,0,1-1.09-.31A1.7,1.7,0,0,1,153,18.35Z"/><path class="cls-2" d="M159,19.54a1.61,1.61,0,0,1-.93-.25,1.3,1.3,0,0,1-.51-.71,2.11,2.11,0,0,1-.09-.38,3.64,3.64,0,0,1,0-.52c0-.21,0-.39,0-.52a1.93,1.93,0,0,1,.09-.38,1.27,1.27,0,0,1,.52-.71,1.57,1.57,0,0,1,.88-.25,1.64,1.64,0,0,1,.9.25,1.31,1.31,0,0,1,.51.7,2.7,2.7,0,0,1,.12.86.21.21,0,0,1-.07.17.21.21,0,0,1-.18.07h-2.1a0,0,0,0,0-.05.05c0,.08,0,.15,0,.22a1.6,1.6,0,0,0,.05.21.85.85,0,0,0,.34.46A1,1,0,0,0,159,19a1.11,1.11,0,0,0,.46-.08,1.78,1.78,0,0,0,.4-.22.35.35,0,0,1,.22-.09.24.24,0,0,1,.18.07.26.26,0,0,1,.08.19.28.28,0,0,1-.1.22,1.92,1.92,0,0,1-.55.35A1.88,1.88,0,0,1,159,19.54Zm.79-2.17s0,0,0,0a1.15,1.15,0,0,0-.05-.4.75.75,0,0,0-.3-.41.89.89,0,0,0-.52-.15.86.86,0,0,0-.52.15.72.72,0,0,0-.31.41,1.45,1.45,0,0,0-.05.4s0,0,.05,0Z"/><path class="cls-2" d="M162.58,19.54a2.23,2.23,0,0,1-.75-.12,2.35,2.35,0,0,1-.55-.27.29.29,0,0,1-.15-.26.26.26,0,0,1,.08-.2.25.25,0,0,1,.21-.08h.09l.12.05a2.35,2.35,0,0,0,.45.22,1.59,1.59,0,0,0,.55.09,1,1,0,0,0,.59-.14.47.47,0,0,0,.2-.39.43.43,0,0,0-.14-.34,1.09,1.09,0,0,0-.57-.17l-.37,0a1.34,1.34,0,0,1-.8-.32.9.9,0,0,1-.27-.68,1,1,0,0,1,.34-.8,1.51,1.51,0,0,1,1-.29,2.73,2.73,0,0,1,.59.07,2.09,2.09,0,0,1,.48.19.29.29,0,0,1,.19.26.22.22,0,0,1-.08.19.26.26,0,0,1-.19.08.52.52,0,0,1-.22-.06,2.43,2.43,0,0,0-.38-.13,1.42,1.42,0,0,0-.42-.05.84.84,0,0,0-.51.13.44.44,0,0,0-.17.35.41.41,0,0,0,.15.34,1.32,1.32,0,0,0,.56.15l.37,0a1.33,1.33,0,0,1,.82.32.94.94,0,0,1,.26.69,1,1,0,0,1-.37.84A1.65,1.65,0,0,1,162.58,19.54Z"/><path class="cls-2" d="M166,19.49a1,1,0,0,1-.78-.24,1.16,1.16,0,0,1-.22-.8v-2s0,0,0,0h-.2a.26.26,0,0,1-.2-.07.24.24,0,0,1-.07-.18.21.21,0,0,1,.07-.18.26.26,0,0,1,.2-.07h.2a0,0,0,0,0,0-.05v-.78a.32.32,0,0,1,.09-.24.31.31,0,0,1,.44,0,.32.32,0,0,1,.09.24v.78a0,0,0,0,0,.05.05h.47a.26.26,0,0,1,.2.07.21.21,0,0,1,.07.18.24.24,0,0,1-.07.18.26.26,0,0,1-.2.07h-.47s-.05,0-.05,0v2a.6.6,0,0,0,.1.38.52.52,0,0,0,.38.11.28.28,0,0,1,.23.08.29.29,0,0,1,.08.21.28.28,0,0,1-.08.2.34.34,0,0,1-.26.08Z"/><path class="cls-2" d="M167.58,15.19a.4.4,0,0,1-.29-.12.36.36,0,0,1-.12-.28.38.38,0,0,1,.12-.29.4.4,0,0,1,.29-.12.41.41,0,0,1,.41.41.36.36,0,0,1-.12.28A.38.38,0,0,1,167.58,15.19Zm-.31,1a.32.32,0,0,1,.09-.24.29.29,0,0,1,.22-.09.32.32,0,0,1,.23.09.32.32,0,0,1,.09.24v3a.33.33,0,0,1-.09.25.31.31,0,0,1-.23.08.29.29,0,0,1-.22-.08.33.33,0,0,1-.09-.25Z"/><path class="cls-2" d="M170.37,19.54a1.56,1.56,0,0,1-.9-.25,1.4,1.4,0,0,1-.52-.71,2.23,2.23,0,0,1-.09-.39,4.35,4.35,0,0,1,0-1,2.23,2.23,0,0,1,.09-.39,1.36,1.36,0,0,1,.52-.71,1.64,1.64,0,0,1,.9-.25,1.58,1.58,0,0,1,.89.25,1.3,1.3,0,0,1,.52.71,2.23,2.23,0,0,1,.09.39,4.35,4.35,0,0,1,0,1,2.23,2.23,0,0,1-.09.39,1.34,1.34,0,0,1-.52.71A1.51,1.51,0,0,1,170.37,19.54Zm0-.58a.93.93,0,0,0,.51-.14.82.82,0,0,0,.3-.42,1.45,1.45,0,0,0,.06-.3c0-.11,0-.25,0-.42s0-.31,0-.42a1.59,1.59,0,0,0-.06-.3.75.75,0,0,0-.3-.41.94.94,0,0,0-1,0,.75.75,0,0,0-.3.41,1.59,1.59,0,0,0-.06.3,2.49,2.49,0,0,0,0,.42,2.56,2.56,0,0,0,0,.42,1.45,1.45,0,0,0,.06.3.82.82,0,0,0,.3.42A.93.93,0,0,0,170.37,19Zm0-3.57a.25.25,0,0,1-.18-.07.21.21,0,0,1-.07-.17.45.45,0,0,1,0-.18l.42-.64a.27.27,0,0,1,.23-.12.28.28,0,0,1,.18.06.23.23,0,0,1,.07.17.35.35,0,0,1-.06.19l-.43.64A.26.26,0,0,1,170.4,15.39Z"/><path class="cls-2" d="M172.84,16.2a.32.32,0,0,1,.09-.24.32.32,0,0,1,.23-.09.29.29,0,0,1,.22.09.32.32,0,0,1,.09.24v.11h0a.93.93,0,0,1,.38-.35,1.32,1.32,0,0,1,.62-.14,1.2,1.2,0,0,1,.92.37,1.42,1.42,0,0,1,.32,1v2a.33.33,0,0,1-.09.25.34.34,0,0,1-.44,0,.33.33,0,0,1-.09-.25V17.31a1,1,0,0,0-.2-.67.76.76,0,0,0-.61-.24.78.78,0,0,0-.59.24.85.85,0,0,0-.23.63v1.89a.33.33,0,0,1-.09.25.29.29,0,0,1-.22.08.31.31,0,0,1-.23-.08.33.33,0,0,1-.09-.25Z"/><path class="cls-2" d="M181.45,14.41a.32.32,0,0,1,.24.09.32.32,0,0,1,.09.23.29.29,0,0,1-.09.21.32.32,0,0,1-.24.09h-1.18a0,0,0,0,0,0,0v4.07a.36.36,0,0,1-.09.26.32.32,0,0,1-.24.09.37.37,0,0,1-.25-.09.36.36,0,0,1-.09-.26V15.07a0,0,0,0,0,0,0h-1.18a.32.32,0,0,1-.24-.09.29.29,0,0,1-.09-.21.32.32,0,0,1,.09-.23.32.32,0,0,1,.24-.09Z"/><path class="cls-2" d="M183.12,19.54a1.57,1.57,0,0,1-.93-.25,1.27,1.27,0,0,1-.52-.71,2.11,2.11,0,0,1-.09-.38,4.52,4.52,0,0,1,0-1,1.93,1.93,0,0,1,.09-.38,1.3,1.3,0,0,1,.51-.71,1.6,1.6,0,0,1,.89-.25,1.58,1.58,0,0,1,.89.25,1.31,1.31,0,0,1,.51.7,2.7,2.7,0,0,1,.12.86.24.24,0,0,1-.06.17.24.24,0,0,1-.18.07h-2.11s0,0,0,.05a1.55,1.55,0,0,0,0,.22.8.8,0,0,0,0,.21.89.89,0,0,0,.33.46,1.05,1.05,0,0,0,.57.15,1.08,1.08,0,0,0,.46-.08,1.44,1.44,0,0,0,.4-.22.37.37,0,0,1,.22-.09.24.24,0,0,1,.26.26.31.31,0,0,1-.09.22,2.06,2.06,0,0,1-.55.35A1.91,1.91,0,0,1,183.12,19.54Zm.79-2.17a0,0,0,0,0,0,0,1.45,1.45,0,0,0,0-.4.72.72,0,0,0-.31-.41.86.86,0,0,0-.52-.15.91.91,0,0,0-.52.15.75.75,0,0,0-.3.41,1.15,1.15,0,0,0-.05.4s0,0,0,0Z"/><path class="cls-2" d="M185.85,19.49a.31.31,0,0,1-.23-.08.33.33,0,0,1-.09-.25v-3a.32.32,0,0,1,.09-.24.32.32,0,0,1,.23-.09.31.31,0,0,1,.22.09.32.32,0,0,1,.09.24v.17h0a.87.87,0,0,1,.35-.39.94.94,0,0,1,.57-.16,1.3,1.3,0,0,1,.31,0l.22.09a.29.29,0,0,1,.18.27.29.29,0,0,1-.09.22.28.28,0,0,1-.22.09.34.34,0,0,1-.16,0l-.2-.06a.76.76,0,0,0-.21,0,.61.61,0,0,0-.58.3,1.4,1.4,0,0,0-.18.74v1.72a.33.33,0,0,1-.09.25A.3.3,0,0,1,185.85,19.49Z"/><path class="cls-2" d="M188.82,19.49a.31.31,0,0,1-.23-.08.33.33,0,0,1-.09-.25v-3a.32.32,0,0,1,.09-.24.32.32,0,0,1,.23-.09A.29.29,0,0,1,189,16a.32.32,0,0,1,.09.24v.17h0a.94.94,0,0,1,.35-.39,1,1,0,0,1,.57-.16,1.39,1.39,0,0,1,.32,0l.21.09a.29.29,0,0,1,.18.27.33.33,0,0,1-.08.22.32.32,0,0,1-.23.09.34.34,0,0,1-.16,0l-.2-.06a.66.66,0,0,0-.21,0,.62.62,0,0,0-.58.3,1.4,1.4,0,0,0-.18.74v1.72a.33.33,0,0,1-.09.25A.29.29,0,0,1,188.82,19.49Z"/><path class="cls-2" d="M191.79,15.19a.4.4,0,0,1-.29-.12.36.36,0,0,1-.12-.28.38.38,0,0,1,.12-.29.4.4,0,0,1,.29-.12.37.37,0,0,1,.29.12.39.39,0,0,1,.13.29.43.43,0,0,1-.42.4Zm-.31,1a.32.32,0,0,1,.09-.24.29.29,0,0,1,.22-.09A.32.32,0,0,1,192,16a.32.32,0,0,1,.09.24v3a.33.33,0,0,1-.09.25.31.31,0,0,1-.23.08.29.29,0,0,1-.22-.08.33.33,0,0,1-.09-.25Z"/><path class="cls-2" d="M194.34,19.49a1,1,0,0,1-.78-.24,1.16,1.16,0,0,1-.22-.8v-2s0,0-.05,0h-.2a.26.26,0,0,1-.2-.07.24.24,0,0,1-.07-.18.21.21,0,0,1,.07-.18.26.26,0,0,1,.2-.07h.2a0,0,0,0,0,.05-.05v-.78a.32.32,0,0,1,.09-.24.29.29,0,0,1,.22-.09.32.32,0,0,1,.23.09.32.32,0,0,1,.09.24v.78s0,.05,0,.05h.47a.26.26,0,0,1,.2.07.21.21,0,0,1,.07.18.24.24,0,0,1-.07.18.26.26,0,0,1-.2.07H194s0,0,0,0v2a.6.6,0,0,0,.09.38.52.52,0,0,0,.38.11.28.28,0,0,1,.23.08.25.25,0,0,1,.08.21.28.28,0,0,1-.08.2.34.34,0,0,1-.26.08Z"/><path class="cls-2" d="M196.89,19.54a1.56,1.56,0,0,1-.9-.25,1.34,1.34,0,0,1-.52-.71,2.23,2.23,0,0,1-.09-.39,4.35,4.35,0,0,1,0-1,2.23,2.23,0,0,1,.09-.39,1.3,1.3,0,0,1,.52-.71,1.64,1.64,0,0,1,.9-.25,1.58,1.58,0,0,1,.89.25,1.3,1.3,0,0,1,.52.71,2.23,2.23,0,0,1,.09.39,4.35,4.35,0,0,1,0,1,2.23,2.23,0,0,1-.09.39,1.34,1.34,0,0,1-.52.71A1.51,1.51,0,0,1,196.89,19.54Zm0-.58a.93.93,0,0,0,.51-.14.82.82,0,0,0,.3-.42,1.45,1.45,0,0,0,.06-.3c0-.11,0-.25,0-.42s0-.31,0-.42a1.59,1.59,0,0,0-.06-.3.75.75,0,0,0-.3-.41.94.94,0,0,0-1,0,.75.75,0,0,0-.3.41c0,.1-.05.2-.07.3s0,.24,0,.42,0,.31,0,.42a2.64,2.64,0,0,0,.07.3.82.82,0,0,0,.3.42A.93.93,0,0,0,196.89,19Z"/><path class="cls-2" d="M199.67,19.49a.29.29,0,0,1-.22-.08.33.33,0,0,1-.09-.25v-3a.32.32,0,0,1,.09-.24.29.29,0,0,1,.22-.09.32.32,0,0,1,.23.09.32.32,0,0,1,.09.24v.17h0a.91.91,0,0,1,.34-.39,1,1,0,0,1,.58-.16,1.3,1.3,0,0,1,.31,0l.22.09a.29.29,0,0,1,.18.27.29.29,0,0,1-.09.22.29.29,0,0,1-.23.09.34.34,0,0,1-.15,0l-.21-.06a.64.64,0,0,0-.2,0,.64.64,0,0,0-.59.3,1.5,1.5,0,0,0-.17.74v1.72a.33.33,0,0,1-.09.25A.31.31,0,0,1,199.67,19.49Z"/><path class="cls-2" d="M202.65,15.19a.38.38,0,0,1-.29-.12.36.36,0,0,1-.12-.28.41.41,0,0,1,.41-.41.4.4,0,0,1,.29.12.38.38,0,0,1,.12.29.36.36,0,0,1-.12.28A.4.4,0,0,1,202.65,15.19Zm-.32,1a.32.32,0,0,1,.09-.24.32.32,0,0,1,.23-.09.29.29,0,0,1,.22.09.32.32,0,0,1,.09.24v3a.33.33,0,0,1-.09.25.29.29,0,0,1-.22.08.31.31,0,0,1-.23-.08.33.33,0,0,1-.09-.25Z"/><path class="cls-2" d="M207,19a.31.31,0,0,1,.05.18.29.29,0,0,1-.09.21.3.3,0,0,1-.23.08.35.35,0,0,1-.28-.15l-.14-.22h0a1.29,1.29,0,0,1-.44.31,1.75,1.75,0,0,1-.66.11,1.38,1.38,0,0,1-.93-.28,1,1,0,0,1-.33-.79,1,1,0,0,1,.36-.83,1.72,1.72,0,0,1,1-.27h.81s0,0,0,0v-.17a.8.8,0,0,0-.2-.58.91.91,0,0,0-.66-.2,1.4,1.4,0,0,0-.41.06,1.27,1.27,0,0,0-.33.12.49.49,0,0,1-.18.05.27.27,0,0,1-.2-.07.3.3,0,0,1-.07-.2.25.25,0,0,1,0-.14.29.29,0,0,1,.11-.11,1.9,1.9,0,0,1,.45-.19,2.46,2.46,0,0,1,.65-.08,1.42,1.42,0,0,1,1.06.34,1.31,1.31,0,0,1,.35,1v1.28a1.22,1.22,0,0,0,0,.21.88.88,0,0,0,.05.15Zm-1.71,0a1.07,1.07,0,0,0,.67-.19.6.6,0,0,0,.24-.51v-.39a0,0,0,0,0,0-.05h-.72a1.26,1.26,0,0,0-.67.14.47.47,0,0,0-.22.44.48.48,0,0,0,.2.42A1,1,0,0,0,205.29,19Z"/><path class="cls-2" d="M208.8,19.49a.82.82,0,0,1-.68-.23,1.07,1.07,0,0,1-.2-.71V14.71a.32.32,0,0,1,.09-.24.32.32,0,0,1,.23-.09.29.29,0,0,1,.22.09.32.32,0,0,1,.09.24v3.8a.48.48,0,0,0,.08.31.31.31,0,0,0,.27.1.25.25,0,0,1,.21.08.29.29,0,0,1,.08.21.28.28,0,0,1-.08.2.32.32,0,0,1-.24.08Z"/><path class="cls-2" d="M.39,12a.33.33,0,0,1,.1-.27.38.38,0,0,1,.28-.11H2a2.3,2.3,0,0,1,1.19.27,1.45,1.45,0,0,1,.64.84l.06.24a1.93,1.93,0,0,1,0,.27c0,.1,0,.22,0,.35s0,.28,0,.45,0,.33,0,.46,0,.24,0,.34a1.88,1.88,0,0,1,0,.28l-.06.23a1.45,1.45,0,0,1-.64.85A2.3,2.3,0,0,1,2,16.43H.77a.41.41,0,0,1-.28-.1.37.37,0,0,1-.1-.28Zm.84,3.67s0,0,.05,0h.64a1.41,1.41,0,0,0,.69-.15A.85.85,0,0,0,3,15a1.62,1.62,0,0,0,.07-.38,5.25,5.25,0,0,0,0-.64,5.06,5.06,0,0,0,0-.63A1.71,1.71,0,0,0,3,13a.85.85,0,0,0-.37-.49,1.41,1.41,0,0,0-.69-.15H1.28s-.05,0-.05,0Z"/><path class="cls-2" d="M4.84,12a.4.4,0,0,1,.42-.44.45.45,0,0,1,.31.11.44.44,0,0,1,.11.33v4a.4.4,0,0,1-.11.32.41.41,0,0,1-.31.12A.41.41,0,0,1,4.84,16Z"/><path class="cls-2" d="M9.83,16.46a.43.43,0,0,1-.41-.26l-.88-1.73h-.9s0,0,0,0V16a.44.44,0,0,1-.11.32.41.41,0,0,1-.31.12A.41.41,0,0,1,6.75,16V12a.37.37,0,0,1,.1-.27.38.38,0,0,1,.28-.11H8.7a1.7,1.7,0,0,1,.61.11A1.59,1.59,0,0,1,9.8,12a1.39,1.39,0,0,1,.33.46,1.59,1.59,0,0,1,.11.59,1.35,1.35,0,0,1-.23.8,1.48,1.48,0,0,1-.63.5l.79,1.48a.55.55,0,0,1,.07.25.39.39,0,0,1-.11.28A.41.41,0,0,1,9.83,16.46ZM8.67,13.71a.8.8,0,0,0,.54-.18.67.67,0,0,0,.2-.5.68.68,0,0,0-.2-.51.8.8,0,0,0-.54-.18h-1s0,0,0,0v1.29s0,0,0,0Z"/><path class="cls-2" d="M11.16,12a.37.37,0,0,1,.1-.27.38.38,0,0,1,.28-.11H14a.46.46,0,0,1,.32.11.39.39,0,0,1,0,.54.46.46,0,0,1-.32.11h-1.9s-.05,0-.05,0v1.18s0,0,.05,0H13.6a.43.43,0,0,1,.31.11.36.36,0,0,1,0,.54.43.43,0,0,1-.31.11H12.05s-.05,0-.05,0v1.23s0,0,.05,0H14a.46.46,0,0,1,.32.11.39.39,0,0,1,0,.54.46.46,0,0,1-.32.11H11.54a.38.38,0,0,1-.28-.11.41.41,0,0,1-.1-.27Z"/><path class="cls-2" d="M15.22,15.34c0-.09-.05-.17-.07-.25a1.93,1.93,0,0,1,0-.27,3.49,3.49,0,0,1,0-.35c0-.13,0-.29,0-.47s0-.33,0-.46a3.49,3.49,0,0,1,0-.35,1.93,1.93,0,0,1,0-.27c0-.08,0-.16.07-.25a1.61,1.61,0,0,1,.62-.87,1.79,1.79,0,0,1,1.06-.3,1.7,1.7,0,0,1,.89.22,1.42,1.42,0,0,1,.57.57.63.63,0,0,1,.07.25.38.38,0,0,1-.39.38.41.41,0,0,1-.19-.05.76.76,0,0,1-.18-.18,1,1,0,0,0-.32-.32.79.79,0,0,0-.45-.11.82.82,0,0,0-.56.17.9.9,0,0,0-.31.46.85.85,0,0,0,0,.17s0,.12,0,.21,0,.18,0,.3,0,.26,0,.43,0,.32,0,.44,0,.22,0,.3,0,.15,0,.21a.75.75,0,0,0,0,.16.93.93,0,0,0,.31.47.87.87,0,0,0,.56.17.88.88,0,0,0,.45-.11.92.92,0,0,0,.32-.33.7.7,0,0,1,.18-.17.32.32,0,0,1,.19-.05.4.4,0,0,1,.28.1.39.39,0,0,1,.11.28.55.55,0,0,1-.07.24,1.39,1.39,0,0,1-.57.58,2,2,0,0,1-1.95-.08A1.61,1.61,0,0,1,15.22,15.34Z"/><path class="cls-2" d="M19.25,15.34l-.06-.25a1.93,1.93,0,0,1,0-.27,3.49,3.49,0,0,1,0-.35c0-.13,0-.29,0-.47s0-.33,0-.46a3.49,3.49,0,0,1,0-.35,1.93,1.93,0,0,1,0-.27l.06-.25a1.66,1.66,0,0,1,.62-.87,1.85,1.85,0,0,1,1.07-.3,1.7,1.7,0,0,1,.89.22,1.42,1.42,0,0,1,.57.57.63.63,0,0,1,.07.25.38.38,0,0,1-.39.38.41.41,0,0,1-.19-.05.76.76,0,0,1-.18-.18,1,1,0,0,0-.32-.32.79.79,0,0,0-.45-.11.82.82,0,0,0-.56.17.9.9,0,0,0-.31.46.85.85,0,0,0,0,.17s0,.12,0,.21,0,.18,0,.3,0,.26,0,.43,0,.32,0,.44,0,.22,0,.3,0,.15,0,.21a.75.75,0,0,0,0,.16.93.93,0,0,0,.31.47.87.87,0,0,0,.56.17.88.88,0,0,0,.45-.11.92.92,0,0,0,.32-.33.7.7,0,0,1,.18-.17.32.32,0,0,1,.19-.05.4.4,0,0,1,.28.1.39.39,0,0,1,.11.28.55.55,0,0,1-.07.24,1.39,1.39,0,0,1-.57.58,1.8,1.8,0,0,1-.89.21,1.84,1.84,0,0,1-1.07-.29A1.66,1.66,0,0,1,19.25,15.34Z"/><path class="cls-2" d="M23.3,12a.4.4,0,0,1,.42-.44.42.42,0,0,1,.3.11.45.45,0,0,1,.12.33v4a.41.41,0,0,1-.12.32.39.39,0,0,1-.3.12A.41.41,0,0,1,23.3,16Z"/><path class="cls-2" d="M25.07,14v-.45c0-.13,0-.25,0-.35a1.26,1.26,0,0,1,0-.28c0-.08,0-.17.07-.26a1.52,1.52,0,0,1,.63-.86,1.84,1.84,0,0,1,1.06-.3,1.86,1.86,0,0,1,1.08.3,1.61,1.61,0,0,1,.63.86c0,.09.05.18.07.26a2.36,2.36,0,0,1,0,.28,3.49,3.49,0,0,1,0,.35c0,.13,0,.28,0,.45s0,.33,0,.46a3.28,3.28,0,0,1,0,.34,2.26,2.26,0,0,1,0,.29,2.33,2.33,0,0,1-.07.25,1.6,1.6,0,0,1-.63.87,1.85,1.85,0,0,1-1.08.29,1.83,1.83,0,0,1-1.06-.29,1.51,1.51,0,0,1-.63-.87,2.33,2.33,0,0,1-.07-.25,1.27,1.27,0,0,1,0-.29c0-.1,0-.21,0-.34Zm2.82,0v-.41c0-.12,0-.22,0-.31s0-.16,0-.22,0-.12,0-.17a1,1,0,0,0-.32-.46.85.85,0,0,0-.58-.17.88.88,0,0,0-.57.17,1,1,0,0,0-.31.46s0,.11-.05.17a1.38,1.38,0,0,0,0,.22,2.69,2.69,0,0,0,0,.31c0,.11,0,.25,0,.41s0,.3,0,.42a2.36,2.36,0,0,0,0,.3,1.27,1.27,0,0,0,0,.22c0,.07,0,.12.05.17a1,1,0,0,0,.31.47.94.94,0,0,0,.57.17.91.91,0,0,0,.58-.17,1,1,0,0,0,.32-.47s0-.1,0-.17,0-.13,0-.22,0-.18,0-.3Zm-.8-3.9a.32.32,0,0,1,.25-.12.35.35,0,0,1,.22.08.27.27,0,0,1,.1.22.33.33,0,0,1-.1.25l-.42.45a.4.4,0,0,1-.27.14.29.29,0,0,1-.21-.09.28.28,0,0,1-.08-.2.39.39,0,0,1,.1-.26Z"/><path class="cls-2" d="M29.68,12.05a.53.53,0,0,1,.12-.37.48.48,0,0,1,.35-.13.45.45,0,0,1,.31.1,1,1,0,0,1,.25.31l1.78,3h0V12a.43.43,0,0,1,.11-.31.44.44,0,0,1,.56,0,.43.43,0,0,1,.11.31v4a.55.55,0,0,1-.13.37.45.45,0,0,1-.34.13.49.49,0,0,1-.32-.1,1.45,1.45,0,0,1-.25-.31l-1.77-3h0v3a.37.37,0,0,1-.11.3.33.33,0,0,1-.27.11.34.34,0,0,1-.28-.11.37.37,0,0,1-.11-.3Z"/><path class="cls-2" d="M36.06,12a.33.33,0,0,1,.1-.27.36.36,0,0,1,.28-.11h1.19a2.3,2.3,0,0,1,1.19.27,1.5,1.5,0,0,1,.64.84l.06.24c0,.08,0,.17,0,.27s0,.22,0,.35,0,.28,0,.45,0,.33,0,.46,0,.24,0,.34,0,.2,0,.28l-.06.23a1.49,1.49,0,0,1-.64.85,2.3,2.3,0,0,1-1.19.27H36.44a.4.4,0,0,1-.28-.1.37.37,0,0,1-.1-.28Zm.84,3.67s0,0,0,0h.64a1.36,1.36,0,0,0,.69-.15.82.82,0,0,0,.38-.5,2.38,2.38,0,0,0,.07-.38,5.65,5.65,0,0,0,0-.64,5.46,5.46,0,0,0,0-.63,2.53,2.53,0,0,0-.07-.39.83.83,0,0,0-.38-.49,1.36,1.36,0,0,0-.69-.15h-.64s0,0,0,0Z"/><path class="cls-2" d="M40.51,12a.33.33,0,0,1,.1-.27.38.38,0,0,1,.28-.11H43.3a.46.46,0,0,1,.32.11.39.39,0,0,1,0,.54.46.46,0,0,1-.32.11H41.39a0,0,0,0,0,0,0v1.18a0,0,0,0,0,0,0H43a.45.45,0,0,1,.31.11.39.39,0,0,1,0,.54.45.45,0,0,1-.31.11H41.39a0,0,0,0,0,0,0v1.23a0,0,0,0,0,0,0H43.3a.46.46,0,0,1,.32.11.39.39,0,0,1,0,.54.46.46,0,0,1-.32.11H40.89a.38.38,0,0,1-.28-.11.36.36,0,0,1-.1-.27Z"/><path class="cls-2" d="M46.27,12a.4.4,0,0,1,.42-.44.45.45,0,0,1,.31.11.49.49,0,0,1,.11.33v4a.44.44,0,0,1-.11.32.41.41,0,0,1-.31.12.41.41,0,0,1-.42-.44Z"/><path class="cls-2" d="M48.18,12.05a.54.54,0,0,1,.13-.37.53.53,0,0,1,.66,0,1.45,1.45,0,0,1,.25.31L51,15h0V12a.39.39,0,0,1,.11-.31.39.39,0,0,1,.28-.1.36.36,0,0,1,.27.1.39.39,0,0,1,.11.31v4a.55.55,0,0,1-.12.37.46.46,0,0,1-.35.13.48.48,0,0,1-.31-.1,1,1,0,0,1-.25-.31L49,13h0v3a.41.41,0,0,1-.11.3.41.41,0,0,1-.56,0,.41.41,0,0,1-.11-.3Z"/><path class="cls-2" d="M52.86,12.05a.54.54,0,0,1,.13-.37.53.53,0,0,1,.66,0,1.45,1.45,0,0,1,.25.31l1.78,3h0V12a.39.39,0,0,1,.11-.31.39.39,0,0,1,.28-.1.36.36,0,0,1,.27.1.39.39,0,0,1,.11.31v4a.55.55,0,0,1-.12.37.46.46,0,0,1-.35.13.48.48,0,0,1-.31-.1,1.2,1.2,0,0,1-.25-.31l-1.77-3h0v3a.41.41,0,0,1-.11.3.36.36,0,0,1-.28.11.37.37,0,0,1-.28-.11.41.41,0,0,1-.11-.3Z"/><path class="cls-2" d="M57.4,14c0-.17,0-.32,0-.45a3.49,3.49,0,0,1,0-.35,2.36,2.36,0,0,1,0-.28c0-.08,0-.17.07-.26a1.61,1.61,0,0,1,.63-.86,2.06,2.06,0,0,1,2.14,0,1.52,1.52,0,0,1,.63.86c0,.09.05.18.07.26a2.36,2.36,0,0,1,0,.28c0,.1,0,.22,0,.35v.91c0,.13,0,.24,0,.34a2.26,2.26,0,0,1,0,.29,2.33,2.33,0,0,1-.07.25,1.51,1.51,0,0,1-.63.87,2.12,2.12,0,0,1-2.14,0,1.6,1.6,0,0,1-.63-.87,2.33,2.33,0,0,1-.07-.25,2.26,2.26,0,0,1,0-.29,3.28,3.28,0,0,1,0-.34C57.4,14.33,57.4,14.18,57.4,14Zm2.83,0c0-.16,0-.3,0-.41a2.69,2.69,0,0,0,0-.31.73.73,0,0,0,0-.22.85.85,0,0,0,0-.17,1,1,0,0,0-.31-.46.89.89,0,0,0-.58-.17.84.84,0,0,0-.57.17,1,1,0,0,0-.32.46s0,.11,0,.17,0,.14,0,.22,0,.19,0,.31v.83c0,.12,0,.22,0,.3s0,.16,0,.22,0,.12,0,.17a1,1,0,0,0,.32.47.9.9,0,0,0,.57.17,1,1,0,0,0,.58-.17,1,1,0,0,0,.31-.47.71.71,0,0,0,0-.17.69.69,0,0,0,0-.22,2.36,2.36,0,0,0,0-.3C60.23,14.3,60.23,14.17,60.23,14Z"/><path class="cls-2" d="M63.44,16.46a.44.44,0,0,1-.31-.11.84.84,0,0,1-.21-.37L61.6,12.12a.57.57,0,0,1,0-.18.38.38,0,0,1,.12-.28.36.36,0,0,1,.29-.11.4.4,0,0,1,.41.32l1.06,3.23h0l1-3.23a.39.39,0,0,1,.4-.32.37.37,0,0,1,.3.11.41.41,0,0,1,.11.28.28.28,0,0,1,0,.09.29.29,0,0,1,0,.09L64,16a.84.84,0,0,1-.21.37A.4.4,0,0,1,63.44,16.46Z"/><path class="cls-2" d="M65.36,16.07V16l0-.08L66.8,12a.9.9,0,0,1,.2-.35.5.5,0,0,1,.35-.12.48.48,0,0,1,.35.12.8.8,0,0,1,.21.35l1.4,3.89a.24.24,0,0,1,0,.08.19.19,0,0,1,0,.08.37.37,0,0,1-.12.29.43.43,0,0,1-.29.1.4.4,0,0,1-.24-.07.52.52,0,0,1-.16-.22l-.26-.76H66.42l-.26.76a.44.44,0,0,1-.15.22.41.41,0,0,1-.25.07.4.4,0,0,1-.28-.1A.37.37,0,0,1,65.36,16.07ZM68,14.67l-.65-1.89h0l-.66,1.89Z"/><path class="cls-2" d="M70,15.34l-.06-.25a1.93,1.93,0,0,1,0-.27,3.49,3.49,0,0,1,0-.35c0-.13,0-.29,0-.47s0-.33,0-.46a3.49,3.49,0,0,1,0-.35,1.93,1.93,0,0,1,0-.27l.06-.25a1.66,1.66,0,0,1,.62-.87,1.84,1.84,0,0,1,1.06-.3,1.74,1.74,0,0,1,.9.22,1.34,1.34,0,0,1,.56.57.52.52,0,0,1,.08.25.38.38,0,0,1-.39.38.38.38,0,0,1-.19-.05.76.76,0,0,1-.18-.18,1,1,0,0,0-.32-.32.83.83,0,0,0-.46-.11.81.81,0,0,0-.55.17,1,1,0,0,0-.35.63.58.58,0,0,0,0,.21,2.36,2.36,0,0,0,0,.3c0,.12,0,.26,0,.43s0,.32,0,.44a2.36,2.36,0,0,0,0,.3.66.66,0,0,0,0,.21.75.75,0,0,0,0,.16.87.87,0,0,0,.31.47.86.86,0,0,0,.55.17.83.83,0,0,0,.78-.44.7.7,0,0,1,.18-.17.3.3,0,0,1,.19-.05.4.4,0,0,1,.28.1.39.39,0,0,1,.11.28.46.46,0,0,1-.08.24,1.31,1.31,0,0,1-.56.58,2.06,2.06,0,0,1-2-.08A1.66,1.66,0,0,1,70,15.34Z"/><path class="cls-2" d="M74,12a.42.42,0,1,1,.84,0v4A.42.42,0,1,1,74,16Z"/><path class="cls-2" d="M75.79,14v-.45c0-.13,0-.25,0-.35a2.33,2.33,0,0,1,0-.28c0-.08,0-.17.07-.26a1.52,1.52,0,0,1,.63-.86,1.84,1.84,0,0,1,1.06-.3,1.88,1.88,0,0,1,1.08.3,1.61,1.61,0,0,1,.63.86c0,.09,0,.18.07.26a2.36,2.36,0,0,1,0,.28,3.49,3.49,0,0,1,0,.35c0,.13,0,.28,0,.45s0,.33,0,.46a3.28,3.28,0,0,1,0,.34,2.26,2.26,0,0,1,0,.29l-.07.25a1.6,1.6,0,0,1-.63.87,1.88,1.88,0,0,1-1.08.29,1.83,1.83,0,0,1-1.06-.29,1.51,1.51,0,0,1-.63-.87,2.33,2.33,0,0,1-.07-.25,2.18,2.18,0,0,1,0-.29c0-.1,0-.21,0-.34Zm2.82,0v-.41c0-.12,0-.22,0-.31s0-.16,0-.22a.84.84,0,0,0,0-.17.9.9,0,0,0-.31-.46.85.85,0,0,0-.58-.17.88.88,0,0,0-.57.17,1,1,0,0,0-.31.46s0,.11,0,.17a1.38,1.38,0,0,0,0,.22,2.69,2.69,0,0,0,0,.31c0,.11,0,.25,0,.41s0,.3,0,.42a2.36,2.36,0,0,0,0,.3,1.27,1.27,0,0,0,0,.22c0,.07,0,.12,0,.17a1,1,0,0,0,.31.47.94.94,0,0,0,.57.17.91.91,0,0,0,.58-.17.93.93,0,0,0,.31-.47.69.69,0,0,0,0-.17c0-.06,0-.13,0-.22s0-.18,0-.3Zm-.8-3.9a.32.32,0,0,1,.25-.12.35.35,0,0,1,.22.08.27.27,0,0,1,.1.22.33.33,0,0,1-.1.25l-.42.45a.4.4,0,0,1-.27.14.29.29,0,0,1-.21-.09.24.24,0,0,1-.08-.2.39.39,0,0,1,.1-.26Z"/><path class="cls-2" d="M80.39,12.05a.54.54,0,0,1,.13-.37.46.46,0,0,1,.35-.13.45.45,0,0,1,.31.1,1,1,0,0,1,.25.31l1.78,3h0V12a.43.43,0,0,1,.11-.31.39.39,0,0,1,.28-.1.4.4,0,0,1,.28.1A.43.43,0,0,1,84,12v4a.55.55,0,0,1-.13.37.45.45,0,0,1-.34.13.49.49,0,0,1-.32-.1,1.2,1.2,0,0,1-.25-.31L81.2,13h0v3a.41.41,0,0,1-.11.3.33.33,0,0,1-.27.11.34.34,0,0,1-.28-.11.38.38,0,0,1-.12-.3Z"/><path class="cls-2" d="M1.77,25a.41.41,0,0,1-.31-.12.46.46,0,0,1-.11-.32V23L.06,20.7A.49.49,0,0,1,0,20.47a.37.37,0,0,1,.11-.27.42.42,0,0,1,.29-.11.42.42,0,0,1,.37.25l1,1.82h0l1-1.82a.41.41,0,0,1,.37-.25.39.39,0,0,1,.28.11.36.36,0,0,1,.1.27.49.49,0,0,1-.06.23L2.19,23v1.58a.42.42,0,0,1-.12.32A.41.41,0,0,1,1.77,25Z"/><path class="cls-2" d="M5.75,20.88a.43.43,0,0,1-.31-.1.36.36,0,0,1,0-.54.43.43,0,0,1,.31-.11H8.6a.43.43,0,0,1,.31.11.36.36,0,0,1,0,.54.43.43,0,0,1-.31.1h-1a0,0,0,0,0,0,.05v3.64a.46.46,0,0,1-.11.32.41.41,0,0,1-.31.12.41.41,0,0,1-.3-.12.42.42,0,0,1-.12-.32V20.93s0-.05,0-.05Z"/><path class="cls-2" d="M9.67,20.51a.37.37,0,0,1,.1-.28.35.35,0,0,1,.27-.1h2.42a.43.43,0,0,1,.31.11.36.36,0,0,1,0,.54.43.43,0,0,1-.31.1H10.55s0,0,0,.05v1.18s0,0,0,0H12.1a.46.46,0,0,1,.32.11.39.39,0,0,1,0,.54.46.46,0,0,1-.32.11H10.55s0,0,0,0v1.23a0,0,0,0,0,0,0h1.91a.39.39,0,0,1,.31.11.36.36,0,0,1,0,.54.43.43,0,0,1-.31.1H10a.35.35,0,0,1-.27-.1.36.36,0,0,1-.1-.27Z"/><path class="cls-2" d="M13.72,23.88a1.83,1.83,0,0,1-.06-.25,1.86,1.86,0,0,1-.05-.27c0-.1,0-.21,0-.34s0-.29,0-.47,0-.33,0-.46,0-.25,0-.35a1.86,1.86,0,0,1,.05-.27c0-.08,0-.16.06-.25a1.57,1.57,0,0,1,.62-.87,1.81,1.81,0,0,1,1.06-.3,1.77,1.77,0,0,1,.9.22,1.34,1.34,0,0,1,.56.57.5.5,0,0,1,.07.25.33.33,0,0,1-.11.27.37.37,0,0,1-.27.11.46.46,0,0,1-.2,0,.59.59,0,0,1-.17-.18,1,1,0,0,0-.33-.33,1.06,1.06,0,0,0-1,.06,1,1,0,0,0-.31.47s0,.11,0,.16,0,.13,0,.21,0,.19,0,.31,0,.26,0,.43,0,.32,0,.44,0,.22,0,.3,0,.15,0,.21,0,.11,0,.16a1,1,0,0,0,.31.47,1,1,0,0,0,1,.06,1,1,0,0,0,.33-.33.46.46,0,0,1,.17-.17.36.36,0,0,1,.2-.06.37.37,0,0,1,.27.11.36.36,0,0,1,.11.28.44.44,0,0,1-.07.24,1.36,1.36,0,0,1-.56.58,2.06,2.06,0,0,1-2-.08A1.6,1.6,0,0,1,13.72,23.88Z"/><path class="cls-2" d="M17.77,20.6a.53.53,0,0,1,.12-.37.48.48,0,0,1,.35-.14.45.45,0,0,1,.31.11,1,1,0,0,1,.25.31l1.78,3h0v-3a.42.42,0,0,1,.11-.31.39.39,0,0,1,.28-.11.41.41,0,0,1,.28.11.42.42,0,0,1,.11.31v4a.54.54,0,0,1-.13.37.46.46,0,0,1-.34.14.49.49,0,0,1-.32-.1,1.76,1.76,0,0,1-.25-.31l-1.77-3h0v3a.38.38,0,0,1-.38.41.38.38,0,0,1-.28-.11.37.37,0,0,1-.11-.3Z"/><path class="cls-2" d="M22.3,22.55c0-.17,0-.33,0-.45s0-.25,0-.35,0-.2,0-.28a2.58,2.58,0,0,1,.08-.26,1.61,1.61,0,0,1,.62-.87,1.94,1.94,0,0,1,1.07-.29,2,2,0,0,1,1.08.29,1.61,1.61,0,0,1,.62.87,1.25,1.25,0,0,1,.07.26,2,2,0,0,1,.05.28c0,.1,0,.22,0,.35s0,.28,0,.45,0,.33,0,.46,0,.24,0,.34a1.78,1.78,0,0,1-.05.28,1.11,1.11,0,0,1-.07.26,1.54,1.54,0,0,1-.62.87,2,2,0,0,1-1.08.29,1.94,1.94,0,0,1-1.07-.29,1.54,1.54,0,0,1-.62-.87,2,2,0,0,1-.08-.26c0-.08,0-.17,0-.28s0-.21,0-.34S22.3,22.73,22.3,22.55Zm2.83,0c0-.16,0-.3,0-.42s0-.21,0-.3,0-.16,0-.22a.84.84,0,0,0,0-.17,1,1,0,0,0-.31-.47.93.93,0,0,0-.58-.16.9.9,0,0,0-.57.16,1,1,0,0,0-.31.47.84.84,0,0,0-.05.17c0,.06,0,.14,0,.22s0,.19,0,.3,0,.26,0,.42,0,.3,0,.42,0,.22,0,.3,0,.16,0,.22a.84.84,0,0,0,.05.17.93.93,0,0,0,.31.47.9.9,0,0,0,.57.17.85.85,0,0,0,.89-.64.84.84,0,0,0,0-.17c0-.06,0-.13,0-.22s0-.18,0-.3S25.13,22.71,25.13,22.55Z"/><path class="cls-2" d="M26.91,20.54a.45.45,0,0,1,.12-.33.41.41,0,0,1,.3-.12.41.41,0,0,1,.31.12.49.49,0,0,1,.11.33v3.64a0,0,0,0,0,.05,0h1.9a.42.42,0,0,1,.32.11.39.39,0,0,1,0,.54.46.46,0,0,1-.32.1H27.33a.37.37,0,0,1-.3-.11.41.41,0,0,1-.12-.31Z"/><path class="cls-2" d="M30.48,22.55c0-.17,0-.33,0-.45a3.49,3.49,0,0,1,0-.35,2.09,2.09,0,0,1,0-.28c0-.09.05-.17.07-.26a1.68,1.68,0,0,1,.63-.87,2.12,2.12,0,0,1,2.14,0,1.58,1.58,0,0,1,.63.87,2.5,2.5,0,0,1,.07.26,2,2,0,0,1,0,.28c0,.1,0,.22,0,.35V23c0,.13,0,.24,0,.34a1.78,1.78,0,0,1,0,.28,2,2,0,0,1-.07.26,1.51,1.51,0,0,1-.63.87,2.12,2.12,0,0,1-2.14,0,1.6,1.6,0,0,1-.63-.87c0-.08-.05-.17-.07-.26a1.88,1.88,0,0,1,0-.28,3.28,3.28,0,0,1,0-.34C30.48,22.88,30.48,22.73,30.48,22.55Zm2.83,0c0-.16,0-.3,0-.42a2.66,2.66,0,0,0,0-.3,1.38,1.38,0,0,0,0-.22c0-.06,0-.12,0-.17A1,1,0,0,0,32.9,21a1,1,0,0,0-.58-.16.9.9,0,0,0-.57.16,1,1,0,0,0-.31.47.84.84,0,0,0-.05.17c0,.06,0,.14,0,.22s0,.19,0,.3V23c0,.12,0,.22,0,.3s0,.16,0,.22a.84.84,0,0,0,.05.17.93.93,0,0,0,.31.47.9.9,0,0,0,.57.17,1,1,0,0,0,.58-.17,1,1,0,0,0,.31-.47c0-.05,0-.11,0-.17a1.27,1.27,0,0,0,0-.22,2.36,2.36,0,0,0,0-.3C33.31,22.85,33.31,22.71,33.31,22.55Z"/><path class="cls-2" d="M35.08,23.89a1.1,1.1,0,0,1-.06-.26,1.88,1.88,0,0,1,0-.28c0-.1,0-.21,0-.34V22.1c0-.13,0-.25,0-.35a2.09,2.09,0,0,1,0-.28,1.22,1.22,0,0,1,.06-.26,1.68,1.68,0,0,1,.63-.87,2,2,0,0,1,1.09-.29,1.89,1.89,0,0,1,1,.22,1.39,1.39,0,0,1,.59.56.59.59,0,0,1,.07.25.37.37,0,0,1-.11.27.4.4,0,0,1-.47.06.56.56,0,0,1-.18-.17,1,1,0,0,0-.86-.43.9.9,0,0,0-.59.17.93.93,0,0,0-.31.47.85.85,0,0,0,0,.17.62.62,0,0,0,0,.21,2.66,2.66,0,0,0,0,.3c0,.12,0,.26,0,.42s0,.3,0,.42a2.36,2.36,0,0,0,0,.3.69.69,0,0,0,0,.22,1,1,0,0,0,0,.17.92.92,0,0,0,.32.47.94.94,0,0,0,.59.17,1,1,0,0,0,.57-.16.85.85,0,0,0,.34-.46,1.14,1.14,0,0,0,.06-.29c0-.11,0-.22,0-.33a0,0,0,0,0,0,0H37.2a.33.33,0,0,1-.27-.1.32.32,0,0,1-.1-.25.34.34,0,0,1,.1-.26.33.33,0,0,1,.27-.1h1.09a.31.31,0,0,1,.34.34v.14a5.49,5.49,0,0,1,0,.58,2.11,2.11,0,0,1-.1.49,1.66,1.66,0,0,1-.62.89,1.9,1.9,0,0,1-1.08.3,2,2,0,0,1-1.09-.29A1.6,1.6,0,0,1,35.08,23.89Z"/><path class="cls-2" d="M39.56,20.54a.49.49,0,0,1,.11-.33.41.41,0,0,1,.31-.12.41.41,0,0,1,.3.12.45.45,0,0,1,.12.33v4a.42.42,0,0,1-.12.32A.41.41,0,0,1,40,25a.41.41,0,0,1-.31-.12.46.46,0,0,1-.11-.32Zm.72-1.89a.32.32,0,0,1,.25-.12.3.3,0,0,1,.22.08.29.29,0,0,1,.1.22.37.37,0,0,1-.1.25l-.42.45a.4.4,0,0,1-.27.14.27.27,0,0,1-.21-.09.27.27,0,0,1-.09-.2.42.42,0,0,1,.1-.26Z"/><path class="cls-2" d="M41.14,24.62v-.08l0-.08,1.41-3.89a.9.9,0,0,1,.2-.35.52.52,0,0,1,.35-.13.53.53,0,0,1,.36.13,1,1,0,0,1,.21.35l1.39,3.89a.19.19,0,0,1,0,.08.19.19,0,0,1,0,.08.37.37,0,0,1-.12.29.43.43,0,0,1-.29.1.41.41,0,0,1-.24-.08.37.37,0,0,1-.15-.21L44.05,24H42.2l-.26.76a.37.37,0,0,1-.15.21.41.41,0,0,1-.25.08.4.4,0,0,1-.28-.1A.37.37,0,0,1,41.14,24.62Zm2.65-1.41-.65-1.88h0l-.66,1.88Z"/><path class="cls-2" d="M47.56,20.51a.41.41,0,0,1,.1-.28.37.37,0,0,1,.28-.1h2.42a.45.45,0,0,1,.31.11.39.39,0,0,1,0,.54.45.45,0,0,1-.31.1H48.45a0,0,0,0,0-.05.05v1.18s0,0,.05,0H50a.43.43,0,0,1,.31.11.36.36,0,0,1,0,.54.43.43,0,0,1-.31.11H48.45s-.05,0-.05,0v1.23a0,0,0,0,0,.05,0h1.91a.41.41,0,0,1,.31.11.39.39,0,0,1,0,.54.45.45,0,0,1-.31.1H47.94a.37.37,0,0,1-.28-.1.41.41,0,0,1-.1-.27Z"/><path class="cls-2" d="M51.62,20.51a.41.41,0,0,1,.1-.28.37.37,0,0,1,.28-.1h1.19a2.3,2.3,0,0,1,1.19.27,1.41,1.41,0,0,1,.64.84,1.05,1.05,0,0,1,.06.24,1.93,1.93,0,0,1,0,.27,1.83,1.83,0,0,1,0,.35c0,.13,0,.28,0,.45s0,.32,0,.45a1.75,1.75,0,0,1,0,.35,1.88,1.88,0,0,1,0,.28.86.86,0,0,1-.06.23,1.41,1.41,0,0,1-.64.85,2.31,2.31,0,0,1-1.19.26H52a.35.35,0,0,1-.38-.37Zm.84,3.67a0,0,0,0,0,0,0h.64a1.41,1.41,0,0,0,.69-.15.94.94,0,0,0,.38-.5,2.77,2.77,0,0,0,.06-.38,5.25,5.25,0,0,0,0-.64,5.36,5.36,0,0,0,0-.64,2.77,2.77,0,0,0-.06-.38.91.91,0,0,0-.38-.49,1.41,1.41,0,0,0-.69-.16h-.64a0,0,0,0,0,0,.05Z"/><path class="cls-2" d="M57.83,25.05a2,2,0,0,1-.71-.12,1.61,1.61,0,0,1-.56-.35,1.59,1.59,0,0,1-.38-.56,2,2,0,0,1-.13-.75V20.54a.49.49,0,0,1,.11-.33.41.41,0,0,1,.31-.12.41.41,0,0,1,.3.12.45.45,0,0,1,.12.33v2.72a1.09,1.09,0,0,0,.26.77.91.91,0,0,0,.68.27.9.9,0,0,0,.68-.27,1,1,0,0,0,.27-.77V20.54a.44.44,0,0,1,.11-.33.41.41,0,0,1,.31-.12.41.41,0,0,1,.3.12.45.45,0,0,1,.12.33v2.73a2,2,0,0,1-.14.75,1.57,1.57,0,0,1-.37.56,1.65,1.65,0,0,1-.57.35A2.08,2.08,0,0,1,57.83,25.05Z"/><path class="cls-2" d="M60.65,23.88c0-.08,0-.16-.07-.25s0-.17,0-.27,0-.21,0-.34,0-.29,0-.47,0-.33,0-.46,0-.25,0-.35,0-.19,0-.27.05-.16.07-.25a1.57,1.57,0,0,1,.62-.87,1.81,1.81,0,0,1,1.06-.3,1.7,1.7,0,0,1,.89.22,1.31,1.31,0,0,1,.57.57.5.5,0,0,1,.07.25.38.38,0,0,1-.38.38.46.46,0,0,1-.2,0,.59.59,0,0,1-.17-.18,1,1,0,0,0-.33-.33,1.06,1.06,0,0,0-1,.06,1,1,0,0,0-.31.47s0,.11,0,.16,0,.13,0,.21,0,.19,0,.31,0,.26,0,.43,0,.32,0,.44,0,.22,0,.3,0,.15,0,.21,0,.11,0,.16a1,1,0,0,0,.31.47,1,1,0,0,0,1,.06,1,1,0,0,0,.33-.33.46.46,0,0,1,.17-.17.36.36,0,0,1,.2-.06.37.37,0,0,1,.27.11.39.39,0,0,1,.11.28.44.44,0,0,1-.07.24,1.33,1.33,0,0,1-.57.58,1.8,1.8,0,0,1-.89.21,1.89,1.89,0,0,1-1.06-.29A1.6,1.6,0,0,1,60.65,23.88Z"/><path class="cls-2" d="M64.37,24.62v-.08l0-.08,1.41-3.89a.9.9,0,0,1,.2-.35.5.5,0,0,1,.35-.13.48.48,0,0,1,.35.13.8.8,0,0,1,.21.35l1.4,3.89a.19.19,0,0,1,0,.08.19.19,0,0,1,0,.08.37.37,0,0,1-.12.29.43.43,0,0,1-.29.1.41.41,0,0,1-.24-.08.44.44,0,0,1-.16-.21L67.28,24H65.43l-.26.76a.37.37,0,0,1-.15.21.41.41,0,0,1-.25.08.4.4,0,0,1-.28-.1A.37.37,0,0,1,64.37,24.62ZM67,23.21l-.65-1.88h0l-.66,1.88Z"/><path class="cls-2" d="M68.58,20.88a.46.46,0,0,1-.32-.1.39.39,0,0,1,0-.54.46.46,0,0,1,.32-.11h2.85a.45.45,0,0,1,.31.11.39.39,0,0,1,0,.54.45.45,0,0,1-.31.1h-1a0,0,0,0,0,0,.05v3.64a.42.42,0,0,1-.12.32A.38.38,0,0,1,70,25a.41.41,0,0,1-.3-.12.42.42,0,0,1-.12-.32V20.93s0-.05,0-.05Z"/><path class="cls-2" d="M72.5,20.54a.44.44,0,0,1,.11-.33.41.41,0,0,1,.31-.12.41.41,0,0,1,.3.12.45.45,0,0,1,.12.33v4a.42.42,0,0,1-.12.32.41.41,0,0,1-.3.12.4.4,0,0,1-.42-.44Z"/><path class="cls-2" d="M75.89,25a.45.45,0,0,1-.31-.11.84.84,0,0,1-.21-.37l-1.32-3.87a.47.47,0,0,1,0-.17.39.39,0,0,1,.11-.28.42.42,0,0,1,.7.2l1.06,3.24h0l1-3.24a.41.41,0,0,1,.41-.32.37.37,0,0,1,.29.12.36.36,0,0,1,.11.28v.09s0,.06,0,.08L76.4,24.53a.75.75,0,0,1-.22.37A.44.44,0,0,1,75.89,25Z"/><path class="cls-2" d="M77.8,24.62a.19.19,0,0,1,0-.08.19.19,0,0,1,0-.08l1.41-3.89a.8.8,0,0,1,.21-.35.48.48,0,0,1,.35-.13.52.52,0,0,1,.35.13.8.8,0,0,1,.21.35l1.4,3.89a.31.31,0,0,0,0,.08v.08a.37.37,0,0,1-.12.29.4.4,0,0,1-.28.1.41.41,0,0,1-.25-.08.37.37,0,0,1-.15-.21L80.72,24H78.86l-.25.76a.44.44,0,0,1-.16.21.41.41,0,0,1-.24.08.43.43,0,0,1-.29-.1A.37.37,0,0,1,77.8,24.62Zm2.66-1.41-.66-1.88h0l-.65,1.88Z"/></g></g></svg>