<?xml version="1.0" encoding="UTF-8" standalone="no"?>
<svg
   xmlns:dc="http://purl.org/dc/elements/1.1/"
   xmlns:cc="http://creativecommons.org/ns#"
   xmlns:rdf="http://www.w3.org/1999/02/22-rdf-syntax-ns#"
   xmlns:svg="http://www.w3.org/2000/svg"
   xmlns="http://www.w3.org/2000/svg"
   id="svg32"
   version="1.1"
   viewBox="0 0 444.32 181.64">
  <metadata
     id="metadata36">
    <rdf:RDF>
      <cc:Work
         rdf:about="">
        <dc:format>image/svg+xml</dc:format>
        <dc:type
           rdf:resource="http://purl.org/dc/dcmitype/StillImage" />
        <dc:title>ctic_home_cards-herramientas</dc:title>
      </cc:Work>
    </rdf:RDF>
  </metadata>
  <defs
     id="defs4">
    <style
       id="style2">.cls-1{fill:#a4c135;stroke-miterlimit:10;stroke-width:4.51px;}.cls-1,.cls-5,.cls-6{stroke:#fff;}.cls-2{font-size:35.14px;fill:#fff;font-family:Affogato-Bold, Affogato;font-weight:700;}.cls-3{letter-spacing:-0.05em;}.cls-4{letter-spacing:-0.02em;}.cls-5,.cls-6{fill:none;stroke-linecap:round;stroke-linejoin:round;}.cls-5{stroke-width:3.1px;}.cls-6{stroke-width:3px;}</style>
  </defs>
  <title
     id="title6">ctic_home_cards-herramientas</title>
  <g
     data-name="Capa 2"
     id="Capa_2">
    <g
       data-name="Layer 1"
       id="Layer_1">
      <polygon
         id="polygon8"
         points="442.07 2.25 402.58 2.25 2.25 2.25 2.25 179.38 442.07 179.38 442.07 27.66 442.07 2.25"
         class="cls-1" />
      <g
         id="text16"
         style="font-weight:700;font-size:35.13999939px;font-family:Affogato-Bold, Affogato;fill:#ffffff"
         transform="translate(191.17 102.35)"
         aria-label="HERRAMIENTAS">
        <path
           id="path38"
           style="font-weight:700;font-size:35.13999939px;font-family:Affogato-Bold, Affogato;fill:#ffffff"
           d="m 13.816409,-22.361818 v 9.743364 H 7.7867044 v -9.823227 l -4.9914772,0.23959 V 0 H 7.7867044 V -7.6269771 H 13.816409 V 0 h 4.991477 v -22.361818 z" />
        <path
           id="path40"
           style="font-weight:700;font-size:35.13999939px;font-family:Affogato-Bold, Affogato;fill:#ffffff"
           d="m 38.641521,-17.729727 v -4.672023 l -14.295591,0.03993 V 0 h 14.295591 v -4.6720226 h -9.383977 v -3.9133182 h 6.468954 v -4.6720222 h -6.468954 v -4.472364 z" />
        <path
           id="path42"
           style="font-weight:700;font-size:35.13999939px;font-family:Affogato-Bold, Affogato;fill:#ffffff"
           d="m 59.587007,0 -4.232773,-7.5870453 c 2.076454,-1.3576818 3.354273,-3.7935227 3.354273,-6.8283407 0,-5.470659 -4.073046,-8.146091 -7.786705,-8.146091 -2.515704,0.119796 -4.911613,0.239591 -7.427318,0.399318 V 0 h 4.951545 v -6.3890908 h 1.876796 L 53.876757,0 Z M 48.446029,-17.490136 c 0.758705,-0.07986 1.357682,-0.07986 2.116387,-0.119796 2.116386,0 3.154613,1.357682 3.154613,3.474069 0,2.116386 -1.597272,3.274409 -3.07475,3.274409 h -2.19625 z" />
        <path
           id="path44"
           style="font-weight:700;font-size:35.13999939px;font-family:Affogato-Bold, Affogato;fill:#ffffff"
           d="m 79.765054,0 -4.232773,-7.5870453 c 2.076455,-1.3576818 3.354273,-3.7935227 3.354273,-6.8283407 0,-5.470659 -4.073046,-8.146091 -7.786705,-8.146091 -2.515704,0.119796 -4.911613,0.239591 -7.427318,0.399318 V 0 h 4.951546 v -6.3890908 h 1.876795 L 74.054804,0 Z M 68.624077,-17.490136 c 0.758704,-0.07986 1.357681,-0.07986 2.116386,-0.119796 2.116386,0 3.154614,1.357682 3.154614,3.474069 0,2.116386 -1.597273,3.274409 -3.07475,3.274409 h -2.19625 z" />
        <path
           id="path46"
           style="font-weight:700;font-size:35.13999939px;font-family:Affogato-Bold, Affogato;fill:#ffffff"
           d="m 96.668692,0 h 4.991478 L 94.831828,-22.521545 88.762192,-22.162159 81.973783,0 h 4.991477 l 1.038228,-3.6337954 h 7.626977 z m -7.387386,-8.1460908 2.515704,-8.9846592 2.555636,8.9846592 z" />
        <path
           id="path48"
           style="font-weight:700;font-size:35.13999939px;font-family:Affogato-Bold, Affogato;fill:#ffffff"
           d="m 122.4634,-22.481613 -6.06964,10.98125 -6.06963,-10.98125 -4.99148,0.319454 V 0 h 4.99148 v -12.937909 l 4.63209,8.5853409 h 2.87509 l 4.67202,-8.6652049 V 0 h 4.99148 v -22.202091 z" />
        <path
           id="path50"
           style="font-weight:700;font-size:35.13999939px;font-family:Affogato-Bold, Affogato;fill:#ffffff"
           d="m 138.21151,-22.521545 -4.99148,0.239591 V 0 h 4.99148 z" />
        <path
           id="path52"
           style="font-weight:700;font-size:35.13999939px;font-family:Affogato-Bold, Affogato;fill:#ffffff"
           d="m 158.19987,-17.729727 v -4.672023 l -14.29559,0.03993 V 0 h 14.29559 v -4.6720226 h -9.38397 v -3.9133182 h 6.46895 v -4.6720222 h -6.46895 v -4.472364 z" />
        <path
           id="path54"
           style="font-weight:700;font-size:35.13999939px;font-family:Affogato-Bold, Affogato;fill:#ffffff"
           d="m 175.51157,-22.361818 v 13.2573636 l -7.94643,-13.3771586 -4.5123,0.279522 V 0 h 4.99148 V -13.137568 L 175.99075,0 h 4.5123 v -22.361818 z" />
        <path
           id="path56"
           style="letter-spacing:-0.05em"
           d="m 198.90341,-22.361818 h -15.05429 v 4.83175 h 4.99147 V 0 h 4.99148 v -17.530068 h 5.07134 z" />
        <path
           id="path58"
           style="letter-spacing:-0.02em"
           d="m 213.12334,0 h 4.99147 l -6.82834,-22.521545 -6.06963,0.359386 L 198.42843,0 h 4.99147 l 1.03823,-3.6337954 h 7.62698 z m -7.38739,-8.1460908 2.5157,-8.9846592 2.55564,8.9846592 z" />
        <path
           id="path60"
           style=""
           d="m 227.62404,0.19965909 c 4.27271,0 7.30753,-2.87509089 7.30753,-6.82834079 0,-7.3474543 -8.82493,-6.3491593 -9.26418,-9.1443863 -0.15973,-0.998295 0.67884,-1.876795 1.99659,-1.876795 1.07815,0 2.23618,0.678841 2.71536,2.19625 l 4.51229,-1.197955 c -0.43925,-3.274409 -3.67372,-5.909909 -7.54711,-5.909909 -4.03311,0 -7.22766,2.875091 -7.22766,6.508886 0,6.7884093 9.38398,5.989773 9.50377,9.1843184 0.0399,1.2778182 -0.91843,1.9965909 -2.15631,1.9965909 -1.23789,0 -2.31605,-0.9583637 -2.55564,-2.3959091 l -4.83175,1.31775 c 0.67884,3.713659 3.79352,6.14949989 7.54711,6.14949989 z" />
      </g>
      <path
         id="path18"
         d="M131.05,109.6,116.31,95.17l28.74-27.92,6.81-.19a2.43,2.43,0,0,0,2-1.16l9.74-16a2.33,2.33,0,0,0-.36-2.87l-8.42-8.25a2.46,2.46,0,0,0-2.94-.35l-16.37,9.54a2.33,2.33,0,0,0-1.18,2l-.19,6.64-28.67,28L85.8,65.29a21.6,21.6,0,0,0-18-24.89,22.36,22.36,0,0,0-15.94,3.3A2.33,2.33,0,0,0,51.26,47a2.4,2.4,0,0,0,.82.73l10.92,6c2.4,1.34,2.88,5.34.93,8.74s-5.67,5.13-8.1,3.81L45.7,60.84a2.42,2.42,0,0,0-3.26.93,2.4,2.4,0,0,0-.3,1.28A21.86,21.86,0,0,0,65.48,83.21a22.74,22.74,0,0,0,7.28-1.69L90.65,99l-7.74,7.59-1.76-1.7a5.11,5.11,0,0,0-7,0l-2.4,2.36a4.64,4.64,0,0,0-.27,6.47h0L43.08,141.56a4.65,4.65,0,0,0-.15,6.66l.15.15,8.13,7.95a4.88,4.88,0,0,0,6.8.15l.15-.15,28.48-27.85h0a4.88,4.88,0,0,0,6.61-.26l2.41-2.36a4.64,4.64,0,0,0,.15-6.65l-.15-.15-1.76-1.72,7.7-7.7,23.32,22.84A21.6,21.6,0,0,0,143,157.29a22.28,22.28,0,0,0,19.37-6.17,2.32,2.32,0,0,0-.2-3.32,2.36,2.36,0,0,0-.89-.49l-13.54-3.56a4.41,4.41,0,0,1-2.83-2.71,8.39,8.39,0,0,1-.24-5.55c1-3.7,4.2-6.34,6.9-5.63l13.39,3.53a2.36,2.36,0,0,0,.65,0,2.39,2.39,0,0,0,2.44-2.33,2.42,2.42,0,0,0-.27-1.11,21.42,21.42,0,0,0-5.56-9h0a22.14,22.14,0,0,0-15.56-6.31,22.47,22.47,0,0,0-8.68,1.75l-6.91-6.77"
         class="cls-5" />
      <line
         id="line20"
         y2="113.18"
         x2="105.22"
         y1="99.03"
         x1="90.65"
         class="cls-5" />
      <line
         id="line22"
         y2="79.65"
         x2="100.46"
         y1="100.33"
         x1="121.58"
         class="cls-5" />
      <line
         id="line24"
         y2="19.34"
         x2="85.46"
         y1="19.34"
         x1="191.34"
         class="cls-5" />
      <line
         id="line26"
         y2="159.61"
         x2="22.23"
         y1="115.63"
         x1="22.23"
         class="cls-5" />
      <line
         id="line28"
         y2="33.17"
         x2="191.54"
         y1="21.17"
         x1="191.54"
         class="cls-6" />
    </g>
  </g>
</svg>
