<svg xmlns="http://www.w3.org/2000/svg" viewBox="0 0 98.73 94.41"><defs><style>.cls-1{fill:#aac037;}.cls-2{fill:#fff;}</style></defs><title>home_icono-facebook</title><g id="Capa_2" data-name="Capa 2"><g id="Layer_1" data-name="Layer 1"><polygon class="cls-1" points="10.22 0 10.22 8.6 0 8.6 0 94.41 98.73 94.41 98.73 0 10.22 0"/><path class="cls-2" d="M62.87,25.6A8.11,8.11,0,0,1,71,33.7v27a8.13,8.13,0,0,1-8.11,8.1H57.58V52.07h5.6L64,45.54H57.58V41.38A3.59,3.59,0,0,1,58.24,39a3.27,3.27,0,0,1,2.58-.79l3.43,0V32.38a37.28,37.28,0,0,0-5-.26,8.36,8.36,0,0,0-6.12,2.25,8.52,8.52,0,0,0-2.29,6.36v4.81H45.2v6.53h5.63V68.81h-15a8.13,8.13,0,0,1-8.1-8.1v-27a8.11,8.11,0,0,1,8.1-8.1Z"/></g></g></svg>