<svg xmlns="http://www.w3.org/2000/svg" viewBox="0 0 98.73 94.41"><defs><style>.cls-1{fill:#aac037;}.cls-2{fill:#fff;}</style></defs><title>home_icono-twitter</title><g id="Capa_2" data-name="Capa 2"><g id="Layer_1" data-name="Layer 1"><polygon class="cls-1" points="10.22 0 10.22 8.6 0 8.6 0 94.41 98.73 94.41 98.73 0 10.22 0"/><path class="cls-2" d="M70.76,34a18.26,18.26,0,0,1-4.4,4.54q0,.38,0,1.14a24.79,24.79,0,0,1-1,7,25.19,25.19,0,0,1-3.14,6.75,26.34,26.34,0,0,1-5,5.72,22.22,22.22,0,0,1-7,4,25.55,25.55,0,0,1-8.77,1.48A24.3,24.3,0,0,1,28,60.64a17.11,17.11,0,0,0,2.12.11A17.23,17.23,0,0,0,41,57a8.8,8.8,0,0,1-8.2-6.09,11.13,11.13,0,0,0,1.65.14,9,9,0,0,0,2.31-.3,8.58,8.58,0,0,1-5-3,8.42,8.42,0,0,1-2-5.58V42a8.74,8.74,0,0,0,4,1.12A8.9,8.9,0,0,1,30.82,40,8.77,8.77,0,0,1,31,31.43a24.79,24.79,0,0,0,8,6.47A24.46,24.46,0,0,0,49,40.61a10.13,10.13,0,0,1-.22-2A8.78,8.78,0,0,1,64,32.6a17.22,17.22,0,0,0,5.57-2.12,8.52,8.52,0,0,1-3.86,4.83A17.18,17.18,0,0,0,70.76,34Z"/></g></g></svg>