<svg xmlns="http://www.w3.org/2000/svg" viewBox="0 0 454.91 183.24"><defs><style>.cls-1{fill:#d70046;}.cls-2{fill:#fff;}</style></defs><title>home_segui-de-cerca-la-copatic</title><g id="Capa_2" data-name="Capa 2"><g id="Layer_1" data-name="Layer 1"><polygon class="cls-1" points="376.81 52.73 0 85.95 11.09 33.22 387.9 0 376.81 52.73"/><polygon class="cls-1" points="388.31 59.85 20.6 93.07 31.69 40.34 399.4 7.12 388.31 59.85"/><path class="cls-2" d="M25.53,74.37l3.4-12.23,4.34-.37L31.53,73.85l-2.1,10-6,.52Zm4.38-20.7,6-.51-1.2,5.66-6,.52Z"/><path class="cls-2" d="M43.26,65.8l-.19.9c-.61,2.88-.18,4.65,3.13,4.37A5.07,5.07,0,0,0,50.73,67c.59-2.79-.63-3.7-4.45-4.76-5.17-1.41-7.25-3.46-6.17-8.57,1.26-6,5.6-9.34,11.51-9.85,5.56-.48,9.1,1.54,7.86,7.42l-.18.86-6,.51c.61-2.87,0-4.46-2.43-4.26a4.51,4.51,0,0,0-4.31,3.88c-.4,1.89-.08,3,2.33,3.88l4.39,1.65c4.27,1.61,5,3.87,4.19,7.6-1.37,6.49-6,9.75-12.76,10.34-7.08.61-9.17-2.42-8-8.08L37,66.34Z"/><path class="cls-2" d="M82.12,41.75l-1.07,5.07L70,47.77,68.45,55l10.43-.9-1.07,5.07-10.43.89L65.64,68.3l11.51-1-1.07,5.06L58.31,73.9l6.48-30.65Z"/><path class="cls-2" d="M97.1,49.4c.48-2.28.05-5.06-2.47-4.84-3,.26-4.91,3.45-6.53,11.1-1.56,7.38-1.84,12,1.77,11.65,1.47-.13,4.2-1.92,4.9-5.23l.66-3.14-4.13.36,1-4.55,10.13-.87-3.5,16.53-4.6.4.6-2.84H94.8a9.83,9.83,0,0,1-7.24,4c-7.69.66-8-4.88-5.78-15.48C84,46.19,87.51,40.7,95.5,40c6.87-.59,8.91,2.65,7.6,8.87Z"/><path class="cls-2" d="M114.84,38.93l-4.51,21.39c-.65,3-.39,5.26,2.52,5s4.13-2.59,4.78-5.64l4.51-21.38,6.26-.54-4.52,21.38c-1.65,7.81-6.91,10.29-12,10.73s-9.55-.82-7.82-9l4.52-21.39Z"/><path class="cls-2" d="M125.75,68.1l6.48-30.66,6.25-.54L132,67.56Zm10.81-38.88,6-.51L137,35.26l-4.09.35Z"/><path class="cls-2" d="M153,35.65l10.25-.89c8.69-.74,9,5,7.11,14-2.3,10.86-5.68,16-14,16.68l-9.86.85Zm.74,25.56,2.78-.23c4.34-.38,5.78-3.16,7.54-11.49,1.47-7,1.66-10.47-3.12-10.06l-2.65.23Z"/><path class="cls-2" d="M194.54,32.07l-1.08,5.07-11.08,1-1.52,7.21,10.43-.89-1.07,5.06-10.43.9-1.74,8.24,11.51-1-1.07,5.07-17.77,1.53,6.48-30.66Z"/><path class="cls-2" d="M218.73,40.14c.94-4.46.43-6.31-2.39-6.07-3.17.27-4.57,3.47-6.4,12.14-2,9.28-1,10.84,1.68,10.61,2.26-.2,4.16-1.5,5.55-8.11l6.26-.54C222,54.78,219.17,60.64,211,61.34c-9.38.81-9.16-5.7-7.19-15s4.54-16,13.92-16.84c8.95-.77,8.23,5.66,7.29,10.13Z"/><path class="cls-2" d="M247.89,27.47l-1.07,5.07-11.08,1-1.52,7.22,10.43-.9-1.07,5.06-10.43.9L231.41,54l11.51-1-1.07,5.07-17.77,1.53L230.56,29Z"/><path class="cls-2" d="M251,27.2l11.55-1c5.13-.45,7.69,1.95,6.59,7.18-.86,4.08-3.09,7-6.77,8l0,.08c4.14.19,4.31,2.46,3,8.93-.63,3.22-.81,4.88.23,5.38l-.05.26-6.78.58a5.16,5.16,0,0,1-.1-3.15l1.07-5.87c.42-2.4-.36-3.76-2.88-3.55l-3.35.29-2.73,13-6.26.54Zm3.42,12.86,2.61-.23a5.69,5.69,0,0,0,5.66-5c.6-2.84-.62-4.12-3.44-3.88l-3,.25Z"/><path class="cls-2" d="M285.82,34.36c.94-4.46.44-6.32-2.39-6.07-3.17.27-4.57,3.47-6.4,12.14-2,9.28-1,10.84,1.68,10.61,2.26-.2,4.16-1.5,5.55-8.11l6.26-.54c-1.4,6.61-4.25,12.46-12.47,13.17-9.38.81-9.16-5.7-7.19-15s4.54-16,13.92-16.84c9-.77,8.24,5.66,7.29,10.13Z"/><path class="cls-2" d="M302.91,22.73l7.73-.66,1.74,30-6.52.56-.06-6.36-8.26.71-2.8,6.61-6.52.56Zm-3.21,19,6.08-.53-.09-13.52h-.08Z"/><path class="cls-2" d="M324.11,51l6.48-30.65,6.25-.54-5.4,25.59,11.08-1-1.07,5.07Z"/><path class="cls-2" d="M356.31,18.13l7.74-.67,1.73,29.95-6.52.57-.06-6.37-8.26.72-2.8,6.6-6.52.57Zm-3.21,19,6.08-.53-.08-13.52H359Z"/><polygon class="cls-1" points="414.31 139.54 51.59 173.66 71.53 78.88 434.24 44.76 414.31 139.54"/><polygon class="cls-1" points="436.94 154.05 89.69 183.24 108.55 91.68 454.91 57.56 436.94 154.05"/><path class="cls-2" d="M83.67,138.18l7.34-.63,3.5-10.28-6.16.53,2-9.34,7.26-.63,4.92-14.66,8.1-.7-4.84,14.66,8.18-.71,4.93-14.66,8.18-.71-4.92,14.67,6.16-.53-2,9.33-7.26.63-3.5,10.29,6.16-.53-2,9.33-7.26.63-4.92,14.66-8.18.71,4.92-14.67-8.27.72L91.2,160.94l-8.18.71L87.94,147l-6.24.54Zm15.52-1.33,8.19-.71,3.5-10.29-8.27.72Z"/><path class="cls-2" d="M156.57,116.6c1.83-8.67.85-12.27-4.63-11.8-6.16.53-8.88,6.74-12.44,23.58-3.8,18-2,21,3.27,20.59,4.39-.38,8.07-2.91,10.79-15.74l12.15-1c-2.72,12.84-8.26,24.2-24.21,25.58-18.23,1.57-17.79-11.08-14-29.17s8.81-31.12,27-32.69c17.38-1.5,16,11,14.15,19.65Z"/><path class="cls-2" d="M199,92.07c18.23-1.57,17.79,11.07,14,29.16s-8.81,31.12-27,32.69-17.8-11.07-14-29.16S180.81,93.64,199,92.07Zm-11.2,53c7.17-.62,9.64-6.81,13-22.81s3.49-22-3.68-21.37-9.66,6.88-13,22.81S180.66,145.71,187.83,145.09Z"/><path class="cls-2" d="M225.62,90.92l21.26-1.83c12.32-1.06,14.65,7.5,12.77,16.42-2.61,12.34-11.47,18.58-22.94,19.57l-6.5.56-5,23.76-12.15,1Zm6.46,25.88,5.4-.46c4.81-.42,8.7-3.53,10-9.62,1.24-5.83-.42-9-6.5-8.44l-5.06.43Z"/><path class="cls-2" d="M275.74,86.6l15-1.29,3.37,58.15-12.66,1.09-.12-12.35-16,1.38-5.45,12.83-12.65,1.09Zm-6.23,37,11.81-1-.17-26.26H281Z"/><path class="cls-2" d="M340.71,81l-2.08,9.84L325.47,92,315,141.66l-12.15,1.05L313.32,93l-13.16,1.13,2.08-9.84Z"/><path class="cls-2" d="M333.12,140.1l12.57-59.52,12.15-1-12.58,59.53Z"/><path class="cls-2" d="M387.51,96.7c1.83-8.67.86-12.27-4.63-11.8-6.16.54-8.88,6.74-12.43,23.58-3.81,18-2,21,3.27,20.59,4.38-.38,8.07-2.9,10.78-15.74l12.15-1c-2.71,12.84-8.26,24.2-24.21,25.58-18.22,1.57-17.79-11.07-14-29.16s8.81-31.13,27-32.7c17.38-1.5,16,11,14.15,19.65Z"/><path class="cls-2" d="M414.33,122.3l-2.32,11-11.65,1,2.33-11Zm-8.86-4.72,3.38-23.46,4.09-19.34,11.64-1L420.5,93.12l-6.59,23.73Z"/></g></g></svg>