<svg xmlns="http://www.w3.org/2000/svg" viewBox="0 0 62.97 56.69"><defs><style>.cls-1{fill:#1b2647;}</style></defs><title>icono-dias</title><g id="Capa_2" data-name="Capa 2"><g id="Layer_1" data-name="Layer 1"><path class="cls-1" d="M-177-90.33l-2.47,0-.09-2.5h-7.51v4.69h-5.6v-4.69H-205v4.69h-5.6v-4.69h-12.26v4.69h-5.6v-4.69h-8.19l-.06,2.21-3.33,0V-45.8l2.55.16.06,2.33h58.23l-.32-1.7,2.45-.4Zm-7.05,39.79-1.35,0v2h-45.33v-2.3h-1.68v-2.52h-1.68v-26h3.36v-.84h43.43v1.36L-185-79l-.07,1.45h2.4l0,25h-1.79Z" transform="translate(240 100)"/><rect class="cls-1" x="12.94" width="3.08" height="10.65"/><rect class="cls-1" x="30.73" width="3.08" height="10.65"/><rect class="cls-1" x="48.6" width="3.08" height="10.65"/><rect class="cls-1" x="45.31" y="24.36" width="5.88" height="5.88"/><rect class="cls-1" x="45.31" y="32.97" width="5.88" height="5.88"/><rect class="cls-1" x="33.99" y="24.36" width="5.88" height="5.88"/><rect class="cls-1" x="33.99" y="32.97" width="5.88" height="5.88"/><rect class="cls-1" x="33.99" y="41.58" width="5.88" height="5.88"/><rect class="cls-1" x="22.66" y="24.36" width="5.88" height="5.88"/><rect class="cls-1" x="22.66" y="32.97" width="5.88" height="5.88"/><rect class="cls-1" x="22.66" y="41.58" width="5.88" height="5.88"/><rect class="cls-1" x="11.33" y="32.97" width="5.88" height="5.88"/><rect class="cls-1" x="11.33" y="41.58" width="5.88" height="5.88"/></g></g></svg>