<svg xmlns="http://www.w3.org/2000/svg" viewBox="0 0 78.45 54.94"><defs><style>.cls-1{fill:#1b2647;}</style></defs><title>icono-estudiantes</title><g id="Capa_2" data-name="Capa 2"><g id="Layer_1" data-name="Layer 1"><rect class="cls-1" x="32.57" y="16.84" width="13.3" height="13.3"/><rect class="cls-1" x="33.91" y="15.7" width="10.64" height="15.59"/><rect class="cls-1" x="33.91" y="15.7" width="10.64" height="15.59" transform="translate(15.73 62.71) rotate(-90)"/><polygon class="cls-1" points="48.27 38.42 48.27 35.06 30.14 35.06 30.14 38.42 28.26 38.42 28.26 54.94 30.14 54.94 48.27 54.94 50.19 54.94 50.19 38.42 48.27 38.42"/><rect class="cls-1" x="26.15" y="42.47" width="26.15" height="12.47"/><rect class="cls-1" x="58.72" y="1.14" width="13.3" height="13.3"/><rect class="cls-1" x="60.05" width="10.64" height="15.59"/><rect class="cls-1" x="60.05" width="10.64" height="15.59" transform="translate(57.58 73.17) rotate(-90)"/><polygon class="cls-1" points="74.42 22.73 74.42 19.37 56.29 19.37 56.29 22.73 54.41 22.73 54.41 39.24 56.29 39.24 74.42 39.24 76.34 39.24 76.34 22.73 74.42 22.73"/><rect class="cls-1" x="52.3" y="26.77" width="26.15" height="12.47"/><rect class="cls-1" x="6.42" y="1.14" width="13.3" height="13.3"/><rect class="cls-1" x="7.76" width="10.64" height="15.59"/><rect class="cls-1" x="7.76" width="10.64" height="15.59" transform="translate(5.28 20.87) rotate(-90)"/><polygon class="cls-1" points="22.13 22.73 22.13 19.37 3.99 19.37 3.99 22.73 2.11 22.73 2.11 39.24 3.99 39.24 22.13 39.24 24.04 39.24 24.04 22.73 22.13 22.73"/><rect class="cls-1" y="26.77" width="26.15" height="12.47"/></g></g></svg>