<svg xmlns="http://www.w3.org/2000/svg" viewBox="0 0 1336 456.17"><defs><style>.cls-1{fill:#fff;}.cls-2{opacity:0.06;}</style></defs><title>bg-iconos</title><g id="Capa_2" data-name="Capa 2"><g id="Layer_1" data-name="Layer 1"><rect class="cls-1" x="29" width="1280" height="456.17"/><g class="cls-2"><polygon points="617 76 617 71 591 71 591 76 577 76 577 77.08 577 78.79 577 84 580 84 580 89 584 89 584 79 591 79 591 93 588 93 588 89 584 89 584 95 588 95 588 96 591 96 591 97.65 591 97.65 591 99 595 99 595 102 599 102 599 113 595 113 595 117 591 117 591 119 595.92 119 599.26 119 611.74 119 615.08 119 617 119 617 117 616 117 616 113 606 113 606 102 616 102 616 99 617 99 617 99 617 99 617 96 619 96 619 95 624 95 624 89 619 89 619 93 617 93 617 79 624 79 624 89 626 89 626 84 631 84 631 78.79 631 77.08 631 76 617 76"/><path d="M739,89V79h-2V76h-4V74h-6V69H707v5h-7v2h-3v3h-3V89h-3V99h3v11h3v3h3v4h7v2h24v-2h2v-4h4v-3h2v-7h5V89Zm-2,6.38V106h-6v4h-1v-5h-5v5h3v4H707v-4h1v-5h2v-2h-2v2h-5v5h-1v-4h-5V95h3V88h6V85h.77c-1.41,0-3.75-.34-5.16-.32a9.4,9.4,0,0,1-1.61-.41V79h3V76h4V75h8v4h2v6h-7v3h-4v3h2v7h2v5h14V96h1V91h5V88h-6V85h-5V78.36h0V75h8v1h4v3h2v4.73L734.75,85H733v-.16l1.75.16H730v3h3v7h4Z"/><path d="M725,103.81h1.73v-1.73H725Z"/><polyline points="507 85 504 85 504 79 500 79 500 75 496 75 496 72 493 72 493 69 491 69 491 72 486 72 486 75 483 75 483 79 478 79 478 85 476 85 476 88 472 88 472 92 465 92 465 95 462 95 462 97.48 462 99 472 99 472 121 486 121 486 105 496 105 496 121 513 121 513 99 519 99 519 95 515 95 515 92 511 92 511 88 508 88 508 84"/><path d="M291.81,72.11,292.93,71H242l-.05,1.56L239,71.73v33.42l2.26.46.05,2.39h51.51l-1.14-1.83,1.32-.47V71m-3,28.18h-.62l.32,1.77-1.38,1.24.16,2.8H246v-3h-2V99h-3V79h3V76h1V74h42.81v1.54l1.61-.16L288.82,77l1.18-.08Z"/><path d="M295,117h4v-7H233v7h6.19l-.06,2H295m-23-5H259v-1h13Z"/><polygon points="388 95 386 95 386 92 372 92 372 95 367 95 367 99 363 99 363 105 372 105 372 102 375 102 375 99 381 99 381 102 386 102 386 105 393 105 393 99 388 99 388 95"/><polygon points="395 88 395 85 393 85 393 81 388 81 388 76 367 76 367 81 363 81 363 85 360 85 360 88 357 88 357 99 360 99 360 95 363 95 363 92 367 92 367 88 372 88 372 85 386 85 386 88 388 88 388 92 393 92 393 95 395 95 395 99 400 99 400 88 395 88"/><polygon points="384 108 381 108 381 106 380 106 380 105 378 105 378 106 375 106 375 108 372 108 372 110 375 110 375 112 378 112 378 113 380 113 380 112 381 112 381 110 384 110 384 108"/><path d="M167,99h0V96h-4V95h-2V91h-2V88h-4V85h-1V82h-2.09L148,80.83V79h0V77.91l.9,1.09H148V75h-2V74h-2.2l-.13-3.79L140.79,70l0-3H136v50h5v-3h5v-4h2v-2h1v6h5v5h1v2h7v-2h1v-5h-2v-6h-2v-3h10V99Z"/><polyline points="848 59 840 59 840 58 834.22 58 830 58 830 88 834 88 834 78.84 834 69 840.51 69 840.51 69 848 69"/><path d="M876,95V88H842V81H819v7H784v7h4v29h-4v6h92v-6h-5V95Zm-64,22H801V99h11Zm26,7H823V105h15Zm20-7h-9V99h9Z"/><rect x="821.8" y="124.16" width="18.87" height="6.39"/><polygon points="288 208 288 214 315 214 315 208 329 208 329 205.8 329 204.1 329 203 325 203 325 195 322 195 322 205 315 205 315 193 317 193 317 195 322 195 322 192 317 192 317 190 315 190 315 187 313 187 313 185 310 185 310 183 305 183 305 172 310 172 310 169 313 169 313 165 312.32 165 308.98 165 296.5 165 293.16 165 288 165 288 169 292 169 292 172 299 172 299 183 292 183 292 185 288 185 288 184.71 288 184.71 288 190 286 190 286 192 283 192 283 195 286 195 286 193 288 193 288 205 283 205 283 195 279 195 279 203 275 203 275 204.1 275 205.8 275 208 288 208"/><path d="M165,197v8h3v3h7v4h3v2h20v-2h7v-4h4v-3h1v-8h3V185h-3v-9h-1v-4h-4v-3h-7v-4H175v4h-5v3h-2v4h-3v7h-3v14Zm3-9.5V179h7v-3h1v3h4v-3h-2v-4h20v2.85h0V179h-3v3h3v-3h3v-3h2v3h6v13h-4v6h-6v1h2.47c1.41,0,2.13-.22,3.54-.24.16,0,0-.21,0-.14V205h-3v3H192v-3h-3v-6h6v-1h4v-3h-1v-7h-3v-6H183v6h-3v7h-3v3h6v1h5v6h-1v3H175v-3h-5v-6.2s1.85-.17,1.85-.12l1.65-.68H170v0l3.5,0H170v-6h-2Z"/><path d="M185,177h-3v4h3Z"/><polyline points="398 200 401 200 401 205 405 205 405 208 408 208 408 213 413 213 413 218 415 218 415 213 421 213 421 208 423 208 423 205 427 205 427 200 431 200 431 198 434 198 434 195 437 195 437 190 442 190 442 185.4 442 187 434 187 434 164 421 164 421 180 408 180 408 164 393 164 393 187 386 187 386 190 391 190 391 195 393 195 393 198 398 198 398 200"/><path d="M614.31,211.89l1,2.11h50.94l-.57-2.62,2.32-.22V177.73l-1.64.59.58-1.32H615.43l.11,2H611v33m6-28.3h1.24v-1.77l1.54.82V182H659v2h2v3h4v19h-3v2h-2v3H620.43v-2.6l-1.61-.37v-1.88L617,206Z"/><path d="M612,169h-4v6h64v-6h-3l.06-4H612m21,6h13v1H633Z"/><polygon points="517 190 519 190 519 195 535 195 535 190 538 190 538 187 540 187 540 179 535 179 535 184 532 184 532 187 524 187 524 184 519 184 519 179 513 179 513 187 517 187 517 190"/><polygon points="510 198 510 200 513 200 513 204 517 204 517 208 538 208 538 204 540 204 540 200 545 200 545 198 548 198 548 187 545 187 545 190 540 190 540 195 538 195 538 198 535 198 535 200 519 200 519 198 517 198 517 195 513 195 513 190 510 190 510 187 506 187 506 198 510 198"/><polygon points="522 177 524 177 524 179 526 179 526 180 529 180 529 179 532 179 532 177 533 177 533 176 532 176 532 175 529 175 529 172 526 172 526 175 524 175 524 176 522 176 522 177"/><path d="M739,187h0v3h0v2h5v3h2v3h3v2h3v4h4.33l-.33-1.95V206h2v-1l1.34,1H758v2h2v4h4.44l.13,2.23,2.88,1,0,3.73H770V166h-4v3h-2v3h-4v3h-2v2h-4v-5h-2v-7h-3v-2h-5v2h-5v7h5v5h2v3H735v7Z"/><polyline points="61 225 67 225 67 228 74.02 228 76 228 76 198 71 198 71 204.04 71 218 67 218 67 214 61 214"/><path d="M30,192v6H63v6H86v-6h35v-6h-4V161h4v-4H30v4h4v31Zm63-26h12v19H93Zm-25-7H83v20H68Zm-21,9h9v17H47Z"/><rect x="67.57" y="152.34" width="18.87" height="6.39"/><polygon points="715 249 715 243 687 243 687 249 674 249 674 249.51 674 251.22 674 256 677 256 677 263 679 263 679 253 687 253 687 264 683 264 683 263 679 263 679 266 683 266 683 268 687 268 687 270.28 687 270.28 687 272 689 272 689 274 696 274 696 285 689 285 689 289 687 289 687 292 691.49 292 694.83 292 707.31 292 710.65 292 711 292 711 289 709 289 709 285 703 285 703 274 709 274 709 272 711 272 711 271 715 271 715 268 717 268 717 266 719 266 719 263 717 263 717 264 715 264 715 253 719 253 719 263 723 263 723 256 725 256 725 251.22 725 249.51 725 249 715 249"/><path d="M835,261v-8h-2v-4h-5v-3h-6v-3H802v3h-5v3h-3v4h-3v8h-5v11h2v10h5v3h4v4h5v6h24v-6h2v-4h5v-3h2v-7h5V261Zm-2,6.81V278h-7v4h-2v-4h-3v4h2v3H802v-4.43h0V278h4v-2h-4v2h-1v4h-2v-4h-6V266h4v-6h4v-2h1.34c-1.41,0-3-.62-4.44-.61a2.82,2.82,0,0,1-.9-.69V253h2v-4h9v4h4v5h-6v2h-5v3h1v8h4v5h13v-7h2v-6h2v-3h-4v-2h-4v-5h2v-4h9v4h2v3.51c0-.05,1,.51,1,.46l1.27,1H828v-.73l2.32.73H823v2h5v6h5Z"/><path d="M821,276h2v-2h-2Z"/><polyline points="603 257 599 257 599 253 596 253 596 249 592 249 592 245 589 245 589 241 585 241 585 245 581 245 581 249 577 249 577 253 576 253 576 257 570 257 570 260 568 260 568 263 562 263 562 268 559 268 559 269.92 559 271 568 271 568 295 583 295 583 278 592 278 592 295 608 295 608 271 616 271 616 268 611 268 611 263 606 263 606 260 603 260 603 256"/><path d="M387.09,244.11,388.5,243H337.56l-1.33,1.78-4.23-.62v33.42l3.54.75,1.34,2.67h51.51L387,278.89l1-.76V243m-2,28.61h-.83l.18,1.77-1.35,0V276H341v-2h-2v-3h-1V250.19h0V249h3v-1h42.39v.76l1.6-.56-.39,1.42,1.39-.28Z"/><path d="M392,289h1v-6H330v6h4.76l-.05,3H392m-25-4H355v-3h12Z"/><polygon points="485 268 481 268 481 263 465 263 465 268 463 268 463 271 460 271 460 278 465 278 465 274 471 274 471 271 477 271 477 274 481 274 481 278 487 278 487 271 485 271 485 268"/><polygon points="493 260 493 257 487 257 487 254 485 254 485 249 463 249 463 254 460 254 460 257 455 257 455 260 454 260 454 271 455 271 455 268 460 268 460 263 463 263 463 260 465 260 465 257 481 257 481 260 485 260 485 263 487 263 487 268 493 268 493 271 495 271 495 260 493 260"/><polygon points="479 281 477 281 477 278 477.25 278 477.25 278 473.8 278 473.8 278 471 278 471 281 470 281 470 282 471 282 471 283 473 283 473 285 476 285 476 283 477 283 477 282 479 282 479 281"/><path d="M262,271h0v-3h-1v-2h-4v-3h-4v-3h-2v-3h-3v-3h-.52l-1.48-.74V251h-2v-.66l.47.66H244v-2h-2l-2-1.58V246h-.63l-.13-3.57-2.88.12,0-2.55H232v51h1v-2h5v-4h2v-2h4v-2h2v4h2v7h4v4h7v-4h2v-7h-2v-4h-5v-3h11v-7Z"/><polyline points="943 234 935 234 935 230 929.79 230 925 230 925 260 927 260 927 251.28 927 241 934 241 934 243 943 243"/><path d="M970,266v-6H936v-6H916v6H880v6h3v31h-3v5h90v-5h-4V266Zm-64,25h-9V272h9Zm27,7H919V278h14Zm21-8h-9V272h9Z"/><rect x="917.38" y="296.59" width="18.87" height="6.39"/><polygon points="385 382 385 388 411 388 411 382 423 382 423 378.23 423 376.53 423 374 421 374 421 367 415 367 415 380 411 380 411 365 413 365 413 367 415 367 415 363 413 363 413 361 411 361 411 359 411.49 359 411.49 359 407 359 407 356 400 356 400 345 407 345 407 341 411 341 411 339 407.89 339 404.55 339 392.08 339 388.74 339 385 339 385 341 387 341 387 345 393 345 393 356 387 356 387 359 385 359 385 357.14 385 357.14 385 361 380 361 380 363 378 363 378 367 380 367 380 365 385 365 385 380 378 380 378 367 373 367 373 374 371 374 371 376.53 371 378.23 371 382 385 382"/><path d="M261,367v13h3v2h4v1h7v5h18v-5h8v-1h2v-2h5V367h2v-8h-2V348h-5v-3h-2v-4h-8v-3H271v3h-3v4h-4v3h-3v8h-2v11Zm3-7.07V352h7v-4h1v4h3v-4h-2v-4h20v2.68h0V352h-2v2h2v-2h2v-4h4v4h4v11h-2v6h-6v3h2.05c1.41,0,2.34-.51,3.75-.52.16,0-.8-.5.2-.43V380h-2v2H288v-2h-2v-8h5v-3h4v-2h-2v-7h-2v-6H279v6h-4v7h-2v2h6v3h4v8h-1v2H271v-2h-3v-8.87h0v-.66l1.07,1.53H273v-3h-5v-6h-4Z"/><ellipse cx="277" cy="353" rx="2.45" ry="1.73"/><polyline points="496 373.11 496 373.11 496 380 499 380 499 382 504 382 504 387 507 387 507 389 511 389 511 387 515 387 515 382 519 382 519 380 522 380 522 373 527 373 527 369 530 369 530 366 535 366 535 362 538 362 538 357.83 538 359 532 359 532 337 515 337 515 353 504 353 504 337 489 337 489 359 481 359 481 362 485 362 485 366 489 366 489 369 493 369 493 372"/><path d="M710.1,384.39l.79,3.61h50.93l-.36-3.41,2.54-1V350.16l-1.85.38.36-1.54H711l-.77,1-3.23-.37V383m3-26.87h2.53l.63-1.77,1.86.1.31-1.45H756v5h1v1h1v18.08h0V382h-2v1H716v-2.39l-1.6-.26-1.3-1.82-3.09-.12Z"/><path d="M708,341h-5v7h63v-7h-1.37l0-2H708m22,5h11v1H730Z"/><polygon points="611 362 616 362 616 366 630 366 630 362 633 362 633 359 637 359 637 352 630 352 630 356 625 356 625 359 619 359 619 356 616 356 616 352 608 352 608 359 611 359 611 362"/><polygon points="604 369 604 373 608 373 608 377 611 377 611 382 633 382 633 377 637 377 637 373 639 373 639 369 645 369 645 359 639 359 639 362 637 362 637 366 633 366 633 369 630 369 630 373 616 373 616 369 611 369 611 366 608 366 608 362 604 362 604 359 599 359 599 369 604 369"/><polygon points="617 351 619 351 619 352 622.3 352 622.3 352 625.75 352 625.75 352 625 352 625 351 627 351 627 348 625 348 625 345 625 345 625 345 621 345 621 346 619 346 619 348 617 348 617 351"/><path d="M834,359h0v2h2v2h4v4h2v2h3v4h3v3h3.9l-1.9-1.52V380h4v-2.6l.92,2.6H854v2h3.36L856,380.32V384h4l.14,2.44,2.87.44,0,3.12h2V341h-7v3h-2v4h-2v3h-4v-7h-2v-5h-4v-2h-4v2h-4v5h4v7h1v2H831v6Z"/><polyline points="155 397 161 397 161 400 169.59 400 170 400 170 369 168 369 168 376.47 168 389 162 389 162 388 155 388"/><path d="M127,363v6h32v8h24v-8h33v-6h-3V334h3v-6H127v6h2v29Zm63-22h9v17h-9Zm-27-7h15v18H163Zm-21,7h10v18H142Z"/><rect x="163.14" y="324.77" width="18.87" height="6.39"/><polygon points="63 76 63 72 36 72 36 76 23 76 23 77.75 23 79.45 23 85 26 85 26 91 30 91 30 81 36 81 36 95 33 95 33 91 30 91 30 95 33 95 33 96 36 96 36 99 37.79 99 37.79 99 40 99 40 103 46 103 46 114 40 114 40 117 37 117 37 119 41.42 119 44.77 119 57.24 119 60.58 119 62 119 62 117 59 117 59 114 53 114 53 103 59 103 59 99 63.69 99 63.69 99 63 99 63 96 66 96 66 95 68 95 68 91 66 91 66 95 63 95 63 81 68 81 68 91 71 91 71 85 77 85 77 79.45 77 77.75 77 76 63 76"/><polygon points="126 268 129 268 129 271 145 271 145 268 147 268 147 263 149 263 149 258 145 258 145 260 140 260 140 263 132 263 132 260 129 260 129 258 121 258 121 263 126 263 126 268"/><polygon points="118 275 118 280 121 280 121 282 126 282 126 285 147 285 147 282 149 282 149 280 154 280 154 275 159 275 159 263 154 263 154 268 149 268 149 271 147 271 147 275 145 275 145 280 129 280 129 275 126 275 126 271 121 271 121 268 118 268 118 263 113 263 113 275 118 275"/><polygon points="131 256 132 256 132 257 133 257 133 258 139 258 139 257 140 257 140 256 141 256 141 254 140 254 140 251 139 251 139 250 133 250 133 251 132 251 132 254 131 254 131 256"/><polyline points="48 257 45 257 45 254 42 254 42 249 38 249 38 246 34 246 34 241 30 241 30 246 26 246 26 249 23 249 23 254 20 254 20 257 14 257 14 260 12 260 12 263 7 263 7 268 5 268 5 270.58 5 272 12 272 12 296 26 296 26 278 38 278 38 296 54 296 54 272 61 272 61 268 56 268 56 263 53 263 53 260 49 260 49 256"/><path d="M5.28,384.39l1,3.61H57.17l-.53-3.31,2.36-.91V350.35l-1.67.28.53-1.63H6.35l-.95,1.08L2,349.8V383m4-26.68H8.2l.48-1.77h1.77l.23-1.55H51v5h2v1h1v18.08h0V382H51v1H11.35v-2.29l-1.6-.21-1-1.8L6,378.6Z"/><path d="M5,341H0v7H62v-7H60l.05-2H5m21,5H37v1H26Z"/><polygon points="1310 87 1310 79 1283 79 1283 87 1270 87 1270 86.33 1270 88.04 1270 93 1272 93 1272 98 1277 98 1277 89 1283 89 1283 102 1280 102 1280 98 1277 98 1277 103 1280 103 1280 106 1283 106 1283 106.9 1283 106.9 1283 108 1287 108 1287 112 1292 112 1292 121 1287 121 1287 126 1283 126 1283 128 1288.51 128 1291.85 128 1304.33 128 1307.67 128 1310 128 1310 126 1308 126 1308 121 1299 121 1299 112 1308 112 1308 108 1310 108 1310 108 1310 108 1310 106 1312 106 1312 103 1316 103 1316 98 1312 98 1312 102 1310 102 1310 89 1316 89 1316 98 1319 98 1319 93 1323 93 1323 88.04 1323 86.33 1323 87 1310 87"/><polyline points="1200 95 1197 95 1197 89 1193 89 1193 85 1188 85 1188 81 1186 81 1186 78 1182 78 1182 81 1179 81 1179 85 1174 85 1174 89 1171 89 1171 95 1168 95 1168 96 1165 96 1165 100 1159 100 1159 103 1156 103 1156 106.74 1156 108 1165 108 1165 131 1179 131 1179 114 1188 114 1188 131 1206 131 1206 108 1212 108 1212 103 1208 103 1208 100 1203 100 1203 96 1201 96 1201 93"/><path d="M984.1,80.11,985.52,79H934.58l.16,2.19L932,81v33.43l2,.33L933.9,117h51.51L984,115.3l1-.35V79m-3,29.43h-.32l.46,1.77-1.3,1.12.23,2.67H939v-2h-4v-4h-1V89h1V87h1V84h44.41v1.17l1.61-.35-.9,1.52.88-.18Z"/><path d="M988,126h3v-7H926v7h5.78l0,2H988m-24-6H951v-1h13Z"/><polygon points="1081 103 1079 103 1079 100 1065 100 1065 103 1060 103 1060 108 1055 108 1055 114 1065 114 1065 112 1068 112 1068 108 1074 108 1074 112 1079 112 1079 114 1086 114 1086 108 1081 108 1081 103"/><polygon points="1088 96 1088 95 1086 95 1086 91 1081 91 1081 87 1060 87 1060 91 1055 91 1055 95 1053 95 1053 96 1050 96 1050 108 1053 108 1053 103 1055 103 1055 100 1060 100 1060 96 1065 96 1065 95 1079 95 1079 96 1081 96 1081 100 1086 100 1086 103 1088 103 1088 108 1093 108 1093 96 1088 96"/><polygon points="1076 117 1074 117 1074 115 1073 115 1073 114 1070 114 1070 115 1068 115 1068 117 1066 117 1066 119 1068 119 1068 120 1070 120 1070 121 1073 121 1073 120 1074 120 1074 119 1076 119 1076 117"/><polygon points="838 218 838 221 865 221 865 218 878 218 878 213.73 878 212.03 878 211 876 211 876 203 871 203 871 213 865 213 865 200 869 200 869 203 871 203 871 199 869 199 869 198 865 198 865 195 863 195 863 193 862 193 862 191 855 191 855 180 862 180 862 177 863 177 863 173 862.16 173 858.82 173 846.35 173 843.01 173 838 173 838 177 841 177 841 180 848 180 848 191 841 191 841 193 838 193 838 192.65 838 192.65 838 198 835 198 835 199 833 199 833 203 835 203 835 200 838 200 838 213 833 213 833 203 828 203 828 211 824 211 824 212.03 824 213.73 824 218 838 218"/><polyline points="947 208 951 208 951 213 954 213 954 218 957 218 957 220 963 220 963 225 966 225 966 220 970 220 970 218 973 218 973 213 977 213 977 208 981 208 981 205 984 205 984 203 987 203 987 198 992 198 992 193.33 992 195 984 195 984 172 970 172 970 188 957 188 957 172 942 172 942 195 935 195 935 198 940 198 940 203 943 203 943 205 947 205 947 208"/><path d="M1164.74,218.89l.42,2.11h50.93l-1-2.16,1.9.25V185.66l-1.21.63,1-1.29h-51.51l.11,2H1162v32m4-27.37h1.66l.21-1.77,1.63.85.1-.7H1209v2h3v3h3v19h-2v4h-3v1h-39.73v-2.64l-1.6-.38-.44-1.89-2.22-.19Z"/><path d="M1164,177h-6v6h63v-6h-2.1l0-4h-55m18,6h13v1h-13Z"/><polygon points="1066 198 1069 198 1069 203 1086 203 1086 198 1087 198 1087 195 1089 195 1089 187 1086 187 1086 192 1081 192 1081 195 1073 195 1073 192 1069 192 1069 187 1063 187 1063 195 1066 195 1066 198"/><polygon points="1060 205 1060 208 1063 208 1063 212 1066 212 1066 218 1087 218 1087 212 1089 212 1089 208 1094 208 1094 205 1097 205 1097 195 1094 195 1094 198 1089 198 1089 203 1087 203 1087 205 1086 205 1086 208 1069 208 1069 205 1066 205 1066 203 1063 203 1063 198 1060 198 1060 195 1055 195 1055 205 1060 205"/><polygon points="1072 185 1073 185 1073 187 1076 187 1076 188 1079 188 1079 187 1081 187 1081 185 1082 185 1082 184 1081 184 1081 183 1079 183 1079 180 1076 180 1076 183 1073 183 1073 184 1072 184 1072 185"/><path d="M1289,195h0v3h1v1h3v4h3v2h3v3h2v4h5.17l-.17-2v4h3v-1.1l.19,1.1H1309v4h2v1h3.28l.14,2.69,2.88.81V226H1319V175h-3v2h-3v3h-2v3h-2v2h-4v-5h-4v-7h-2v-2h-6v2h-3v7h3v5h3v3h-11v7Z"/><polyline points="1296 266 1292 266 1292 261 1289 261 1289 258 1285 258 1285 254 1282 254 1282 250 1278 250 1278 254 1273 254 1273 258 1270 258 1270 261 1268 261 1268 266 1263 266 1263 269 1259 269 1259 272 1256 272 1256 278 1250 278 1250 279.17 1250 281 1259 281 1259 303 1275 303 1275 288 1285 288 1285 303 1300 303 1300 281 1308 281 1308 278 1305 278 1305 272 1299 272 1299 269 1296 269 1296 264"/><path d="M1079.89,254.11l1.2-1.11h-50.94l-1.12,1.4-4-1v33.43l3.34.62,1.13,2.54H1081l-1.22-2,1.24-.63V253m-2,27.87h-1l-.21,1.77-1.75,0V285h-43v-2h-1v-2h-1V259.44h0V258h2v-1h43v.88l1.6-.49-.19,1.45,1.6-.25Z"/><path d="M1084,298h2v-6h-63v6h4.35l0,4H1084m-24-5h-13v-1h13Z"/><polygon points="1178 278 1173 278 1173 272 1159 272 1159 278 1157 278 1157 281 1151 281 1151 288 1159 288 1159 283 1164 283 1164 281 1170 281 1170 283 1173 283 1173 288 1180 288 1180 281 1178 281 1178 278"/><polygon points="1186 269 1186 266 1180 266 1180 263 1178 263 1178 258 1157 258 1157 263 1151 263 1151 266 1148 266 1148 269 1146 269 1146 281 1148 281 1148 278 1151 278 1151 272 1157 272 1157 269 1159 269 1159 266 1173 266 1173 269 1178 269 1178 272 1180 272 1180 278 1186 278 1186 281 1188 281 1188 269 1186 269"/><polygon points="1172 290 1170 290 1170 288 1169.84 288 1169.84 288 1166.39 288 1166.39 288 1164 288 1164 290 1162 290 1162 291 1164 291 1164 292 1166 292 1166 296 1168 296 1168 292 1170 292 1170 291 1172 291 1172 290"/><polygon points="1077 390 1077 397 1103 397 1103 390 1116 390 1116 387.49 1116 385.78 1116 383 1112 383 1112 377 1109 377 1109 388 1103 388 1103 374 1107 374 1107 377 1109 377 1109 373 1107 373 1107 369 1103 369 1103 367 1104.08 367 1104.08 367 1100 367 1100 365 1093 365 1093 354 1100 354 1100 351 1103 351 1103 348 1100.48 348 1097.14 348 1084.67 348 1081.33 348 1077 348 1077 351 1080 351 1080 354 1086 354 1086 365 1080 365 1080 367 1077 367 1077 366.39 1077 366.39 1077 369 1073 369 1073 373 1070 373 1070 377 1073 377 1073 374 1077 374 1077 388 1070 388 1070 377 1066 377 1066 383 1063 383 1063 385.78 1063 387.49 1063 390 1077 390"/><path d="M954,377v11h2v2h6v3h6v4h17v-4h9v-3h2v-2h4V377h3V367h-3v-9h-4v-4h-2v-3h-9v-5H964v5h-2v3h-6v4h-2v7h-3v12Zm2-7.82V361h8v-3h0v3h4v-3h-2v-5h19v2.93h0V361h-1v2h1v-2h3v-3h3v3h5v12h-2v8h-6v1h1.64c1.41,0,2.54-.88,4-.9.16,0-1.59-.87.41-.8V388h-3v2h-6v1h-4v-3h-3v-6h6v-1h4v-4h-3v-9h-1v-5H971v5h-3v9h-2v4h5v1h5v6h-2v3h-6v-1h-4v-2h-2v-7.62h0v-.66l-.34,2.28H966v-1h-4v-8h-6Z"/><ellipse cx="969.5" cy="362" rx="1.94" ry="1.58"/><polyline points="1188 382.36 1188 382.36 1188 388 1192 388 1192 391 1197 391 1197 396 1200 396 1200 398 1203 398 1203 396 1208 396 1208 391 1212 391 1212 388 1215 388 1215 382 1220 382 1220 381 1223 381 1223 376 1228 376 1228 372 1230 372 1230 367.08 1230 367 1224 367 1224 345 1208 345 1208 362 1197 362 1197 345 1181 345 1181 367 1173 367 1173 372 1178 372 1178 376 1181 376 1181 381 1186 381 1186 382"/><polygon points="1305 372 1308 372 1308 376 1321 376 1321 372 1326 372 1326 367 1329 367 1329 361 1321 361 1321 365 1318 365 1318 367 1312 367 1312 365 1308 365 1308 361 1300 361 1300 367 1305 367 1305 372"/><polygon points="1297 381 1297 382 1300 382 1300 387 1305 387 1305 390 1326 390 1326 387 1329 387 1329 382 1332 382 1332 381 1336 381 1336 367 1332 367 1332 372 1329 372 1329 376 1326 376 1326 381 1321 381 1321 382 1308 382 1308 381 1305 381 1305 376 1300 376 1300 372 1297 372 1297 367 1292 367 1292 381 1297 381"/><polygon points="1310 360 1312 360 1312 361 1314.89 361 1314.89 361 1318.34 361 1318.34 361 1318 361 1318 360 1320 360 1320 358 1318 358 1318 354 1318 354 1318 354 1313 354 1313 356 1312 356 1312 358 1310 358 1310 360"/></g></g></g></svg>