<?xml version="1.0" encoding="UTF-8" standalone="no"?>
<svg
   xmlns:dc="http://purl.org/dc/elements/1.1/"
   xmlns:cc="http://creativecommons.org/ns#"
   xmlns:rdf="http://www.w3.org/1999/02/22-rdf-syntax-ns#"
   xmlns:svg="http://www.w3.org/2000/svg"
   xmlns="http://www.w3.org/2000/svg"
   id="svg34"
   version="1.1"
   viewBox="0 0 444.32 181.64">
  <metadata
     id="metadata38">
    <rdf:RDF>
      <cc:Work
         rdf:about="">
        <dc:format>image/svg+xml</dc:format>
        <dc:type
           rdf:resource="http://purl.org/dc/dcmitype/StillImage" />
        <dc:title>ctic_home_cards-desafios</dc:title>
      </cc:Work>
    </rdf:RDF>
  </metadata>
  <defs
     id="defs4">
    <style
       id="style2">.cls-1{fill:#a4c135;stroke-miterlimit:10;stroke-width:4.51px;}.cls-1,.cls-5{stroke:#fff;}.cls-2{font-size:35.14px;fill:#fff;font-family:Affogato-Bold, Affogato;font-weight:700;}.cls-3{letter-spacing:-0.02em;}.cls-4{letter-spacing:0em;}.cls-5{fill:none;stroke-linecap:round;stroke-linejoin:round;stroke-width:3.1px;}</style>
  </defs>
  <title
     id="title6">ctic_home_cards-desafios</title>
  <g
     data-name="Capa 2"
     id="Capa_2">
    <polygon
       class="cls-1"
       points="2.25,2.25 2.25,179.38 442.07,179.38 442.07,27.66 442.07,2.25 402.58,2.25 "
       id="polygon8"
       style="fill:#a4c135;stroke:#ffffff;stroke-width:4.51000023px;stroke-miterlimit:10" />
    <g
       id="text14"
       style="font-weight:700;font-size:35.13999939px;font-family:Affogato-Bold, Affogato;fill:#ffffff"
       aria-label="DESAFÃOS">
      <path
         id="path52"
         style="font-weight:700;font-size:35.13999939px;font-family:Affogato-Bold, Affogato;fill:#ffffff"
         d="m 241.37523,102.35 h 7.18773 c 3.95325,0 9.5437,-2.515706 9.5437,-10.94132 0,-7.946431 -4.71195,-11.620158 -9.06452,-11.620158 -2.59557,0.119795 -5.11127,0.23959 -7.66691,0.399318 z m 4.95154,-4.951547 V 84.859862 c 0.79864,-0.07986 1.47748,-0.07986 2.27612,-0.119795 2.99488,0 4.47236,3.034818 4.47236,6.828341 0,3.434136 -1.55734,5.830045 -4.59216,5.830045 z" />
      <path
         id="path54"
         style="font-weight:700;font-size:35.13999939px;font-family:Affogato-Bold, Affogato;fill:#ffffff"
         d="m 277.08426,84.620272 v -4.672023 l -14.29559,0.03993 V 102.35 h 14.29559 v -4.672024 h -9.38398 v -3.913318 h 6.46895 v -4.672023 h -6.46895 v -4.472363 z" />
      <path
         id="path56"
         style="letter-spacing:-0.02em"
         d="m 288.53405,102.54966 c 4.2727,0 7.30752,-2.875093 7.30752,-6.828343 0,-7.347455 -8.82493,-6.349159 -9.26418,-9.144386 -0.15973,-0.998296 0.67884,-1.876796 1.99659,-1.876796 1.07816,0 2.23618,0.678841 2.71536,2.19625 l 4.5123,-1.197954 c -0.43925,-3.274409 -3.67373,-5.909909 -7.54711,-5.909909 -4.03312,0 -7.22766,2.87509 -7.22766,6.508886 0,6.788409 9.38397,5.989772 9.50377,9.184318 0.0399,1.277818 -0.91843,1.996591 -2.15632,1.996591 -1.23789,0 -2.31604,-0.958364 -2.55564,-2.395909 l -4.83175,1.31775 c 0.67885,3.713662 3.79353,6.149502 7.54712,6.149502 z" />
      <path
         id="path58"
         style="letter-spacing:0em"
         d="m 312.45334,102.35 h 4.99147 l -6.82834,-22.521547 -6.06963,0.359387 -6.78841,22.16216 h 4.99148 l 1.03822,-3.633797 h 7.62698 z m -7.38739,-8.146092 2.51571,-8.984659 2.55563,8.984659 z" />
      <path
         id="path60"
         style="letter-spacing:0em"
         d="M 335.49275,84.660203 V 79.988181 H 321.11729 V 102.35 h 4.99148 v -7.826638 h 6.46895 V 89.85134 h -6.46895 v -5.191137 z" />
      <path
         id="path62"
         style="letter-spacing:0em"
         d="m 340.76375,76.833567 7.9065,-3.753591 -2.27612,-4.152909 -7.14779,4.791818 z m 3.07475,2.994886 -4.99148,0.239591 V 102.35 h 4.99148 z" />
      <path
         id="path64"
         style="letter-spacing:0em"
         d="m 358.15655,102.54966 c 5.07134,0 9.5437,-3.753593 9.5437,-11.061116 v -0.638909 c 0,-7.307523 -4.47236,-11.061113 -9.5437,-11.061113 -5.07134,0 -9.50377,3.75359 -9.50377,11.061113 v 0.638909 c 0,7.307523 4.43243,11.061116 9.50377,11.061116 z m 0,-4.592161 c -2.35598,0 -4.59216,-1.597273 -4.59216,-6.468955 v -0.638909 c 0,-4.871682 2.23618,-6.468954 4.59216,-6.468954 2.35598,0 4.63209,1.597272 4.63209,6.468954 v 0.638909 c 0,4.871682 -2.27611,6.468955 -4.63209,6.468955 z" />
      <path
         id="path66"
         style="letter-spacing:0em"
         d="m 378.93482,102.54966 c 4.2727,0 7.30752,-2.875093 7.30752,-6.828343 0,-7.347455 -8.82493,-6.349159 -9.26418,-9.144386 -0.15973,-0.998296 0.67884,-1.876796 1.99659,-1.876796 1.07816,0 2.23618,0.678841 2.71537,2.19625 l 4.51229,-1.197954 c -0.43925,-3.274409 -3.67373,-5.909909 -7.54711,-5.909909 -4.03312,0 -7.22766,2.87509 -7.22766,6.508886 0,6.788409 9.38398,5.989772 9.50377,9.184318 0.0399,1.277818 -0.91843,1.996591 -2.15632,1.996591 -1.23788,0 -2.31604,-0.958364 -2.55563,-2.395909 l -4.83175,1.31775 c 0.67884,3.713662 3.79352,6.149502 7.54711,6.149502 z" />
    </g>
    <line
       class="cls-5"
       x1="29.42"
       y1="33.400002"
       x2="29.42"
       y2="77.139999"
       id="line16"
       style="fill:none;stroke:#ffffff;stroke-width:3.0999999px;stroke-linecap:round;stroke-linejoin:round" />
    <line
       class="cls-5"
       x1="191.91"
       y1="142.97"
       x2="191.91"
       y2="158.60001"
       id="line18"
       style="fill:none;stroke:#ffffff;stroke-width:3.0999999px;stroke-linecap:round;stroke-linejoin:round" />
    <line
       class="cls-5"
       x1="169.57001"
       y1="158.60001"
       x2="191.91"
       y2="158.60001"
       id="line20"
       style="fill:none;stroke:#ffffff;stroke-width:3.0999999px;stroke-linecap:round;stroke-linejoin:round" />
    <path
       class="cls-5"
       d="m 160.44,134.78 -19.67,-33.84 a 5.42,5.42 0 0 0 3.06,-5.34 l -1.46,-12 8.37,-8.6 a 5.28,5.28 0 0 0 0.13,-7.16 L 142.5,59 144.23,46.89 A 5.42,5.42 0 0 0 140,41.2 L 127.91,38.86 122,28.32 a 5.28,5.28 0 0 0 -6.78,-2.47 h -0.13 L 104,30.92 93.1,25.72 a 5.28,5.28 0 0 0 -4,-0.39 5.18,5.18 0 0 0 -3.1,2.47 l -6,10.54 -12.1,2.08 a 5.38,5.38 0 0 0 -4.39,5.86 l 1.47,12 -8.38,8.59 A 5.28,5.28 0 0 0 56.5,74 L 64.87,82.85 63.14,95 a 5.36,5.36 0 0 0 3.46,5.47 l -19.8,34.31 a 2.57,2.57 0 0 0 0,2.6 2.74,2.74 0 0 0 2.26,1.3 H 70.32 L 80,155.21 a 2.74,2.74 0 0 0 2.26,1.3 2.56,2.56 0 0 0 2.25,-1.3 l 19,-31.75 19,32.14 a 2.75,2.75 0 0 0 2.26,1.3 2.58,2.58 0 0 0 2.26,-1.3 l 9.7,-16.92 H 158 a 2.58,2.58 0 0 0 2.26,-1.3 2.12,2.12 0 0 0 0.13,-2.6 z"
       id="path22"
       style="fill:none;stroke:#ffffff;stroke-width:3.0999999px;stroke-linecap:round;stroke-linejoin:round" />
    <path
       class="cls-5"
       d="m 82.42,148.7 -8.24,-13.92 a 2.75,2.75 0 0 0 -2.26,-1.3 H 53.57 l 18.35,-31.76 7.57,1.3 5.85,10.54 a 5.28,5.28 0 0 0 6.78,2.44 h 0.14 l 5.44,-2.48 2.66,4.56 z"
       id="path24"
       style="fill:none;stroke:#ffffff;stroke-width:3.0999999px;stroke-linecap:round;stroke-linejoin:round" />
    <path
       class="cls-5"
       d="M 90.13,111.35 H 90 l -5.85,-10.8 a 5,5 0 0 0 -3.72,-2.47 l -12.23,-2.21 1.72,-12 a 5,5 0 0 0 -1.33,-4.29 l -8.24,-8.85 8.38,-8.59 a 4.83,4.83 0 0 0 1.46,-4.3 L 68.73,46 a 0.4,0.4 0 0 1 0.13,-0.26 L 81,43.68 a 5.38,5.38 0 0 0 3.72,-2.6 l 6,-10.55 10.9,5.21 a 5.17,5.17 0 0 0 4.78,0 l 11,-5 h 0.13 l 5.85,10.81 a 5,5 0 0 0 3.62,2.52 l 12,2.34 -1.72,12 a 5,5 0 0 0 1.32,4.3 l 8.4,8.82 -8.51,8.59 a 4.82,4.82 0 0 0 -1.46,4.29 l 1.46,12 -12,2 a 5.36,5.36 0 0 0 -3.72,2.6 l -6,10.54 -10.9,-5.2 a 5.2,5.2 0 0 0 -4.79,0 z"
       id="path26"
       style="fill:none;stroke:#ffffff;stroke-width:3.0999999px;stroke-linecap:round;stroke-linejoin:round" />
    <path
       class="cls-5"
       d="m 135.32,133.48 a 2.58,2.58 0 0 0 -2.26,1.3 l -8.24,14.31 -18.74,-31.75 a 2.11,2.11 0 0 0 -0.53,-0.91 l -2.93,-5.08 0.93,-0.39 10.9,5.21 a 5.34,5.34 0 0 0 2.4,0.52 5.27,5.27 0 0 0 4.65,-2.6 l 6,-10.55 8,-1.43 18.21,31.37 z"
       id="path28"
       style="fill:none;stroke:#ffffff;stroke-width:3.0999999px;stroke-linecap:round;stroke-linejoin:round" />
    <path
       class="cls-5"
       d="m 130.14,71 c 0,-14.32 -12,-26 -26.59,-26 C 88.96,45 77,56.69 77,71 c 0,14.31 12,26 26.58,26 14.58,0 26.59,-11.72 26.59,-26 z"
       id="path30"
       style="fill:none;stroke:#ffffff;stroke-width:3.0999999px;stroke-linecap:round;stroke-linejoin:round" />
  </g>
</svg>
