<svg xmlns="http://www.w3.org/2000/svg" viewBox="0 0 444.32 181.64"><defs><style>.cls-1{fill:#a4c135;stroke-miterlimit:10;stroke-width:4.51px;}.cls-1,.cls-5,.cls-6{stroke:#fff;}.cls-2{font-size:35.14px;fill:#fff;font-family:Affogato-Bold, Affogato;font-weight:700;}.cls-3{letter-spacing:-0.05em;}.cls-4{letter-spacing:-0.02em;}.cls-5,.cls-6{fill:none;stroke-linecap:round;stroke-linejoin:round;}.cls-5{stroke-width:3.1px;}.cls-6{stroke-width:3px;}</style></defs><title>ctic_home_cards-herramientas</title><g id="Capa_2" data-name="Capa 2"><g id="Layer_1" data-name="Layer 1"><polygon class="cls-1" points="442.07 2.25 402.58 2.25 2.25 2.25 2.25 179.38 442.07 179.38 442.07 27.66 442.07 2.25"/><text class="cls-2" transform="translate(191.17 102.35)">HERRAMIEN<tspan class="cls-3" x="183.33" y="0">T</tspan><tspan class="cls-4" x="197.51" y="0">A</tspan><tspan x="218.28" y="0">S</tspan></text><path class="cls-5" d="M131.05,109.6,116.31,95.17l28.74-27.92,6.81-.19a2.43,2.43,0,0,0,2-1.16l9.74-16a2.33,2.33,0,0,0-.36-2.87l-8.42-8.25a2.46,2.46,0,0,0-2.94-.35l-16.37,9.54a2.33,2.33,0,0,0-1.18,2l-.19,6.64-28.67,28L85.8,65.29a21.6,21.6,0,0,0-18-24.89,22.36,22.36,0,0,0-15.94,3.3A2.33,2.33,0,0,0,51.26,47a2.4,2.4,0,0,0,.82.73l10.92,6c2.4,1.34,2.88,5.34.93,8.74s-5.67,5.13-8.1,3.81L45.7,60.84a2.42,2.42,0,0,0-3.26.93,2.4,2.4,0,0,0-.3,1.28A21.86,21.86,0,0,0,65.48,83.21a22.74,22.74,0,0,0,7.28-1.69L90.65,99l-7.74,7.59-1.76-1.7a5.11,5.11,0,0,0-7,0l-2.4,2.36a4.64,4.64,0,0,0-.27,6.47h0L43.08,141.56a4.65,4.65,0,0,0-.15,6.66l.15.15,8.13,7.95a4.88,4.88,0,0,0,6.8.15l.15-.15,28.48-27.85h0a4.88,4.88,0,0,0,6.61-.26l2.41-2.36a4.64,4.64,0,0,0,.15-6.65l-.15-.15-1.76-1.72,7.7-7.7,23.32,22.84A21.6,21.6,0,0,0,143,157.29a22.28,22.28,0,0,0,19.37-6.17,2.32,2.32,0,0,0-.2-3.32,2.36,2.36,0,0,0-.89-.49l-13.54-3.56a4.41,4.41,0,0,1-2.83-2.71,8.39,8.39,0,0,1-.24-5.55c1-3.7,4.2-6.34,6.9-5.63l13.39,3.53a2.36,2.36,0,0,0,.65,0,2.39,2.39,0,0,0,2.44-2.33,2.42,2.42,0,0,0-.27-1.11,21.42,21.42,0,0,0-5.56-9h0a22.14,22.14,0,0,0-15.56-6.31,22.47,22.47,0,0,0-8.68,1.75l-6.91-6.77"/><line class="cls-5" x1="90.65" y1="99.03" x2="105.22" y2="113.18"/><line class="cls-5" x1="121.58" y1="100.33" x2="100.46" y2="79.65"/><line class="cls-5" x1="191.34" y1="19.34" x2="85.46" y2="19.34"/><line class="cls-5" x1="22.23" y1="115.63" x2="22.23" y2="159.61"/><line class="cls-6" x1="191.54" y1="21.17" x2="191.54" y2="33.17"/></g></g></svg>