<svg xmlns="http://www.w3.org/2000/svg" viewBox="0 0 444.32 181.64"><defs><style>.cls-1{fill:#a4c135;stroke-miterlimit:10;stroke-width:4.51px;}.cls-1,.cls-5{stroke:#fff;}.cls-2{font-size:35.14px;fill:#fff;font-family:Affogato-Bold, Affogato;font-weight:700;}.cls-3{letter-spacing:-0.02em;}.cls-4{letter-spacing:0em;}.cls-5{fill:none;stroke-linecap:round;stroke-linejoin:round;stroke-width:3.1px;}</style></defs><title>ctic_home_cards-desafios</title><g id="Capa_2" data-name="Capa 2"><g id="Layer_1" data-name="Layer 1"><polygon class="cls-1" points="442.07 2.25 402.58 2.25 2.25 2.25 2.25 179.38 442.07 179.38 442.07 27.66 442.07 2.25"/><text class="cls-2" transform="translate(238.58 102.35)">DE<tspan class="cls-3" x="40.61" y="0">S</tspan><tspan class="cls-4" x="58.26" y="0">AFÍOS</tspan></text><line class="cls-5" x1="29.42" y1="33.4" x2="29.42" y2="77.14"/><line class="cls-5" x1="191.91" y1="142.97" x2="191.91" y2="158.6"/><line class="cls-5" x1="169.57" y1="158.6" x2="191.91" y2="158.6"/><path class="cls-5" d="M160.44,134.78l-19.67-33.84a5.42,5.42,0,0,0,3.06-5.34l-1.46-12L150.74,75a5.28,5.28,0,0,0,.13-7.16L142.5,59l1.73-12.11A5.42,5.42,0,0,0,140,41.2l-12.09-2.34L122,28.32a5.28,5.28,0,0,0-6.78-2.47h-.13L104,30.92l-10.9-5.2a5.28,5.28,0,0,0-4-.39A5.18,5.18,0,0,0,86,27.8L80,38.34l-12.1,2.08a5.38,5.38,0,0,0-4.39,5.86l1.47,12-8.38,8.59A5.28,5.28,0,0,0,56.5,74l8.37,8.85L63.14,95a5.36,5.36,0,0,0,3.46,5.47L46.8,134.78a2.57,2.57,0,0,0,0,2.6,2.74,2.74,0,0,0,2.26,1.3H70.32L80,155.21a2.74,2.74,0,0,0,2.26,1.3,2.56,2.56,0,0,0,2.25-1.3l19-31.75,19,32.14a2.75,2.75,0,0,0,2.26,1.3,2.58,2.58,0,0,0,2.26-1.3l9.7-16.92h21.27a2.58,2.58,0,0,0,2.26-1.3,2.12,2.12,0,0,0,.13-2.6Z"/><path class="cls-5" d="M82.42,148.7l-8.24-13.92a2.75,2.75,0,0,0-2.26-1.3H53.57l18.35-31.76,7.57,1.3,5.85,10.54A5.28,5.28,0,0,0,92.12,116h.14l5.44-2.48,2.66,4.56Z"/><path class="cls-5" d="M90.13,111.35H90l-5.85-10.8a5,5,0,0,0-3.72-2.47L68.2,95.87l1.72-12a5,5,0,0,0-1.33-4.29l-8.24-8.85,8.38-8.59a4.83,4.83,0,0,0,1.46-4.3L68.73,46a.4.4,0,0,1,.13-.26L81,43.68a5.38,5.38,0,0,0,3.72-2.6l6-10.55,10.9,5.21a5.17,5.17,0,0,0,4.78,0l11-5h.13l5.85,10.81A5,5,0,0,0,127,44.07L139,46.41l-1.72,12a5,5,0,0,0,1.32,4.3L147,71.53l-8.51,8.59a4.82,4.82,0,0,0-1.46,4.29l1.46,12-12,2a5.36,5.36,0,0,0-3.72,2.6l-6,10.54-10.9-5.2a5.2,5.2,0,0,0-4.79,0Z"/><path class="cls-5" d="M135.32,133.48a2.58,2.58,0,0,0-2.26,1.3l-8.24,14.31-18.74-31.75a2.11,2.11,0,0,0-.53-.91l-2.93-5.08.93-.39,10.9,5.21a5.34,5.34,0,0,0,2.4.52,5.27,5.27,0,0,0,4.65-2.6l6-10.55,8-1.43,18.21,31.37Z"/><path class="cls-5" d="M130.14,71c0-14.32-12-26-26.59-26S77,56.69,77,71s12,26,26.58,26,26.59-11.72,26.59-26Z"/></g></g></svg>