<svg xmlns="http://www.w3.org/2000/svg" viewBox="0 0 98.73 94.41"><defs><style>.cls-1{fill:#aac037;}.cls-2{fill:#fff;}</style></defs><title>home_icono-instagram</title><g id="Capa_2" data-name="Capa 2"><g id="Layer_1" data-name="Layer 1"><polygon class="cls-1" points="10.22 0 10.22 8.6 0 8.6 0 94.41 98.73 94.41 98.73 0 10.22 0"/><path class="cls-2" d="M71.81,47.2q0,6.69-.15,9.27-.3,6.08-3.62,9.4T58.63,69.5c-1.72.09-4.8.14-9.26.14s-7.55,0-9.26-.14Q34,69.2,30.7,65.87t-3.62-9.4q-.15-2.58-.15-9.27c0-4.46.05-7.54.15-9.26q.29-6.07,3.62-9.41t9.41-3.62c1.71-.1,4.8-.14,9.26-.14s7.54,0,9.26.14q6.07.3,9.41,3.62t3.62,9.41C71.76,39.66,71.81,42.74,71.81,47.2ZM51.6,28.78l-2.23,0-2.24,0c-1.35,0-2.38,0-3.08,0s-1.64,0-2.82.09a24.6,24.6,0,0,0-3,.29,12.55,12.55,0,0,0-2.09.54A7.66,7.66,0,0,0,31.87,34a10.66,10.66,0,0,0-.54,2.09,22.59,22.59,0,0,0-.3,3c0,1.18-.07,2.12-.08,2.82s0,1.73,0,3.08,0,2.1,0,2.23,0,.89,0,2.24,0,2.38,0,3.08,0,1.64.08,2.82a22.59,22.59,0,0,0,.3,3,10.86,10.86,0,0,0,.54,2.09A7.61,7.61,0,0,0,33.56,63a7.46,7.46,0,0,0,2.57,1.69,11.58,11.58,0,0,0,2.09.55,24.6,24.6,0,0,0,3,.29c1.18,0,2.12.08,2.82.08H54.68c.71,0,1.65,0,2.82-.08a24.4,24.4,0,0,0,3-.29,11.36,11.36,0,0,0,2.09-.55A7.37,7.37,0,0,0,65.17,63a7.64,7.64,0,0,0,1.7-2.57,12.55,12.55,0,0,0,.54-2.09,24.6,24.6,0,0,0,.29-3q.08-1.77.09-2.82c0-.7,0-1.73,0-3.08s0-2.1,0-2.24,0-.88,0-2.23,0-2.38,0-3.08,0-1.64-.09-2.82a24.6,24.6,0,0,0-.29-3A12.3,12.3,0,0,0,66.87,34a7.64,7.64,0,0,0-1.7-2.57,7.54,7.54,0,0,0-2.57-1.7,12.3,12.3,0,0,0-2.09-.54,24.4,24.4,0,0,0-3-.29q-1.76-.07-2.82-.09C54,28.77,53,28.77,51.6,28.78Zm5.92,10.27a11.58,11.58,0,0,1,0,16.31,11.59,11.59,0,0,1-16.3,0,11.58,11.58,0,0,1,0-16.31,11.56,11.56,0,0,1,16.3,0ZM54.66,52.49A7.48,7.48,0,1,0,44.08,41.92,7.48,7.48,0,0,0,54.66,52.49Zm8.59-19.16a2.68,2.68,0,1,1-3.8,3.79,2.69,2.69,0,0,1,1.9-4.58A2.58,2.58,0,0,1,63.25,33.33Z"/></g></g></svg>