<svg xmlns="http://www.w3.org/2000/svg" viewBox="0 0 98.73 94.41"><defs><style>.cls-1{fill:#aac037;}.cls-2{fill:#fff;}</style></defs><title>home_icono-youtube</title><g id="Capa_2" data-name="Capa 2"><g id="Layer_1" data-name="Layer 1"><polygon class="cls-1" points="10.22 0 10.22 8.6 0 8.6 0 94.41 98.73 94.41 98.73 0 10.22 0"/><path class="cls-2" d="M70.23,58.48a48.77,48.77,0,0,1-.73,9.86,5.37,5.37,0,0,1-1.63,2.78A5,5,0,0,1,65,72.42,152,152,0,0,1,49.37,73a151.77,151.77,0,0,1-15.63-.59,5,5,0,0,1-2.89-1.3,5.22,5.22,0,0,1-1.62-2.78,48.49,48.49,0,0,1-.73-9.86,49.33,49.33,0,0,1,.73-9.85,5.37,5.37,0,0,1,1.64-2.79,5.15,5.15,0,0,1,2.9-1.33Q38.92,44,49.37,44T65,44.51a5.22,5.22,0,0,1,2.88,1.33,5.09,5.09,0,0,1,1.62,2.79A47.59,47.59,0,0,1,70.23,58.48Zm-32.83-7h3V48.82H31.63v2.65h2.95v16H37.4Zm4.73-28.92H45L41.6,33.79v7.63H38.78V33.79a47.62,47.62,0,0,0-1.72-6c-.69-1.94-1.3-3.69-1.83-5.27h3l2,7.41Zm3.38,44.94H48V53.58H45.51V64.23c-.56.78-1.1,1.18-1.61,1.18-.33,0-.53-.2-.59-.59a8.82,8.82,0,0,1,0-1V53.58H40.78v11A7,7,0,0,0,41,66.65a1.53,1.53,0,0,0,1.64,1A4.1,4.1,0,0,0,45.51,66Zm7-35.56v4.93a5.52,5.52,0,0,1-.79,3.32,3.8,3.8,0,0,1-5.94,0A5.6,5.6,0,0,1,45,36.86V31.93a5.49,5.49,0,0,1,.79-3.3,3.8,3.8,0,0,1,5.94,0A5.49,5.49,0,0,1,52.55,31.93ZM50,37.33V31.42c0-1.29-.41-1.94-1.21-1.94s-1.21.65-1.21,1.94v5.91c0,1.32.4,2,1.21,2S50,38.65,50,37.33Zm7.6,26V57.78A10,10,0,0,0,57.34,55a2,2,0,0,0-2-1.58,3.41,3.41,0,0,0-2.62,1.52V48.82H50.21V67.49h2.51V66.14a3.5,3.5,0,0,0,2.62,1.55,2,2,0,0,0,2-1.55A10.31,10.31,0,0,0,57.59,63.33Zm-2.51-5.75v5.94c0,1.26-.36,1.89-1.09,1.89a1.81,1.81,0,0,1-1.27-.62V56.31A1.81,1.81,0,0,1,54,55.69C54.72,55.69,55.08,56.32,55.08,57.58ZM62,27.37V41.42H59.42V39.87a4,4,0,0,1-2.9,1.74,1.56,1.56,0,0,1-1.66-1,7.17,7.17,0,0,1-.23-2.11V27.37H57.2V37.7a8.33,8.33,0,0,0,0,1c.06.41.26.62.6.62.5,0,1-.41,1.6-1.22V27.37ZM67.11,63v-.36H64.55a12.93,12.93,0,0,1-.06,1.71,1.08,1.08,0,0,1-1.13,1c-.86,0-1.29-.65-1.29-1.94V61h5v-2.9a5.63,5.63,0,0,0-.76-3.27,3.84,3.84,0,0,0-6,0,5.39,5.39,0,0,0-.79,3.27V63a5.23,5.23,0,0,0,.82,3.26,3.6,3.6,0,0,0,3,1.44,3.45,3.45,0,0,0,3-1.49,3.48,3.48,0,0,0,.59-1.52A11.78,11.78,0,0,0,67.11,63ZM64.6,57.61V58.9H62.07V57.61q0-1.92,1.26-1.92C64.18,55.69,64.6,56.33,64.6,57.61Z"/></g></g></svg>