<svg xmlns="http://www.w3.org/2000/svg" viewBox="0 0 77.17 54.93"><defs><style>.cls-1{fill:#1b2647;}</style></defs><title>icono-desafios</title><g id="Capa_2" data-name="Capa 2"><g id="Layer_1" data-name="Layer 1"><path class="cls-1" d="M-172.75-97.55-173-100h-56l0,2.17-3.27-.5v37.12l2.5.16.06,2.29h57.2l-.32-1.67,2.41-.39V-97.53m-7.72,28.74h-1.61l.35,1.8-1.21,0v2.75h-40.7v-3h-1.51v-2.27h-1.51v-21h0v-2.37h3v-.76h39v1.23l2.06-.1-.06,1.31h2.15Z" transform="translate(240 100)"/><path class="cls-1" d="M-165.55-49.61h2.72V-56H-240v6.35h4.78l-.07,4.54h69.74m-27.24-6.35h-14.53v-1.82h14.53Z" transform="translate(240 100)"/></g></g></svg>