<svg xmlns="http://www.w3.org/2000/svg" viewBox="0 0 82.28 68.05"><defs><style>.cls-1{fill:#1b2647;}</style></defs><title>icono-secundarias</title><g id="Capa_2" data-name="Capa 2"><g id="Layer_1" data-name="Layer 1"><polyline class="cls-1" points="57.15 2.84 51.07 2.84 51.07 0 44.37 0 41.34 0 41.34 27.16 43.77 27.16 43.77 20.66 43.77 10.13 49.85 10.13 49.85 12.16 57.15 12.16"/><path class="cls-1" d="M-157.72-67.17V-72h-30v-6.08h-19.46V-72H-240v4.86h2.84v28H-240v4.46h82.28V-39.2H-161v-28Zm-58,23.11h-8.51v-17h8.51ZM-191.77-38h-13V-56.22h13Zm19.86-7.71h-8.91v-15.4h8.91Z" transform="translate(240 100)"/><rect class="cls-1" x="32.98" y="62.2" width="17.3" height="5.85"/></g></g></svg>