<?xml version="1.0" encoding="UTF-8" standalone="no"?>
<svg
   xmlns:dc="http://purl.org/dc/elements/1.1/"
   xmlns:cc="http://creativecommons.org/ns#"
   xmlns:rdf="http://www.w3.org/1999/02/22-rdf-syntax-ns#"
   xmlns:svg="http://www.w3.org/2000/svg"
   xmlns="http://www.w3.org/2000/svg"
   xmlns:sodipodi="http://sodipodi.sourceforge.net/DTD/sodipodi-0.dtd"
   xmlns:inkscape="http://www.inkscape.org/namespaces/inkscape"
   viewBox="0 0 77.17 54.93"
   version="1.1"
   id="svg14"
   sodipodi:docname="icono-desafios-blanco.svg"
   inkscape:version="0.92.1 r15371">
  <metadata
     id="metadata18">
    <rdf:RDF>
      <cc:Work
         rdf:about="">
        <dc:format>image/svg+xml</dc:format>
        <dc:type
           rdf:resource="http://purl.org/dc/dcmitype/StillImage" />
        <dc:title>icono-desafios</dc:title>
      </cc:Work>
    </rdf:RDF>
  </metadata>
  <sodipodi:namedview
     pagecolor="#ffffff"
     bordercolor="#666666"
     borderopacity="1"
     objecttolerance="10"
     gridtolerance="10"
     guidetolerance="10"
     inkscape:pageopacity="0"
     inkscape:pageshadow="2"
     inkscape:window-width="819"
     inkscape:window-height="480"
     id="namedview16"
     showgrid="false"
     inkscape:zoom="4.2963772"
     inkscape:cx="38.584999"
     inkscape:cy="27.465"
     inkscape:window-x="0"
     inkscape:window-y="0"
     inkscape:window-maximized="0"
     inkscape:current-layer="svg14" />
  <defs
     id="defs4">
    <style
       id="style2">.cls-1{fill:#1b2647;}</style>
  </defs>
  <title
     id="title6">icono-desafios</title>
  <g
     id="Capa_2"
     data-name="Capa 2"
     style="fill:#ffffff">
    <g
       id="Layer_1"
       data-name="Layer 1"
       style="fill:#ffffff">
      <path
         class="cls-1"
         d="M-172.75-97.55-173-100h-56l0,2.17-3.27-.5v37.12l2.5.16.06,2.29h57.2l-.32-1.67,2.41-.39V-97.53m-7.72,28.74h-1.61l.35,1.8-1.21,0v2.75h-40.7v-3h-1.51v-2.27h-1.51v-21h0v-2.37h3v-.76h39v1.23l2.06-.1-.06,1.31h2.15Z"
         transform="translate(240 100)"
         id="path8"
         style="fill:#ffffff" />
      <path
         class="cls-1"
         d="M-165.55-49.61h2.72V-56H-240v6.35h4.78l-.07,4.54h69.74m-27.24-6.35h-14.53v-1.82h14.53Z"
         transform="translate(240 100)"
         id="path10"
         style="fill:#ffffff" />
    </g>
  </g>
</svg>
