<svg xmlns="http://www.w3.org/2000/svg" viewBox="0 0 350 321"><defs><style>.cls-1{fill:#fff;}.cls-2{fill:none;stroke:#00214a;stroke-miterlimit:10;stroke-width:3px;}</style></defs><title>copa-tic_0_1</title><g id="Capa_2" data-name="Capa 2"><g id="Layer_1" data-name="Layer 1"><path class="cls-1" d="M261,35V2H88V35H45V26H1V80H16v36H45v36H73v16H88v19h29v18h29v71H105v29H82v15H267V305H244V276H203V205h29V187h29V168h16V152h27V116h30V80h14V27H304v8ZM88,136H74V98H45V50H88ZM304,98H276v38H261V50h43Z"/><path class="cls-2" d="M348.5,35.27V26.5h-44v9h-44V1.5H87.5v34h-43v-9H1.5v8.77h0V80.5h14v36h30v36h27v15h15v20h30v17h28v71h-40v30h-23v14h185v-14h-23v-30h-42v-71h30v-17h28v-20h17v-15h27v-36h29v-36h15V35.27ZM87.5,135.5h-14v-38h-28v-48h42Zm217-38h-29v38h-15v-86h44Z"/></g></g></svg>