<svg xmlns="http://www.w3.org/2000/svg" viewBox="0 0 399.74 512.32"><defs><style>.cls-1,.cls-3,.cls-6{fill:#fff;}.cls-2{fill:#ed6666;}.cls-3,.cls-4,.cls-5,.cls-6{stroke:#112349;}.cls-3,.cls-4,.cls-5{stroke-linecap:round;stroke-linejoin:round;}.cls-3{stroke-width:1.23px;}.cls-4,.cls-5{fill:none;}.cls-4{stroke-width:1.44px;}.cls-5{stroke-width:1.56px;}.cls-6{stroke-miterlimit:10;stroke-width:1.39px;}.cls-7{fill:#112349;}</style></defs><title>actuacion_1</title><g id="Capa_2" data-name="Capa 2"><g id="Layer_1" data-name="Layer 1"><rect class="cls-1" y="0.32" width="399.74" height="512"/><ellipse class="cls-2" cx="199.47" cy="128.52" rx="129.3" ry="128.2"/><path class="cls-1" d="M265,94.62c-1.8-2.5-2.4-5.8-2.4-9.1-5.7-2.3-10.5-6.2-16.8-7.5a149.3,149.3,0,0,0-28.3-2.9c-10.2-.2-19.2.6-28.9,3.5a159.81,159.81,0,0,1-19.9,4.8v35.2a8.67,8.67,0,0,1,2.8,6.3c.5,14.8,6.4,25.9,16.7,36.2,5,5,8.5,10.6,14.8,14.1,6,3.3,12.9,5.2,19.2,7.9a9.25,9.25,0,0,0,1,.5c3.8-2.1,8-4.1,12-6.3.7-.8,1.4-1.5,2.1-2.2a28.79,28.79,0,0,1,5.6-4.3c2.1-3.4,5-6.6,7.1-9.9a8.81,8.81,0,0,1,2.3-2.4c2.2-6.1,5.6-12.1,7.8-18,1.1-3.1,2.3-6.4,3.2-9.8-.1-4.8-.5-9.6-.6-14.3a8.8,8.8,0,0,1,2.5-6.1V94.62Z"/><path class="cls-1" d="M225.67,145.32c-.2-3.3-.4-6.8-.9-10.2-2-4.4-4.2-8.6-6.1-13a8.61,8.61,0,0,1-.1-6.5l-6.1-14.5c-2.7-1.6-4.5-4.5-5.7-7.5-6.1,0-12.1-1.7-18.5-.6a152.27,152.27,0,0,0-27.3,7.9c-9.5,3.7-17.5,7.8-25.4,14.1a147.87,147.87,0,0,1-16.6,11.9l13.7,32.5a8.79,8.79,0,0,1,5,4.7,51.56,51.56,0,0,0,7.9,12.4l.6.3c10.8,7.1,20.2,11.8,32.8,14.9,4.1,1,11.1,3.6,15.4,2.5,3.9-1.1,6.9-6,8.3-9.4a10.54,10.54,0,0,1,2.5-3.6,8.45,8.45,0,0,1,8.1-4.9,8.56,8.56,0,0,1,7.7,4.2c.2-.3.3-.5.5-.8.6-3.9,2-8,2.7-11.8a9.47,9.47,0,0,1,1.1-3.1C225.17,158.32,226,151.52,225.67,145.32Z"/><polygon class="cls-3" points="272.47 159.52 275.77 166.02 283.27 167.12 277.87 172.22 279.17 179.52 272.47 176.12 265.87 179.52 267.07 172.22 261.77 167.12 269.17 166.02 272.47 159.52"/><ellipse class="cls-4" cx="199.87" cy="128.82" rx="130.5" ry="128.1"/><path class="cls-4" d="M134.67,216.42a108.69,108.69,0,0,1-40.6-56.2"/><path class="cls-4" d="M306.07,159.32a108,108,0,0,1-28.1,46.4"/><path class="cls-4" d="M92.67,102.32c12-47.1,55.5-82,107.2-82,49.4,0,91.2,31.7,105.4,75.6"/><polygon class="cls-3" points="126.27 75.82 129.57 82.42 137.07 83.52 131.67 88.62 132.97 95.92 126.27 92.42 119.67 95.92 120.97 88.62 115.57 83.52 122.97 82.42 126.27 75.82"/><path class="cls-5" d="M170.37,84.12s38.9-20.5,92.9,0v27.8s3,54.2-44.9,71.8c0,0-47.9-16.1-47.9-71.8V84.12Z"/><path class="cls-5" d="M201.57,187.62a52.5,52.5,0,0,1-7,7.2s-45,1.8-63.3-44.3l-9.2-23.1s11.8-13.6,35.6-22.3"/><path class="cls-5" d="M237.77,146.92a22.16,22.16,0,0,1-42.2-.6Z"/><path class="cls-5" d="M184.67,119.32c2-3.6,6.6-6.1,11.9-6.1s9.9,2.5,11.9,6.1"/><path class="cls-5" d="M167.47,148.62c-.5,3.7-3.6,7.3-8.1,9s-9.3,1-12.2-1.4"/><path class="cls-5" d="M223.77,119.12c2.1-3.5,6.6-5.9,11.8-5.9s9.7,2.4,11.8,5.9"/><polygon class="cls-6" points="331.17 208.62 79.97 230.22 68.57 282.82 89.47 281.12 87.67 289.52 319.97 269.62 331.17 208.62"/><path class="cls-7" d="M109.57,242.52l8.1-.7,1.8,31.4-6.8.6-.1-6.7-8.7.7-2.9,6.9-6.8.6Zm-3.4,19.9,6.4-.5-.1-14.2h-.1Z"/><path class="cls-7" d="M139.87,250.52c1-4.7.5-6.6-2.5-6.4-3.3.3-4.8,3.6-6.7,12.7-2.1,9.7-1.1,11.4,1.8,11.1,2.4-.2,4.4-1.6,5.8-8.5l6.6-.6c-1.5,6.9-4.5,13.1-13.1,13.8-9.8.8-9.6-6-7.5-15.8s4.8-16.8,14.6-17.7c9.4-.8,8.6,5.9,7.6,10.6Z"/><path class="cls-7" d="M171.57,237.12l-1.1,5.3-7.1.6-5.7,26.9-6.6.6,5.7-26.8-7.1.6,1.1-5.3Z"/><path class="cls-7" d="M180.37,236.42l-4.7,22.4c-.7,3.2-.4,5.5,2.6,5.3s4.3-2.7,5-5.9l4.7-22.4,6.6-.6-4.7,22.4c-1.7,8.2-7.2,10.8-12.6,11.3s-10-.9-8.2-9.5l4.7-22.4Z"/><path class="cls-7" d="M204.87,234.22l8.1-.7,1.8,31.4-6.8.6-.1-6.7-8.7.7-2.9,6.9-6.8.6Zm-3.4,20,6.4-.5-.1-14.2h-.1Z"/><path class="cls-7" d="M235.27,242.32c1-4.7.5-6.6-2.5-6.4-3.3.3-4.8,3.6-6.7,12.7-2.1,9.7-1.1,11.4,1.8,11.1,2.4-.2,4.4-1.6,5.8-8.5l6.6-.6c-1.5,6.9-4.5,13.1-13.1,13.8-9.8.8-9.6-6-7.5-15.8s4.8-16.8,14.6-17.7c9.4-.8,8.6,5.9,7.6,10.6Z"/><path class="cls-7" d="M241.37,262.72l6.8-32.1,6.6-.6-6.8,32.2Z"/><path class="cls-7" d="M270,228c9.8-.8,9.6,6,7.5,15.8s-4.8,16.8-14.6,17.7-9.6-6-7.5-15.8S260.07,228.92,270,228Zm-6.1,28.7c3.9-.3,5.2-3.7,7-12.3s1.9-11.9-2-11.5-5.2,3.7-7,12.3S260,257,263.87,256.72Zm7.2-36.4,6.3-.5-5.8,6.9-4.3.4Z"/><path class="cls-7" d="M292.07,226.72l3.3,21.3h.1l4.7-22,6-.5-6.8,32.2-7.5.6-3.3-21.8h-.1l-4.8,22.5-6,.5,6.8-32.2Z"/></g></g></svg>