<svg xmlns="http://www.w3.org/2000/svg" viewBox="0 0 399.74 512"><defs><style>.cls-1,.cls-4,.cls-5,.cls-6,.cls-7{fill:#fff;}.cls-2{fill:#38cece;}.cls-3{fill:none;stroke-width:1.41px;}.cls-3,.cls-4,.cls-7{stroke:#112349;}.cls-3,.cls-4{stroke-linecap:round;stroke-linejoin:round;}.cls-4{stroke-width:1.2px;}.cls-5,.cls-6{stroke:#142348;}.cls-5,.cls-6,.cls-7{stroke-miterlimit:10;}.cls-5{stroke-width:1.17px;}.cls-6{stroke-width:0.78px;}.cls-7{stroke-width:1.36px;}.cls-8{fill:#112349;}</style></defs><title>gestion-de-informacion</title><g id="Capa_2" data-name="Capa 2"><g id="Layer_1" data-name="Layer 1"><rect class="cls-1" width="399.74" height="512"/><ellipse class="cls-2" cx="199.62" cy="129.7" rx="129.6" ry="129.7"/><circle class="cls-3" cx="200.72" cy="130.8" r="129"/><path class="cls-3" d="M136.22,219a109.12,109.12,0,0,1-40.1-56.5"/><path class="cls-3" d="M305.62,161.5a109.38,109.38,0,0,1-27.8,46.8"/><path class="cls-3" d="M94.72,104.2a109.28,109.28,0,0,1,210.1-6.5"/><polygon class="cls-4" points="127.52 89.1 130.82 95.7 138.12 96.8 132.82 101.9 134.12 109.2 127.52 105.8 121.02 109.2 122.22 101.9 116.92 96.8 124.22 95.7 127.52 89.1"/><polygon class="cls-4" points="263.62 167.3 266.92 173.9 274.22 175 268.92 180.2 270.22 187.5 263.62 184 257.12 187.5 258.32 180.2 253.02 175 260.32 173.9 263.62 167.3"/><path class="cls-5" d="M234.62,124.9a3.25,3.25,0,0,1-2.5-1.1l-21-24L196.82,117a3.34,3.34,0,1,1-5.1-4.3l16.8-20.2a3.17,3.17,0,0,1,2.5-1.2,3.47,3.47,0,0,1,2.6,1.1l20.1,23,7-14.3a3.38,3.38,0,1,1,6.1,2.9l-9.2,19a3.25,3.25,0,0,1-2.6,1.9Z"/><rect class="cls-5" x="169.01" y="138.81" width="23.9" height="9.4" transform="translate(-48.47 169.99) rotate(-45)"/><path class="cls-5" d="M221.92,53.1a49.4,49.4,0,1,0,49.4,49.4A49.38,49.38,0,0,0,221.92,53.1Zm0,91a41.6,41.6,0,1,1,41.6-41.6A41.57,41.57,0,0,1,221.92,144.1Z"/><path class="cls-5" d="M127.52,202.4l-5.5-5.5a5.31,5.31,0,0,1,0-7.4l43.9-43.9a5.31,5.31,0,0,1,7.4,0l5.5,5.5a5.31,5.31,0,0,1,0,7.4l-43.9,43.9A5.31,5.31,0,0,1,127.52,202.4Z"/><circle class="cls-5" cx="194.22" cy="114.8" r="6.7"/><path class="cls-6" d="M233.22,96.2a1.54,1.54,0,0,0,1.5,1.5h18.7a1.54,1.54,0,0,0,1.5-1.5V90.4a.86.86,0,0,0-.8-.8h-1.4a.86.86,0,0,0-.8.8v3.5a.86.86,0,0,1-.8.8H237a.86.86,0,0,1-.8-.8V90.4a.86.86,0,0,0-.8-.8H234a.86.86,0,0,0-.8.8v5.8Z"/><path class="cls-6" d="M243.82,89.1l-4.3-5.2s-.7-.6.1-.6h2.2a.22.22,0,0,0,.2-.2V75.7s-.1-.4.5-.4h3.4c.4,0,.4.3.4.3v7.3a.22.22,0,0,0,.2.2h2c.9,0,.2.6.2.6s-3.7,4.9-4.2,5.4c-.3.4-.7,0-.7,0Z"/><polygon class="cls-7" points="347.02 209.3 53.02 233.6 41.42 284.8 61.82 283 60.12 291.2 334.22 267 347.02 209.3"/><path class="cls-8" d="M75,253.4c.5-2.4,0-5.3-2.6-5.1-3.2.3-5.2,3.6-6.9,11.7-1.6,7.8-1.9,12.6,1.9,12.3,1.6-.1,4.4-2,5.2-5.5l.7-3.3-4.3.4,1-4.8,10.7-.9L77,275.6l-4.9.4.6-3h-.1a10.38,10.38,0,0,1-7.6,4.2c-8.1.7-8.4-5.1-6.1-16.3,2.3-10.9,6-16.6,14.5-17.4,7.2-.6,9.4,2.8,8,9.3Z"/><path class="cls-8" d="M106,241.3l-1.1,5.3-11.7,1-1.6,7.6,11-.9-1.1,5.3-11,.9-1.8,8.7,12.1-1-1.1,5.3L81,275.1l6.8-32.3Z"/><path class="cls-8" d="M110.12,262.8l-.2,1c-.6,3-.2,4.9,3.3,4.6a5.45,5.45,0,0,0,4.8-4.3c.6-2.9-.7-3.9-4.7-5-5.4-1.5-7.6-3.6-6.5-9,1.3-6.3,5.9-9.8,12.1-10.4,5.9-.5,9.6,1.6,8.3,7.8l-.2.9-6.3.5c.6-3,0-4.7-2.6-4.5a4.73,4.73,0,0,0-4.5,4.1c-.4,2-.1,3.2,2.5,4.1l4.6,1.7c4.5,1.7,5.3,4.1,4.4,8-1.4,6.8-6.3,10.3-13.4,10.9-7.5.6-9.7-2.5-8.4-8.5l.3-1.3Z"/><path class="cls-8" d="M152.22,237.3l-1.1,5.3-7.1.6-5.7,27-6.6.6,5.7-27-7.1.6,1.1-5.3Z"/><path class="cls-8" d="M148.32,269.4l6.8-32.3,6.6-.6-6.8,32.3Z"/><path class="cls-8" d="M176.92,234.6c9.9-.9,9.7,6,7.6,15.8s-4.8,16.9-14.7,17.7-9.7-6-7.6-15.8S167.12,235.4,176.92,234.6Zm-6,28.8c3.9-.3,5.2-3.7,7.1-12.4s1.9-11.9-2-11.6-5.2,3.7-7.1,12.4S167,263.7,170.92,263.4Zm7.2-36.6,6.3-.5-5.9,6.9-4.3.4Z"/><path class="cls-8" d="M199.22,233.3l3.3,21.4h.1l4.7-22.1,6-.5-6.8,32.3-7.5.6-3.3-21.9h-.1l-4.8,22.6-6,.5,6.8-32.3Z"/><path class="cls-8" d="M228.72,230.7l10.8-.9c9.2-.8,9.5,5.3,7.5,14.8-2.4,11.4-6,16.8-14.7,17.6l-10.4.9Zm.8,27,2.9-.3c4.6-.4,6.1-3.3,8-12.1,1.5-7.3,1.7-11-3.3-10.6l-2.8.2Z"/><path class="cls-8" d="M272.72,227l-1.1,5.3-11.7,1-1.6,7.6,11-.9-1.1,5.3-11,.9-1.8,8.7,12.1-1-1.1,5.3-18.7,1.6,6.8-32.3Z"/><path class="cls-8" d="M280.22,258l6.8-32.3,6.6-.6-5.7,27,11.7-1-1.1,5.3Z"/><path class="cls-8" d="M314.32,223.4l8.2-.7,1.8,31.6-6.9.6-.1-6.7-8.7.7-3,7-6.9.6Zm-3.3,20,6.4-.6-.1-14.2h-.1Z"/><polygon class="cls-7" points="358.32 258.8 77.92 283.2 68.42 340 339.62 317.3 340.92 310.3 348.82 309.6 358.32 258.8"/><path class="cls-8" d="M81.32,326.9l6.8-32.3,6.6-.6-6.8,32.3Z"/><path class="cls-8" d="M107,293l3.3,21.4h.1l4.7-22.1,6-.5-6.8,32.3-7.5.6-3.3-21.9h-.1l-4.8,22.6-6,.5,6.8-32.3Z"/><path class="cls-8" d="M125.42,291.4l18.3-1.6-1.1,5.3-11.7,1-1.6,7.6,11-.9-1.1,5.3-11,.9-3,14-6.6.6Z"/><path class="cls-8" d="M157,288.1c9.9-.9,9.7,6,7.6,15.8s-4.8,16.9-14.7,17.7-9.7-6-7.6-15.8S147.12,288.9,157,288.1Zm-6.1,28.8c3.9-.3,5.2-3.7,7.1-12.4s1.9-11.9-2-11.6-5.2,3.7-7.1,12.4S147,317.2,150.92,316.9Z"/><path class="cls-8" d="M171.62,287.4l12.2-1c5.4-.5,8.1,2.1,6.9,7.6-.9,4.3-3.3,7.3-7.1,8.4v.1c4.4.2,4.5,2.6,3.2,9.4-.7,3.4-.9,5.1.2,5.7l-.1.3-7.1.6a5.24,5.24,0,0,1-.1-3.3l1.1-6.2c.4-2.5-.4-4-3-3.7l-3.5.3-2.9,13.7-6.6.6Zm3.7,13.6,2.7-.2c3.2-.3,5.2-1.8,6-5.3.6-3-.7-4.3-3.6-4.1l-3.1.3Z"/><path class="cls-8" d="M197,285.3l9.8-.8-.1,22.4h.1l9.5-23.2,9.8-.8-6.8,32.3-6,.5,5.4-25.8h-.1l-11.3,26.3-5.1.4-.4-25.3h-.1l-5.4,25.8-6,.5Z"/><path class="cls-8" d="M236.92,281.8l8.2-.7,1.8,31.6-6.9.6-.1-6.7-8.7.8-3,7-6.9.6Zm-3.4,20.1,6.4-.6-.1-14.2h-.1Z"/><path class="cls-8" d="M267.42,289.9c1-4.7.5-6.7-2.5-6.4-3.3.3-4.8,3.7-6.8,12.8-2.1,9.8-1.1,11.4,1.8,11.2,2.4-.2,4.4-1.6,5.9-8.5l6.6-.6c-1.5,7-4.5,13.1-13.1,13.9-9.9.9-9.7-6-7.6-15.8s4.8-16.9,14.7-17.7c9.4-.8,8.7,6,7.7,10.7Z"/><path class="cls-8" d="M273.62,310.4l6.8-32.3,6.6-.6-6.8,32.3Z"/><path class="cls-8" d="M302.32,275.6c9.9-.9,9.7,6,7.6,15.8s-4.8,16.9-14.7,17.7-9.7-6-7.6-15.8S292.42,276.4,302.32,275.6Zm-6.1,28.7c3.9-.3,5.2-3.7,7.1-12.4s1.9-11.9-2-11.6-5.2,3.7-7.1,12.4S292.32,304.7,296.22,304.3Zm7.2-36.5,6.3-.5-5.9,6.9-4.3.4Z"/><path class="cls-8" d="M324.52,274.3l3.3,21.4h.1l4.7-22.1,6-.5-6.8,32.3-7.5.6L321,284.1h-.1l-4.8,22.6-6,.5,6.8-32.3Z"/></g></g></svg>