<svg xmlns="http://www.w3.org/2000/svg" viewBox="0 0 399.74 512.1"><defs><style>.cls-1,.cls-3,.cls-5,.cls-6,.cls-8{fill:#fff;}.cls-2{fill:#93e2a2;}.cls-3,.cls-4,.cls-5,.cls-6,.cls-8{stroke:#112349;}.cls-3,.cls-4{stroke-linecap:round;stroke-linejoin:round;}.cls-3{stroke-width:1.2px;}.cls-4{fill:none;stroke-width:1.41px;}.cls-5,.cls-6,.cls-8{stroke-miterlimit:10;}.cls-5{stroke-width:1.57px;}.cls-6{stroke-width:1.36px;}.cls-7{fill:#112349;}.cls-8{stroke-width:1.32px;}</style></defs><title>participacion-en-redes-sociales_1</title><g id="Capa_2" data-name="Capa 2"><g id="Layer_1" data-name="Layer 1"><rect class="cls-1" y="0.1" width="399.74" height="512"/><ellipse class="cls-2" cx="199.82" cy="129.4" rx="129.6" ry="129.3"/><polygon class="cls-3" points="295.82 123.7 299.02 130.3 306.42 131.4 301.12 136.6 302.32 143.9 295.82 140.4 289.22 143.9 290.42 136.6 285.12 131.4 292.52 130.3 295.82 123.7"/><circle class="cls-4" cx="200.22" cy="129.7" r="129"/><path class="cls-4" d="M135.72,217.9a109,109,0,0,1-40.1-56.6"/><path class="cls-4" d="M305.12,160.4a109.38,109.38,0,0,1-27.8,46.8"/><path class="cls-4" d="M94.22,103a109.28,109.28,0,0,1,210.1-6.5"/><polygon class="cls-3" points="140.32 60.1 143.62 66.8 150.92 67.8 145.62 73 146.82 80.3 140.32 76.9 133.72 80.3 135.02 73 129.72 67.8 137.02 66.8 140.32 60.1"/><path class="cls-5" d="M179.22,121.2l4.9-3.8.6-.6c2.1-2.4,15.2-18.2,18.2-28.2a4.1,4.1,0,0,0,.1-1.1V71.3a5.26,5.26,0,0,1,2.2-4.3,11,11,0,0,1,12.4-1,4,4,0,0,1,1.5,1.4,58.25,58.25,0,0,1,6.6,15.7,14,14,0,0,1,.2,6.1l-3.3,18.9a.66.66,0,0,0,.7.8h32.9a8.27,8.27,0,0,1,8.1,6.4,11.43,11.43,0,0,1,.3,2.8c0,5.1-2.9,7.5-4.9,8.5a1.18,1.18,0,0,0-.3,1.9,8.06,8.06,0,0,1,2.6,6c0,3.7-2.8,6.4-4.2,7.4a.82.82,0,0,0-.1,1.2,8.52,8.52,0,0,1,2,5.7c0,3.5-2.6,6.5-4.6,7.8a1.17,1.17,0,0,0-.3,1.7,12.37,12.37,0,0,1,1.6,6.3c0,4.9-4.9,8.8-9.6,8.8h-57.2a3.92,3.92,0,0,1-1.8-.4l-8.1-4a4,4,0,0,1-2.2-3.5V124.3A5.32,5.32,0,0,1,179.22,121.2Z"/><path class="cls-5" d="M175.92,177.4h-38.2a1.79,1.79,0,0,1-1.8-1.8V120a1.79,1.79,0,0,1,1.8-1.8h38.2a1.79,1.79,0,0,1,1.8,1.8v55.6A1.79,1.79,0,0,1,175.92,177.4Z"/><polygon class="cls-6" points="359.22 208.5 51.62 234.5 40.52 288.6 60.92 286.8 59.22 295 347.02 269 359.22 208.5"/><path class="cls-7" d="M66.42,247.9l11.5-1c6.7-.6,7.9,4.1,6.9,8.9-1.4,6.7-6.2,10.1-12.4,10.6l-3.5.3-2.7,12.9-6.6.6Zm3.5,14,2.9-.3c2.6-.2,4.7-1.9,5.4-5.2s-.2-4.9-3.5-4.6L72,252Z"/><path class="cls-7" d="M93.82,245.5l8.1-.7,1.8,31.5-6.9.6-.1-6.7-8.7.7-3,7-6.9.6Zm-3.4,20,6.4-.6-.1-14.2h-.1Z"/><path class="cls-7" d="M112.72,243.9l12.2-1c5.4-.5,8.1,2.1,6.9,7.6-.9,4.3-3.3,7.3-7.1,8.4v.1c4.4.2,4.5,2.6,3.2,9.4-.7,3.4-.9,5.1.2,5.7l-.1.3-7.1.6c-.5-.8-.3-2.1-.1-3.3l1.1-6.2c.4-2.5-.4-4-3-3.7l-3.5.3-2.9,13.6-6.6.6Zm3.6,13.5,2.7-.2c3.2-.3,5.2-1.8,6-5.3.6-3-.7-4.3-3.6-4.1l-3.1.3Z"/><path class="cls-7" d="M156.12,240.1l-1.1,5.3-7.1.6-5.7,26.9-6.6.6,5.7-26.9-7.1.6,1.1-5.3Z"/><path class="cls-7" d="M152.32,272.1l6.8-32.3,6.6-.6-6.8,32.3Z"/><path class="cls-7" d="M182,248.6c1-4.7.5-6.6-2.5-6.4-3.3.3-4.8,3.7-6.7,12.8-2.1,9.8-1.1,11.4,1.8,11.2,2.4-.2,4.4-1.6,5.8-8.5l6.6-.6c-1.5,7-4.5,13.1-13.1,13.9-9.9.9-9.6-6-7.6-15.8s4.8-16.9,14.7-17.7c9.4-.8,8.7,6,7.7,10.6Z"/><path class="cls-7" d="M188.22,269l6.8-32.3,6.6-.6-6.8,32.3Z"/><path class="cls-7" d="M206.22,235.8l11.5-1c6.7-.6,7.9,4.1,6.9,8.9-1.4,6.7-6.2,10.1-12.4,10.6l-3.5.3L206,267.5l-6.6.6Zm3.5,14,2.9-.3c2.6-.2,4.7-1.9,5.4-5.2s-.2-4.9-3.5-4.6l-2.7.2Z"/><path class="cls-7" d="M233.62,233.5l8.1-.7,1.8,31.5-6.9.6-.1-6.7-8.7.7-3,7-6.9.6Zm-3.4,20,6.4-.6-.1-14.2h-.1Z"/><path class="cls-7" d="M264.12,241.5c1-4.7.5-6.6-2.5-6.4-3.3.3-4.8,3.7-6.7,12.8-2.1,9.8-1.1,11.4,1.8,11.2,2.4-.2,4.4-1.6,5.8-8.5l6.6-.6c-1.5,7-4.5,13.1-13.1,13.9-9.9.9-9.6-6-7.6-15.8s4.8-16.9,14.7-17.7c9.4-.8,8.7,6,7.7,10.6Z"/><path class="cls-7" d="M270.32,262l6.8-32.3,6.6-.6-6.8,32.3Z"/><path class="cls-7" d="M298.92,227.2c9.9-.9,9.6,6,7.6,15.8s-4.8,16.9-14.7,17.7-9.6-6-7.6-15.8S289,228.1,298.92,227.2Zm-6.1,28.7c3.9-.3,5.2-3.7,7.1-12.4s1.9-11.9-2-11.6-5.2,3.7-7.1,12.4S288.92,256.3,292.82,255.9Zm7.2-36.4,6.3-.5-5.9,6.9-4.3.4Z"/><path class="cls-7" d="M321.12,225.9l3.3,21.4h.1l4.7-22.1,6-.5-6.8,32.3-7.5.6-3.3-21.9h-.1l-4.8,22.6-6,.5,6.8-32.3Z"/><polygon class="cls-6" points="109.82 396.2 317.92 379.1 329.02 325.1 308.62 326.8 310.32 317.4 122.02 334.5 109.82 396.2"/><path class="cls-7" d="M138.62,373.2l-.2.9c-.6,3-.2,4.9,3.3,4.6a5.45,5.45,0,0,0,4.8-4.3c.6-2.9-.7-3.9-4.7-5-5.4-1.5-7.6-3.6-6.5-9,1.3-6.3,5.9-9.8,12.1-10.4,5.9-.5,9.6,1.6,8.3,7.8l-.2.9-6.3.5c.6-3,0-4.7-2.6-4.5a4.73,4.73,0,0,0-4.5,4.1c-.4,2-.1,3.2,2.5,4.1l4.6,1.7c4.5,1.7,5.2,4.1,4.4,8-1.4,6.8-6.3,10.3-13.4,10.9-7.5.6-9.7-2.5-8.4-8.5l.3-1.3Z"/><path class="cls-7" d="M172,347.9c9.9-.9,9.6,6,7.6,15.8s-4.8,16.9-14.7,17.7-9.6-6-7.6-15.8S162.12,348.7,172,347.9Zm-6.1,28.7c3.9-.3,5.2-3.7,7.1-12.4s1.9-11.9-2-11.6-5.2,3.7-7.1,12.4S162.12,377,165.92,376.6Z"/><path class="cls-7" d="M198.32,356.9c1-4.7.5-6.6-2.5-6.4-3.3.3-4.8,3.7-6.7,12.8-2.1,9.8-1.1,11.4,1.8,11.2,2.4-.2,4.4-1.6,5.8-8.5l6.6-.6c-1.5,7-4.5,13.1-13.1,13.9-9.9.9-9.6-6-7.6-15.8s4.8-16.9,14.7-17.7c9.4-.8,8.7,6,7.7,10.6Z"/><path class="cls-7" d="M204.52,377.4l6.8-32.3,6.6-.6-6.8,32.3Z"/><path class="cls-7" d="M228.92,343.6l8.1-.7,1.8,31.5-6.9.6-.1-6.7-8.7.7-3,7-6.9.6Zm-3.4,20,6.4-.6-.1-14.2h-.1Z"/><path class="cls-7" d="M240.92,374.2l6.8-32.3,6.6-.6-5.7,26.9,11.7-1-1.1,5.3Z"/><path class="cls-7" d="M286.92,338.6l-1.1,5.3-11.7,1-1.6,7.6,11-.9-1.1,5.3-11,.9-1.8,8.7,12.1-1-1.1,5.3-18.7,1.6,6.8-32.3Z"/><path class="cls-7" d="M291.12,360l-.2.9c-.6,3-.2,4.9,3.3,4.6a5.45,5.45,0,0,0,4.8-4.3c.6-2.9-.7-3.9-4.7-5-5.4-1.5-7.6-3.6-6.5-9,1.3-6.3,5.9-9.8,12.1-10.4,5.9-.5,9.6,1.6,8.3,7.8l-.2.9-6.3.5c.6-3,0-4.7-2.6-4.5a4.73,4.73,0,0,0-4.5,4.1c-.4,2-.1,3.2,2.5,4.1l4.6,1.7c4.5,1.7,5.2,4.1,4.4,8-1.4,6.8-6.3,10.3-13.4,10.9-7.5.6-9.7-2.5-8.4-8.5l.3-1.3Z"/><polygon class="cls-8" points="286.32 269.8 84.32 289 75.32 345.8 268.72 328.2 269.92 321.2 277.42 320.5 286.32 269.8"/><path class="cls-7" d="M116.22,297.5l-1.1,5.3-11.7,1-1.6,7.6,11-.9-1.1,5.3-11,.9-1.8,8.7,12.1-1-1.1,5.3-18.7,1.6L98,299Z"/><path class="cls-7" d="M127.42,296.5l3.3,21.4h.1l4.7-22.1,6-.5-6.8,32.3-7.5.6-3.3-21.9h-.1L119,328.9l-6,.5,6.8-32.3Z"/><path class="cls-7" d="M156.52,294l12.2-1c5.4-.5,8.1,2.1,6.9,7.6-.9,4.3-3.3,7.3-7.1,8.4v.1c4.4.2,4.5,2.6,3.2,9.4-.7,3.4-.9,5.1.2,5.7l-.1.3-7.1.6a6,6,0,0,1-.1-3.3l1.1-6.2c.4-2.5-.4-4-3-3.7l-3.5.3-2.9,13.6-6.6.6Zm3.6,13.5,2.7-.2c3.2-.3,5.2-1.8,6-5.3.6-3-.7-4.3-3.6-4.1l-3.1.3Z"/><path class="cls-7" d="M200,290.3l-1.1,5.3-11.7,1-1.6,7.6,11-.9-1.1,5.3-11,.9-1.8,8.7,12.1-1-1.1,5.3L175,324.1l6.8-32.3Z"/><path class="cls-7" d="M203.82,289.9l10.8-.9c9.1-.8,9.5,5.3,7.5,14.7-2.4,11.4-6,16.8-14.7,17.5l-10.4.9Zm.8,26.9,2.9-.3c4.6-.4,6.1-3.3,7.9-12.1,1.5-7.3,1.7-11-3.3-10.6l-2.8.2Z"/><path class="cls-7" d="M247.82,286.1l-1.1,5.3-11.7,1-1.6,7.6,11-.9-1.1,5.3-11,.9-1.8,8.7,12.1-1-1.1,5.3-18.7,1.6,6.8-32.3Z"/><path class="cls-7" d="M251.92,307.6l-.2.9c-.6,3-.2,4.9,3.3,4.6a5.45,5.45,0,0,0,4.8-4.3c.6-2.9-.7-3.9-4.7-5-5.4-1.5-7.6-3.6-6.5-9,1.3-6.3,5.9-9.8,12.1-10.4,5.9-.5,9.6,1.6,8.3,7.8l-.2.9-6.3.5c.6-3,0-4.7-2.6-4.5a4.73,4.73,0,0,0-4.5,4.1c-.4,2-.1,3.2,2.5,4.1l4.6,1.7c4.5,1.7,5.2,4.1,4.4,8-1.4,6.8-6.3,10.3-13.4,10.9-7.5.6-9.7-2.5-8.4-8.5l.3-1.3Z"/></g></g></svg>