<svg xmlns="http://www.w3.org/2000/svg" viewBox="0 0 399.74 512.7"><defs><style>.cls-1,.cls-3,.cls-5,.cls-8{fill:#fff;}.cls-2{fill:#e867bd;}.cls-3,.cls-4,.cls-5,.cls-8{stroke:#112349;}.cls-3,.cls-4,.cls-5{stroke-linecap:round;stroke-linejoin:round;}.cls-3{stroke-width:1.2px;}.cls-4,.cls-6{fill:none;}.cls-4{stroke-width:1.41px;}.cls-5{stroke-width:1.17px;}.cls-7{fill:#142348;}.cls-8{stroke-miterlimit:10;stroke-width:1.36px;}.cls-9{fill:#112349;}</style></defs><title>produccion-multimedia_1</title><g id="Capa_2" data-name="Capa 2"><g id="Layer_1" data-name="Layer 1"><rect class="cls-1" y="0.7" width="399.74" height="512"/><ellipse class="cls-2" cx="200.02" cy="130.1" rx="129.6" ry="129"/><polygon class="cls-3" points="285.52 103.5 288.82 110.1 296.12 111.2 290.82 116.4 292.12 123.7 285.52 120.2 279.02 123.7 280.22 116.4 274.92 111.2 282.22 110.1 285.52 103.5"/><circle class="cls-4" cx="199.12" cy="129.7" r="129"/><path class="cls-4" d="M134.62,217.9a109,109,0,0,1-40.1-56.6"/><path class="cls-4" d="M304.12,160.3a108.8,108.8,0,0,1-27.8,46.8"/><path class="cls-4" d="M93.12,103a109.35,109.35,0,0,1,210.2-6.5"/><polygon class="cls-5" points="112.72 132.8 115.92 139.3 123.12 140.3 117.92 145.4 119.12 152.5 112.72 149.2 106.32 152.5 107.52 145.4 102.32 140.3 109.52 139.3 112.72 132.8"/><path class="cls-1" d="M249.12,156.4H145.82a4.65,4.65,0,0,1-4.6-4.6V74.9a4.65,4.65,0,0,1,4.6-4.6h103.3a4.65,4.65,0,0,1,4.6,4.6v76.9A4.65,4.65,0,0,1,249.12,156.4Z"/><path class="cls-1" d="M249.52,139.6H145.32a4.12,4.12,0,0,1-4.1-4.1V74.4a4.12,4.12,0,0,1,4.1-4.1h104.2a4.12,4.12,0,0,1,4.1,4.1v61.1A4,4,0,0,1,249.52,139.6Z"/><path class="cls-1" d="M188.82,187h-52a3,3,0,0,1-3-3V116.8a3,3,0,0,1,3-3h52a3,3,0,0,1,3,3V184A3.08,3.08,0,0,1,188.82,187Z"/><path class="cls-1" d="M189.22,176.7h-52.9a2.65,2.65,0,0,1-2.6-2.6V126.4a2.65,2.65,0,0,1,2.6-2.6h52.9a2.65,2.65,0,0,1,2.6,2.6v47.7A2.65,2.65,0,0,1,189.22,176.7Z"/><path class="cls-1" d="M258.52,187h-29.4a2.11,2.11,0,0,1-2.1-2.1V130.2a2.11,2.11,0,0,1,2.1-2.1h29.4a2.11,2.11,0,0,1,2.1,2.1V185A2,2,0,0,1,258.52,187Z"/><path class="cls-1" d="M259,176.5h-30.2a1.58,1.58,0,0,1-1.6-1.6V141.3a1.58,1.58,0,0,1,1.6-1.6H259a1.58,1.58,0,0,1,1.6,1.6v33.6A1.64,1.64,0,0,1,259,176.5Z"/><path class="cls-6" d="M212.52,176.9a1.52,1.52,0,0,0,.3-1.3l-.3-1.1h-18.6v3h17.4A1.56,1.56,0,0,0,212.52,176.9Z"/><path class="cls-6" d="M186.72,116.1h-47.6a1.54,1.54,0,0,0-1.5,1.5v3.6h50.5v-3.6A1.45,1.45,0,0,0,186.72,116.1Z"/><path class="cls-6" d="M232.12,184h23.8a1.54,1.54,0,0,0,1.5-1.5v-3.6h-26.7v3.6A1.39,1.39,0,0,0,232.12,184Z"/><rect class="cls-6" x="230.62" y="142.1" width="26.7" height="31.1"/><rect class="cls-6" x="193.82" y="142.1" width="31.1" height="11.6"/><polygon class="cls-6" points="193.82 159.4 193.82 168.8 210.92 168.8 208.32 159.4 193.82 159.4"/><path class="cls-6" d="M245.12,72.9h-95.2a5.8,5.8,0,0,0-5.8,5.8v31.7h42.6a7.17,7.17,0,0,1,7.2,7.2v18.8H225v-3.6a7.17,7.17,0,0,1,7.2-7.2H251V78.7A6,6,0,0,0,245.12,72.9Z"/><path class="cls-6" d="M255.92,131.3h-23.8a1.54,1.54,0,0,0-1.5,1.5v3.6h26.7v-3.6A1.39,1.39,0,0,0,255.92,131.3Z"/><rect class="cls-6" x="137.62" y="126.9" width="50.5" height="46.2"/><path class="cls-6" d="M139.12,184h47.6a1.54,1.54,0,0,0,1.5-1.5v-3.6h-50.5v3.6A1.39,1.39,0,0,0,139.12,184Z"/><path class="cls-7" d="M255.92,126.9h-.7V78.6a10.07,10.07,0,0,0-10.1-10.1h-95.2a10.07,10.07,0,0,0-10.1,10.1v33.1h-.7a5.8,5.8,0,0,0-5.8,5.8v64.9a5.8,5.8,0,0,0,5.8,5.8h47.6a5.8,5.8,0,0,0,5.8-5.8v-.7h18.8a5.83,5.83,0,0,0,5.6-7.3l-4.5-16.5h13.9v24.5a5.8,5.8,0,0,0,5.8,5.8h23.8a5.8,5.8,0,0,0,5.8-5.8V132.7A5.8,5.8,0,0,0,255.92,126.9Zm-66.4,55.6a2.8,2.8,0,0,1-2.8,2.8h-47.6a2.8,2.8,0,0,1-2.8-2.8v-5h53.3v5Zm0-8h-53.3V125.6h53.3Zm0-51.9h-53.3v-5a2.8,2.8,0,0,1,2.8-2.8h47.6a2.8,2.8,0,0,1,2.8,2.8v5ZM214,175.2a2.78,2.78,0,0,1-.5,2.5h0a2.84,2.84,0,0,1-2.3,1.1h-18.8v-5.7h21Zm-1.3-5h-20.2V158h16.9Zm13.6-15.1h-33.8V140.8h33.8Zm0-22.4v5h-33.8V117.6a5.8,5.8,0,0,0-5.8-5.8h-43.9V78.7a7.17,7.17,0,0,1,7.2-7.2h95.1a7.17,7.17,0,0,1,7.2,7.2V127h-20.1A5.68,5.68,0,0,0,226.32,132.7Zm32.4,49.8a2.8,2.8,0,0,1-2.8,2.8h-23.8a2.8,2.8,0,0,1-2.8-2.8v-5h29.5v5Zm0-8h-29.5V140.7h29.5Zm0-36.7h-29.5v-5A2.8,2.8,0,0,1,232,130h23.8a2.8,2.8,0,0,1,2.8,2.8v5Z"/><path class="cls-1" d="M193.22,158.7v10.8h18.6l-2.9-10.8Zm.6,10.1v-9.4h14.4l2.6,9.4Z"/><path class="cls-1" d="M186.72,115.4h-47.6a2.22,2.22,0,0,0-2.2,2.2v4.3h51.9v-4.3A2.14,2.14,0,0,0,186.72,115.4Zm1.4,5.8h-50.5v-3.6a1.54,1.54,0,0,1,1.5-1.5h47.6a1.54,1.54,0,0,1,1.5,1.5v3.6Z"/><path class="cls-1" d="M225.62,141.4h-32.4v13h32.4Zm-.7,12.3h-31.1V142.1h31.1Z"/><path class="cls-1" d="M139.12,184.6h47.6a2.22,2.22,0,0,0,2.2-2.2v-4.2h-52v4.3A2.14,2.14,0,0,0,139.12,184.6Zm-1.5-5.8h50.5v3.6a1.54,1.54,0,0,1-1.5,1.5H139a1.54,1.54,0,0,1-1.5-1.5v-3.6Z"/><path class="cls-1" d="M213,177.3a2.47,2.47,0,0,0,.4-1.9l-.4-1.6h-19.8v4.3h18.1A1.88,1.88,0,0,0,213,177.3Z"/><path class="cls-1" d="M188.82,126.3h-51.9v47.6h51.9Zm-.7,46.8h-50.5V126.9h50.5Z"/><path class="cls-1" d="M232.12,184.6h23.8a2.22,2.22,0,0,0,2.2-2.2v-4.2h-28.2v4.3A2.14,2.14,0,0,0,232.12,184.6Zm-1.5-5.8h26.7v3.6a1.54,1.54,0,0,1-1.5,1.5H232a1.54,1.54,0,0,1-1.5-1.5v-3.6Z"/><path class="cls-1" d="M258,141.4h-28.1v32.4H258Zm-.7,31.7h-26.7V142h26.7Z"/><path class="cls-1" d="M255.92,130.6h-23.8a2.22,2.22,0,0,0-2.2,2.2v4.3H258v-4.3A2.08,2.08,0,0,0,255.92,130.6Zm1.4,5.8h-26.7v-3.6a1.54,1.54,0,0,1,1.5-1.5h23.8a1.54,1.54,0,0,1,1.5,1.5v3.6Z"/><path class="cls-1" d="M136.22,182.5a2.8,2.8,0,0,0,2.8,2.8h47.6a2.8,2.8,0,0,0,2.8-2.8v-5h-53.3v5Zm.7-4.3h51.9v4.3a2.22,2.22,0,0,1-2.2,2.2H139a2.22,2.22,0,0,1-2.2-2.2v-4.3Z"/><path class="cls-1" d="M255.92,129.9h-23.8a2.8,2.8,0,0,0-2.8,2.8v5h29.5v-5A3,3,0,0,0,255.92,129.9Zm2.1,7.2h-28.1v-4.3a2.22,2.22,0,0,1,2.2-2.2h23.8a2.22,2.22,0,0,1,2.2,2.2v4.3Z"/><path class="cls-1" d="M192.52,155.1h33.8V140.8h-33.8Zm.7-13.7h32.4v13h-32.4Z"/><path class="cls-1" d="M192.52,158v12.2h20.2l-3.3-12.2Z"/><path class="cls-1" d="M186.72,114.8h-47.6a2.8,2.8,0,0,0-2.8,2.8v5h53.3v-5A3,3,0,0,0,186.72,114.8Zm2.1,7.1h-51.9v-4.3a2.22,2.22,0,0,1,2.2-2.2h47.6a2.22,2.22,0,0,1,2.2,2.2v4.3Z"/><path class="cls-1" d="M192.52,178.8h18.8a3,3,0,0,0,2.3-1.1h0a3.12,3.12,0,0,0,.5-2.5l-.6-2.1h-21v5.7Zm.7-5H213l.4,1.6a2.18,2.18,0,0,1-.4,1.9,2.14,2.14,0,0,1-1.7.8h-18.1v-4.3Z"/><path class="cls-1" d="M136.22,174.5h53.3V125.6h-53.3Zm.7-48.2h51.9v47.6h-51.9Z"/><path class="cls-1" d="M229.22,182.5a2.8,2.8,0,0,0,2.8,2.8h23.8a2.8,2.8,0,0,0,2.8-2.8v-5h-29.5v5Zm.7-4.3H258v4.3a2.22,2.22,0,0,1-2.2,2.2H232a2.22,2.22,0,0,1-2.2-2.2v-4.3Z"/><path class="cls-1" d="M229.22,174.5h29.5V140.7h-29.5Zm.7-33.1H258v32.4h-28.1Z"/><path class="cls-7" d="M147.72,149.5l14.4-14.4a1.45,1.45,0,0,1,2.1,0l1,1a1.45,1.45,0,0,1,0,2.1l-14.4,14.4a1.45,1.45,0,0,1-2.1,0l-1-1A1.45,1.45,0,0,1,147.72,149.5Z"/><path class="cls-7" d="M148.22,162.9l24.9-24.9a1.63,1.63,0,0,1,2.4,0l.7.7a1.63,1.63,0,0,1,0,2.4L151.32,166a1.63,1.63,0,0,1-2.4,0l-.7-.7A1.82,1.82,0,0,1,148.22,162.9Z"/><path class="cls-7" d="M192.42,110l25.7-25.7a1.22,1.22,0,0,1,1.6,0l1.4,1.4a1.22,1.22,0,0,1,0,1.6L195.42,113a1.22,1.22,0,0,1-1.6,0l-1.4-1.4A1.21,1.21,0,0,1,192.42,110Z"/><path class="cls-7" d="M238.12,161.3l8.2-8.2a1.87,1.87,0,0,1,2.6,0l.5.5a1.87,1.87,0,0,1,0,2.6l-8.2,8.2a1.87,1.87,0,0,1-2.6,0l-.5-.5A1.87,1.87,0,0,1,238.12,161.3Z"/><path class="cls-7" d="M148.92,76.5H151a1.11,1.11,0,0,1,1.1,1.1v2.1a1.11,1.11,0,0,1-1.1,1.1h-2.1a1.11,1.11,0,0,1-1.1-1.1V77.6A1,1,0,0,1,148.92,76.5Z"/><path class="cls-7" d="M157.42,76.5h2.4a1,1,0,0,1,1,1v2.4a1,1,0,0,1-1,1h-2.4a1,1,0,0,1-1-1V77.5A1,1,0,0,1,157.42,76.5Z"/><path class="cls-7" d="M166.22,76.5h2.1a1.11,1.11,0,0,1,1.1,1.1v2.1a1.11,1.11,0,0,1-1.1,1.1h-2.1a1.11,1.11,0,0,1-1.1-1.1V77.6A1,1,0,0,1,166.22,76.5Z"/><polygon class="cls-8" points="330.22 195.8 65.12 219 53.52 270 73.92 268.2 72.22 276.4 317.42 253.2 330.22 195.8"/><path class="cls-9" d="M76.52,230.5l11.5-1c6.7-.6,7.9,4.1,6.9,8.9-1.4,6.7-6.2,10.1-12.4,10.6l-3.5.3-2.7,12.9-6.6.6Zm3.5,14,2.9-.3c2.6-.2,4.7-1.9,5.4-5.2s-.2-4.9-3.5-4.6l-2.7.2Z"/><path class="cls-9" d="M100,228.5l12.2-1c5.4-.5,8.1,2.1,6.9,7.6-.9,4.3-3.3,7.3-7.1,8.4v.1c4.4.2,4.5,2.6,3.2,9.4-.7,3.4-.9,5.1.2,5.7l-.1.3-7.1.6c-.5-.8-.3-2.1-.1-3.3l1.1-6.2c.4-2.5-.4-4-3-3.7l-3.5.3-2.9,13.7-6.6.6Zm3.7,13.5,2.7-.2c3.2-.3,5.2-1.8,6-5.3.6-3-.7-4.3-3.6-4.1l-3.1.3Z"/><path class="cls-9" d="M135.82,224.7c9.9-.9,9.6,6,7.6,15.8s-4.8,16.9-14.7,17.7-9.6-6-7.6-15.8S125.92,225.6,135.82,224.7Zm-6,28.8c3.9-.3,5.2-3.7,7.1-12.4s1.9-11.9-2-11.6-5.2,3.7-7.1,12.4S125.92,253.8,129.82,253.5Z"/><path class="cls-9" d="M150.82,224.1l10.8-.9c9.2-.8,9.5,5.3,7.5,14.8-2.4,11.4-6,16.8-14.7,17.6l-10.4.9Zm.8,26.9,2.9-.3c4.6-.4,6.1-3.3,7.9-12.1,1.5-7.3,1.7-11-3.3-10.6l-2.8.2Z"/><path class="cls-9" d="M182.72,221.3l-4.8,22.5c-.7,3.2-.4,5.5,2.7,5.3s4.3-2.7,5-5.9l4.8-22.5,6.6-.6-4.8,22.5c-1.7,8.2-7.3,10.8-12.6,11.3s-10.1-.9-8.2-9.5l4.8-22.5Z"/><path class="cls-9" d="M212.62,229.5c1-4.7.5-6.7-2.5-6.4-3.3.3-4.8,3.7-6.7,12.8-2.1,9.8-1.1,11.4,1.8,11.2,2.4-.2,4.4-1.6,5.8-8.5l6.6-.6c-1.5,7-4.5,13.1-13.1,13.9-9.9.9-9.6-6-7.6-15.8s4.8-16.9,14.7-17.7c9.4-.8,8.7,6,7.7,10.7Z"/><path class="cls-9" d="M236.92,227.4c1-4.7.5-6.7-2.5-6.4-3.3.3-4.8,3.7-6.7,12.8-2.1,9.8-1.1,11.4,1.8,11.2,2.4-.2,4.4-1.6,5.8-8.5l6.6-.6c-1.5,7-4.5,13.1-13.1,13.9-9.9.9-9.6-6-7.6-15.8s4.8-16.9,14.7-17.7c9.4-.8,8.7,6,7.7,10.7Z"/><path class="cls-9" d="M243.12,247.8l6.8-32.3,6.6-.6-6.8,32.3Z"/><path class="cls-9" d="M271.72,213c9.9-.9,9.6,6,7.6,15.8s-4.8,16.9-14.7,17.7-9.6-6-7.6-15.8S261.82,213.9,271.72,213Zm-6,28.8c3.9-.3,5.2-3.7,7.1-12.4s1.9-11.9-2-11.6-5.2,3.7-7.1,12.4S261.82,242.1,265.72,241.8Zm7.2-36.5,6.3-.5-5.9,6.9-4.3.4Z"/><path class="cls-9" d="M294,211.7l3.3,21.4h.1l4.7-22.1,6-.5-6.8,32.3-7.5.6-3.3-21.9h-.1l-4.8,22.6-6,.5,6.8-32.3Z"/><polygon class="cls-8" points="346.22 247.3 84.92 271.4 75.32 328.2 329.22 305.7 330.52 298.7 338.52 298 346.22 247.3"/><path class="cls-9" d="M100.62,282.4l9.8-.8-.1,22.4h.1l9.5-23.2,9.7-.8-6.8,32.3-6,.5,5.4-25.8h-.1l-11.2,26.2-5.1.4-.4-25.3h-.1l-5.4,25.8-6,.5Z"/><path class="cls-9" d="M140.32,278.9l-4.8,22.5c-.7,3.2-.4,5.5,2.7,5.3s4.3-2.7,5-5.9l4.8-22.5,6.6-.6-4.8,22.5c-1.7,8.2-7.3,10.8-12.6,11.3s-10.1-.9-8.2-9.5l4.8-22.5Z"/><path class="cls-9" d="M151.72,309.7l6.8-32.3,6.6-.6-5.7,26.9,11.7-1L170,308Z"/><path class="cls-9" d="M195.22,274.2l-1.1,5.3-7.1.6-5.7,26.9-6.6.6,5.7-26.9-7.1.6,1.1-5.3Z"/><path class="cls-9" d="M191.32,306.2l6.8-32.3,6.6-.6-6.8,32.3Z"/><path class="cls-9" d="M209.52,273l9.8-.8-.1,22.4h.1l9.5-23.2,9.7-.8-6.8,32.3-6,.5,5.4-25.8H231l-11.3,26.3-5.1.4-.4-25.3h-.1l-5.4,25.8-6,.5Z"/><path class="cls-9" d="M261.32,268.5l-1.1,5.3-11.7,1-1.6,7.6,11-.9-1.1,5.3-11,.9-1.8,8.7,12.1-1-1.1,5.3-18.7,1.6,6.8-32.3Z"/><path class="cls-9" d="M265.12,268.2l10.8-.9c9.2-.8,9.5,5.3,7.5,14.8-2.4,11.4-6,16.8-14.7,17.6l-10.4.9Zm.8,26.9,2.9-.3c4.6-.4,6.1-3.3,7.9-12.1,1.5-7.3,1.7-11-3.3-10.6l-2.8.2Z"/><path class="cls-9" d="M284.32,298.2l6.8-32.3,6.6-.6-6.8,32.3Z"/><path class="cls-9" d="M308.82,264.4l8.1-.7,1.8,31.5-6.9.6-.1-6.7-8.7.7-3,7-6.9.6Zm-3.4,20.1,6.4-.6-.1-14.2h-.1Z"/></g></g></svg>