<svg xmlns="http://www.w3.org/2000/svg" viewBox="0 0 399.74 512.5"><defs><style>.cls-1,.cls-3,.cls-5,.cls-7{fill:#fff;}.cls-2{fill:#e71a49;}.cls-3,.cls-4,.cls-5,.cls-6,.cls-7{stroke:#112349;}.cls-3,.cls-4,.cls-5{stroke-linecap:round;stroke-linejoin:round;}.cls-3{stroke-width:1.2px;}.cls-4,.cls-6{fill:none;}.cls-4{stroke-width:1.41px;}.cls-5,.cls-6{stroke-width:1.57px;}.cls-6,.cls-7{stroke-miterlimit:10;}.cls-7{stroke-width:1.36px;}.cls-8{fill:#112349;}</style></defs><title>produccion-fotografica_1</title><g id="Capa_2" data-name="Capa 2"><g id="Layer_1" data-name="Layer 1"><rect class="cls-1" y="0.5" width="399.74" height="512"/><ellipse class="cls-2" cx="199.92" cy="130.4" rx="130.2" ry="129.9"/><polygon class="cls-3" points="295.12 124.3 298.42 131 305.82 132 300.52 137.2 301.72 144.6 295.12 141.1 288.62 144.6 289.82 137.2 284.52 132 291.92 131 295.12 124.3"/><circle class="cls-4" cx="199.12" cy="130.3" r="129.6"/><path class="cls-4" d="M134.32,219A110.23,110.23,0,0,1,94,162.2"/><path class="cls-4" d="M304.62,161.1a110.68,110.68,0,0,1-27.9,47"/><path class="cls-4" d="M92.72,103.5A109.79,109.79,0,0,1,303.82,97"/><polygon class="cls-3" points="138.92 60.4 142.22 67.1 149.62 68.2 144.32 73.4 145.52 80.7 138.92 77.2 132.42 80.7 133.62 73.4 128.32 68.2 135.62 67.1 138.92 60.4"/><path class="cls-5" d="M135.82,94.2a8.64,8.64,0,0,0-8.4,8.3v70.9a8.76,8.76,0,0,0,9,8.9h124a8.82,8.82,0,0,0,9-8.9V102.5a8.07,8.07,0,0,0-7.9-8.3h-32.9l-2.2-11.8a6.68,6.68,0,0,0-6.7-5.6h-42.5a6.38,6.38,0,0,0-6.1,5.6l-2.8,11.8Zm30.7,44.6a31.2,31.2,0,1,1,31.2,31.2A31.24,31.24,0,0,1,166.52,138.8Zm9.1,0a22.1,22.1,0,1,1,22.1,22.1A22.11,22.11,0,0,1,175.62,138.8Z"/><path class="cls-6" d="M147.62,100.8c3.4,0,5.6,2.8,5.6,6.1s-2.2,6.1-5.6,6.1a6.1,6.1,0,1,1,0-12.2Z"/><polygon class="cls-7" points="315.12 200.2 42.52 222.7 29.82 276.6 50.22 274.8 48.52 283 301.32 260.5 315.12 200.2"/><path class="cls-8" d="M53,237.6l11.9-1c6.9-.6,8.2,4.2,7.1,9.1-1.5,6.9-6.4,10.4-12.8,10.9l-3.6.3-2.8,13.2-6.8.6Zm3.6,14.4,3-.3c2.7-.2,4.8-2,5.6-5.4s-.2-5-3.6-4.7l-2.8.2Z"/><path class="cls-8" d="M77.22,235.5l12.5-1.1c5.5-.5,8.3,2.1,7.1,7.8-.9,4.4-3.3,7.5-7.3,8.7v.1c4.5.2,4.7,2.7,3.3,9.7-.7,3.5-.9,5.3.2,5.8l-.1.3-7.3.6c-.5-.9-.3-2.1-.1-3.4l1.2-6.3c.5-2.6-.4-4.1-3.1-3.8l-3.6.3-3,14-6.8.6Zm3.7,13.9,2.8-.2c3.2-.3,5.4-1.8,6.1-5.4.6-3.1-.7-4.5-3.7-4.2l-3.2.3Z"/><path class="cls-8" d="M114,231.7c10.2-.9,9.9,6.2,7.8,16.3s-4.9,17.3-15.1,18.2-9.9-6.2-7.8-16.3S103.82,232.5,114,231.7Zm-6.3,29.5c4-.3,5.4-3.8,7.3-12.7s1.9-12.3-2.1-11.9-5.4,3.8-7.3,12.7S103.72,261.6,107.72,261.2Z"/><path class="cls-8" d="M129.42,231l11.1-1c9.4-.8,9.8,5.4,7.7,15.2-2.5,11.8-6.1,17.3-15.1,18l-10.7.9Zm.8,27.6,3-.3c4.7-.4,6.3-3.4,8.2-12.4,1.6-7.5,1.8-11.3-3.4-10.9l-2.9.3Z"/><path class="cls-8" d="M162.12,228.2l-4.9,23.1c-.7,3.3-.4,5.7,2.7,5.4s4.5-2.8,5.2-6.1l4.9-23.1,6.8-.6-4.9,23.1c-1.8,8.5-7.5,11.1-13,11.6s-10.3-.9-8.5-9.8l4.9-23.1Z"/><path class="cls-8" d="M192.82,236.5c1-4.8.5-6.8-2.6-6.6-3.4.3-4.9,3.8-6.9,13.1-2.1,10-1.1,11.7,1.8,11.5,2.4-.2,4.5-1.6,6-8.8l6.8-.6c-1.5,7.2-4.6,13.5-13.5,14.3-10.2.9-9.9-6.2-7.8-16.3s4.9-17.3,15.1-18.2c9.7-.8,8.9,6.1,7.9,11Z"/><path class="cls-8" d="M217.92,234.4c1-4.8.5-6.8-2.6-6.6-3.4.3-4.9,3.8-6.9,13.1-2.1,10-1.1,11.7,1.8,11.5,2.4-.2,4.5-1.6,6-8.8l6.8-.6c-1.5,7.2-4.6,13.5-13.5,14.3-10.2.9-9.9-6.2-7.8-16.3s4.9-17.3,15.1-18.2c9.7-.8,8.9,6.1,7.9,11Z"/><path class="cls-8" d="M224.22,255.4l7-33.2,6.8-.6-7,33.2Z"/><path class="cls-8" d="M253.72,219.6c10.2-.9,9.9,6.2,7.8,16.3s-4.9,17.3-15.1,18.2-9.9-6.2-7.8-16.3S243.52,220.5,253.72,219.6Zm-6.3,29.6c4-.3,5.4-3.8,7.3-12.7s1.9-12.3-2.1-11.9-5.4,3.8-7.3,12.7S243.42,249.5,247.42,249.2Zm7.4-37.5,6.5-.6-6,7.1-4.4.4Z"/><path class="cls-8" d="M276.52,218.3l3.4,22h.1l4.8-22.7,6.2-.5-7,33.2-7.7.7-3.4-22.5h-.1l-4.9,23.2-6.2.5,7-33.2Z"/><polygon class="cls-7" points="369.92 248.9 86.62 273.5 77.02 330.2 351.22 307.4 352.52 300.4 360.42 299.6 369.92 248.9"/><path class="cls-8" d="M99.72,286.4l18.8-1.6-1.2,5.5-12,1-1.6,7.8,11.3-1-1.2,5.5-11.3,1-3,14.4-6.8.6Z"/><path class="cls-8" d="M132.12,282.9c10.2-.9,9.9,6.2,7.8,16.3s-4.9,17.3-15.1,18.2-9.9-6.2-7.8-16.3S121.92,283.8,132.12,282.9Zm-6.3,29.6c4-.3,5.4-3.8,7.3-12.7s1.9-12.3-2.1-11.9-5.4,3.8-7.3,12.7S121.82,312.8,125.82,312.5Z"/><path class="cls-8" d="M165.62,280.7l-1.2,5.5-7.3.6-5.8,27.7-6.8.6,5.8-27.7-7.3.6,1.2-5.5Z"/><path class="cls-8" d="M179.22,278.9c10.2-.9,9.9,6.2,7.8,16.3s-4.9,17.3-15.1,18.2-9.9-6.2-7.8-16.3S169,279.8,179.22,278.9Zm-6.3,29.5c4-.3,5.4-3.8,7.3-12.7s1.9-12.3-2.1-11.9-5.4,3.8-7.3,12.7S168.92,308.8,172.92,308.4Z"/><path class="cls-8" d="M207.12,286.8c.5-2.5,0-5.5-2.7-5.2-3.3.3-5.3,3.7-7.1,12-1.7,8-2,12.9,1.9,12.6,1.6-.1,4.5-2.1,5.3-5.7l.7-3.4-4.5.4,1-4.9,11-.9-3.8,17.9-5,.4.6-3.1h-.1a10.39,10.39,0,0,1-7.8,4.3c-8.3.7-8.7-5.3-6.3-16.7,2.4-11.2,6.2-17.1,14.9-17.8,7.4-.6,9.6,2.9,8.2,9.6Z"/><path class="cls-8" d="M220.12,276l12.5-1.1c5.5-.5,8.3,2.1,7.1,7.8-.9,4.4-3.3,7.5-7.3,8.7v.1c4.5.2,4.7,2.7,3.3,9.7-.7,3.5-.9,5.3.2,5.8l-.1.3-7.3.6c-.5-.9-.3-2.1-.1-3.4l1.2-6.3c.5-2.6-.4-4.1-3.1-3.8l-3.6.3-3,14-6.8.6Zm3.8,13.9,2.8-.2c3.2-.3,5.4-1.8,6.1-5.4.6-3.1-.7-4.5-3.7-4.2l-3.2.3Z"/><path class="cls-8" d="M252.62,273.2l8.4-.7,1.9,32.4-7.1.6-.1-6.9-8.9.8-3,7.1-7.1.6Zm-3.5,20.6,6.6-.6-.1-14.6h-.1Zm9-29.6,6.5-.6-6,7.1-4.4.4Z"/><path class="cls-8" d="M272,271.5l18.8-1.6-1.2,5.5-12,1-1.6,7.8,11.3-1-1.2,5.5-11.3,1-3,14.4-6.8.6Z"/><path class="cls-8" d="M286.82,302.8l7-33.2,6.8-.6-7,33.2Z"/><path class="cls-8" d="M317.42,278.6c1-4.8.5-6.8-2.6-6.6-3.4.3-4.9,3.8-6.9,13.1-2.1,10-1.1,11.7,1.8,11.5,2.4-.2,4.5-1.6,6-8.8l6.8-.6c-1.5,7.2-4.6,13.5-13.5,14.3-10.2.9-9.9-6.2-7.8-16.3s4.9-17.3,15.1-18.2c9.7-.8,8.9,6.1,7.9,11Z"/><path class="cls-8" d="M336.12,266l8.4-.7,1.9,32.4-7.1.6-.1-6.9-8.9.8-3,7.1-7.1.6Zm-3.5,20.6,6.6-.6-.1-14.6H339Z"/></g></g></svg>