<svg xmlns="http://www.w3.org/2000/svg" viewBox="0 0 399.74 512.5"><defs><style>.cls-1,.cls-4,.cls-7,.cls-9{fill:#fff;}.cls-2{fill:#142348;}.cls-3{fill:#d8e563;}.cls-4,.cls-5,.cls-7,.cls-9{stroke:#112349;}.cls-4,.cls-5{stroke-linecap:round;stroke-linejoin:round;}.cls-4{stroke-width:1.2px;}.cls-5,.cls-6{fill:none;}.cls-5{stroke-width:1.41px;}.cls-6{stroke:#142348;stroke-width:1.17px;}.cls-6,.cls-7,.cls-9{stroke-miterlimit:10;}.cls-7{stroke-width:1.36px;}.cls-8{fill:#112349;}.cls-9{stroke-width:1.32px;}</style></defs><title>produccion-audiovisual_1</title><g id="Capa_2" data-name="Capa 2"><g id="Layer_1" data-name="Layer 1"><rect class="cls-1" y="0.5" width="399.74" height="512"/><path class="cls-2" d="M234.17,162.1h-68.6c-1.3,0-2.4.6-2.4,1.3s1.1,1.3,2.4,1.3h68.6c1.3,0,2.4-.6,2.4-1.3s-1.1-1.3-2.4-1.3Z"/><ellipse class="cls-3" cx="204.67" cy="130.4" rx="130.4" ry="129.9"/><polygon class="cls-4" points="294.47 106 297.77 112.7 305.17 113.8 299.87 119 301.07 126.3 294.47 122.9 287.87 126.3 289.17 119 283.77 113.8 291.17 112.7 294.47 106"/><circle class="cls-5" cx="203.87" cy="130.5" r="129.8"/><path class="cls-5" d="M139,219.3a110.25,110.25,0,0,1-40.4-56.9"/><path class="cls-5" d="M309.47,161.4a110.22,110.22,0,0,1-28,47.1"/><path class="cls-5" d="M97.27,103.7a110,110,0,0,1,211.4-6.5"/><polygon class="cls-4" points="154.57 46.2 157.87 52.9 165.27 54 159.87 59.2 161.17 66.5 154.57 63 147.97 66.5 149.17 59.2 143.87 54 151.27 52.9 154.57 46.2"/><path class="cls-1" d="M259.17,193.4H153.37a1.16,1.16,0,0,1-1.2-1.2V110.4a1.16,1.16,0,0,1,1.2-1.2h105.8a1.16,1.16,0,0,1,1.2,1.2v81.8A1.16,1.16,0,0,1,259.17,193.4Z"/><path class="cls-1" d="M153.07,113.7l101.7-31.9a.57.57,0,0,0,.4-.7L248.87,61a.57.57,0,0,0-.7-.4L146.47,92.5a.57.57,0,0,0-.4.7l6.3,20.1C152.37,113.6,152.67,113.8,153.07,113.7Z"/><path class="cls-2" d="M236.47,148.9h-71.2c-1.4,0-2.5.5-2.5,1.2s1.1,1.2,2.5,1.2h71.2c1.4,0,2.5-.5,2.5-1.2s-1.2-1.2-2.5-1.2Z"/><path class="cls-6" d="M257.87,109h-81.8c-6.4,0-6.2.4-.2-1.4l78.2-24.2a2.47,2.47,0,0,0,1.6-3.1l-5.2-16.9a2.49,2.49,0,0,0-3.1-1.7L149,92.3a2.47,2.47,0,0,0-1.6,3.1l5.1,16.5V191a2.48,2.48,0,0,0,2.5,2.5H258a2.48,2.48,0,0,0,2.5-2.5V111.6a2.65,2.65,0,0,0-2.6-2.6Zm-14.6,5.7-11.9,11.9a.37.37,0,0,1-.3.1h-14.8a.4.4,0,0,1-.3-.7l11.9-11.9a.37.37,0,0,1,.3-.1H243C243.37,114,243.47,114.4,243.27,114.7Zm-23.1.2-11.7,11.7a.52.52,0,0,1-.4.2h-14.5a.54.54,0,0,1-.4-.9l11.7-11.7a.52.52,0,0,1,.4-.2h14.5A.53.53,0,0,1,220.17,114.9Zm-22.8-.3-11.9,11.9a.37.37,0,0,1-.3.1h-14.8c-.4,0-.5-.4-.3-.7L182,114a.37.37,0,0,1,.3-.1h14.8C197.47,114,197.67,114.4,197.37,114.6Zm-22.9,0-11.9,11.9a.37.37,0,0,1-.3.1h-4.5a.43.43,0,0,1-.4-.4V114.3a.43.43,0,0,1,.4-.4h16.4C174.47,114,174.67,114.4,174.47,114.6Zm72-47.3,3.8,12.1-4.8,1.5-15.9-8.4Zm-23.7,7.3,15.9,8.4-15.2,4.7-15.9-8.4Zm-21.9,6.8,15.9,8.4-15.2,4.7-15.9-8.4ZM179,88.2l15.9,8.4-15.2,4.7-15.9-8.4Zm-26.2,8.1L157,95l15.9,8.4-16.4,5.1Zm98.6,92.2h-91a3,3,0,0,1-3-3V134.4a2.8,2.8,0,0,1,2.8-2.8h91.9a3.37,3.37,0,0,1,3.4,3.4v49.4A4.18,4.18,0,0,1,251.37,188.5Zm3.3-61.8H240a.7.7,0,0,1-.5-1.2l11.3-11.3a.76.76,0,0,1,.5-.2h3.4a.68.68,0,0,1,.7.7V126A.68.68,0,0,1,254.67,126.7Z"/><polygon class="cls-7" points="323.07 199.2 50.47 221.7 38.77 276.6 59.27 274.8 57.47 283 310.27 260.5 323.07 199.2"/><path class="cls-8" d="M67,233.8l11.7-1c6.8-.6,8.1,4.1,7,9-1.4,6.8-6.3,10.2-12.6,10.8l-3.6.3L66.67,266l-6.7.6Zm3.6,14.3,3-.3c2.6-.2,4.8-1.9,5.5-5.3.7-3.2-.2-4.9-3.6-4.7l-2.8.2Z"/><path class="cls-8" d="M90.87,231.8l12.4-1.1c5.5-.5,8.2,2.1,7,7.7-.9,4.4-3.3,7.5-7.2,8.6v.1c4.4.2,4.6,2.6,3.2,9.5-.7,3.4-.9,5.2.2,5.7l-.1.3-7.2.6c-.5-.9-.3-2.1-.1-3.4l1.1-6.3c.4-2.6-.4-4-3.1-3.8l-3.6.3-2.9,13.9-6.7.6Zm3.6,13.7,2.8-.2c3.2-.3,5.3-1.8,6.1-5.3.6-3-.7-4.4-3.7-4.1l-3.2.3Z"/><path class="cls-8" d="M127.17,228c10-.9,9.8,6.1,7.7,16.1s-4.9,17.1-14.9,18-9.8-6.1-7.7-16.1S117.17,228.9,127.17,228ZM121,257.2c3.9-.3,5.3-3.7,7.2-12.6s1.9-12.1-2-11.8-5.3,3.8-7.2,12.6S117.07,257.6,121,257.2Z"/><path class="cls-8" d="M142.37,227.4l11-.9c9.3-.8,9.6,5.3,7.6,15-2.5,11.6-6.1,17.1-14.9,17.8l-10.5.9Zm.8,27.3,3-.3c4.6-.4,6.2-3.4,8.1-12.3,1.6-7.4,1.8-11.2-3.3-10.8l-2.8.2Z"/><path class="cls-8" d="M174.77,224.6,170,247.5c-.7,3.3-.4,5.6,2.7,5.4s4.4-2.8,5.1-6l4.8-22.9,6.7-.6-4.8,22.9c-1.8,8.4-7.4,11-12.8,11.5s-10.2-.9-8.4-9.6l4.8-22.9Z"/><path class="cls-8" d="M205.07,232.8c1-4.8.5-6.8-2.5-6.5-3.4.3-4.9,3.7-6.8,13-2.1,9.9-1.1,11.6,1.8,11.3,2.4-.2,4.4-1.6,5.9-8.7l6.7-.6c-1.5,7.1-4.5,13.3-13.3,14.1-10,.9-9.8-6.1-7.7-16.1s4.9-17.1,14.9-18c9.6-.8,8.8,6,7.8,10.8Z"/><path class="cls-8" d="M229.77,230.7c1-4.8.5-6.8-2.6-6.5-3.4.3-4.9,3.7-6.8,13-2.1,9.9-1.1,11.6,1.8,11.3,2.4-.2,4.4-1.6,5.9-8.7l6.7-.6c-1.5,7.1-4.5,13.3-13.3,14.1-10,.9-9.8-6.1-7.7-16.1s4.9-17.1,14.9-18c9.6-.8,8.8,6,7.8,10.8Z"/><path class="cls-8" d="M236.07,251.5l6.9-32.8,6.7-.6-6.9,32.8Z"/><path class="cls-8" d="M265.17,216.1c10-.9,9.8,6.1,7.7,16.1s-4.9,17.1-14.9,18-9.8-6.1-7.7-16.1S255.17,217,265.17,216.1ZM259,245.3c3.9-.3,5.3-3.7,7.2-12.6s1.9-12.1-2-11.8-5.3,3.8-7.2,12.6S255.07,245.7,259,245.3Zm7.4-37,6.4-.6-6,7-4.4.4Z"/><path class="cls-8" d="M287.77,214.8l3.3,21.8h.1l4.7-22.4,6.1-.5-6.9,32.8-7.6.7-3.3-22.2h-.1l-4.8,23-6.1.5,6.9-32.8Z"/><polygon class="cls-9" points="360.97 248.9 94.97 273.5 86.07 330.2 343.37 307.4 344.57 300.4 352.07 299.6 360.97 248.9"/><path class="cls-8" d="M112.47,283.6l8.3-.7,1.9,32-7,.6-.1-6.8-8.8.8-3,7.1-7,.6Zm-3.4,20.4,6.5-.6-.1-14.5h-.1Z"/><path class="cls-8" d="M137.87,281.4l-4.8,22.9c-.7,3.3-.4,5.6,2.7,5.4s4.4-2.8,5.1-6l4.8-22.9,6.7-.6-4.8,22.9c-1.8,8.4-7.4,11-12.8,11.5s-10.2-.9-8.4-9.6l4.8-22.9Z"/><path class="cls-8" d="M156.67,279.8l11-.9c9.3-.8,9.6,5.3,7.6,15-2.5,11.6-6.1,17.1-14.9,17.8l-10.5.9Zm.8,27.3,3-.3c4.6-.4,6.2-3.4,8.1-12.3,1.6-7.4,1.8-11.2-3.3-10.8l-2.8.2Z"/><path class="cls-8" d="M176.27,310.3l6.9-32.8,6.7-.6L183,309.7Z"/><path class="cls-8" d="M205.27,275c10-.9,9.8,6.1,7.7,16.1s-4.9,17.1-14.9,18-9.8-6.1-7.7-16.1S195.27,275.9,205.27,275Zm-6.1,29.2c3.9-.3,5.3-3.7,7.2-12.6s1.9-12.1-2-11.8-5.3,3.8-7.2,12.6S195.17,304.5,199.17,304.2Z"/><path class="cls-8" d="M225.17,273.9l-.4,23.8h.1l10-24.7,6.9-.6-14.5,33.4-8.6.7-.7-32.1Z"/><path class="cls-8" d="M237.47,305l6.9-32.8,6.7-.6-6.9,32.8Z"/><path class="cls-8" d="M256.47,293.3l-.2,1c-.6,3.1-.2,5,3.3,4.7a5.35,5.35,0,0,0,4.8-4.4c.6-3-.7-4-4.8-5.1-5.5-1.5-7.7-3.7-6.6-9.2,1.3-6.4,6-10,12.3-10.5,5.9-.5,9.7,1.6,8.4,7.9l-.2.9-6.4.6c.6-3.1,0-4.8-2.6-4.6a4.84,4.84,0,0,0-4.6,4.1c-.4,2-.1,3.2,2.5,4.2l4.7,1.8c4.6,1.7,5.3,4.1,4.5,8.1-1.5,6.9-6.4,10.4-13.6,11-7.6.7-9.8-2.6-8.5-8.6l.3-1.3Z"/><path class="cls-8" d="M286,268.7l-4.8,22.9c-.7,3.3-.4,5.6,2.7,5.4s4.4-2.8,5.1-6l4.8-22.9,6.7-.6-4.8,22.9c-1.8,8.4-7.4,11-12.8,11.5s-10.2-.9-8.4-9.6l4.8-22.9Z"/><path class="cls-8" d="M310.87,266.5l8.3-.7,1.9,32-7,.6-.1-6.8-8.8.8-3,7.1-7,.6Zm-3.4,20.4,6.5-.6-.1-14.5h-.1Z"/><path class="cls-8" d="M323.17,297.7l6.9-32.8,6.7-.6L331,291.7l11.8-1-1.1,5.4Z"/></g></g></svg>