<svg xmlns="http://www.w3.org/2000/svg" viewBox="0 0 399.74 512.7"><defs><style>.cls-1,.cls-4,.cls-5,.cls-6{fill:#fff;}.cls-2{fill:#f49e40;}.cls-3{fill:none;stroke-width:1.41px;}.cls-3,.cls-4,.cls-6{stroke:#112349;}.cls-3,.cls-4{stroke-linecap:round;stroke-linejoin:round;}.cls-4{stroke-width:1.2px;}.cls-5{stroke:#142348;stroke-width:1.57px;}.cls-5,.cls-6{stroke-miterlimit:10;}.cls-6{stroke-width:1.36px;}.cls-7{fill:#112349;}</style></defs><title>produccion-sonora_1</title><g id="Capa_2" data-name="Capa 2"><g id="Layer_1" data-name="Layer 1"><rect class="cls-1" y="0.7" width="399.74" height="512"/><ellipse class="cls-2" cx="199.67" cy="132.7" rx="132.6" ry="132"/><circle class="cls-3" cx="200.67" cy="132.7" r="132"/><path class="cls-3" d="M134.67,223a111.75,111.75,0,0,1-41-57.9"/><path class="cls-3" d="M308.07,164.1a113,113,0,0,1-28.5,47.9"/><path class="cls-3" d="M92.27,105.4a111.9,111.9,0,0,1,215.1-6.6"/><polygon class="cls-4" points="143.17 82.1 146.47 88.9 153.97 90 148.57 95.3 149.87 102.8 143.17 99.2 136.37 102.8 137.67 95.3 132.27 90 139.77 88.9 143.17 82.1"/><polygon class="cls-4" points="275.97 137.8 279.37 144.6 286.87 145.7 281.37 151 282.67 158.4 275.97 154.9 269.27 158.4 270.57 151 265.17 145.7 272.67 144.6 275.97 137.8"/><path class="cls-5" d="M239.47,65.8l-55.6,17c-12.8,4.9-12.2,8.9-12.2,15.7v58.6s-4-2.7-13-1.4c-13.2,1.9-23.8,12-23.8,22.6s10.7,17.1,23.8,15.2,22.8-11.7,22.8-22.3v-50c0-4.7,5.6-6.7,5.6-6.7l49.1-15.4s5.4-1.8,5.4,3.2v40.2h0s-5-2.9-14-1.8c-13.2,1.6-23.8,11.5-23.8,22.1s10.7,17.3,23.8,15.7,23.8-11.5,23.8-22.1V74.6C251.67,67.7,251,61.1,239.47,65.8Z"/><polygon class="cls-6" points="341.97 210.8 69.37 233.3 57.77 286.9 78.17 285.1 76.47 293.3 329.17 270.8 341.97 210.8"/><path class="cls-7" d="M84.87,246.2l11.6-1c6.7-.6,8,4.1,7,8.9-1.4,6.7-6.2,10.1-12.5,10.7l-3.5.3L84.77,278l-6.6.6Zm3.5,14.1,2.9-.3c2.6-.2,4.7-1.9,5.4-5.2s-.2-4.9-3.5-4.6l-2.8.2Z"/><path class="cls-7" d="M108.47,244.2l12.2-1.1c5.4-.5,8.1,2.1,7,7.6-.9,4.3-3.3,7.4-7.2,8.5v.1c4.4.2,4.5,2.6,3.2,9.4-.7,3.4-.9,5.2.2,5.7l-.1.3-7.2.6a5.24,5.24,0,0,1-.1-3.3l1.1-6.2c.4-2.5-.4-4-3-3.7l-3.5.3-2.9,13.7-6.6.6Zm3.6,13.6,2.8-.2c3.2-.3,5.2-1.8,6-5.3.6-3-.7-4.4-3.6-4.1l-3.1.3Z"/><path class="cls-7" d="M144.37,240.5c9.9-.9,9.7,6,7.6,15.9s-4.8,16.9-14.7,17.8-9.7-6-7.6-15.9S134.37,241.3,144.37,240.5Zm-6.1,28.8c3.9-.3,5.2-3.7,7.1-12.4s1.9-12-2-11.6-5.3,3.7-7.1,12.4S134.37,269.7,138.27,269.3Z"/><path class="cls-7" d="M159.37,239.8l10.8-.9c9.2-.8,9.5,5.3,7.5,14.8-2.4,11.5-6,16.9-14.8,17.6l-10.4.9Zm.8,27,2.9-.3c4.6-.4,6.1-3.3,8-12.1,1.6-7.3,1.8-11.1-3.3-10.6l-2.8.2Z"/><path class="cls-7" d="M191.37,237l-4.8,22.6c-.7,3.2-.4,5.6,2.7,5.3s4.4-2.7,5-6l4.8-22.6,6.6-.6-4.8,22.6c-1.7,8.3-7.3,10.9-12.7,11.3s-10.1-.9-8.3-9.5l4.8-22.6Z"/><path class="cls-7" d="M221.37,245.2c1-4.7.5-6.7-2.5-6.4-3.4.3-4.8,3.7-6.8,12.8-2.1,9.8-1.1,11.5,1.8,11.2,2.4-.2,4.4-1.6,5.9-8.6l6.6-.6c-1.5,7-4.5,13.2-13.2,13.9-9.9.9-9.7-6-7.6-15.9s4.8-16.9,14.7-17.8c9.5-.8,8.7,6,7.7,10.7Z"/><path class="cls-7" d="M245.77,243.1c1-4.7.5-6.7-2.5-6.4-3.4.3-4.8,3.7-6.8,12.8-2.1,9.8-1.1,11.4,1.8,11.2,2.4-.2,4.4-1.6,5.9-8.6l6.6-.6c-1.5,7-4.5,13.2-13.2,13.9-9.9.9-9.7-6-7.6-15.9s4.8-16.9,14.7-17.8c9.5-.8,8.7,6,7.7,10.7Z"/><path class="cls-7" d="M252,263.6l6.8-32.4,6.6-.6-6.8,32.4Z"/><path class="cls-7" d="M280.67,228.7c9.9-.9,9.7,6,7.6,15.9s-4.8,16.9-14.7,17.8-9.7-6-7.6-15.9S270.77,229.6,280.67,228.7Zm-6.1,28.9c3.9-.3,5.2-3.7,7.1-12.4s1.9-12-2-11.6-5.3,3.7-7.1,12.4S270.67,257.9,274.57,257.6Zm7.3-36.6,6.3-.5-5.9,6.9-4.3.4Z"/><path class="cls-7" d="M303.07,227.4l3.3,21.5h.1l4.7-22.2,6.1-.5-6.8,32.4-7.5.6-3.3-22h-.1l-4.8,22.7-6.1.5,6.8-32.4Z"/><polygon class="cls-6" points="293.67 268.3 114.57 283.8 104.97 340.5 274.97 326.7 276.27 319.7 284.17 319 293.67 268.3"/><path class="cls-7" d="M125.77,319.6l-.2,1c-.6,3-.2,4.9,3.3,4.6a5.45,5.45,0,0,0,4.8-4.3c.6-2.9-.7-3.9-4.7-5-5.5-1.5-7.7-3.7-6.5-9.1,1.3-6.3,5.9-9.9,12.2-10.4,5.9-.5,9.6,1.6,8.3,7.8l-.2.9-6.4.6c.6-3,0-4.7-2.6-4.5a4.84,4.84,0,0,0-4.6,4.1c-.4,2-.1,3.2,2.5,4.1l4.6,1.7c4.5,1.7,5.3,4.1,4.4,8-1.4,6.9-6.3,10.3-13.5,10.9-7.5.6-9.7-2.6-8.4-8.5l.3-1.3Z"/><path class="cls-7" d="M159.37,294.2c9.9-.9,9.7,6,7.6,15.9s-4.8,16.9-14.7,17.8-9.7-6-7.6-15.9S149.47,295.1,159.37,294.2Zm-6.1,28.9c3.9-.3,5.2-3.7,7.1-12.4s1.9-12-2-11.6-5.3,3.7-7.1,12.4S149.37,323.4,153.27,323.1Z"/><path class="cls-7" d="M181.67,292.9l3.3,21.5h.1l4.7-22.2,6.1-.5-6.8,32.4-7.5.6-3.3-22h-.1l-4.8,22.7-6.1.5,6.8-32.4Z"/><path class="cls-7" d="M210.77,289.8c9.9-.9,9.7,6,7.6,15.9s-4.8,16.9-14.7,17.8-9.7-6-7.6-15.9S200.87,290.7,210.77,289.8Zm-6.1,28.9c3.9-.3,5.2-3.7,7.1-12.4s1.9-12-2-11.6-5.3,3.7-7.1,12.4S200.77,319,204.67,318.7Z"/><path class="cls-7" d="M225.47,289.2l12.2-1.1c5.4-.5,8.1,2.1,7,7.6-.9,4.3-3.3,7.4-7.2,8.5v.1c4.4.2,4.5,2.6,3.2,9.4-.7,3.4-.9,5.2.2,5.7l-.1.3-7.2.6a5.24,5.24,0,0,1-.1-3.3l1.1-6.2c.4-2.5-.4-4-3-3.7l-3.5.3-2.9,13.7-6.6.6Zm3.7,13.5,2.8-.2c3.2-.3,5.2-1.8,6-5.3.6-3-.7-4.4-3.6-4.1l-3.1.3Z"/><path class="cls-7" d="M257.17,286.4l8.2-.7,1.8,31.6-6.9.6-.1-6.7-8.7.8-3,7-6.9.6Zm-3.4,20.1,6.4-.6-.1-14.3H260Z"/></g></g></svg>