<svg xmlns="http://www.w3.org/2000/svg" viewBox="0 0 399.74 512.6"><defs><style>.cls-1,.cls-5,.cls-6,.cls-8{fill:#fff;}.cls-2{fill:#70c936;}.cls-3,.cls-4{fill:none;}.cls-3,.cls-4,.cls-5,.cls-6,.cls-8{stroke:#112349;}.cls-3,.cls-4,.cls-5{stroke-linecap:round;stroke-linejoin:round;}.cls-3{stroke-width:1.41px;}.cls-4{stroke-width:1.7px;}.cls-5{stroke-width:1.2px;}.cls-6,.cls-8{stroke-miterlimit:10;}.cls-6{stroke-width:1.36px;}.cls-7{fill:#112349;}.cls-8{stroke-width:1.32px;}</style></defs><title>trabajo-colaborativo_1</title><g id="Capa_2" data-name="Capa 2"><g id="Layer_1" data-name="Layer 1"><rect class="cls-1" y="0.6" width="399.74" height="512"/><ellipse class="cls-2" cx="200.12" cy="130.4" rx="130.2" ry="129.8"/><circle class="cls-1" cx="169.82" cy="100.5" r="11"/><circle class="cls-1" cx="228.72" cy="100.5" r="11"/><circle class="cls-3" cx="198.92" cy="130.3" r="129.6"/><path class="cls-3" d="M134.12,219a110.23,110.23,0,0,1-40.3-56.8"/><path class="cls-3" d="M304.32,161.1a110.68,110.68,0,0,1-27.9,47"/><path class="cls-3" d="M92.42,103.5A109.79,109.79,0,0,1,303.52,97"/><path class="cls-1" d="M245,209.1V192.2a10.07,10.07,0,0,1,.3-2.5c-2.5-5.4.2-13.5,8-13.5a4.87,4.87,0,0,1,1.2.1V130.2c-4.6-5.1-8.2-11.3-15.4-11.7-4.3-.2-8.2.2-12.1-.3a8.85,8.85,0,0,1-2.9.4,8.39,8.39,0,0,1-8.2-5.4c-7.7-7-11.6-19.9-12-31.2h-10.1a10.28,10.28,0,0,1-.1,4.6c-2.4,8.9-5,18.2-10.3,24.7a8.34,8.34,0,0,1-7.8,6.1,26.07,26.07,0,0,1-11.7,2.1,14.36,14.36,0,0,1-7.4-2.3,9.63,9.63,0,0,1-7.2,4.5,10.34,10.34,0,0,1-3.4,4.9v49.8a6.9,6.9,0,0,1,2.5.4c8.7.5,10.5,11.4,5.4,16.1-.3,5.3.7,10.7,1.1,16h29a.6.6,0,0,1,.1-.4c1.3-5.2.6-11,.4-16.4a78.88,78.88,0,0,1,.4-10.9,27.85,27.85,0,0,1-.3-7.6,18.14,18.14,0,0,1-1.8-8.7,45.11,45.11,0,0,1,1.8-10.7,9.27,9.27,0,0,1,.8-8.7,12.61,12.61,0,0,1-.6-7,23.21,23.21,0,0,1,2.2-5.7c.5-1,3.4-5.7,3.8-6.4,6.7-11.3,10.3-13.1,18.4,0,.8,1.2-.1,2.8-.3,4.1a15.76,15.76,0,0,1,2.4,1.5c4.2,3.3,3.9,8.5,3.7,13.3,0,1.3-.1,2.6-.1,3.8a10.71,10.71,0,0,1,.1,4.7c0,.2-.1.3-.2.5,0,3.4-.1,6.8-.3,10.1a24.34,24.34,0,0,1-1,5.5,22.6,22.6,0,0,1,0,8.2c.1,5.2-.1,10.4.5,15.7.5,4.8,1.4,10.2.8,15.1H245Z"/><path class="cls-4" d="M181.72,100.8a11.83,11.83,0,0,1-12,11.9A12,12,0,1,1,180,94.5,13,13,0,0,1,181.72,100.8Z"/><path class="cls-4" d="M145.92,176.5V134s0-14.6,13.3-14.6h14.6c6.6,0,9.3-2.7,12-8,1.7-3.4,8-23.9,8-23.9"/><path class="cls-4" d="M193.72,88.2a6,6,0,0,1,12,0"/><path class="cls-4" d="M199.52,112.8a38.39,38.39,0,0,1-4.5,9.3c-6.6,9.3-10.6,12-10.6,12v73"/><line class="cls-4" x1="155.22" y1="143.3" x2="155.22" y2="207.1"/><line class="cls-4" x1="169.82" y1="173.2" x2="169.82" y2="207.1"/><circle class="cls-4" cx="229.52" cy="100.8" r="12"/><path class="cls-4" d="M253.42,176.5V134s0-14.6-13.3-14.6h-14.6c-6.6,0-9.3-2.7-12-8-1.7-3.4-8-23.9-8-23.9"/><path class="cls-4" d="M205.62,88.2a6,6,0,1,0-12,0"/><path class="cls-4" d="M193.72,88.9s4,23.9,10.6,33.2,10.6,12,10.6,12v73"/><line class="cls-4" x1="244.12" y1="143.3" x2="244.12" y2="207.1"/><line class="cls-4" x1="229.52" y1="173.2" x2="229.52" y2="207.1"/><line class="cls-4" x1="181.72" y1="69" x2="189.72" y2="76.9"/><line class="cls-4" x1="217.62" y1="69" x2="209.62" y2="76.9"/><line class="cls-4" x1="199.72" y1="63.3" x2="199.72" y2="74.6"/><polygon class="cls-5" points="270.52 100.5 273.82 107.2 281.22 108.2 275.92 113.4 277.12 120.8 270.52 117.3 263.92 120.8 265.22 113.4 259.92 108.2 267.22 107.2 270.52 100.5"/><polygon class="cls-5" points="128.92 78.4 132.22 85.1 139.62 86.1 134.32 91.3 135.52 98.7 128.92 95.2 122.32 98.7 123.62 91.3 118.32 86.1 125.62 85.1 128.92 78.4"/><polygon class="cls-6" points="291.72 207.5 100.82 223.4 89.72 274.8 110.12 273.1 108.42 281.3 279.42 265.5 291.72 207.5"/><path class="cls-7" d="M135.92,231.1l-1.1,5.4-7.2.6-5.7,27.1-6.6.6,5.7-27.1-7.2.6,1.1-5.4Z"/><path class="cls-7" d="M138.52,230.9l12.2-1.1c5.4-.5,8.1,2.1,7,7.6-.9,4.3-3.3,7.4-7.2,8.5v.1c4.4.2,4.6,2.6,3.2,9.4-.7,3.4-.9,5.2.2,5.7l-.1.3-7.2.6a5.24,5.24,0,0,1-.1-3.3l1.1-6.2c.4-2.5-.4-4-3-3.8l-3.5.3-2.9,13.7-6.6.6Zm3.6,13.6,2.8-.2c3.2-.3,5.3-1.8,6-5.3.6-3-.7-4.4-3.6-4.1l-3.1.3Z"/><path class="cls-7" d="M170.22,228.1l8.2-.7,1.8,31.7-6.9.6-.1-6.7-8.7.8-3,7-6.9.6Zm-3.4,20.2,6.4-.6-.1-14.3H173Z"/><path class="cls-7" d="M189.22,226.5l11.1-1c5.4-.5,8.9,1.2,7.6,7.4a9.74,9.74,0,0,1-6.5,7.5v.1c3.5.2,5.3,2.7,4.4,7-1.1,5.1-4.5,9.7-12.3,10.4l-11.2,1Zm.8,27,2.6-.2c3.2-.3,5.6-1.6,6.4-5.4s-1.1-4.7-4-4.4l-2.9.2Zm3-14.3,1.9-.2c3.6-.3,5.5-1.7,6.2-4.7s-.6-4.1-3.9-3.8l-2.4.2Z"/><path class="cls-7" d="M220.92,223.8l8.2-.7,1.8,31.7-6.9.6-.1-6.7-8.7.8-3,7-6.9.6Zm-3.4,20.1,6.4-.6-.1-14.3h-.1Z"/><path class="cls-7" d="M256.82,220.7l-4.9,23.4c-1.5,6.9-5.2,10-11.9,10.6-7,.6-7.8-3.7-6.7-8.7l.3-1.4,6.1-.5-.2,1c-.7,3.5-.5,5,1.9,4.8s3.3-1.9,4-5.3l4.9-23.2Z"/><path class="cls-7" d="M271.52,218.8c9.9-.9,9.7,6,7.6,15.9s-4.8,17-14.7,17.8-9.7-6-7.6-15.9S261.62,219.6,271.52,218.8Zm-6.1,28.9c3.9-.3,5.3-3.7,7.1-12.4s1.9-12-2-11.6-5.3,3.8-7.1,12.4S261.52,248,265.42,247.7Z"/><polygon class="cls-8" points="360.42 257.8 48.22 285.9 39.32 342.7 342.82 316.3 344.02 309.2 351.42 308.5 360.42 257.8"/><path class="cls-7" d="M73.22,306.9c1-4.7.5-6.7-2.5-6.4-3.4.3-4.8,3.7-6.8,12.8-2.1,9.8-1.1,11.5,1.8,11.2,2.4-.2,4.4-1.6,5.9-8.6l6.6-.6c-1.5,7-4.5,13.2-13.2,13.9-9.9.9-9.7-6-7.6-15.9s4.8-17,14.7-17.8c9.5-.8,8.7,6,7.7,10.7Z"/><path class="cls-7" d="M96.52,293.6c9.9-.9,9.7,6,7.6,15.9s-4.8,17-14.7,17.8-9.7-6-7.6-15.9S86.62,294.4,96.52,293.6Zm-6.1,28.9c3.9-.3,5.3-3.7,7.1-12.4s1.9-12-2-11.6-5.3,3.8-7.1,12.4S86.52,322.8,90.42,322.5Z"/><path class="cls-7" d="M104.42,325.4l6.9-32.4,6.6-.6-5.7,27.1,11.7-1-1.1,5.4Z"/><path class="cls-7" d="M138.72,290.6l8.2-.7,1.8,31.7-6.9.6-.1-6.7-8.7.8-3,7-6.9.6Zm-3.4,20.1,6.4-.6-.1-14.3h-.1Z"/><path class="cls-7" d="M157.72,288.9l11.1-1c5.4-.5,8.9,1.2,7.6,7.4a9.74,9.74,0,0,1-6.5,7.5v.1c3.5.2,5.3,2.7,4.4,7-1.1,5.1-4.5,9.7-12.3,10.4l-11.2,1Zm.8,27.1,2.6-.2c3.2-.3,5.6-1.6,6.4-5.4s-1.1-4.7-4-4.4l-2.9.2Zm3-14.3,1.9-.2c3.6-.3,5.5-1.7,6.2-4.7s-.6-4.1-3.9-3.8l-2.4.2Z"/><path class="cls-7" d="M193.62,285.2c9.9-.9,9.7,6,7.6,15.9s-4.8,17-14.7,17.8-9.7-6-7.6-15.9S183.72,286.1,193.62,285.2Zm-6.1,28.9c3.9-.3,5.3-3.7,7.1-12.4s1.9-12-2-11.6-5.3,3.8-7.1,12.4S183.62,314.4,187.52,314.1Z"/><path class="cls-7" d="M208.32,284.6l12.2-1.1c5.4-.5,8.1,2.1,7,7.6-.9,4.3-3.3,7.4-7.2,8.5v.1c4.4.2,4.6,2.6,3.2,9.4-.7,3.4-.9,5.2.2,5.7l-.1.3-7.2.6a5.24,5.24,0,0,1-.1-3.3l1.1-6.2c.4-2.5-.4-4-3-3.8l-3.5.3L208,316.4l-6.6.6Zm3.7,13.6,2.8-.2c3.2-.3,5.3-1.8,6-5.3.6-3-.7-4.4-3.6-4.1l-3.1.3Z"/><path class="cls-7" d="M240.12,281.8l8.2-.7,1.8,31.7-6.9.6-.1-6.7-8.7.8-3,7-6.9.6Zm-3.4,20.2,6.4-.6-.1-14.3h-.1Z"/><path class="cls-7" d="M275.72,278.7l-1.1,5.4-7.2.6-5.7,27.1-6.6.6,5.7-27.1-7.2.6,1.1-5.4Z"/><path class="cls-7" d="M271.82,310.9l6.9-32.4,6.6-.6-6.9,32.4Z"/><path class="cls-7" d="M294.92,277.1l-.4,23.6h.1l9.9-24.4,6.9-.6L297,308.8l-8.5.7-.7-31.8Z"/><path class="cls-7" d="M324.22,273.9c9.9-.9,9.7,6,7.6,15.9s-4.8,17-14.7,17.8-9.7-6-7.6-15.9S314.32,274.8,324.22,273.9Zm-6.1,28.9c3.9-.3,5.3-3.7,7.1-12.4s1.9-12-2-11.6-5.3,3.8-7.1,12.4S314.22,303.2,318.12,302.8Z"/></g></g></svg>