<svg xmlns="http://www.w3.org/2000/svg" viewBox="0 0 48.84 48.76"><defs><style>.cls-1{fill:#1b2647;}</style></defs><title>icono_pelota</title><g id="Capa_2" data-name="Capa 2"><g id="Capa_1-2" data-name="Capa 1"><path class="cls-1" d="M45.31,23.33l1.6-8.23-3.53-.69.46-2.35-2.36-.45.46-2.35L36.06,8.12,37,3.42,19.34,0l-.91,4.7L12.56,3.56,12.1,5.91,9.75,5.46,9.29,7.81,5.77,7.12l-1.6,8.23L1.82,14.9,0,24.3l2.35.46L.53,34.16l3.52.68L3.6,37.19,6,37.65l-.68,3.52,5.87,1.14-.45,2.35,21.15,4.1.46-2.35,2.35.46.68-3.53,2.35.46.46-2.35,2.35.45L41.63,36l4.7.91L48.84,24Zm-4.86,6.22-1.63,8.37L34.12,37l-.68,3.53-1.18-.23.91-4.7-3.52-.69-.91,4.71,2.35.45-.69,3.53L11.6,40l.68-3.52,1.18.22.91-4.7,2.35.46L17,31.24l-2.35-.45L14.37,32l-3.53-.68L9.93,36l-1.17-.23.68-3.52-4.7-.91,1.08-5.6,1-5,2.35.45,1.14-5.87,4.7.91.45-2.35-.22-.05c-1.25-.24-2.62-.19-3.87-.42-.15,0-.72.16-.71.1l1-5.25L15.17,9l.46-2.35L18,7.05l.22-1.17L24.08,7l-.68,3.52,2.35.46-.91,4.7-4.7-.91-.46,2.35L15,16.23l-.46,2.35,2.35.45-1.36,7.06,2.35.45L17,31.24,28.7,33.52l1.14-5.88,1.18.23L32.15,22l3.53.68.46-2.35-4.71-.91.46-2.35-4.7-.92.91-4.7h0l.68-3.52,7.06,1.36-.23,1.18,3.52.68-.45,2.35L41,14l-1,5.09.06-.31v-.08h0l-.21,1.06.18-1.06L36.59,18l-.45,2.35,3.52.68-1.14,5.88,2.35.45Z"/><path class="cls-1" d="M28,34.91l1.53.3.3-1.54-1.53-.29Z"/></g></g></svg>